G04*
G04 #@! TF.GenerationSoftware,Altium Limited,Altium Designer,22.4.2 (48)*
G04*
G04 Layer_Color=32896*
%FSLAX24Y24*%
%MOIN*%
G70*
G04*
G04 #@! TF.SameCoordinates,3D4B7757-4479-4088-A00E-F10E6AE17A54*
G04*
G04*
G04 #@! TF.FilePolarity,Positive*
G04*
G01*
G75*
%ADD10C,0.0100*%
%ADD11C,0.0079*%
%ADD12C,0.0098*%
%ADD17C,0.0050*%
D10*
X32661Y16070D02*
Y16670D01*
X32361D01*
X32261Y16570D01*
Y16370D01*
X32361Y16270D01*
X32661D01*
X32461D02*
X32261Y16070D01*
X32061D02*
X31861D01*
X31961D01*
Y16670D01*
X32061Y16570D01*
X31161Y16670D02*
X31561D01*
Y16370D01*
X31361Y16470D01*
X31261D01*
X31161Y16370D01*
Y16170D01*
X31261Y16070D01*
X31461D01*
X31561Y16170D01*
X26531Y8300D02*
X26631Y8400D01*
X26831D01*
X26931Y8300D01*
Y7900D01*
X26831Y7800D01*
X26631D01*
X26531Y7900D01*
X26331Y7800D02*
X26131D01*
X26231D01*
Y8400D01*
X26331Y8300D01*
X25431Y8400D02*
X25831D01*
Y8100D01*
X25631Y8200D01*
X25531D01*
X25431Y8100D01*
Y7900D01*
X25531Y7800D01*
X25731D01*
X25831Y7900D01*
X27341Y11230D02*
X27441Y11330D01*
X27641D01*
X27741Y11230D01*
Y10830D01*
X27641Y10730D01*
X27441D01*
X27341Y10830D01*
X27141Y10730D02*
X26941D01*
X27041D01*
Y11330D01*
X27141Y11230D01*
X26341Y10730D02*
Y11330D01*
X26641Y11030D01*
X26241D01*
X23661Y9740D02*
X23761Y9840D01*
X23961D01*
X24061Y9740D01*
Y9340D01*
X23961Y9240D01*
X23761D01*
X23661Y9340D01*
X23461Y9240D02*
X23261D01*
X23361D01*
Y9840D01*
X23461Y9740D01*
X22961D02*
X22861Y9840D01*
X22661D01*
X22561Y9740D01*
Y9640D01*
X22661Y9540D01*
X22761D01*
X22661D01*
X22561Y9440D01*
Y9340D01*
X22661Y9240D01*
X22861D01*
X22961Y9340D01*
X25071Y11650D02*
X25171Y11750D01*
X25371D01*
X25471Y11650D01*
Y11250D01*
X25371Y11150D01*
X25171D01*
X25071Y11250D01*
X24871Y11150D02*
X24671D01*
X24771D01*
Y11750D01*
X24871Y11650D01*
X23971Y11150D02*
X24371D01*
X23971Y11550D01*
Y11650D01*
X24071Y11750D01*
X24271D01*
X24371Y11650D01*
X27031Y4400D02*
X27131Y4500D01*
X27331D01*
X27431Y4400D01*
Y4000D01*
X27331Y3900D01*
X27131D01*
X27031Y4000D01*
X26831Y3900D02*
X26631D01*
X26731D01*
Y4500D01*
X26831Y4400D01*
X26331D02*
X26231Y4500D01*
X26031D01*
X25931Y4400D01*
Y4000D01*
X26031Y3900D01*
X26231D01*
X26331Y4000D01*
Y4400D01*
X24031D02*
X24131Y4500D01*
X24331D01*
X24431Y4400D01*
Y4000D01*
X24331Y3900D01*
X24131D01*
X24031Y4000D01*
X23831Y4400D02*
X23731Y4500D01*
X23531D01*
X23431Y4400D01*
Y4300D01*
X23531Y4200D01*
X23431Y4100D01*
Y4000D01*
X23531Y3900D01*
X23731D01*
X23831Y4000D01*
Y4100D01*
X23731Y4200D01*
X23831Y4300D01*
Y4400D01*
X23731Y4200D02*
X23531D01*
X45471Y20400D02*
Y20000D01*
X45271Y19800D01*
X45071Y20000D01*
Y20400D01*
X44871Y19800D02*
Y20400D01*
X44571D01*
X44471Y20300D01*
Y20100D01*
X44571Y20000D01*
X44871D01*
X44671D02*
X44471Y19800D01*
X44271D02*
X44071D01*
X44171D01*
Y20400D01*
X44271Y20300D01*
X41591Y5680D02*
Y5080D01*
X41291D01*
X41191Y5180D01*
Y5580D01*
X41291Y5680D01*
X41591D01*
X40991Y5080D02*
X40791D01*
X40891D01*
Y5680D01*
X40991Y5580D01*
X22341Y15440D02*
X22441Y15540D01*
X22641D01*
X22741Y15440D01*
Y15040D01*
X22641Y14940D01*
X22441D01*
X22341Y15040D01*
X22141Y14940D02*
X21941D01*
X22041D01*
Y15540D01*
X22141Y15440D01*
X21241Y15540D02*
X21441Y15440D01*
X21641Y15240D01*
Y15040D01*
X21541Y14940D01*
X21341D01*
X21241Y15040D01*
Y15140D01*
X21341Y15240D01*
X21641D01*
X31691Y13660D02*
X31791Y13760D01*
X31991D01*
X32091Y13660D01*
Y13260D01*
X31991Y13160D01*
X31791D01*
X31691Y13260D01*
X31491Y13160D02*
X31291D01*
X31391D01*
Y13760D01*
X31491Y13660D01*
X30991Y13160D02*
X30791D01*
X30891D01*
Y13760D01*
X30991Y13660D01*
X20211Y5180D02*
Y5780D01*
X19911D01*
X19811Y5680D01*
Y5480D01*
X19911Y5380D01*
X20211D01*
X20011D02*
X19811Y5180D01*
X19211D02*
X19611D01*
X19211Y5580D01*
Y5680D01*
X19311Y5780D01*
X19511D01*
X19611Y5680D01*
X19011D02*
X18911Y5780D01*
X18711D01*
X18611Y5680D01*
Y5580D01*
X18711Y5480D01*
X18811D01*
X18711D01*
X18611Y5380D01*
Y5280D01*
X18711Y5180D01*
X18911D01*
X19011Y5280D01*
X20211Y6170D02*
Y6770D01*
X19911D01*
X19811Y6670D01*
Y6470D01*
X19911Y6370D01*
X20211D01*
X20011D02*
X19811Y6170D01*
X19211D02*
X19611D01*
X19211Y6570D01*
Y6670D01*
X19311Y6770D01*
X19511D01*
X19611Y6670D01*
X18611Y6170D02*
X19011D01*
X18611Y6570D01*
Y6670D01*
X18711Y6770D01*
X18911D01*
X19011Y6670D01*
X20211Y7170D02*
Y7770D01*
X19911D01*
X19811Y7670D01*
Y7470D01*
X19911Y7370D01*
X20211D01*
X20011D02*
X19811Y7170D01*
X19211D02*
X19611D01*
X19211Y7570D01*
Y7670D01*
X19311Y7770D01*
X19511D01*
X19611Y7670D01*
X19011Y7170D02*
X18811D01*
X18911D01*
Y7770D01*
X19011Y7670D01*
X20181Y8990D02*
Y8390D01*
X20481D01*
X20581Y8490D01*
Y8690D01*
X20481Y8790D01*
X20181D01*
X20381D02*
X20581Y8990D01*
X21181D02*
X20781D01*
X21181Y8590D01*
Y8490D01*
X21081Y8390D01*
X20881D01*
X20781Y8490D01*
X21381D02*
X21481Y8390D01*
X21681D01*
X21781Y8490D01*
Y8890D01*
X21681Y8990D01*
X21481D01*
X21381Y8890D01*
Y8490D01*
X20221Y10020D02*
Y9420D01*
X20521D01*
X20621Y9520D01*
Y9720D01*
X20521Y9820D01*
X20221D01*
X20421D02*
X20621Y10020D01*
X20821D02*
X21021D01*
X20921D01*
Y9420D01*
X20821Y9520D01*
X21321Y9920D02*
X21421Y10020D01*
X21621D01*
X21721Y9920D01*
Y9520D01*
X21621Y9420D01*
X21421D01*
X21321Y9520D01*
Y9620D01*
X21421Y9720D01*
X21721D01*
X20231Y10918D02*
Y10318D01*
X20531D01*
X20631Y10418D01*
Y10618D01*
X20531Y10718D01*
X20231D01*
X20431D02*
X20631Y10918D01*
X20831D02*
X21031D01*
X20931D01*
Y10318D01*
X20831Y10418D01*
X21331D02*
X21431Y10318D01*
X21631D01*
X21731Y10418D01*
Y10518D01*
X21631Y10618D01*
X21731Y10718D01*
Y10818D01*
X21631Y10918D01*
X21431D01*
X21331Y10818D01*
Y10718D01*
X21431Y10618D01*
X21331Y10518D01*
Y10418D01*
X21431Y10618D02*
X21631D01*
X20261Y11945D02*
Y11345D01*
X20561D01*
X20661Y11445D01*
Y11645D01*
X20561Y11745D01*
X20261D01*
X20461D02*
X20661Y11945D01*
X20861D02*
X21061D01*
X20961D01*
Y11345D01*
X20861Y11445D01*
X21361Y11345D02*
X21761D01*
Y11445D01*
X21361Y11845D01*
Y11945D01*
X20211Y13380D02*
Y13980D01*
X19911D01*
X19811Y13880D01*
Y13680D01*
X19911Y13580D01*
X20211D01*
X20011D02*
X19811Y13380D01*
X19611D02*
X19411D01*
X19511D01*
Y13980D01*
X19611Y13880D01*
X18711Y13980D02*
X18911Y13880D01*
X19111Y13680D01*
Y13480D01*
X19011Y13380D01*
X18811D01*
X18711Y13480D01*
Y13580D01*
X18811Y13680D01*
X19111D01*
X20211Y14380D02*
Y14980D01*
X19911D01*
X19811Y14880D01*
Y14680D01*
X19911Y14580D01*
X20211D01*
X20011D02*
X19811Y14380D01*
X19611D02*
X19411D01*
X19511D01*
Y14980D01*
X19611Y14880D01*
X18811Y14380D02*
Y14980D01*
X19111Y14680D01*
X18711D01*
X20211Y15380D02*
Y15980D01*
X19911D01*
X19811Y15880D01*
Y15680D01*
X19911Y15580D01*
X20211D01*
X20011D02*
X19811Y15380D01*
X19611D02*
X19411D01*
X19511D01*
Y15980D01*
X19611Y15880D01*
X19111D02*
X19011Y15980D01*
X18811D01*
X18711Y15880D01*
Y15780D01*
X18811Y15680D01*
X18911D01*
X18811D01*
X18711Y15580D01*
Y15480D01*
X18811Y15380D01*
X19011D01*
X19111Y15480D01*
X19501Y17160D02*
Y17760D01*
X19201D01*
X19101Y17660D01*
Y17460D01*
X19201Y17360D01*
X19501D01*
X19301D02*
X19101Y17160D01*
X18901D02*
X18701D01*
X18801D01*
Y17760D01*
X18901Y17660D01*
X18001Y17160D02*
X18401D01*
X18001Y17560D01*
Y17660D01*
X18101Y17760D01*
X18301D01*
X18401Y17660D01*
X44861Y11140D02*
X44961Y11240D01*
X45161D01*
X45261Y11140D01*
Y10740D01*
X45161Y10640D01*
X44961D01*
X44861Y10740D01*
X44661Y10640D02*
X44461D01*
X44561D01*
Y11240D01*
X44661Y11140D01*
X36971Y18190D02*
X36771D01*
X36871D01*
Y18790D01*
X36971Y18690D01*
D11*
X44688Y3510D02*
G03*
X44688Y3510I-39J0D01*
G01*
X44867Y12587D02*
G03*
X44867Y12587I-39J0D01*
G01*
X37382Y16600D02*
X40020D01*
X37382Y17821D02*
X40020D01*
Y16600D02*
Y17821D01*
X37382Y16600D02*
Y17821D01*
X40180Y10232D02*
X45022D01*
X40180Y5389D02*
X45022D01*
Y9051D02*
Y10232D01*
X40180Y9051D02*
Y10232D01*
X45022Y5389D02*
Y6570D01*
X40180Y5389D02*
Y6570D01*
D12*
X40089Y16059D02*
G03*
X40089Y16059I-49J0D01*
G01*
D17*
X43954Y4262D02*
Y4672D01*
X41248Y4262D02*
Y4672D01*
X43954D01*
X41248Y2349D02*
Y2758D01*
X43954Y2349D02*
Y2758D01*
X41248Y2349D02*
X43954D01*
X41332Y15125D02*
Y16165D01*
Y15125D02*
X45332D01*
Y16165D01*
M02*
