G04*
G04 #@! TF.GenerationSoftware,Altium Limited,Altium Designer,22.4.2 (48)*
G04*
G04 Layer_Physical_Order=1*
G04 Layer_Color=255*
%FSLAX25Y25*%
%MOIN*%
G70*
G04*
G04 #@! TF.SameCoordinates,F61A7644-D23D-4A37-B683-A49046494346*
G04*
G04*
G04 #@! TF.FilePolarity,Positive*
G04*
G01*
G75*
%ADD13C,0.01000*%
%ADD20R,0.03937X0.03740*%
G04:AMPARAMS|DCode=21|XSize=11.02mil|YSize=61.42mil|CornerRadius=2.76mil|HoleSize=0mil|Usage=FLASHONLY|Rotation=180.000|XOffset=0mil|YOffset=0mil|HoleType=Round|Shape=RoundedRectangle|*
%AMROUNDEDRECTD21*
21,1,0.01102,0.05591,0,0,180.0*
21,1,0.00551,0.06142,0,0,180.0*
1,1,0.00551,-0.00276,0.02795*
1,1,0.00551,0.00276,0.02795*
1,1,0.00551,0.00276,-0.02795*
1,1,0.00551,-0.00276,-0.02795*
%
%ADD21ROUNDEDRECTD21*%
G04:AMPARAMS|DCode=22|XSize=11.02mil|YSize=61.42mil|CornerRadius=2.76mil|HoleSize=0mil|Usage=FLASHONLY|Rotation=90.000|XOffset=0mil|YOffset=0mil|HoleType=Round|Shape=RoundedRectangle|*
%AMROUNDEDRECTD22*
21,1,0.01102,0.05591,0,0,90.0*
21,1,0.00551,0.06142,0,0,90.0*
1,1,0.00551,0.02795,0.00276*
1,1,0.00551,0.02795,-0.00276*
1,1,0.00551,-0.02795,-0.00276*
1,1,0.00551,-0.02795,0.00276*
%
%ADD22ROUNDEDRECTD22*%
%ADD23R,0.05512X0.04724*%
%ADD24R,0.04724X0.05512*%
%ADD25R,0.04331X0.08465*%
%ADD26R,0.13189X0.08465*%
%ADD27R,0.03740X0.03937*%
G04:AMPARAMS|DCode=28|XSize=77.56mil|YSize=23.23mil|CornerRadius=2.9mil|HoleSize=0mil|Usage=FLASHONLY|Rotation=0.000|XOffset=0mil|YOffset=0mil|HoleType=Round|Shape=RoundedRectangle|*
%AMROUNDEDRECTD28*
21,1,0.07756,0.01742,0,0,0.0*
21,1,0.07175,0.02323,0,0,0.0*
1,1,0.00581,0.03588,-0.00871*
1,1,0.00581,-0.03588,-0.00871*
1,1,0.00581,-0.03588,0.00871*
1,1,0.00581,0.03588,0.00871*
%
%ADD28ROUNDEDRECTD28*%
%ADD29R,0.14173X0.21654*%
%ADD30R,0.03937X0.06890*%
%ADD31R,0.14921X0.03898*%
%ADD32R,0.12520X0.08858*%
%ADD59C,0.06000*%
%ADD68R,0.31024X0.42677*%
%ADD69C,0.03000*%
%ADD70C,0.06496*%
%ADD71R,0.06496X0.06496*%
%ADD72R,0.05906X0.05906*%
%ADD73C,0.05906*%
%ADD74C,0.05315*%
%ADD75R,0.05315X0.05315*%
%ADD76O,0.10000X0.05000*%
%ADD77R,0.10000X0.05000*%
%ADD78C,0.07500*%
%ADD79O,0.05000X0.10000*%
%ADD80R,0.05000X0.10000*%
%ADD81C,0.05200*%
%ADD82C,0.05118*%
%ADD83R,0.05906X0.05906*%
%ADD84R,0.05315X0.05315*%
%ADD85R,0.16000X0.10000*%
%ADD86R,0.10000X0.16000*%
%ADD87C,0.06500*%
%ADD88P,0.07036X8X292.5*%
%ADD89P,0.07036X8X22.5*%
%ADD90C,0.02000*%
G36*
X419777Y11783D02*
Y1235D01*
X1224D01*
X1224Y263788D01*
X419777D01*
X419777Y11783D01*
D02*
G37*
%LPC*%
G36*
X182000Y254164D02*
Y251012D01*
X185153D01*
X184909Y251923D01*
X184427Y252758D01*
X183746Y253438D01*
X182912Y253920D01*
X182000Y254164D01*
D02*
G37*
G36*
X181000D02*
X180089Y253920D01*
X179255Y253438D01*
X178574Y252758D01*
X178092Y251923D01*
X177848Y251012D01*
X181000D01*
Y254164D01*
D02*
G37*
G36*
X233000Y253849D02*
Y250697D01*
X236153D01*
X235909Y251608D01*
X235427Y252443D01*
X234746Y253123D01*
X233912Y253605D01*
X233000Y253849D01*
D02*
G37*
G36*
X232000D02*
X231089Y253605D01*
X230255Y253123D01*
X229574Y252443D01*
X229092Y251608D01*
X228848Y250697D01*
X232000D01*
Y253849D01*
D02*
G37*
G36*
X252500Y253507D02*
Y250354D01*
X255653D01*
X255409Y251266D01*
X254927Y252100D01*
X254246Y252781D01*
X253412Y253262D01*
X252500Y253507D01*
D02*
G37*
G36*
X251500Y253507D02*
X250589Y253262D01*
X249755Y252781D01*
X249074Y252100D01*
X248592Y251266D01*
X248348Y250354D01*
X251500D01*
Y253507D01*
D02*
G37*
G36*
X185153Y250012D02*
X182000D01*
Y246859D01*
X182912Y247104D01*
X183746Y247585D01*
X184427Y248266D01*
X184909Y249100D01*
X185153Y250012D01*
D02*
G37*
G36*
X181000D02*
X177848D01*
X178092Y249100D01*
X178574Y248266D01*
X179255Y247585D01*
X180089Y247104D01*
X181000Y246859D01*
Y250012D01*
D02*
G37*
G36*
X236153Y249697D02*
X233000D01*
Y246544D01*
X233912Y246789D01*
X234746Y247270D01*
X235427Y247951D01*
X235909Y248785D01*
X236153Y249697D01*
D02*
G37*
G36*
X232000D02*
X228848D01*
X229092Y248785D01*
X229574Y247951D01*
X230255Y247270D01*
X231089Y246789D01*
X232000Y246544D01*
Y249697D01*
D02*
G37*
G36*
X251500Y249354D02*
X248348D01*
X248592Y248443D01*
X249074Y247608D01*
X249755Y246928D01*
X250589Y246446D01*
X251500Y246202D01*
Y249354D01*
D02*
G37*
G36*
X255653D02*
X252500D01*
Y246202D01*
X253412Y246446D01*
X254246Y246928D01*
X254927Y247608D01*
X255409Y248443D01*
X255653Y249354D01*
D02*
G37*
G36*
X401845Y253586D02*
X400156D01*
X398499Y253256D01*
X396939Y252610D01*
X395535Y251672D01*
X394340Y250477D01*
X393402Y249073D01*
X392756Y247513D01*
X392426Y245856D01*
Y244167D01*
X392756Y242511D01*
X393402Y240950D01*
X394340Y239546D01*
X395535Y238352D01*
X396939Y237414D01*
X398499Y236767D01*
X400156Y236438D01*
X401845D01*
X403501Y236767D01*
X405062Y237414D01*
X406466Y238352D01*
X407660Y239546D01*
X408599Y240950D01*
X409245Y242511D01*
X409574Y244167D01*
Y245856D01*
X409245Y247513D01*
X408599Y249073D01*
X407660Y250477D01*
X406466Y251672D01*
X405062Y252610D01*
X403501Y253256D01*
X401845Y253586D01*
D02*
G37*
G36*
X20845D02*
X19156D01*
X17500Y253256D01*
X15939Y252610D01*
X14535Y251672D01*
X13340Y250477D01*
X12402Y249073D01*
X11756Y247513D01*
X11426Y245856D01*
Y244167D01*
X11756Y242511D01*
X12402Y240950D01*
X13340Y239546D01*
X14535Y238352D01*
X15939Y237414D01*
X17500Y236767D01*
X19156Y236438D01*
X20845D01*
X22501Y236767D01*
X24062Y237414D01*
X25466Y238352D01*
X26660Y239546D01*
X27599Y240950D01*
X28245Y242511D01*
X28574Y244167D01*
Y245856D01*
X28245Y247513D01*
X27599Y249073D01*
X26660Y250477D01*
X25466Y251672D01*
X24062Y252610D01*
X22501Y253256D01*
X20845Y253586D01*
D02*
G37*
G36*
X279299Y248538D02*
X263726D01*
Y232412D01*
X255358D01*
Y233527D01*
X248643D01*
Y232584D01*
X235858D01*
Y233869D01*
X229143D01*
Y232755D01*
X219366D01*
Y235444D01*
X213635D01*
Y225580D01*
X219366D01*
Y228269D01*
X229143D01*
Y227154D01*
X235858D01*
Y228097D01*
X248643D01*
Y226812D01*
X255358D01*
Y227926D01*
X263726D01*
Y225485D01*
X279299D01*
Y234769D01*
X284071D01*
X284757Y234083D01*
Y195346D01*
Y159769D01*
X284928Y158911D01*
X285414Y158183D01*
X287172Y156426D01*
X287899Y155939D01*
X288758Y155769D01*
X360071D01*
X372414Y143426D01*
X373142Y142939D01*
X374000Y142769D01*
X396071D01*
X397757Y141083D01*
Y101698D01*
X397314Y101255D01*
X335000D01*
X334142Y101084D01*
X333414Y100598D01*
X326993Y94177D01*
X326507Y93449D01*
X326336Y92590D01*
Y91136D01*
X324945D01*
Y84224D01*
X325595D01*
Y79122D01*
X325387Y78962D01*
X324873Y78294D01*
X324551Y77515D01*
X324441Y76680D01*
Y73541D01*
X322765D01*
X321906Y73370D01*
X321179Y72883D01*
X314799Y66504D01*
X311059D01*
Y60380D01*
X317971D01*
Y63332D01*
X323694Y69054D01*
X325834D01*
X326055Y68885D01*
X326833Y68562D01*
X327669Y68452D01*
X328504Y68562D01*
X329282Y68885D01*
X329951Y69398D01*
X330464Y70066D01*
X330786Y70845D01*
X330896Y71680D01*
Y76680D01*
X330786Y77515D01*
X330464Y78294D01*
X330081Y78793D01*
Y84224D01*
X331069D01*
Y91136D01*
X330822D01*
Y91661D01*
X335929Y96769D01*
X398243D01*
X399101Y96939D01*
X399829Y97426D01*
X401586Y99183D01*
X402073Y99911D01*
X402244Y100769D01*
Y142012D01*
X402073Y142870D01*
X401586Y143598D01*
X398587Y146598D01*
X397859Y147084D01*
X397000Y147255D01*
X374929D01*
X362586Y159598D01*
X361859Y160084D01*
X361000Y160255D01*
X289687D01*
X289244Y160698D01*
Y193103D01*
X294118D01*
Y192249D01*
X310440D01*
Y197546D01*
X302047D01*
X301830Y197590D01*
X289244D01*
Y235012D01*
X289073Y235870D01*
X288586Y236598D01*
X286586Y238598D01*
X285859Y239084D01*
X285000Y239255D01*
X279299D01*
Y248538D01*
D02*
G37*
G36*
X201555Y235744D02*
X198890D01*
Y231012D01*
X201555D01*
Y235744D01*
D02*
G37*
G36*
X197890D02*
X195225D01*
Y231012D01*
X197890D01*
Y235744D01*
D02*
G37*
G36*
X201555Y230012D02*
X198890D01*
Y225279D01*
X201555D01*
Y230012D01*
D02*
G37*
G36*
X197890D02*
X195225D01*
Y225279D01*
X197890D01*
Y230012D01*
D02*
G37*
G36*
X214740Y258475D02*
X200151D01*
Y248611D01*
X205202D01*
Y235444D01*
X204580D01*
Y225580D01*
X205202D01*
Y224386D01*
X202071Y221255D01*
X183744D01*
Y227469D01*
X184858D01*
Y234184D01*
X178143D01*
Y227469D01*
X179257D01*
Y221255D01*
X139000D01*
X138142Y221084D01*
X137414Y220598D01*
X133778Y216962D01*
X131025D01*
X129487Y215423D01*
X78169D01*
X77310Y215252D01*
X76583Y214766D01*
X73583Y211766D01*
X73096Y211038D01*
X72926Y210180D01*
Y156423D01*
X62169D01*
X61310Y156252D01*
X60583Y155766D01*
X2414Y97598D01*
X1928Y96870D01*
X1757Y96012D01*
Y70937D01*
X1928Y70079D01*
X2414Y69351D01*
X4172Y67594D01*
X4899Y67108D01*
X5758Y66937D01*
X8016D01*
Y65527D01*
X15322D01*
Y66937D01*
X21106D01*
X21964Y67108D01*
X22692Y67594D01*
X26717Y71619D01*
X30456D01*
Y77743D01*
X23544D01*
Y74791D01*
X20177Y71423D01*
X15322D01*
Y72833D01*
X8016D01*
Y71423D01*
X6687D01*
X6244Y71867D01*
Y95083D01*
X63098Y151937D01*
X93191D01*
X93208Y151908D01*
X93897Y151219D01*
X94741Y150732D01*
X95682Y150480D01*
X96656D01*
X97597Y150732D01*
X98441Y151219D01*
X99129Y151908D01*
X99146Y151937D01*
X106169D01*
X107027Y152108D01*
X107755Y152594D01*
X132098Y176937D01*
X139516D01*
Y175527D01*
X140926D01*
Y164012D01*
X141096Y163153D01*
X141583Y162426D01*
X142310Y161939D01*
X143169Y161769D01*
X156777D01*
Y157806D01*
X156277Y157672D01*
X156092Y157993D01*
X155412Y158673D01*
X154579Y159154D01*
X153650Y159403D01*
X152688D01*
X151759Y159154D01*
X150926Y158673D01*
X150246Y157993D01*
X149765Y157160D01*
X149516Y156231D01*
Y155269D01*
X149765Y154340D01*
X150246Y153507D01*
X150926Y152827D01*
X151759Y152346D01*
X151945Y152296D01*
Y144545D01*
X152038Y144077D01*
X152304Y143680D01*
X176353Y119631D01*
X176263Y119014D01*
X176213Y118981D01*
X175998Y118658D01*
X175922Y118278D01*
Y117726D01*
X175506Y117257D01*
X144022D01*
X143554Y117164D01*
X143157Y116899D01*
X138662Y112404D01*
X86093D01*
X85625Y112310D01*
X85228Y112045D01*
X65034D01*
X65000Y112012D01*
Y30235D01*
X35507D01*
X35224Y30518D01*
Y82757D01*
X35131Y83225D01*
X34866Y83622D01*
X34280Y84208D01*
X33883Y84473D01*
X33415Y84566D01*
X30456D01*
Y86405D01*
X23544D01*
Y84566D01*
X18013D01*
X14976Y87603D01*
X15073Y87770D01*
X15322Y88699D01*
Y89661D01*
X15073Y90590D01*
X14592Y91423D01*
X13912Y92103D01*
X13079Y92584D01*
X12150Y92833D01*
X11188D01*
X10259Y92584D01*
X9426Y92103D01*
X8746Y91423D01*
X8265Y90590D01*
X8016Y89661D01*
Y88699D01*
X8265Y87770D01*
X8746Y86937D01*
X9426Y86257D01*
X10259Y85776D01*
X11188Y85527D01*
X12150D01*
X13079Y85776D01*
X13246Y85873D01*
X16641Y82477D01*
X17038Y82212D01*
X17506Y82119D01*
X23544D01*
Y80280D01*
X30456D01*
Y82119D01*
X32777D01*
Y30012D01*
X32870Y29544D01*
X33135Y29147D01*
X34135Y28147D01*
X34532Y27881D01*
X35000Y27788D01*
X96507D01*
X96975Y27881D01*
X97372Y28147D01*
X123566Y54340D01*
X123831Y54737D01*
X123924Y55206D01*
Y63205D01*
X141507Y80788D01*
X151494D01*
X151494Y80788D01*
Y67839D01*
X151494Y67839D01*
X151494D01*
X151494Y67275D01*
X151057Y66966D01*
X150830Y67118D01*
X150362Y67211D01*
X148625D01*
Y70912D01*
X141713D01*
Y64787D01*
X146913D01*
X147031Y64764D01*
X149855D01*
X150105Y64514D01*
X150276Y64111D01*
X150092Y63834D01*
X149838Y63580D01*
X147031D01*
X146913Y63556D01*
X141713D01*
Y57432D01*
X148625D01*
Y61133D01*
X150345D01*
X150813Y61226D01*
X151210Y61491D01*
X151661Y61942D01*
X156445D01*
Y60735D01*
X156378Y60717D01*
X155635Y60288D01*
X155028Y59681D01*
X154599Y58938D01*
X154377Y58109D01*
Y57251D01*
X154599Y56422D01*
X155028Y55679D01*
X155635Y55072D01*
X156378Y54643D01*
X157207Y54421D01*
X158065D01*
X158894Y54643D01*
X159637Y55072D01*
X160244Y55679D01*
X160673Y56422D01*
X160895Y57251D01*
Y58109D01*
X160673Y58938D01*
X160655Y58969D01*
X174475Y72788D01*
X179405D01*
X179873Y72881D01*
X180270Y73147D01*
X191531Y84407D01*
X191992Y84216D01*
Y60904D01*
X187257D01*
X187244Y60954D01*
X186809Y61706D01*
X186195Y62321D01*
X185442Y62755D01*
X184603Y62980D01*
X183734D01*
X182895Y62755D01*
X182142Y62321D01*
X181528Y61706D01*
X181094Y60954D01*
X180869Y60115D01*
Y59246D01*
X181094Y58406D01*
X181528Y57654D01*
X182142Y57039D01*
X182895Y56605D01*
X183734Y56380D01*
X184603D01*
X185442Y56605D01*
X186195Y57039D01*
X186809Y57654D01*
X187244Y58406D01*
X187257Y58456D01*
X191992D01*
Y46459D01*
X191170Y45636D01*
X186776D01*
Y43404D01*
X185562D01*
Y45636D01*
X179437D01*
Y38724D01*
X185562D01*
Y40957D01*
X186776D01*
Y38724D01*
X192900D01*
Y43906D01*
X193838Y44844D01*
X194238Y44993D01*
X194512Y44831D01*
X195437Y43906D01*
Y38724D01*
X201562D01*
Y38724D01*
X201963D01*
Y38724D01*
X208087D01*
Y45636D01*
X201963D01*
Y45636D01*
X201562D01*
Y45636D01*
X197168D01*
X196408Y46395D01*
Y58456D01*
X200080D01*
X200094Y58406D01*
X200528Y57654D01*
X201143Y57039D01*
X201895Y56605D01*
X202734Y56380D01*
X203603D01*
X204443Y56605D01*
X205195Y57039D01*
X205809Y57654D01*
X206244Y58406D01*
X206469Y59246D01*
Y60115D01*
X206244Y60954D01*
X205809Y61706D01*
X205195Y62321D01*
X204443Y62755D01*
X203603Y62980D01*
X202734D01*
X201895Y62755D01*
X201143Y62321D01*
X200528Y61706D01*
X200094Y60954D01*
X200080Y60904D01*
X196408D01*
Y72221D01*
X196870Y72412D01*
X199135Y70147D01*
X199532Y69881D01*
X200000Y69788D01*
X210494D01*
X235777Y44505D01*
Y22566D01*
X235870Y22098D01*
X236135Y21701D01*
X236721Y21115D01*
X237118Y20850D01*
X237586Y20756D01*
X247590D01*
X247722Y20262D01*
X248308Y19248D01*
X249136Y18419D01*
X250151Y17833D01*
X251283Y17530D01*
X252455D01*
X253586Y17833D01*
X254601Y18419D01*
X255430Y19248D01*
X256015Y20262D01*
X256148Y20756D01*
X274690D01*
X274822Y20262D01*
X275408Y19248D01*
X276236Y18419D01*
X277251Y17833D01*
X278383Y17530D01*
X279555D01*
X280686Y17833D01*
X281701Y18419D01*
X282530Y19248D01*
X283116Y20262D01*
X283302Y20958D01*
X284219D01*
X284687Y21051D01*
X285084Y21317D01*
X287407Y23639D01*
X292588D01*
Y29764D01*
X285676D01*
Y25370D01*
X283712Y23405D01*
X283194D01*
X283116Y23698D01*
X282530Y24712D01*
X281701Y25541D01*
X280686Y26127D01*
X279555Y26430D01*
X278383D01*
X277251Y26127D01*
X276236Y25541D01*
X275408Y24712D01*
X274822Y23698D01*
X274690Y23204D01*
X256148D01*
X256015Y23698D01*
X255430Y24712D01*
X254601Y25541D01*
X253586Y26127D01*
X252455Y26430D01*
X251283D01*
X250151Y26127D01*
X249136Y25541D01*
X248308Y24712D01*
X247722Y23698D01*
X247590Y23204D01*
X245224D01*
Y25619D01*
X247456D01*
Y31743D01*
X242777D01*
Y34280D01*
X247456D01*
Y37957D01*
X247939Y38086D01*
X248068Y37863D01*
X248952Y36979D01*
X250035Y36354D01*
X251243Y36030D01*
X251369D01*
Y40780D01*
Y45530D01*
X251243D01*
X250035Y45206D01*
X248952Y44581D01*
X248068Y43697D01*
X247442Y42614D01*
X247119Y41405D01*
Y40405D01*
X245224D01*
Y45296D01*
X245131Y45764D01*
X244866Y46161D01*
X235311Y55715D01*
Y56023D01*
X235052Y56648D01*
X234574Y57126D01*
X234176Y57291D01*
X217590Y73877D01*
X217193Y74142D01*
X216725Y74235D01*
X216283D01*
X215862Y74424D01*
X215862Y74735D01*
Y77680D01*
X212499D01*
X209137D01*
Y74735D01*
X209137Y74424D01*
X208716Y74235D01*
X206927D01*
X206900Y74724D01*
X206900D01*
Y82042D01*
X207908Y83050D01*
X208376Y82956D01*
X216137D01*
X225641Y73453D01*
X225500Y73198D01*
Y71512D01*
X227186D01*
X227441Y71652D01*
X252778Y46315D01*
X253175Y46050D01*
X253643Y45957D01*
X278003D01*
X278069Y45456D01*
X277135Y45206D01*
X276052Y44581D01*
X275168Y43697D01*
X274542Y42614D01*
X274219Y41405D01*
Y41280D01*
X278969D01*
X283719D01*
Y41405D01*
X283395Y42614D01*
X282770Y43697D01*
X281885Y44581D01*
X280802Y45206D01*
X279868Y45456D01*
X279934Y45957D01*
X296662D01*
X308120Y34498D01*
X308517Y34233D01*
X308985Y34140D01*
X314128D01*
Y27636D01*
X312290D01*
Y20724D01*
X318414D01*
Y27636D01*
X316576D01*
Y34857D01*
X324007Y42288D01*
X324469Y42096D01*
Y38480D01*
X330869D01*
Y49880D01*
X324469D01*
Y45404D01*
X324169D01*
X323700Y45310D01*
X323304Y45045D01*
X314845Y36587D01*
X309492D01*
X298034Y48045D01*
X297637Y48310D01*
X297169Y48404D01*
X254150D01*
X217509Y85045D01*
X217112Y85310D01*
X216644Y85404D01*
X208883D01*
X207736Y86550D01*
X207854Y87139D01*
X207974Y87220D01*
X208190Y87542D01*
X208266Y87923D01*
Y89495D01*
X213707D01*
X214175Y89588D01*
X214572Y89853D01*
X218144Y93425D01*
X320760D01*
X321229Y93518D01*
X321626Y93783D01*
X322575Y94732D01*
X322840Y95129D01*
X322933Y95598D01*
Y118042D01*
X325297D01*
X325684Y118119D01*
X326011Y118338D01*
X326230Y118666D01*
X326307Y119052D01*
Y120794D01*
X326230Y121181D01*
X326011Y121508D01*
X325684Y121727D01*
X325297Y121804D01*
X318122D01*
X317736Y121727D01*
X317408Y121508D01*
X317387Y121477D01*
X316887Y121629D01*
Y123217D01*
X317387Y123369D01*
X317408Y123338D01*
X317736Y123119D01*
X318122Y123042D01*
X325297D01*
X325684Y123119D01*
X326011Y123338D01*
X326230Y123666D01*
X326307Y124052D01*
Y125794D01*
X326230Y126181D01*
X326011Y126508D01*
X325684Y126727D01*
X325297Y126804D01*
X322662D01*
Y128042D01*
X325297D01*
X325684Y128119D01*
X326011Y128338D01*
X326230Y128666D01*
X326237Y128700D01*
X326912D01*
X327380Y128793D01*
X327777Y129058D01*
X328866Y130147D01*
X329131Y130544D01*
X329224Y131012D01*
Y138426D01*
X329131Y138894D01*
X328866Y139291D01*
X328280Y139877D01*
X327883Y140142D01*
X327415Y140235D01*
X319232D01*
X318764Y140142D01*
X318367Y139877D01*
X312842Y134352D01*
X312684Y134313D01*
X312198Y134415D01*
X312166Y134463D01*
X299752Y146877D01*
X299355Y147142D01*
X298887Y147235D01*
X238169D01*
X192555Y192849D01*
Y205556D01*
X194393D01*
Y212468D01*
X188269D01*
Y205556D01*
X190108D01*
Y192678D01*
X189608Y192471D01*
X187034Y195045D01*
X186637Y195310D01*
X186169Y195404D01*
X99671D01*
X99617Y195608D01*
X99129Y196452D01*
X98441Y197141D01*
X97597Y197628D01*
X96656Y197880D01*
X95682D01*
X94741Y197628D01*
X93897Y197141D01*
X93208Y196452D01*
X92721Y195608D01*
X92469Y194667D01*
Y193693D01*
X92721Y192752D01*
X93208Y191908D01*
X93897Y191219D01*
X94740Y190732D01*
X94663Y190235D01*
X93000D01*
X92532Y190142D01*
X92135Y189877D01*
X90135Y187877D01*
X89870Y187480D01*
X89777Y187012D01*
Y179348D01*
X89870Y178880D01*
X90135Y178483D01*
X92827Y175792D01*
X92721Y175608D01*
X92469Y174667D01*
Y173693D01*
X92721Y172752D01*
X93208Y171908D01*
X93897Y171219D01*
X94741Y170732D01*
X95682Y170480D01*
X96656D01*
X97597Y170732D01*
X98441Y171219D01*
X99129Y171908D01*
X99617Y172752D01*
X99869Y173693D01*
Y174667D01*
X99617Y175608D01*
X99129Y176452D01*
X98441Y177141D01*
X97597Y177628D01*
X96656Y177880D01*
X95682D01*
X94741Y177628D01*
X94557Y177522D01*
X92224Y179855D01*
Y182675D01*
X92721Y182752D01*
X93208Y181908D01*
X93897Y181219D01*
X94741Y180732D01*
X95682Y180480D01*
X96656D01*
X97597Y180732D01*
X98441Y181219D01*
X99129Y181908D01*
X99617Y182752D01*
X99869Y183693D01*
Y184667D01*
X99702Y185288D01*
X100061Y185788D01*
X181030D01*
X186692Y180126D01*
X186575Y179536D01*
X186374Y179453D01*
X185896Y178975D01*
X185637Y178350D01*
Y177674D01*
X185896Y177049D01*
X186374Y176571D01*
X186999Y176312D01*
X187307D01*
X188715Y174904D01*
X188508Y174404D01*
X164675D01*
X164392Y174687D01*
Y175726D01*
X164579Y175776D01*
X165412Y176257D01*
X166092Y176937D01*
X166572Y177770D01*
X166822Y178699D01*
Y179661D01*
X166572Y180590D01*
X166092Y181423D01*
X165412Y182103D01*
X164579Y182584D01*
X163650Y182833D01*
X162688D01*
X161759Y182584D01*
X160926Y182103D01*
X160246Y181423D01*
X159765Y180590D01*
X159516Y179661D01*
Y178699D01*
X159765Y177770D01*
X160246Y176937D01*
X160926Y176257D01*
X161759Y175776D01*
X161945Y175726D01*
Y174180D01*
X162038Y173712D01*
X162304Y173315D01*
X162753Y172865D01*
X162562Y172404D01*
X161676D01*
X156476Y177603D01*
X156572Y177770D01*
X156822Y178699D01*
Y179661D01*
X156572Y180590D01*
X156092Y181423D01*
X155412Y182103D01*
X154579Y182584D01*
X153650Y182833D01*
X152688D01*
X151759Y182584D01*
X150926Y182103D01*
X150246Y181423D01*
X149765Y180590D01*
X149516Y179661D01*
Y178699D01*
X149765Y177770D01*
X150246Y176937D01*
X150926Y176257D01*
X151759Y175776D01*
X152688Y175527D01*
X153650D01*
X154579Y175776D01*
X154746Y175873D01*
X160304Y170315D01*
X160701Y170050D01*
X161169Y169957D01*
X186662D01*
X188339Y168280D01*
X188147Y167818D01*
X185730D01*
Y164956D01*
X188986D01*
Y166980D01*
X189448Y167171D01*
X193961Y162657D01*
Y153012D01*
X188686D01*
Y158856D01*
X181774D01*
Y158015D01*
X176821D01*
Y159403D01*
X172688D01*
X166493Y165598D01*
X165765Y166084D01*
X164907Y166255D01*
X145412D01*
Y175527D01*
X146821D01*
Y182833D01*
X139516D01*
Y181423D01*
X131169D01*
X130310Y181252D01*
X129583Y180766D01*
X105240Y156423D01*
X99146D01*
X99129Y156452D01*
X98441Y157141D01*
X97597Y157628D01*
X96656Y157880D01*
X95682D01*
X94741Y157628D01*
X93897Y157141D01*
X93208Y156452D01*
X93191Y156423D01*
X77855D01*
X77412Y156867D01*
Y209251D01*
X79098Y210937D01*
X129150D01*
X131025Y209062D01*
X134975D01*
X136950Y211037D01*
Y213790D01*
X139929Y216769D01*
X161666D01*
Y211646D01*
X160962Y210942D01*
Y206992D01*
X162937Y205017D01*
X166887D01*
X168862Y206992D01*
Y210942D01*
X166887Y212917D01*
X166152D01*
Y216769D01*
X200757D01*
Y198012D01*
X200928Y197153D01*
X201414Y196426D01*
X238414Y159426D01*
X248414Y149426D01*
X249142Y148939D01*
X250000Y148769D01*
X326652D01*
X331107Y144313D01*
Y140967D01*
X331927D01*
Y108850D01*
X332097Y107991D01*
X332584Y107264D01*
X334341Y105506D01*
X335069Y105020D01*
X335927Y104849D01*
X348545D01*
Y104030D01*
X355456D01*
Y110155D01*
X348545D01*
Y109335D01*
X336856D01*
X336413Y109779D01*
Y117699D01*
X336913Y117966D01*
X337107Y117837D01*
X337610Y117736D01*
X340698D01*
Y119923D01*
Y122110D01*
X337610D01*
X337107Y122010D01*
X336913Y121880D01*
X336413Y122147D01*
Y123161D01*
X336813Y123308D01*
X336913Y123327D01*
X337224Y123119D01*
X337610Y123042D01*
X344785D01*
X345172Y123119D01*
X345499Y123338D01*
X345718Y123666D01*
X345725Y123700D01*
X348545D01*
Y119530D01*
X350777D01*
Y118816D01*
X348545D01*
Y112692D01*
X355456D01*
Y117147D01*
X355918Y117338D01*
X358110Y115147D01*
X358507Y114881D01*
X358975Y114788D01*
X388052D01*
Y112064D01*
X395949D01*
Y119960D01*
X388052D01*
Y117235D01*
X359482D01*
X355456Y121260D01*
Y125655D01*
X350275D01*
X350141Y125788D01*
X349744Y126054D01*
X349276Y126147D01*
X345725D01*
X345718Y126181D01*
X345499Y126508D01*
X345172Y126727D01*
X344785Y126804D01*
X337610D01*
X337224Y126727D01*
X336913Y126519D01*
X336813Y126539D01*
X336413Y126685D01*
Y128162D01*
X336813Y128307D01*
X336913Y128327D01*
X337224Y128119D01*
X337610Y128042D01*
X344785D01*
X345172Y128119D01*
X345499Y128338D01*
X345718Y128666D01*
X345725Y128700D01*
X348545D01*
Y128192D01*
X355456D01*
Y132979D01*
X357265Y134788D01*
X388241D01*
X388321Y134488D01*
X388841Y133588D01*
X389576Y132852D01*
X390476Y132333D01*
X391481Y132064D01*
X392520D01*
X393524Y132333D01*
X394425Y132852D01*
X395160Y133588D01*
X395679Y134488D01*
X395949Y135492D01*
Y136531D01*
X395679Y137536D01*
X395160Y138436D01*
X394425Y139171D01*
X393524Y139691D01*
X392520Y139960D01*
X391481D01*
X390476Y139691D01*
X389576Y139171D01*
X388841Y138436D01*
X388321Y137536D01*
X388241Y137235D01*
X356758D01*
X356290Y137142D01*
X355893Y136877D01*
X353724Y134708D01*
X353224Y134915D01*
Y139288D01*
X355456D01*
Y145413D01*
X348545D01*
Y139288D01*
X350777D01*
Y134316D01*
X348545D01*
Y131147D01*
X345725D01*
X345718Y131181D01*
X345499Y131508D01*
X345172Y131727D01*
X344785Y131804D01*
X337610D01*
X337224Y131727D01*
X336913Y131519D01*
X336813Y131539D01*
X336413Y131685D01*
Y133161D01*
X336813Y133308D01*
X336913Y133327D01*
X337224Y133119D01*
X337610Y133042D01*
X338701D01*
X338820Y133019D01*
X338939Y133042D01*
X344785D01*
X345172Y133119D01*
X345499Y133338D01*
X345718Y133666D01*
X345795Y134052D01*
Y135794D01*
X345718Y136181D01*
X345499Y136508D01*
X345172Y136727D01*
X344785Y136804D01*
X340435D01*
X340406Y136848D01*
X336787Y140467D01*
X336994Y140967D01*
X337232D01*
Y147879D01*
X333886D01*
X329167Y152598D01*
X328439Y153084D01*
X327581Y153255D01*
X250929D01*
X241586Y162598D01*
X205243Y198941D01*
Y218083D01*
X209031Y221870D01*
X209518Y222598D01*
X209688Y223457D01*
Y225580D01*
X210311D01*
Y235444D01*
X209688D01*
Y248611D01*
X214740D01*
Y258475D01*
D02*
G37*
G36*
X339260Y214043D02*
X332500D01*
Y209114D01*
X339260D01*
Y214043D01*
D02*
G37*
G36*
X331500D02*
X324741D01*
Y209114D01*
X331500D01*
Y214043D01*
D02*
G37*
G36*
X390000Y214012D02*
X381500D01*
Y208512D01*
X390000D01*
Y214012D01*
D02*
G37*
G36*
X380500D02*
X372000D01*
Y208512D01*
X380500D01*
Y214012D01*
D02*
G37*
G36*
X116032Y209768D02*
X113170D01*
Y206512D01*
X116032D01*
Y209768D01*
D02*
G37*
G36*
X112170D02*
X109308D01*
Y206512D01*
X112170D01*
Y209768D01*
D02*
G37*
G36*
X175432Y212917D02*
X174392D01*
X173388Y212648D01*
X172487Y212128D01*
X171752Y211393D01*
X171232Y210492D01*
X170962Y209487D01*
Y208447D01*
X171232Y207443D01*
X171752Y206542D01*
X172487Y205807D01*
X173388Y205287D01*
X174392Y205017D01*
X175432D01*
X176437Y205287D01*
X177338Y205807D01*
X178073Y206542D01*
X178593Y207443D01*
X178674Y207744D01*
X179607D01*
Y205556D01*
X185732D01*
Y212468D01*
X179607D01*
Y210191D01*
X178674D01*
X178593Y210492D01*
X178073Y211393D01*
X177338Y212128D01*
X176437Y212648D01*
X175432Y212917D01*
D02*
G37*
G36*
X339260Y208114D02*
X332500D01*
Y203185D01*
X339260D01*
Y208114D01*
D02*
G37*
G36*
X331500D02*
X324741D01*
Y203185D01*
X331500D01*
Y208114D01*
D02*
G37*
G36*
X116032Y205512D02*
X113170D01*
Y202256D01*
X116032D01*
Y205512D01*
D02*
G37*
G36*
X112170D02*
X109308D01*
Y202256D01*
X112170D01*
Y205512D01*
D02*
G37*
G36*
X310740Y204539D02*
X302779D01*
Y202091D01*
X310740D01*
Y204539D01*
D02*
G37*
G36*
X301779D02*
X293818D01*
Y202091D01*
X301779D01*
Y204539D01*
D02*
G37*
G36*
X390000Y207512D02*
X381500D01*
Y202012D01*
X390000D01*
Y207512D01*
D02*
G37*
G36*
X380500D02*
X372000D01*
Y202012D01*
X380500D01*
Y207512D01*
D02*
G37*
G36*
X96656Y207880D02*
X95682D01*
X94741Y207628D01*
X93897Y207141D01*
X93208Y206452D01*
X92721Y205608D01*
X92469Y204667D01*
Y203693D01*
X92721Y202752D01*
X93208Y201908D01*
X93897Y201219D01*
X94741Y200732D01*
X95682Y200480D01*
X96656D01*
X97597Y200732D01*
X98441Y201219D01*
X99129Y201908D01*
X99617Y202752D01*
X99869Y203693D01*
Y204667D01*
X99617Y205608D01*
X99129Y206452D01*
X98441Y207141D01*
X97597Y207628D01*
X96656Y207880D01*
D02*
G37*
G36*
X124393Y209468D02*
X118269D01*
Y202556D01*
X124393D01*
Y204788D01*
X128776D01*
X129258Y204306D01*
X129050Y203532D01*
Y202492D01*
X129320Y201487D01*
X129840Y200586D01*
X130575Y199851D01*
X131476Y199331D01*
X132480Y199062D01*
X133520D01*
X134525Y199331D01*
X135426Y199851D01*
X136161Y200586D01*
X136681Y201487D01*
X136950Y202492D01*
Y203532D01*
X136681Y204536D01*
X136161Y205437D01*
X135426Y206172D01*
X134525Y206693D01*
X133520Y206962D01*
X132480D01*
X131476Y206693D01*
X130751Y206274D01*
X130148Y206877D01*
X129751Y207142D01*
X129283Y207235D01*
X124393D01*
Y209468D01*
D02*
G37*
G36*
X310740Y201091D02*
X302779D01*
Y198642D01*
X310740D01*
Y201091D01*
D02*
G37*
G36*
X301779D02*
X293818D01*
Y198642D01*
X301779D01*
Y201091D01*
D02*
G37*
G36*
X354500Y200507D02*
Y197354D01*
X357653D01*
X357409Y198266D01*
X356927Y199100D01*
X356246Y199781D01*
X355412Y200262D01*
X354500Y200507D01*
D02*
G37*
G36*
X353500Y200507D02*
X352589Y200262D01*
X351755Y199781D01*
X351074Y199100D01*
X350592Y198266D01*
X350348Y197354D01*
X353500D01*
Y200507D01*
D02*
G37*
G36*
Y196354D02*
X350348D01*
X350592Y195443D01*
X351074Y194608D01*
X351755Y193928D01*
X352589Y193446D01*
X353500Y193202D01*
Y196354D01*
D02*
G37*
G36*
X357653D02*
X354500D01*
Y193202D01*
X355412Y193446D01*
X356246Y193928D01*
X356927Y194608D01*
X357409Y195443D01*
X357653Y196354D01*
D02*
G37*
G36*
X310740Y191154D02*
X302779D01*
Y188705D01*
X310740D01*
Y191154D01*
D02*
G37*
G36*
X276468Y210543D02*
X260456D01*
Y188705D01*
X276468D01*
Y210543D01*
D02*
G37*
G36*
X301779Y191154D02*
X293818D01*
Y188705D01*
X301779D01*
Y191154D01*
D02*
G37*
G36*
X259456Y210543D02*
X243444D01*
Y188705D01*
X259456D01*
Y210543D01*
D02*
G37*
G36*
X402000Y197012D02*
X396500D01*
Y188512D01*
X402000D01*
Y197012D01*
D02*
G37*
G36*
X395500D02*
X390000D01*
Y188512D01*
X395500D01*
Y197012D01*
D02*
G37*
G36*
X310740Y187705D02*
X302779D01*
Y185256D01*
X310740D01*
Y187705D01*
D02*
G37*
G36*
X301779D02*
X293818D01*
Y185256D01*
X301779D01*
Y187705D01*
D02*
G37*
G36*
X318275Y248538D02*
X302702D01*
Y225485D01*
X312757D01*
Y183505D01*
X310440D01*
Y184161D01*
X294118D01*
Y178863D01*
X310440D01*
Y179019D01*
X325041D01*
Y176280D01*
X338960D01*
Y186539D01*
X325041D01*
Y183505D01*
X317244D01*
Y225485D01*
X318275D01*
Y248538D01*
D02*
G37*
G36*
X173689Y183133D02*
X173669D01*
Y179680D01*
X177121D01*
Y179700D01*
X176852Y180706D01*
X176332Y181607D01*
X175596Y182343D01*
X174694Y182863D01*
X173689Y183133D01*
D02*
G37*
G36*
X172669D02*
X172648D01*
X171643Y182863D01*
X170742Y182343D01*
X170006Y181607D01*
X169485Y180706D01*
X169216Y179700D01*
Y179680D01*
X172669D01*
Y183133D01*
D02*
G37*
G36*
X402000Y187512D02*
X396500D01*
Y179012D01*
X402000D01*
Y187512D01*
D02*
G37*
G36*
X395500D02*
X390000D01*
Y179012D01*
X395500D01*
Y187512D01*
D02*
G37*
G36*
X177121Y178680D02*
X173669D01*
Y175227D01*
X173689D01*
X174694Y175497D01*
X175596Y176017D01*
X176332Y176753D01*
X176852Y177654D01*
X177121Y178660D01*
Y178680D01*
D02*
G37*
G36*
X172669D02*
X169216D01*
Y178660D01*
X169485Y177654D01*
X170006Y176753D01*
X170742Y176017D01*
X171643Y175497D01*
X172648Y175227D01*
X172669D01*
Y178680D01*
D02*
G37*
G36*
X276468Y187705D02*
X260456D01*
Y165866D01*
X276468D01*
Y187705D01*
D02*
G37*
G36*
X259456D02*
X243444D01*
Y165866D01*
X259456D01*
Y187705D01*
D02*
G37*
G36*
X184730Y167818D02*
X181474D01*
Y164956D01*
X184730D01*
Y167818D01*
D02*
G37*
G36*
X188986Y163956D02*
X185730D01*
Y161093D01*
X188986D01*
Y163956D01*
D02*
G37*
G36*
X184730D02*
X181474D01*
Y161093D01*
X184730D01*
Y163956D01*
D02*
G37*
G36*
X96656Y167880D02*
X95682D01*
X94741Y167628D01*
X93897Y167141D01*
X93208Y166452D01*
X92721Y165608D01*
X92469Y164667D01*
Y163693D01*
X92721Y162752D01*
X93208Y161908D01*
X93897Y161219D01*
X94741Y160732D01*
X95682Y160480D01*
X96656D01*
X97597Y160732D01*
X98441Y161219D01*
X99129Y161908D01*
X99617Y162752D01*
X99869Y163693D01*
Y164667D01*
X99617Y165608D01*
X99129Y166452D01*
X98441Y167141D01*
X97597Y167628D01*
X96656Y167880D01*
D02*
G37*
G36*
X395185Y162664D02*
Y159512D01*
X398338D01*
X398094Y160424D01*
X397612Y161258D01*
X396931Y161938D01*
X396097Y162420D01*
X395185Y162664D01*
D02*
G37*
G36*
X394185D02*
X393274Y162420D01*
X392440Y161938D01*
X391759Y161258D01*
X391277Y160424D01*
X391033Y159512D01*
X394185D01*
Y162664D01*
D02*
G37*
G36*
X143689Y159703D02*
X143669D01*
Y156250D01*
X147122D01*
Y156270D01*
X146852Y157276D01*
X146332Y158177D01*
X145596Y158913D01*
X144694Y159433D01*
X143689Y159703D01*
D02*
G37*
G36*
X142669D02*
X142648D01*
X141643Y159433D01*
X140742Y158913D01*
X140006Y158177D01*
X139485Y157276D01*
X139216Y156270D01*
Y156250D01*
X142669D01*
Y159703D01*
D02*
G37*
G36*
X376700Y196712D02*
X365300D01*
Y184812D01*
X359401D01*
X358542Y184642D01*
X357814Y184155D01*
X354186Y180527D01*
X350643D01*
Y176984D01*
X345071Y171412D01*
X312769D01*
X310483Y173698D01*
Y174370D01*
X310440Y174587D01*
Y177468D01*
X294118D01*
Y172170D01*
X306116D01*
X306167Y171911D01*
X306653Y171183D01*
X310253Y167583D01*
X310981Y167097D01*
X311839Y166926D01*
X346000D01*
X346859Y167097D01*
X347586Y167583D01*
X353815Y173812D01*
X357358D01*
Y177355D01*
X360330Y180326D01*
X365300D01*
Y179312D01*
X368757D01*
Y163012D01*
X368928Y162153D01*
X369414Y161426D01*
X371643Y159197D01*
Y155654D01*
X378358D01*
Y162369D01*
X374815D01*
X373243Y163941D01*
Y179312D01*
X376700D01*
Y196712D01*
D02*
G37*
G36*
X398338Y158512D02*
X395185D01*
Y155359D01*
X396097Y155604D01*
X396931Y156085D01*
X397612Y156766D01*
X398094Y157600D01*
X398338Y158512D01*
D02*
G37*
G36*
X394185D02*
X391033D01*
X391277Y157600D01*
X391759Y156766D01*
X392440Y156085D01*
X393274Y155604D01*
X394185Y155359D01*
Y158512D01*
D02*
G37*
G36*
X147122Y155250D02*
X143669D01*
Y151797D01*
X143689D01*
X144694Y152067D01*
X145596Y152587D01*
X146332Y153323D01*
X146852Y154224D01*
X147122Y155229D01*
Y155250D01*
D02*
G37*
G36*
X142669D02*
X139216D01*
Y155229D01*
X139485Y154224D01*
X140006Y153323D01*
X140742Y152587D01*
X141643Y152067D01*
X142648Y151797D01*
X142669D01*
Y155250D01*
D02*
G37*
G36*
X355756Y154374D02*
X352500D01*
Y151512D01*
X355756D01*
Y154374D01*
D02*
G37*
G36*
X351500D02*
X348245D01*
Y151512D01*
X351500D01*
Y154374D01*
D02*
G37*
G36*
X355756Y150512D02*
X352500D01*
Y147650D01*
X355756D01*
Y150512D01*
D02*
G37*
G36*
X351500D02*
X348245D01*
Y147650D01*
X351500D01*
Y150512D01*
D02*
G37*
G36*
X346193Y148179D02*
X343331D01*
Y144923D01*
X346193D01*
Y148179D01*
D02*
G37*
G36*
X342331D02*
X339469D01*
Y144923D01*
X342331D01*
Y148179D01*
D02*
G37*
G36*
X96695Y148180D02*
X96669D01*
Y144680D01*
X100169D01*
Y144707D01*
X99896Y145724D01*
X99370Y146636D01*
X98625Y147381D01*
X97713Y147907D01*
X96695Y148180D01*
D02*
G37*
G36*
X95669D02*
X95642D01*
X94625Y147907D01*
X93713Y147381D01*
X92968Y146636D01*
X92441Y145724D01*
X92169Y144707D01*
Y144680D01*
X95669D01*
Y148180D01*
D02*
G37*
G36*
X346193Y143923D02*
X343331D01*
Y140667D01*
X346193D01*
Y143923D01*
D02*
G37*
G36*
X342331D02*
X339469D01*
Y140667D01*
X342331D01*
Y143923D01*
D02*
G37*
G36*
X100169Y143680D02*
X96669D01*
Y140180D01*
X96695D01*
X97713Y140453D01*
X98625Y140979D01*
X99370Y141724D01*
X99896Y142636D01*
X100169Y143653D01*
Y143680D01*
D02*
G37*
G36*
X95669D02*
X92169D01*
Y143653D01*
X92441Y142636D01*
X92968Y141724D01*
X93713Y140979D01*
X94625Y140453D01*
X95642Y140180D01*
X95669D01*
Y143680D01*
D02*
G37*
G36*
X96656Y137880D02*
X95682D01*
X94741Y137628D01*
X93897Y137141D01*
X93208Y136452D01*
X92721Y135608D01*
X92469Y134667D01*
Y133693D01*
X92721Y132752D01*
X93208Y131908D01*
X93897Y131219D01*
X94741Y130732D01*
X95682Y130480D01*
X96656D01*
X97597Y130732D01*
X98441Y131219D01*
X99129Y131908D01*
X99617Y132752D01*
X99869Y133693D01*
Y134667D01*
X99617Y135608D01*
X99129Y136452D01*
X98441Y137141D01*
X97597Y137628D01*
X96656Y137880D01*
D02*
G37*
G36*
X344785Y122110D02*
X341698D01*
Y120423D01*
X346101D01*
Y120794D01*
X346001Y121298D01*
X345716Y121724D01*
X345289Y122010D01*
X344785Y122110D01*
D02*
G37*
G36*
X346101Y119423D02*
X341698D01*
Y117736D01*
X344785D01*
X345289Y117837D01*
X345716Y118122D01*
X346001Y118549D01*
X346101Y119052D01*
Y119423D01*
D02*
G37*
G36*
X341500Y115969D02*
Y114512D01*
X342958D01*
X342696Y115145D01*
X342133Y115707D01*
X341500Y115969D01*
D02*
G37*
G36*
X340500D02*
X339867Y115707D01*
X339305Y115145D01*
X339043Y114512D01*
X340500D01*
Y115969D01*
D02*
G37*
G36*
X342958Y113512D02*
X341500D01*
Y112054D01*
X342133Y112316D01*
X342696Y112879D01*
X342958Y113512D01*
D02*
G37*
G36*
X340500D02*
X339043D01*
X339305Y112879D01*
X339867Y112316D01*
X340500Y112054D01*
Y113512D01*
D02*
G37*
G36*
X327500Y108969D02*
Y107512D01*
X328958D01*
X328696Y108145D01*
X328133Y108707D01*
X327500Y108969D01*
D02*
G37*
G36*
X326500D02*
X325868Y108707D01*
X325305Y108145D01*
X325043Y107512D01*
X326500D01*
Y108969D01*
D02*
G37*
G36*
X49116Y109709D02*
X43616D01*
Y106709D01*
X49116D01*
Y109709D01*
D02*
G37*
G36*
X42616D02*
X37116D01*
Y106709D01*
X42616D01*
Y109709D01*
D02*
G37*
G36*
X328958Y106512D02*
X327500D01*
Y105054D01*
X328133Y105316D01*
X328696Y105879D01*
X328958Y106512D01*
D02*
G37*
G36*
X326500D02*
X325043D01*
X325305Y105879D01*
X325868Y105316D01*
X326500Y105054D01*
Y106512D01*
D02*
G37*
G36*
X49116Y105709D02*
X43616D01*
Y102709D01*
X49116D01*
Y105709D01*
D02*
G37*
G36*
X42616D02*
X37116D01*
Y102709D01*
X42616D01*
Y105709D01*
D02*
G37*
G36*
X45616Y99739D02*
X43616D01*
Y96709D01*
X49081D01*
X49026Y97122D01*
X48674Y97974D01*
X48112Y98705D01*
X47381Y99266D01*
X46530Y99619D01*
X45616Y99739D01*
D02*
G37*
G36*
X42616D02*
X40616D01*
X39703Y99619D01*
X38851Y99266D01*
X38120Y98705D01*
X37559Y97974D01*
X37206Y97122D01*
X37152Y96709D01*
X42616D01*
Y99739D01*
D02*
G37*
G36*
X49081Y95709D02*
X43616D01*
Y92678D01*
X45616D01*
X46530Y92799D01*
X47381Y93151D01*
X48112Y93712D01*
X48674Y94444D01*
X49026Y95295D01*
X49081Y95709D01*
D02*
G37*
G36*
X42616D02*
X37152D01*
X37206Y95295D01*
X37559Y94444D01*
X38120Y93712D01*
X38851Y93151D01*
X39703Y92799D01*
X40616Y92678D01*
X42616D01*
Y95709D01*
D02*
G37*
G36*
X284000Y91012D02*
Y89554D01*
X285458D01*
X285196Y90187D01*
X284633Y90750D01*
X284000Y91012D01*
D02*
G37*
G36*
X283000D02*
X282367Y90750D01*
X281805Y90187D01*
X281543Y89554D01*
X283000D01*
Y91012D01*
D02*
G37*
G36*
X225000D02*
Y89554D01*
X226458D01*
X226196Y90187D01*
X225633Y90750D01*
X225000Y91012D01*
D02*
G37*
G36*
X224000D02*
X223368Y90750D01*
X222805Y90187D01*
X222543Y89554D01*
X224000D01*
Y91012D01*
D02*
G37*
G36*
X350975Y91825D02*
X345638D01*
Y88904D01*
X339731D01*
Y91136D01*
X333607D01*
Y84224D01*
X339731D01*
Y86457D01*
X345638D01*
Y83535D01*
X349244D01*
X354760Y78020D01*
X354551Y77515D01*
X354441Y76680D01*
Y71680D01*
X354551Y70845D01*
X354873Y70066D01*
X355386Y69398D01*
X356055Y68885D01*
X356833Y68562D01*
X357669Y68452D01*
X358504Y68562D01*
X359282Y68885D01*
X359951Y69398D01*
X360464Y70066D01*
X360786Y70845D01*
X360896Y71680D01*
Y76680D01*
X360786Y77515D01*
X360464Y78294D01*
X359951Y78962D01*
X359282Y79475D01*
X358504Y79798D01*
X357669Y79908D01*
X356833Y79798D01*
X356557Y79683D01*
X350975Y85265D01*
Y91825D01*
D02*
G37*
G36*
X364661Y92125D02*
X362192D01*
Y88180D01*
X364661D01*
Y92125D01*
D02*
G37*
G36*
X361192D02*
X358724D01*
Y88180D01*
X361192D01*
Y92125D01*
D02*
G37*
G36*
X285458Y88554D02*
X284000D01*
Y87096D01*
X284633Y87359D01*
X285196Y87921D01*
X285458Y88554D01*
D02*
G37*
G36*
X283000D02*
X281543D01*
X281805Y87921D01*
X282367Y87359D01*
X283000Y87096D01*
Y88554D01*
D02*
G37*
G36*
X226458D02*
X225000D01*
Y87096D01*
X225633Y87359D01*
X226196Y87921D01*
X226458Y88554D01*
D02*
G37*
G36*
X224000D02*
X222543D01*
X222805Y87921D01*
X223368Y87359D01*
X224000Y87096D01*
Y88554D01*
D02*
G37*
G36*
X45616Y89739D02*
X43616D01*
Y86709D01*
X49081D01*
X49026Y87122D01*
X48674Y87974D01*
X48112Y88705D01*
X47381Y89266D01*
X46530Y89618D01*
X45616Y89739D01*
D02*
G37*
G36*
X42616D02*
X40616D01*
X39703Y89618D01*
X38851Y89266D01*
X38120Y88705D01*
X37559Y87974D01*
X37206Y87122D01*
X37152Y86709D01*
X42616D01*
Y89739D01*
D02*
G37*
G36*
X364661Y87180D02*
X362192D01*
Y83235D01*
X364661D01*
Y87180D01*
D02*
G37*
G36*
X361192D02*
X358724D01*
Y83235D01*
X361192D01*
Y87180D01*
D02*
G37*
G36*
X49081Y85709D02*
X43616D01*
Y82678D01*
X45616D01*
X46530Y82799D01*
X47381Y83151D01*
X48112Y83712D01*
X48674Y84443D01*
X49026Y85295D01*
X49081Y85709D01*
D02*
G37*
G36*
X42616D02*
X37152D01*
X37206Y85295D01*
X37559Y84443D01*
X38120Y83712D01*
X38851Y83151D01*
X39703Y82799D01*
X40616Y82678D01*
X42616D01*
Y85709D01*
D02*
G37*
G36*
X12189Y83133D02*
X12169D01*
Y79680D01*
X15621D01*
Y79700D01*
X15352Y80706D01*
X14832Y81607D01*
X14096Y82343D01*
X13194Y82863D01*
X12189Y83133D01*
D02*
G37*
G36*
X11169D02*
X11148D01*
X10143Y82863D01*
X9242Y82343D01*
X8506Y81607D01*
X7985Y80706D01*
X7716Y79700D01*
Y79680D01*
X11169D01*
Y83133D01*
D02*
G37*
G36*
X215862Y81936D02*
X212999D01*
Y78680D01*
X215862D01*
Y81936D01*
D02*
G37*
G36*
X211999D02*
X209137D01*
Y78680D01*
X211999D01*
Y81936D01*
D02*
G37*
G36*
X392560Y82260D02*
X392500D01*
Y78512D01*
X396249D01*
Y78571D01*
X395959Y79651D01*
X395400Y80620D01*
X394609Y81411D01*
X393640Y81970D01*
X392560Y82260D01*
D02*
G37*
G36*
X391500D02*
X391441D01*
X390361Y81970D01*
X389392Y81411D01*
X388601Y80620D01*
X388042Y79651D01*
X387752Y78571D01*
Y78512D01*
X391500D01*
Y82260D01*
D02*
G37*
G36*
X148925Y79873D02*
X145669D01*
Y77011D01*
X148925D01*
Y79873D01*
D02*
G37*
G36*
X144669D02*
X141413D01*
Y77011D01*
X144669D01*
Y79873D01*
D02*
G37*
G36*
X45616Y79739D02*
X43616D01*
Y76709D01*
X49081D01*
X49026Y77122D01*
X48674Y77974D01*
X48112Y78705D01*
X47381Y79266D01*
X46530Y79619D01*
X45616Y79739D01*
D02*
G37*
G36*
X42616D02*
X40616D01*
X39703Y79619D01*
X38851Y79266D01*
X38120Y78705D01*
X37559Y77974D01*
X37206Y77122D01*
X37152Y76709D01*
X42616D01*
Y79739D01*
D02*
G37*
G36*
X347669Y79908D02*
X346833Y79798D01*
X346055Y79475D01*
X345387Y78962D01*
X344873Y78294D01*
X344551Y77515D01*
X344441Y76680D01*
Y75404D01*
X340896D01*
Y76680D01*
X340786Y77515D01*
X340464Y78294D01*
X339951Y78962D01*
X339282Y79475D01*
X338504Y79798D01*
X337669Y79908D01*
X336833Y79798D01*
X336055Y79475D01*
X335386Y78962D01*
X334874Y78294D01*
X334551Y77515D01*
X334441Y76680D01*
Y71680D01*
X334551Y70845D01*
X334874Y70066D01*
X335386Y69398D01*
X336055Y68885D01*
X336833Y68562D01*
X337669Y68452D01*
X338504Y68562D01*
X339282Y68885D01*
X339951Y69398D01*
X340464Y70066D01*
X340786Y70845D01*
X340896Y71680D01*
Y72957D01*
X344441D01*
Y71680D01*
X344551Y70845D01*
X344873Y70066D01*
X345387Y69398D01*
X346055Y68885D01*
X346445Y68723D01*
Y66680D01*
X346538Y66212D01*
X346804Y65815D01*
X365945Y46673D01*
Y35767D01*
X357814Y27636D01*
X353420D01*
Y20724D01*
X359544D01*
Y25906D01*
X367866Y34227D01*
X368366Y34020D01*
Y30414D01*
X371622D01*
Y33776D01*
Y37138D01*
X368392D01*
Y47180D01*
X368299Y47648D01*
X368034Y48045D01*
X348892Y67187D01*
Y68723D01*
X349283Y68885D01*
X349951Y69398D01*
X350464Y70066D01*
X350786Y70845D01*
X350896Y71680D01*
Y76680D01*
X350786Y77515D01*
X350464Y78294D01*
X349951Y78962D01*
X349283Y79475D01*
X348504Y79798D01*
X347669Y79908D01*
D02*
G37*
G36*
X15621Y78680D02*
X12169D01*
Y75227D01*
X12189D01*
X13194Y75497D01*
X14096Y76017D01*
X14832Y76753D01*
X15352Y77654D01*
X15621Y78660D01*
Y78680D01*
D02*
G37*
G36*
X11169D02*
X7716D01*
Y78660D01*
X7985Y77654D01*
X8506Y76753D01*
X9242Y76017D01*
X10143Y75497D01*
X11148Y75227D01*
X11169D01*
Y78680D01*
D02*
G37*
G36*
X396249Y77512D02*
X392500D01*
Y73764D01*
X392560D01*
X393640Y74053D01*
X394609Y74612D01*
X395400Y75403D01*
X395959Y76372D01*
X396249Y77452D01*
Y77512D01*
D02*
G37*
G36*
X391500D02*
X387752D01*
Y77452D01*
X388042Y76372D01*
X388601Y75403D01*
X389392Y74612D01*
X390361Y74053D01*
X391441Y73764D01*
X391500D01*
Y77512D01*
D02*
G37*
G36*
X148925Y76011D02*
X145669D01*
Y73149D01*
X148925D01*
Y76011D01*
D02*
G37*
G36*
X144669D02*
X141413D01*
Y73149D01*
X144669D01*
Y76011D01*
D02*
G37*
G36*
X49081Y75709D02*
X43616D01*
Y72678D01*
X45616D01*
X46530Y72799D01*
X47381Y73151D01*
X48112Y73712D01*
X48674Y74444D01*
X49026Y75295D01*
X49081Y75709D01*
D02*
G37*
G36*
X42616D02*
X37152D01*
X37206Y75295D01*
X37559Y74444D01*
X38120Y73712D01*
X38851Y73151D01*
X39703Y72799D01*
X40616Y72678D01*
X42616D01*
Y75709D01*
D02*
G37*
G36*
X224500Y72969D02*
X223868Y72707D01*
X223305Y72145D01*
X223043Y71512D01*
X224500D01*
Y72969D01*
D02*
G37*
G36*
X226958Y70512D02*
X225500D01*
Y69054D01*
X226133Y69316D01*
X226696Y69879D01*
X226958Y70512D01*
D02*
G37*
G36*
X224500D02*
X223043D01*
X223305Y69879D01*
X223868Y69316D01*
X224500Y69054D01*
Y70512D01*
D02*
G37*
G36*
X45616Y69739D02*
X43616D01*
Y66709D01*
X49081D01*
X49026Y67122D01*
X48674Y67974D01*
X48112Y68705D01*
X47381Y69266D01*
X46530Y69618D01*
X45616Y69739D01*
D02*
G37*
G36*
X42616D02*
X40616D01*
X39703Y69618D01*
X38851Y69266D01*
X38120Y68705D01*
X37559Y67974D01*
X37206Y67122D01*
X37152Y66709D01*
X42616D01*
Y69739D01*
D02*
G37*
G36*
X49081Y65709D02*
X43616D01*
Y62678D01*
X45616D01*
X46530Y62799D01*
X47381Y63151D01*
X48112Y63712D01*
X48674Y64443D01*
X49026Y65295D01*
X49081Y65709D01*
D02*
G37*
G36*
X42616D02*
X37152D01*
X37206Y65295D01*
X37559Y64443D01*
X38120Y63712D01*
X38851Y63151D01*
X39703Y62799D01*
X40616Y62678D01*
X42616D01*
Y65709D01*
D02*
G37*
G36*
X45616Y59739D02*
X43616D01*
Y56709D01*
X49081D01*
X49026Y57122D01*
X48674Y57974D01*
X48112Y58705D01*
X47381Y59266D01*
X46530Y59619D01*
X45616Y59739D01*
D02*
G37*
G36*
X42616D02*
X40616D01*
X39703Y59619D01*
X38851Y59266D01*
X38120Y58705D01*
X37559Y57974D01*
X37206Y57122D01*
X37152Y56709D01*
X42616D01*
Y59739D01*
D02*
G37*
G36*
X318271Y58143D02*
X315015D01*
Y55280D01*
X318271D01*
Y58143D01*
D02*
G37*
G36*
X314015D02*
X310759D01*
Y55280D01*
X314015D01*
Y58143D01*
D02*
G37*
G36*
X49081Y55709D02*
X43616D01*
Y52678D01*
X45616D01*
X46530Y52799D01*
X47381Y53151D01*
X48112Y53712D01*
X48674Y54444D01*
X49026Y55295D01*
X49081Y55709D01*
D02*
G37*
G36*
X42616D02*
X37152D01*
X37206Y55295D01*
X37559Y54444D01*
X38120Y53712D01*
X38851Y53151D01*
X39703Y52799D01*
X40616Y52678D01*
X42616D01*
Y55709D01*
D02*
G37*
G36*
X148925Y55195D02*
X145669D01*
Y52333D01*
X148925D01*
Y55195D01*
D02*
G37*
G36*
X144669D02*
X141413D01*
Y52333D01*
X144669D01*
Y55195D01*
D02*
G37*
G36*
X318271Y54280D02*
X315015D01*
Y51418D01*
X318271D01*
Y54280D01*
D02*
G37*
G36*
X314015D02*
X310759D01*
Y51418D01*
X314015D01*
Y54280D01*
D02*
G37*
G36*
X148925Y51333D02*
X145669D01*
Y48471D01*
X148925D01*
Y51333D01*
D02*
G37*
G36*
X144669D02*
X141413D01*
Y48471D01*
X144669D01*
Y51333D01*
D02*
G37*
G36*
X45616Y49739D02*
X43616D01*
Y46709D01*
X49081D01*
X49026Y47122D01*
X48674Y47974D01*
X48112Y48705D01*
X47381Y49266D01*
X46530Y49619D01*
X45616Y49739D01*
D02*
G37*
G36*
X42616D02*
X40616D01*
X39703Y49619D01*
X38851Y49266D01*
X38120Y48705D01*
X37559Y47974D01*
X37206Y47122D01*
X37152Y46709D01*
X42616D01*
Y49739D01*
D02*
G37*
G36*
X358169Y50144D02*
Y44680D01*
X361199D01*
Y46680D01*
X361079Y47594D01*
X360726Y48445D01*
X360165Y49176D01*
X359434Y49737D01*
X358582Y50090D01*
X358169Y50144D01*
D02*
G37*
G36*
X357169Y50144D02*
X356755Y50090D01*
X355904Y49737D01*
X355172Y49176D01*
X354611Y48445D01*
X354259Y47594D01*
X354138Y46680D01*
Y44680D01*
X357169D01*
Y50144D01*
D02*
G37*
G36*
X217048Y45936D02*
X214186D01*
Y42680D01*
X217048D01*
Y45936D01*
D02*
G37*
G36*
X213186D02*
X210324D01*
Y42680D01*
X213186D01*
Y45936D01*
D02*
G37*
G36*
X177200D02*
X174338D01*
Y42680D01*
X177200D01*
Y45936D01*
D02*
G37*
G36*
X173338D02*
X170476D01*
Y42680D01*
X173338D01*
Y45936D01*
D02*
G37*
G36*
X49081Y45709D02*
X43616D01*
Y42678D01*
X45616D01*
X46530Y42799D01*
X47381Y43151D01*
X48112Y43712D01*
X48674Y44444D01*
X49026Y45295D01*
X49081Y45709D01*
D02*
G37*
G36*
X42616D02*
X37152D01*
X37206Y45295D01*
X37559Y44444D01*
X38120Y43712D01*
X38851Y43151D01*
X39703Y42799D01*
X40616Y42678D01*
X42616D01*
Y45709D01*
D02*
G37*
G36*
X252494Y45530D02*
X252369D01*
Y41280D01*
X256619D01*
Y41405D01*
X256295Y42614D01*
X255670Y43697D01*
X254785Y44581D01*
X253702Y45206D01*
X252494Y45530D01*
D02*
G37*
G36*
X217048Y41680D02*
X214186D01*
Y38424D01*
X217048D01*
Y41680D01*
D02*
G37*
G36*
X213186D02*
X210324D01*
Y38424D01*
X213186D01*
Y41680D01*
D02*
G37*
G36*
X177200Y41680D02*
X174338D01*
Y38424D01*
X177200D01*
Y41680D01*
D02*
G37*
G36*
X173338D02*
X170476D01*
Y38424D01*
X173338D01*
Y41680D01*
D02*
G37*
G36*
X357169Y43680D02*
X354138D01*
Y41680D01*
X354259Y40766D01*
X354611Y39915D01*
X355172Y39184D01*
X355904Y38623D01*
X356755Y38270D01*
X357169Y38216D01*
Y43680D01*
D02*
G37*
G36*
X361199D02*
X358169D01*
Y38216D01*
X358582Y38270D01*
X359434Y38623D01*
X360165Y39184D01*
X360726Y39915D01*
X361079Y40766D01*
X361199Y41680D01*
Y43680D01*
D02*
G37*
G36*
X45616Y39739D02*
X43616D01*
Y36709D01*
X49081D01*
X49026Y37122D01*
X48674Y37974D01*
X48112Y38705D01*
X47381Y39266D01*
X46530Y39619D01*
X45616Y39739D01*
D02*
G37*
G36*
X42616D02*
X40616D01*
X39703Y39619D01*
X38851Y39266D01*
X38120Y38705D01*
X37559Y37974D01*
X37206Y37122D01*
X37152Y36709D01*
X42616D01*
Y39739D01*
D02*
G37*
G36*
X283719Y40280D02*
X279469D01*
Y36030D01*
X279594D01*
X280802Y36354D01*
X281885Y36979D01*
X282770Y37863D01*
X283395Y38947D01*
X283719Y40155D01*
Y40280D01*
D02*
G37*
G36*
X278469D02*
X274219D01*
Y40155D01*
X274542Y38947D01*
X275168Y37863D01*
X276052Y36979D01*
X277135Y36354D01*
X278343Y36030D01*
X278469D01*
Y40280D01*
D02*
G37*
G36*
X256619D02*
X252369D01*
Y36030D01*
X252494D01*
X253702Y36354D01*
X254785Y36979D01*
X255670Y37863D01*
X256295Y38947D01*
X256619Y40155D01*
Y40280D01*
D02*
G37*
G36*
X292888Y38725D02*
X289632D01*
Y35863D01*
X292888D01*
Y38725D01*
D02*
G37*
G36*
X288632D02*
X285376D01*
Y35863D01*
X288632D01*
Y38725D01*
D02*
G37*
G36*
X386443Y37138D02*
X383187D01*
Y34276D01*
X386443D01*
Y37138D01*
D02*
G37*
G36*
X382187D02*
X378931D01*
Y34276D01*
X382187D01*
Y37138D01*
D02*
G37*
G36*
X375877Y37138D02*
X372622D01*
Y34276D01*
X375877D01*
Y37138D01*
D02*
G37*
G36*
X49081Y35709D02*
X43616D01*
Y32678D01*
X45616D01*
X46530Y32799D01*
X47381Y33151D01*
X48112Y33712D01*
X48674Y34444D01*
X49026Y35295D01*
X49081Y35709D01*
D02*
G37*
G36*
X42616D02*
X37152D01*
X37206Y35295D01*
X37559Y34444D01*
X38120Y33712D01*
X38851Y33151D01*
X39703Y32799D01*
X40616Y32678D01*
X42616D01*
Y35709D01*
D02*
G37*
G36*
X292888Y34863D02*
X289632D01*
Y32001D01*
X292888D01*
Y34863D01*
D02*
G37*
G36*
X288632D02*
X285376D01*
Y32001D01*
X288632D01*
Y34863D01*
D02*
G37*
G36*
X386443Y33276D02*
X383187D01*
Y30414D01*
X386443D01*
Y33276D01*
D02*
G37*
G36*
X382187D02*
X378931D01*
Y30414D01*
X382187D01*
Y33276D01*
D02*
G37*
G36*
X375877Y33276D02*
X372622D01*
Y30414D01*
X375877D01*
Y33276D01*
D02*
G37*
G36*
X395949Y61960D02*
X388052D01*
Y54064D01*
X390777D01*
Y30039D01*
X387076Y26338D01*
X386143D01*
Y28177D01*
X379231D01*
Y26338D01*
X375577D01*
Y28177D01*
X368666D01*
Y22052D01*
X370828D01*
Y18208D01*
X368990D01*
Y11296D01*
X375114D01*
Y18208D01*
X373275D01*
Y22052D01*
X375577D01*
Y23891D01*
X379231D01*
Y22052D01*
X386143D01*
Y23891D01*
X387583D01*
X388051Y23984D01*
X388448Y24250D01*
X392866Y28667D01*
X393131Y29064D01*
X393224Y29532D01*
Y54064D01*
X395949D01*
Y61960D01*
D02*
G37*
G36*
X334025Y27647D02*
X327901D01*
Y25414D01*
X327076D01*
Y27636D01*
X320951D01*
Y20724D01*
X327076D01*
Y22967D01*
X327901D01*
Y20735D01*
X334025D01*
Y27647D01*
D02*
G37*
G36*
Y18208D02*
X327901D01*
Y15975D01*
X327161D01*
Y18208D01*
X321037D01*
Y11296D01*
X327161D01*
Y13528D01*
X327901D01*
Y11296D01*
X334025D01*
Y18208D01*
D02*
G37*
G36*
X318800Y18508D02*
X315938D01*
Y15252D01*
X318800D01*
Y18508D01*
D02*
G37*
G36*
X314938D02*
X312076D01*
Y15252D01*
X314938D01*
Y18508D01*
D02*
G37*
G36*
X401845Y28586D02*
X400156D01*
X398499Y28256D01*
X396939Y27610D01*
X395535Y26672D01*
X394340Y25477D01*
X393402Y24073D01*
X392756Y22513D01*
X392426Y20856D01*
Y19167D01*
X392756Y17511D01*
X393402Y15950D01*
X394340Y14546D01*
X395535Y13352D01*
X396939Y12414D01*
X398499Y11767D01*
X400156Y11438D01*
X401845D01*
X403501Y11767D01*
X405062Y12414D01*
X406466Y13352D01*
X407660Y14546D01*
X408599Y15950D01*
X409245Y17511D01*
X409574Y19167D01*
Y20856D01*
X409245Y22513D01*
X408599Y24073D01*
X407660Y25477D01*
X406466Y26672D01*
X405062Y27610D01*
X403501Y28256D01*
X401845Y28586D01*
D02*
G37*
G36*
X20845D02*
X19156D01*
X17500Y28256D01*
X15939Y27610D01*
X14535Y26672D01*
X13340Y25477D01*
X12402Y24073D01*
X11756Y22513D01*
X11426Y20856D01*
Y19167D01*
X11756Y17511D01*
X12402Y15950D01*
X13340Y14546D01*
X14535Y13352D01*
X15939Y12414D01*
X17500Y11767D01*
X19156Y11438D01*
X20845D01*
X22501Y11767D01*
X24062Y12414D01*
X25466Y13352D01*
X26660Y14546D01*
X27599Y15950D01*
X28245Y17511D01*
X28574Y19167D01*
Y20856D01*
X28245Y22513D01*
X27599Y24073D01*
X26660Y25477D01*
X25466Y26672D01*
X24062Y27610D01*
X22501Y28256D01*
X20845Y28586D01*
D02*
G37*
G36*
X347669Y49908D02*
X346833Y49798D01*
X346055Y49475D01*
X345387Y48962D01*
X344873Y48294D01*
X344551Y47515D01*
X344441Y46680D01*
Y41680D01*
X344551Y40845D01*
X344873Y40066D01*
X345387Y39398D01*
X346055Y38885D01*
X346445Y38723D01*
Y27636D01*
X344758D01*
Y20724D01*
X346597D01*
Y18208D01*
X344758D01*
Y11296D01*
X350883D01*
Y18208D01*
X349044D01*
Y20724D01*
X350883D01*
Y27636D01*
X348892D01*
Y38723D01*
X349283Y38885D01*
X349951Y39398D01*
X350464Y40066D01*
X350786Y40845D01*
X350896Y41680D01*
Y46680D01*
X350786Y47515D01*
X350464Y48294D01*
X349951Y48962D01*
X349283Y49475D01*
X348504Y49798D01*
X347669Y49908D01*
D02*
G37*
G36*
X337669D02*
X336833Y49798D01*
X336055Y49475D01*
X335386Y48962D01*
X334874Y48294D01*
X334551Y47515D01*
X334441Y46680D01*
Y41680D01*
X334551Y40845D01*
X334874Y40066D01*
X335386Y39398D01*
X336055Y38885D01*
X336445Y38723D01*
Y26540D01*
X336538Y26072D01*
X336562Y26036D01*
Y20735D01*
X338401D01*
Y18208D01*
X336562D01*
Y11296D01*
X342687D01*
Y18208D01*
X340848D01*
Y20735D01*
X342687D01*
Y27647D01*
X338892D01*
Y38723D01*
X339282Y38885D01*
X339951Y39398D01*
X340464Y40066D01*
X340786Y40845D01*
X340896Y41680D01*
Y46680D01*
X340786Y47515D01*
X340464Y48294D01*
X339951Y48962D01*
X339282Y49475D01*
X338504Y49798D01*
X337669Y49908D01*
D02*
G37*
G36*
X359544Y18208D02*
X353420D01*
Y11296D01*
X359544D01*
Y13528D01*
X360328D01*
Y11296D01*
X366453D01*
Y18208D01*
X360328D01*
Y15975D01*
X359544D01*
Y18208D01*
D02*
G37*
G36*
X318800Y14252D02*
X315938D01*
Y10996D01*
X318800D01*
Y14252D01*
D02*
G37*
G36*
X314938D02*
X312076D01*
Y10996D01*
X314938D01*
Y14252D01*
D02*
G37*
%LPD*%
G36*
X236797Y145147D02*
X237194Y144881D01*
X237662Y144788D01*
X298380D01*
X310077Y133091D01*
Y105228D01*
X273000D01*
Y138668D01*
X270034D01*
X269994Y138691D01*
X269065Y138940D01*
X268103D01*
X267174Y138691D01*
X267133Y138668D01*
X252000D01*
Y138663D01*
X246587D01*
Y137423D01*
X238893D01*
X238035Y137252D01*
X237307Y136766D01*
X227386Y126846D01*
X226925Y127037D01*
Y128011D01*
X223669D01*
Y125149D01*
X225036D01*
X225227Y124687D01*
X223452Y122912D01*
X219713D01*
Y119225D01*
X215656D01*
X215421Y119272D01*
X209830D01*
X209450Y119196D01*
X209127Y118981D01*
X208911Y118658D01*
X208835Y118278D01*
Y117726D01*
X208911Y117346D01*
X208965Y117265D01*
X208910Y117229D01*
X208629Y116807D01*
X208574Y116533D01*
X212625D01*
Y115533D01*
X208574D01*
X208629Y115260D01*
X208910Y114838D01*
X208965Y114802D01*
X208911Y114721D01*
X208835Y114340D01*
Y113789D01*
X208911Y113409D01*
X209123Y113081D01*
X208911Y112753D01*
X208835Y112372D01*
Y111821D01*
X208911Y111440D01*
X209123Y111112D01*
X208911Y110784D01*
X208835Y110404D01*
Y109852D01*
X208911Y109472D01*
X209127Y109149D01*
Y109138D01*
X208911Y108816D01*
X208835Y108435D01*
Y107884D01*
X208911Y107503D01*
X209123Y107175D01*
X208911Y106847D01*
X208835Y106466D01*
Y105915D01*
X208911Y105535D01*
X209127Y105212D01*
Y105201D01*
X208911Y104879D01*
X208835Y104498D01*
Y103947D01*
X208911Y103566D01*
X209123Y103238D01*
X208911Y102910D01*
X208835Y102529D01*
Y101978D01*
X208911Y101598D01*
X209123Y101270D01*
X208911Y100942D01*
X208835Y100561D01*
Y100010D01*
X208911Y99629D01*
X209127Y99306D01*
Y99296D01*
X208911Y98973D01*
X208835Y98592D01*
Y98041D01*
X208911Y97661D01*
X209123Y97333D01*
X208911Y97005D01*
X208835Y96624D01*
Y96073D01*
X208911Y95692D01*
X209127Y95369D01*
X209450Y95154D01*
X209830Y95078D01*
X210331D01*
X210333Y95073D01*
Y92947D01*
X208780D01*
X208285Y92958D01*
X208266Y93436D01*
Y93514D01*
X208190Y93894D01*
X207974Y94217D01*
X207652Y94433D01*
X207271Y94508D01*
X206720D01*
X206339Y94433D01*
X206011Y94221D01*
X205683Y94433D01*
X205303Y94508D01*
X204751D01*
X204371Y94433D01*
X204048Y94217D01*
X204037D01*
X203715Y94433D01*
X203334Y94508D01*
X202783D01*
X202402Y94433D01*
X202074Y94221D01*
X201746Y94433D01*
X201366Y94508D01*
X200814D01*
X200434Y94433D01*
X200353Y94379D01*
X200317Y94433D01*
X199895Y94715D01*
X199621Y94770D01*
Y90718D01*
X198621D01*
Y94770D01*
X198348Y94715D01*
X197926Y94433D01*
X197890Y94379D01*
X197809Y94433D01*
X197429Y94508D01*
X196877D01*
X196497Y94433D01*
X196169Y94221D01*
X195841Y94433D01*
X195460Y94508D01*
X194909D01*
X194528Y94433D01*
X194205Y94217D01*
X194195D01*
X193872Y94433D01*
X193491Y94508D01*
X192940D01*
X192560Y94433D01*
X192232Y94221D01*
X191904Y94433D01*
X191523Y94508D01*
X190972D01*
X190591Y94433D01*
X190263Y94221D01*
X189935Y94433D01*
X189555Y94508D01*
X189003D01*
X188623Y94433D01*
X188300Y94217D01*
X188289D01*
X187967Y94433D01*
X187586Y94508D01*
X187035D01*
X186654Y94433D01*
X186326Y94221D01*
X185998Y94433D01*
X185617Y94508D01*
X185066D01*
X184686Y94433D01*
X184363Y94217D01*
X184147Y93894D01*
X184072Y93514D01*
Y87923D01*
X184147Y87542D01*
X184363Y87220D01*
X184483Y87139D01*
X184601Y86550D01*
X177286Y79235D01*
X156507D01*
X153416Y82326D01*
X153607Y82788D01*
X154000D01*
X154469Y82881D01*
X154866Y83147D01*
X165951Y94232D01*
X166413Y94041D01*
Y93011D01*
X170169D01*
Y92511D01*
X170669D01*
Y89149D01*
X173424D01*
X173631Y88649D01*
X171894Y86911D01*
X166713D01*
Y80787D01*
X173625D01*
Y85181D01*
X175755Y87312D01*
X176339D01*
X176963Y87571D01*
X177442Y88049D01*
X177700Y88674D01*
Y89257D01*
X180034Y91590D01*
X180299Y91987D01*
X180392Y92456D01*
Y95078D01*
X182507D01*
X182888Y95154D01*
X183211Y95369D01*
X183426Y95692D01*
X183502Y96073D01*
Y96624D01*
X183426Y97005D01*
X183372Y97085D01*
X183427Y97122D01*
X183709Y97544D01*
X183763Y97817D01*
X179712D01*
Y98817D01*
X183763D01*
X183709Y99090D01*
X183427Y99512D01*
X183372Y99549D01*
X183426Y99629D01*
X183502Y100010D01*
Y100561D01*
X183426Y100942D01*
X183214Y101270D01*
X183426Y101598D01*
X183502Y101978D01*
Y102529D01*
X183426Y102910D01*
X183214Y103238D01*
X183426Y103566D01*
X183502Y103947D01*
Y104498D01*
X183426Y104879D01*
X183211Y105201D01*
Y105212D01*
X183426Y105535D01*
X183502Y105915D01*
Y106466D01*
X183426Y106847D01*
X183214Y107175D01*
X183426Y107503D01*
X183502Y107884D01*
Y108435D01*
X183426Y108816D01*
X183211Y109138D01*
Y109149D01*
X183426Y109472D01*
X183502Y109852D01*
Y110404D01*
X183426Y110784D01*
X183214Y111112D01*
X183426Y111440D01*
X183502Y111821D01*
Y112372D01*
X183426Y112753D01*
X183214Y113081D01*
X183426Y113409D01*
X183502Y113789D01*
Y114340D01*
X183426Y114721D01*
X183211Y115044D01*
Y115054D01*
X183426Y115377D01*
X183502Y115758D01*
Y116309D01*
X183426Y116690D01*
X183214Y117018D01*
X183426Y117346D01*
X183502Y117726D01*
Y118278D01*
X183426Y118658D01*
X183211Y118981D01*
X182888Y119196D01*
X182507Y119272D01*
X179470D01*
Y119467D01*
X179377Y119936D01*
X179112Y120332D01*
X168000Y131444D01*
Y139786D01*
X168071Y139956D01*
X176386D01*
X177907Y138436D01*
X177700Y137936D01*
X175338D01*
Y134680D01*
X178200D01*
Y137435D01*
X178700Y137643D01*
X180437Y135906D01*
Y130724D01*
X184118D01*
Y126662D01*
X184072Y126427D01*
Y120836D01*
X184147Y120456D01*
X184363Y120133D01*
X184686Y119918D01*
X185066Y119842D01*
X185617D01*
X185998Y119918D01*
X186079Y119971D01*
X186115Y119917D01*
X186537Y119635D01*
X186810Y119581D01*
Y123632D01*
X187810D01*
Y119581D01*
X188084Y119635D01*
X188506Y119917D01*
X188542Y119971D01*
X188623Y119918D01*
X189003Y119842D01*
X189555D01*
X189935Y119918D01*
X190258Y120133D01*
X190269D01*
X190591Y119918D01*
X190972Y119842D01*
X191523D01*
X191904Y119918D01*
X192226Y120133D01*
X192237D01*
X192560Y119918D01*
X192940Y119842D01*
X193491D01*
X193872Y119918D01*
X194200Y120130D01*
X194528Y119918D01*
X194909Y119842D01*
X195460D01*
X195841Y119918D01*
X196163Y120133D01*
X196174D01*
X196497Y119918D01*
X196877Y119842D01*
X197429D01*
X197809Y119918D01*
X198137Y120130D01*
X198465Y119918D01*
X198846Y119842D01*
X199397D01*
X199778Y119918D01*
X200100Y120133D01*
X200111D01*
X200434Y119918D01*
X200814Y119842D01*
X201366D01*
X201746Y119918D01*
X202074Y120130D01*
X202402Y119918D01*
X202783Y119842D01*
X203334D01*
X203715Y119918D01*
X204043Y120130D01*
X204371Y119918D01*
X204751Y119842D01*
X205303D01*
X205683Y119918D01*
X206011Y120130D01*
X206339Y119918D01*
X206720Y119842D01*
X207271D01*
X207652Y119918D01*
X207974Y120133D01*
X208190Y120456D01*
X208266Y120836D01*
Y126427D01*
X208190Y126808D01*
X208168Y126841D01*
Y173068D01*
X208668Y173275D01*
X236797Y145147D01*
D02*
G37*
G36*
X147430Y103600D02*
X147430Y98403D01*
X147130Y98027D01*
X147130Y97920D01*
Y95559D01*
X150000D01*
X152871D01*
X152871Y98027D01*
X152570Y98403D01*
X152570Y98527D01*
Y99741D01*
X162627D01*
X163095Y99834D01*
X163492Y100099D01*
X166392Y102999D01*
X168200D01*
X168391Y102537D01*
X152789Y86935D01*
X139296D01*
X138828Y86842D01*
X138500Y86623D01*
X138000Y86764D01*
Y94877D01*
X147054Y103930D01*
X147430Y103600D01*
D02*
G37*
%LPC*%
G36*
X299104Y139240D02*
X299084D01*
Y135787D01*
X302537D01*
Y135808D01*
X302267Y136813D01*
X301747Y137714D01*
X301011Y138450D01*
X300109Y138970D01*
X299104Y139240D01*
D02*
G37*
G36*
X298084D02*
X298063D01*
X297058Y138970D01*
X296157Y138450D01*
X295421Y137714D01*
X294900Y136813D01*
X294631Y135808D01*
Y135787D01*
X298084D01*
Y139240D01*
D02*
G37*
G36*
X174338Y137936D02*
X171476D01*
Y134680D01*
X174338D01*
Y137936D01*
D02*
G37*
G36*
X302537Y134787D02*
X299084D01*
Y131334D01*
X299104D01*
X300109Y131604D01*
X301011Y132124D01*
X301747Y132860D01*
X302267Y133761D01*
X302537Y134767D01*
Y134787D01*
D02*
G37*
G36*
X298084D02*
X294631D01*
Y134767D01*
X294900Y133761D01*
X295421Y132860D01*
X296157Y132124D01*
X297058Y131604D01*
X298063Y131334D01*
X298084D01*
Y134787D01*
D02*
G37*
G36*
X178200Y133680D02*
X175338D01*
Y130424D01*
X178200D01*
Y133680D01*
D02*
G37*
G36*
X174338D02*
X171476D01*
Y130424D01*
X174338D01*
Y133680D01*
D02*
G37*
G36*
X226925Y131873D02*
X223669D01*
Y129011D01*
X226925D01*
Y131873D01*
D02*
G37*
G36*
X222669D02*
X219413D01*
Y129011D01*
X222669D01*
Y131873D01*
D02*
G37*
G36*
X299104Y129240D02*
X299084D01*
Y125787D01*
X302537D01*
Y125807D01*
X302267Y126813D01*
X301747Y127714D01*
X301011Y128450D01*
X300109Y128971D01*
X299104Y129240D01*
D02*
G37*
G36*
X298084D02*
X298063D01*
X297058Y128971D01*
X296157Y128450D01*
X295421Y127714D01*
X294900Y126813D01*
X294631Y125807D01*
Y125787D01*
X298084D01*
Y129240D01*
D02*
G37*
G36*
X222669Y128011D02*
X219413D01*
Y125149D01*
X222669D01*
Y128011D01*
D02*
G37*
G36*
X302537Y124787D02*
X299084D01*
Y121334D01*
X299104D01*
X300109Y121604D01*
X301011Y122124D01*
X301747Y122860D01*
X302267Y123761D01*
X302537Y124767D01*
Y124787D01*
D02*
G37*
G36*
X298084D02*
X294631D01*
Y124767D01*
X294900Y123761D01*
X295421Y122860D01*
X296157Y122124D01*
X297058Y121604D01*
X298063Y121334D01*
X298084D01*
Y124787D01*
D02*
G37*
G36*
X205500Y117969D02*
Y116512D01*
X206958D01*
X206696Y117145D01*
X206133Y117707D01*
X205500Y117969D01*
D02*
G37*
G36*
X204500D02*
X203868Y117707D01*
X203305Y117145D01*
X203043Y116512D01*
X204500D01*
Y117969D01*
D02*
G37*
G36*
X187500D02*
Y116512D01*
X188958D01*
X188696Y117145D01*
X188133Y117707D01*
X187500Y117969D01*
D02*
G37*
G36*
X186500D02*
X185868Y117707D01*
X185305Y117145D01*
X185043Y116512D01*
X186500D01*
Y117969D01*
D02*
G37*
G36*
X302537Y119240D02*
X299084D01*
Y115787D01*
X302537D01*
Y119240D01*
D02*
G37*
G36*
X298084D02*
X294631D01*
Y115787D01*
X298084D01*
Y119240D01*
D02*
G37*
G36*
X206958Y115512D02*
X205500D01*
Y114054D01*
X206133Y114316D01*
X206696Y114879D01*
X206958Y115512D01*
D02*
G37*
G36*
X204500D02*
X203043D01*
X203305Y114879D01*
X203868Y114316D01*
X204500Y114054D01*
Y115512D01*
D02*
G37*
G36*
X188958D02*
X187500D01*
Y114054D01*
X188133Y114316D01*
X188696Y114879D01*
X188958Y115512D01*
D02*
G37*
G36*
X186500D02*
X185043D01*
X185305Y114879D01*
X185868Y114316D01*
X186500Y114054D01*
Y115512D01*
D02*
G37*
G36*
X302537Y114787D02*
X299084D01*
Y111334D01*
X302537D01*
Y114787D01*
D02*
G37*
G36*
X298084D02*
X294631D01*
Y111334D01*
X298084D01*
Y114787D01*
D02*
G37*
G36*
X199500Y99969D02*
Y98512D01*
X200958D01*
X200696Y99145D01*
X200133Y99707D01*
X199500Y99969D01*
D02*
G37*
G36*
X198500D02*
X197868Y99707D01*
X197305Y99145D01*
X197043Y98512D01*
X198500D01*
Y99969D01*
D02*
G37*
G36*
X187500D02*
Y98512D01*
X188958D01*
X188696Y99145D01*
X188133Y99707D01*
X187500Y99969D01*
D02*
G37*
G36*
X186500D02*
X185868Y99707D01*
X185305Y99145D01*
X185043Y98512D01*
X186500D01*
Y99969D01*
D02*
G37*
G36*
X200958Y97512D02*
X199500D01*
Y96054D01*
X200133Y96316D01*
X200696Y96879D01*
X200958Y97512D01*
D02*
G37*
G36*
X198500D02*
X197043D01*
X197305Y96879D01*
X197868Y96316D01*
X198500Y96054D01*
Y97512D01*
D02*
G37*
G36*
X188958D02*
X187500D01*
Y96054D01*
X188133Y96316D01*
X188696Y96879D01*
X188958Y97512D01*
D02*
G37*
G36*
X186500D02*
X185043D01*
X185305Y96879D01*
X185868Y96316D01*
X186500Y96054D01*
Y97512D01*
D02*
G37*
G36*
X169669Y92011D02*
X166413D01*
Y89149D01*
X169669D01*
Y92011D01*
D02*
G37*
G36*
X162776Y86969D02*
Y85512D01*
X164234D01*
X163971Y86145D01*
X163409Y86707D01*
X162776Y86969D01*
D02*
G37*
G36*
X161776D02*
X161143Y86707D01*
X160581Y86145D01*
X160318Y85512D01*
X161776D01*
Y86969D01*
D02*
G37*
G36*
X164234Y84512D02*
X162776D01*
Y83054D01*
X163409Y83316D01*
X163971Y83879D01*
X164234Y84512D01*
D02*
G37*
G36*
X161776D02*
X160318D01*
X160581Y83879D01*
X161143Y83316D01*
X161776Y83054D01*
Y84512D01*
D02*
G37*
G36*
X152871Y94559D02*
X150500D01*
Y92090D01*
X152871D01*
Y94559D01*
D02*
G37*
G36*
X149500D02*
X147130D01*
Y92090D01*
X149500D01*
Y94559D01*
D02*
G37*
G36*
X143500Y92969D02*
Y91512D01*
X144958D01*
X144696Y92145D01*
X144133Y92707D01*
X143500Y92969D01*
D02*
G37*
G36*
X142500D02*
X141867Y92707D01*
X141305Y92145D01*
X141043Y91512D01*
X142500D01*
Y92969D01*
D02*
G37*
G36*
X144958Y90512D02*
X143500D01*
Y89054D01*
X144133Y89316D01*
X144696Y89879D01*
X144958Y90512D01*
D02*
G37*
G36*
X142500D02*
X141043D01*
X141305Y89879D01*
X141867Y89316D01*
X142500Y89054D01*
Y90512D01*
D02*
G37*
%LPD*%
D13*
X232953Y110000D02*
X239000D01*
X226919Y110128D02*
X227047Y110000D01*
X212625Y110128D02*
X226919D01*
X217065Y114065D02*
X219000Y116000D01*
X212625Y114065D02*
X217065D01*
X219000Y116000D02*
X231989D01*
X218096Y112096D02*
X220000Y114000D01*
X212625Y112096D02*
X218096D01*
X220000Y114000D02*
X238989D01*
X245169Y120180D01*
X231989Y116000D02*
X246169Y130180D01*
X218841Y108159D02*
X221000Y106000D01*
X253989D01*
X212625Y108159D02*
X218841D01*
X253989Y106000D02*
X258331Y110343D01*
X212625Y110128D02*
X212677Y110179D01*
X315352Y35363D02*
X324169Y44180D01*
X327669D01*
X35000Y29012D02*
X96507D01*
X34000Y30012D02*
Y82757D01*
Y30012D02*
X35000Y29012D01*
X392000Y29532D02*
Y58012D01*
X387583Y25115D02*
X392000Y29532D01*
X352000Y131254D02*
X356758Y136012D01*
X392000D01*
X358975Y116012D02*
X392000D01*
X352000Y122592D02*
X352394D01*
X358975Y116012D01*
X191331Y192342D02*
X237662Y146012D01*
X298887D01*
X191331Y192342D02*
Y209012D01*
X96169Y194180D02*
X186169D01*
X206944Y123683D02*
Y173405D01*
X186169Y194180D02*
X206944Y173405D01*
X169775Y92511D02*
X170169D01*
X153296Y85712D02*
X169838Y102254D01*
X170274Y100285D02*
X179712D01*
X154000Y84012D02*
X170274Y100285D01*
X140000Y84012D02*
X154000D01*
X169838Y102254D02*
X179712D01*
X139296Y85712D02*
X153296D01*
X244000Y21980D02*
X251869D01*
X237586D02*
X244000D01*
Y28681D01*
X99000Y187012D02*
X181537D01*
X96169Y184180D02*
X99000Y187012D01*
X181537D02*
X201090Y167459D01*
X187337Y178012D02*
X199121Y166227D01*
X197153Y123632D02*
Y165052D01*
X189024Y173180D02*
X197153Y165052D01*
X164169Y173180D02*
X189024D01*
X93000Y189012D02*
X183337D01*
X203059Y169290D01*
X91000Y187012D02*
X93000Y189012D01*
X111570Y191442D02*
X185257D01*
X205027Y171672D01*
X91000Y179348D02*
Y187012D01*
Y179348D02*
X96169Y174180D01*
X199121Y123632D02*
Y166227D01*
X201090Y123734D02*
Y167459D01*
X105596Y52012D02*
X139296Y85712D01*
X86925Y52012D02*
X105596D01*
X85507Y50594D02*
X86925Y52012D01*
X88955Y41012D02*
X100596D01*
X87370Y39426D02*
X88955Y41012D01*
X100596D02*
X121000Y61416D01*
X152000Y82012D02*
X156000Y78012D01*
X122700Y63712D02*
X141000Y82012D01*
X152000D01*
X122700Y55206D02*
Y63712D01*
X156000Y78012D02*
X177793D01*
X187259Y87478D01*
X179405Y74012D02*
X191247Y85855D01*
X179000Y76012D02*
X189228Y86239D01*
X170000Y73012D02*
X173000Y76012D01*
X157669Y57713D02*
X173968Y74012D01*
X173000Y76012D02*
X179000D01*
X173968Y74012D02*
X179405D01*
X157669Y65116D02*
Y69885D01*
X189228Y90672D02*
X189279Y90723D01*
X17506Y83342D02*
X33415D01*
X34000Y82757D01*
X96507Y29012D02*
X122700Y55206D01*
X187259Y87478D02*
Y90667D01*
X187310Y90718D01*
X121000Y61416D02*
Y65012D01*
X140000Y84012D01*
X216725Y73012D02*
X233420Y56317D01*
X204424Y73012D02*
X216725D01*
X244000Y37343D02*
Y45296D01*
X233611Y55685D02*
X244000Y45296D01*
X233420Y55876D02*
X233611Y55685D01*
X237000Y22566D02*
Y45012D01*
Y22566D02*
X237586Y21980D01*
X251869D02*
X278969D01*
X150000Y100964D02*
X162627D01*
X165885Y104222D01*
X179712D01*
X85479Y36209D02*
X87370Y38100D01*
Y39426D01*
X157636Y69885D02*
X160763Y73012D01*
X170000D01*
X157669Y57713D02*
Y63075D01*
X157636Y57680D02*
X157669Y57713D01*
X382687Y25115D02*
X387583D01*
X372122D02*
X382687D01*
X298887Y146012D02*
X311300Y133598D01*
Y104591D02*
Y133598D01*
X310715Y104005D02*
X311300Y104591D01*
X215362Y104005D02*
X310715D01*
X215145Y104222D02*
X215362Y104005D01*
X212625Y104222D02*
X215145D01*
X170562Y83849D02*
X179169Y92456D01*
X158000Y147348D02*
Y164012D01*
Y147348D02*
X164169Y141180D01*
X143169Y164012D02*
Y164180D01*
X216644Y84180D02*
X253643Y47180D01*
X297169D01*
X208376Y84180D02*
X216644D01*
X233420Y55876D02*
Y56317D01*
X352000Y131254D02*
Y142350D01*
X203838Y73598D02*
Y78180D01*
Y73598D02*
X204424Y73012D01*
X201090Y81322D02*
X203838Y78574D01*
X200000Y71012D02*
X211000D01*
X237000Y45012D01*
X197153Y73859D02*
X200000Y71012D01*
X289132Y26702D02*
X289822Y26012D01*
X288738Y26702D02*
X289132D01*
X129283Y206012D02*
X132283Y203012D01*
X133000D01*
X121331Y206012D02*
X129283D01*
X319232Y139012D02*
X327415D01*
X328000Y138426D01*
X313000Y132780D02*
X319232Y139012D01*
X328000Y131012D02*
Y138426D01*
X326912Y129923D02*
X328000Y131012D01*
X197153Y73859D02*
Y90718D01*
X11669Y89180D02*
X17506Y83342D01*
X179169Y96297D02*
X179220Y96348D01*
X179712D01*
X313000Y102788D02*
Y132780D01*
X212677Y102203D02*
X312415D01*
X313000Y102788D01*
X212625Y102254D02*
X212677Y102203D01*
X251306Y98317D02*
X252000Y99012D01*
X212625Y98317D02*
X251306D01*
X212625Y96348D02*
X315078D01*
X318993Y134923D02*
X321710D01*
X315078Y96348D02*
X315664Y96934D01*
Y131594D02*
X318993Y134923D01*
X315664Y96934D02*
Y131594D01*
X213707Y90718D02*
X217637Y94648D01*
X320760D02*
X321710Y95598D01*
X217637Y94648D02*
X320760D01*
X321710Y95598D02*
Y119923D01*
X258325Y115287D02*
X268584D01*
X258331Y110343D02*
Y115012D01*
X174912Y208967D02*
X179982D01*
X151169Y63180D02*
X151183Y63165D01*
X150345Y62356D02*
X151169Y63180D01*
X145169Y60494D02*
X147031Y62356D01*
X151183Y63165D02*
X157578D01*
X145169Y67849D02*
X147031Y65987D01*
X150362D02*
X151233Y65116D01*
X147031Y62356D02*
X150345D01*
X147031Y65987D02*
X150362D01*
X195239Y59680D02*
X203169D01*
X192716D02*
X193216Y60180D01*
Y45952D02*
Y60180D01*
X195224Y59665D02*
X195239Y59680D01*
X184169D02*
X192716D01*
X189228Y86239D02*
Y90672D01*
X157578Y63165D02*
X157669Y63075D01*
Y65116D02*
X157669Y65116D01*
X151233D02*
X157669D01*
X179169Y92456D02*
Y96297D01*
X182499Y42180D02*
X189444D01*
X195185Y45889D02*
X198499Y42574D01*
Y42180D02*
X205025D01*
X197686D02*
Y42574D01*
X198499Y42180D02*
Y42574D01*
X189444Y42180D02*
X193216Y45952D01*
X191247Y85855D02*
Y90723D01*
X205078Y87478D02*
X208376Y84180D01*
X205027Y90718D02*
X205078Y90667D01*
Y87478D02*
Y90667D01*
X206996Y90718D02*
X213707D01*
X195185Y45889D02*
Y90723D01*
X193216Y60180D02*
Y90723D01*
X201090Y81322D02*
Y90718D01*
X73116Y36209D02*
X85479D01*
X85507Y46064D02*
Y50594D01*
X73116Y46209D02*
X85363D01*
X85507Y46064D01*
Y76180D02*
X85839Y76512D01*
X73116Y76209D02*
X85479D01*
X85507Y76180D01*
X85507Y56439D02*
Y60606D01*
X86093Y61192D01*
X102585D01*
X85277Y56209D02*
X85507Y56439D01*
X73116Y56209D02*
X85277D01*
X85507Y66337D02*
X85995Y66825D01*
Y70556D02*
X86581Y71141D01*
X85995Y66825D02*
Y70556D01*
X86581Y71141D02*
X110130D01*
X85379Y66209D02*
X85507Y66337D01*
X73116Y66209D02*
X85379D01*
X279170Y22182D02*
X284219D01*
X288738Y26702D01*
X117169Y81180D02*
X146116Y110128D01*
X110130Y71141D02*
X147148Y108159D01*
X102585Y61192D02*
X147584Y106191D01*
X315352Y24180D02*
Y35363D01*
X308985D02*
X315352D01*
X297169Y47180D02*
X308985Y35363D01*
X357669Y74180D02*
Y76841D01*
X348306Y86204D02*
X357669Y76841D01*
X348306Y86204D02*
Y87680D01*
X336669D02*
X348306D01*
X337669Y74180D02*
X347669D01*
X356482Y24180D02*
Y24574D01*
X347820Y24180D02*
X347820Y24180D01*
X347820Y14752D02*
Y24180D01*
X347669Y24332D02*
Y44180D01*
Y24332D02*
X347820Y24180D01*
X356482Y14752D02*
X363390D01*
X339625D02*
Y24191D01*
X337669Y26540D02*
X339625Y24585D01*
X337669Y26540D02*
Y44180D01*
X339625Y24191D02*
Y24585D01*
X356482Y24574D02*
X367169Y35261D01*
X363390Y14752D02*
X363390Y14752D01*
X372122Y25115D02*
X372122Y25115D01*
X367169Y35261D02*
Y47180D01*
X372052Y25045D02*
X372122Y25115D01*
X372052Y14752D02*
Y25045D01*
X347669Y66680D02*
Y74180D01*
Y66680D02*
X367169Y47180D01*
X314515Y63442D02*
X316378Y65304D01*
X324013Y24180D02*
X324024Y24191D01*
X324099Y14752D02*
X330963D01*
X324024Y24191D02*
X330963D01*
X85507Y86204D02*
Y90436D01*
X85839Y80594D02*
X86425Y81180D01*
X85839Y76512D02*
Y80594D01*
X86093Y91022D02*
X124606D01*
X85507Y90436D02*
X86093Y91022D01*
X73116Y86209D02*
X85502D01*
X85507Y86204D01*
X124606Y91022D02*
X145681Y112096D01*
X86425Y81180D02*
X117169D01*
X278969Y21980D02*
X279170Y22182D01*
X185342Y123632D02*
Y131944D01*
X183499Y133786D02*
X185342Y131944D01*
X147148Y108159D02*
X179712D01*
X146116Y110128D02*
X179712D01*
X144022Y116033D02*
X179712D01*
X147584Y106191D02*
X179712D01*
X145054Y114065D02*
X179712D01*
X145681Y112096D02*
X179712D01*
X258311Y131322D02*
Y135207D01*
Y115301D02*
X258325Y115287D01*
X206944Y123683D02*
X206996Y123632D01*
X205027D02*
Y171672D01*
X203059Y123632D02*
Y169290D01*
X195185Y123632D02*
Y163164D01*
X258311Y125287D02*
X268584D01*
X258391Y135287D02*
X268584D01*
X258311Y135207D02*
X258391Y135287D01*
X245169Y120180D02*
X257169D01*
X258278Y121289D01*
Y125287D01*
X257169Y130180D02*
X258311Y131322D01*
X246169Y130180D02*
X257169D01*
X139169Y111180D02*
X144022Y116033D01*
X153169Y144545D02*
X178247Y119467D01*
X189279Y123632D02*
Y144502D01*
X164169Y141180D02*
X176893D01*
X183499Y134574D01*
X178247Y118053D02*
Y119467D01*
Y118053D02*
X178298Y118002D01*
X179712D01*
X201039Y123683D02*
X201090Y123632D01*
X201039Y123683D02*
X201090Y123734D01*
X212625Y118002D02*
X220928D01*
X222775Y119849D01*
X85507Y96183D02*
Y100575D01*
X86112Y101180D01*
X73116Y96209D02*
X85482D01*
X85507Y96183D01*
X73116Y106209D02*
X85507D01*
Y110594D01*
X132169Y101180D02*
X145054Y114065D01*
X86112Y101180D02*
X132169D01*
X86093Y111180D02*
X139169D01*
X85507Y110594D02*
X86093Y111180D01*
X161169Y171180D02*
X187169D01*
X195185Y163164D01*
X163169Y174180D02*
X164169Y173180D01*
X173169Y178727D02*
Y179180D01*
X171661Y177219D02*
X173169Y178727D01*
X163169Y174180D02*
Y179180D01*
X188693Y145087D02*
X189279Y144502D01*
X164080Y145087D02*
X188693D01*
X163169Y145998D02*
X164080Y145087D01*
X153169Y179180D02*
X161169Y171180D01*
X163169Y145998D02*
Y155997D01*
X153169Y144545D02*
Y155997D01*
X321438Y129923D02*
X326912D01*
X321438Y124923D02*
Y129923D01*
X352000Y115754D02*
Y122592D01*
X341198Y129923D02*
X350670D01*
X352000Y131254D01*
X349276Y124923D02*
X351607Y122592D01*
X341198Y124923D02*
X349276D01*
X351607Y122592D02*
X352000D01*
D20*
X227047Y110000D02*
D03*
X232953D02*
D03*
D21*
X185342Y90718D02*
D03*
X187310D02*
D03*
X189279D02*
D03*
X191247D02*
D03*
X193216D02*
D03*
X195185D02*
D03*
X197153D02*
D03*
X199121D02*
D03*
X201090D02*
D03*
X203059D02*
D03*
X205027D02*
D03*
X206996D02*
D03*
Y123632D02*
D03*
X205027D02*
D03*
X203059D02*
D03*
X201090D02*
D03*
X199121D02*
D03*
X197153D02*
D03*
X195185D02*
D03*
X193216D02*
D03*
X191247D02*
D03*
X189279D02*
D03*
X187310D02*
D03*
X185342D02*
D03*
D22*
X212625Y96348D02*
D03*
Y98317D02*
D03*
Y100285D02*
D03*
Y102254D02*
D03*
Y104222D02*
D03*
Y106191D02*
D03*
Y108159D02*
D03*
Y110128D02*
D03*
Y112096D02*
D03*
Y114065D02*
D03*
Y116033D02*
D03*
Y118002D02*
D03*
X179712D02*
D03*
Y116033D02*
D03*
Y114065D02*
D03*
Y112096D02*
D03*
Y110128D02*
D03*
Y108159D02*
D03*
Y106191D02*
D03*
Y104222D02*
D03*
Y102254D02*
D03*
Y100285D02*
D03*
Y98317D02*
D03*
Y96348D02*
D03*
D23*
X352000Y115754D02*
D03*
Y107092D02*
D03*
Y131254D02*
D03*
Y122592D02*
D03*
X223169Y119849D02*
D03*
Y128511D02*
D03*
X145169Y67849D02*
D03*
Y76511D02*
D03*
Y60494D02*
D03*
Y51833D02*
D03*
X170169Y92511D02*
D03*
Y83849D02*
D03*
X382687Y25115D02*
D03*
Y33776D02*
D03*
X314515Y54780D02*
D03*
Y63442D02*
D03*
X27000Y74681D02*
D03*
Y83342D02*
D03*
X372122Y33776D02*
D03*
Y25115D02*
D03*
X244000Y37343D02*
D03*
Y28681D02*
D03*
X289132Y35363D02*
D03*
Y26702D02*
D03*
X185230Y164456D02*
D03*
Y155794D02*
D03*
X352000Y142350D02*
D03*
Y151012D02*
D03*
D24*
X191331Y209012D02*
D03*
X182670D02*
D03*
X183499Y134180D02*
D03*
X174838D02*
D03*
X85507Y56439D02*
D03*
X94169D02*
D03*
X85507Y36237D02*
D03*
X94169D02*
D03*
X85507Y46064D02*
D03*
X94169D02*
D03*
X85507Y66337D02*
D03*
X94169D02*
D03*
X85507Y86204D02*
D03*
X94169D02*
D03*
X85507Y76180D02*
D03*
X94169D02*
D03*
X85507Y96183D02*
D03*
X94169D02*
D03*
X212499Y78180D02*
D03*
X203838D02*
D03*
X182499Y42180D02*
D03*
X173838D02*
D03*
X189838D02*
D03*
X198499D02*
D03*
X205025D02*
D03*
X213686D02*
D03*
X363390Y14752D02*
D03*
X372052D02*
D03*
X347820Y14752D02*
D03*
X356482D02*
D03*
X339625D02*
D03*
X330963D02*
D03*
X324099D02*
D03*
X315438D02*
D03*
X328007Y87680D02*
D03*
X336669D02*
D03*
X347820Y24180D02*
D03*
X356482D02*
D03*
X330963Y24191D02*
D03*
X339625D02*
D03*
X315352Y24180D02*
D03*
X324013D02*
D03*
X258311Y125287D02*
D03*
X249649D02*
D03*
X258311Y135207D02*
D03*
X249649D02*
D03*
X258331Y115012D02*
D03*
X249670D02*
D03*
X85507Y106209D02*
D03*
X94169D02*
D03*
X342831Y144423D02*
D03*
X334170D02*
D03*
X121331Y206012D02*
D03*
X112670D02*
D03*
D25*
X198390Y230512D02*
D03*
X207445D02*
D03*
X216500D02*
D03*
D26*
X207445Y253543D02*
D03*
D27*
X150000Y100964D02*
D03*
Y95059D02*
D03*
D28*
X321710Y134923D02*
D03*
Y129923D02*
D03*
Y124923D02*
D03*
Y119923D02*
D03*
X341198D02*
D03*
Y124923D02*
D03*
Y129923D02*
D03*
Y134923D02*
D03*
D29*
X271512Y237012D02*
D03*
X310489D02*
D03*
D30*
X348306Y87680D02*
D03*
X361692D02*
D03*
D31*
X302279Y174819D02*
D03*
Y181512D02*
D03*
Y188205D02*
D03*
Y194898D02*
D03*
Y201590D02*
D03*
D32*
X332000Y208614D02*
D03*
Y181409D02*
D03*
D59*
X96169Y204180D02*
D03*
Y194180D02*
D03*
Y184180D02*
D03*
Y174180D02*
D03*
Y164180D02*
D03*
Y154180D02*
D03*
Y144180D02*
D03*
Y134180D02*
D03*
X20000Y20012D02*
D03*
Y245012D02*
D03*
X401000Y20012D02*
D03*
Y245012D02*
D03*
D68*
X259956Y188205D02*
D03*
D69*
X4000Y70937D02*
X5758Y69180D01*
X21106D01*
X4000Y70937D02*
Y96012D01*
X62169Y154180D01*
X131169Y179180D02*
X143169D01*
X106169Y154180D02*
X131169Y179180D01*
X96169Y154180D02*
X106169D01*
X76926D02*
X96169D01*
X400000Y100769D02*
Y142012D01*
X374000Y145012D02*
X397000D01*
X400000Y142012D01*
X203000Y198012D02*
X240000Y161012D01*
X181000Y219012D02*
X203000D01*
Y198012D02*
Y219012D01*
X62169Y154180D02*
X76926D01*
X94169Y46064D02*
X99948D01*
X100000Y46012D01*
X271512Y237012D02*
X285000D01*
X287000Y195346D02*
Y235012D01*
X285000Y237012D02*
X287000Y235012D01*
X288758Y158012D02*
X361000D01*
X287000Y159769D02*
Y195346D01*
Y159769D02*
X288758Y158012D01*
X287000Y195346D02*
X301830D01*
X207445Y230512D02*
Y253543D01*
X165000Y219012D02*
X181000D01*
X181500Y219512D01*
Y230827D01*
X203000Y219012D02*
X207445Y223457D01*
X240000Y161012D02*
X250000Y151012D01*
X94169Y76180D02*
X99883D01*
X328579Y92590D02*
X335000Y99012D01*
X327838Y87511D02*
X328579Y88252D01*
Y92590D01*
X335000Y99012D02*
X398243D01*
X143169Y164012D02*
X158000D01*
X164907D01*
X143169Y164012D02*
Y179180D01*
Y164012D02*
X143169Y164012D01*
X164907D02*
X173169Y155750D01*
X271512Y235756D02*
Y237012D01*
X252000Y230169D02*
X265926D01*
X271512Y235756D01*
X232672Y230341D02*
X251829D01*
X232500Y230512D02*
X232672Y230341D01*
X251829D02*
X252000Y230169D01*
X216500Y230512D02*
X232500D01*
X315000Y181262D02*
Y232500D01*
Y181262D02*
X327750D01*
X302529D02*
X315000D01*
X310489Y237012D02*
X315000Y232500D01*
X371000Y163012D02*
Y186069D01*
X359401Y182569D02*
X367500D01*
X354000Y177169D02*
X359401Y182569D01*
X371000Y186069D02*
Y188012D01*
X367500Y182569D02*
X371000Y186069D01*
X346000Y169169D02*
X354000Y177169D01*
X311839Y169169D02*
X346000D01*
X361000Y158012D02*
X374000Y145012D01*
X250000Y151012D02*
X327581D01*
X334170Y144423D01*
Y108850D02*
Y144423D01*
X335927Y107092D02*
X352000D01*
X334170Y108850D02*
X335927Y107092D01*
X223169Y119849D02*
X223562D01*
X238893Y135180D01*
X245169D01*
X21106Y69180D02*
X26607Y74681D01*
X27000D01*
X398243Y99012D02*
X400000Y100769D01*
X78169Y213180D02*
X132832D01*
X133000Y213012D01*
X139000Y219012D02*
X165000D01*
X163909Y209971D02*
Y217920D01*
X165000Y219012D01*
X163909Y209971D02*
X164912Y208967D01*
X133000Y213012D02*
X139000Y219012D01*
X170169Y83849D02*
X170562D01*
X99914Y36237D02*
X99972Y36296D01*
X94169Y36237D02*
X99914D01*
X94169Y56439D02*
X99853D01*
X99981Y56310D01*
X94169Y66337D02*
X99799D01*
X99883Y66253D01*
X314909Y63442D02*
X322765Y71297D01*
X314515Y63442D02*
X314909D01*
X322765Y71297D02*
X326745D01*
X327669Y72221D01*
Y74180D01*
X327838Y74349D02*
Y87511D01*
X327669Y74180D02*
X327838Y74349D01*
X99863Y96183D02*
X99930Y96117D01*
X94169Y86204D02*
X99859D01*
X99883Y86180D01*
X183499Y133786D02*
Y134180D01*
Y134574D01*
X249528Y115180D02*
X249649Y115301D01*
X249542Y125180D02*
X249649Y125287D01*
X245169Y135180D02*
X249622D01*
X249649Y135207D01*
X245169Y125180D02*
X249542D01*
X245169Y115180D02*
X249528D01*
X94169Y106209D02*
X99923D01*
X99930Y106216D01*
X94169Y96183D02*
X99863D01*
X185208Y155772D02*
X185230Y155794D01*
X173191Y155772D02*
X185208D01*
X173169Y155750D02*
X173191Y155772D01*
X75169Y155937D02*
Y210180D01*
Y155937D02*
X76926Y154180D01*
X75169Y210180D02*
X78169Y213180D01*
X308240Y172769D02*
X311839Y169169D01*
X207445Y223457D02*
Y230512D01*
X301830Y195346D02*
X302279Y194898D01*
X371000Y163012D02*
X375000Y159012D01*
X302279Y174819D02*
X307791D01*
X308240Y174370D01*
Y172769D02*
Y174370D01*
X302279Y181512D02*
X302529Y181262D01*
X327750D02*
X328000Y181012D01*
X334577Y139504D02*
X338820Y135262D01*
D70*
X392000Y136012D02*
D03*
Y78012D02*
D03*
D71*
Y116012D02*
D03*
Y58012D02*
D03*
D72*
X298584Y115287D02*
D03*
X143169Y179180D02*
D03*
X173169Y155750D02*
D03*
D73*
X298584Y125287D02*
D03*
Y135287D02*
D03*
X268584Y115287D02*
D03*
Y125287D02*
D03*
Y135287D02*
D03*
X11669Y79180D02*
D03*
Y89180D02*
D03*
X173169Y179180D02*
D03*
X163169D02*
D03*
X153169D02*
D03*
X143169Y155750D02*
D03*
X153169D02*
D03*
X163169D02*
D03*
D74*
X394686Y159012D02*
D03*
X252000Y249854D02*
D03*
X232501Y250197D02*
D03*
X354000Y196854D02*
D03*
X181500Y250512D02*
D03*
D75*
X375000Y159012D02*
D03*
D76*
X73116Y36209D02*
D03*
Y46209D02*
D03*
Y56209D02*
D03*
Y66209D02*
D03*
Y76209D02*
D03*
Y86209D02*
D03*
Y96209D02*
D03*
Y106209D02*
D03*
X43116Y36209D02*
D03*
Y46209D02*
D03*
Y56209D02*
D03*
Y66209D02*
D03*
Y76209D02*
D03*
Y86209D02*
D03*
Y96209D02*
D03*
D77*
Y106209D02*
D03*
D78*
X278969Y21980D02*
D03*
X251869Y40780D02*
D03*
Y21980D02*
D03*
X278969Y40780D02*
D03*
D79*
X357669Y74180D02*
D03*
X347669D02*
D03*
X337669D02*
D03*
X327669D02*
D03*
X357669Y44180D02*
D03*
X347669D02*
D03*
X337669D02*
D03*
D80*
X327669D02*
D03*
D81*
X184169Y59680D02*
D03*
X203169D02*
D03*
D82*
X157636Y57680D02*
D03*
Y69885D02*
D03*
D83*
X11669Y69180D02*
D03*
D84*
X252000Y230169D02*
D03*
X232500Y230512D02*
D03*
X354000Y177169D02*
D03*
X181500Y230827D02*
D03*
D85*
X381000Y208012D02*
D03*
D86*
X396000Y188012D02*
D03*
X371000D02*
D03*
D87*
X133000Y203012D02*
D03*
X174912Y208967D02*
D03*
D88*
X133000Y213012D02*
D03*
D89*
X164912Y208967D02*
D03*
D90*
X239000Y110000D02*
D03*
X225000Y71012D02*
D03*
X341000Y114012D02*
D03*
X327000Y107012D02*
D03*
X283500Y89054D02*
D03*
X224500D02*
D03*
X187000Y98012D02*
D03*
X199000D02*
D03*
X205000Y116012D02*
D03*
X187000D02*
D03*
X143000Y91012D02*
D03*
X162276Y85012D02*
D03*
X187337Y178012D02*
D03*
X111570Y191442D02*
D03*
X100000Y46012D02*
D03*
X240000Y161012D02*
D03*
X245169Y115180D02*
D03*
X233611Y55685D02*
D03*
X176000Y89012D02*
D03*
X252000Y99012D02*
D03*
X99883Y76244D02*
D03*
X99932Y86433D02*
D03*
X99981Y56310D02*
D03*
X99883Y66253D02*
D03*
X99972Y36296D02*
D03*
X99930Y106216D02*
D03*
Y96117D02*
D03*
X245169Y125180D02*
D03*
Y135180D02*
D03*
M02*
