G04*
G04 #@! TF.GenerationSoftware,Altium Limited,Altium Designer,22.4.2 (48)*
G04*
G04 Layer_Color=128*
%FSLAX24Y24*%
%MOIN*%
G70*
G04*
G04 #@! TF.SameCoordinates,3D4B7757-4479-4088-A00E-F10E6AE17A54*
G04*
G04*
G04 #@! TF.FilePolarity,Positive*
G04*
G01*
G75*
%ADD23R,0.0472X0.0551*%
%ADD24R,0.0551X0.0472*%
%ADD69R,0.0433X0.0846*%
%ADD70R,0.1319X0.0846*%
%ADD71R,0.1417X0.2165*%
%ADD72R,0.0886X0.1252*%
%ADD73R,0.0390X0.1492*%
G36*
X43221Y18579D02*
X42729D01*
Y19177D01*
X43221D01*
Y18579D01*
D02*
G37*
G36*
X42509D02*
X42017D01*
Y19177D01*
X42509D01*
Y18579D01*
D02*
G37*
G36*
X41796D02*
X41304D01*
Y19177D01*
X41796D01*
Y18579D01*
D02*
G37*
G36*
X43221Y17543D02*
X42729D01*
Y18142D01*
X43221D01*
Y17543D01*
D02*
G37*
G36*
X42509D02*
X42017D01*
Y18142D01*
X42509D01*
Y17543D01*
D02*
G37*
G36*
X41796D02*
X41304D01*
Y18142D01*
X41796D01*
Y17543D01*
D02*
G37*
G36*
X43221Y16508D02*
X42729D01*
Y17106D01*
X43221D01*
Y16508D01*
D02*
G37*
G36*
X42509D02*
X42017D01*
Y17106D01*
X42509D01*
Y16508D01*
D02*
G37*
G36*
X41796D02*
X41304D01*
Y17106D01*
X41796D01*
Y16508D01*
D02*
G37*
G36*
X45359Y18579D02*
X44867D01*
Y19177D01*
X45359D01*
Y18579D01*
D02*
G37*
G36*
X44647D02*
X44155D01*
Y19177D01*
X44647D01*
Y18579D01*
D02*
G37*
G36*
X43934D02*
X43442D01*
Y19177D01*
X43934D01*
Y18579D01*
D02*
G37*
G36*
X45359Y17543D02*
X44867D01*
Y18142D01*
X45359D01*
Y17543D01*
D02*
G37*
G36*
X44647D02*
X44155D01*
Y18142D01*
X44647D01*
Y17543D01*
D02*
G37*
G36*
X43934D02*
X43442D01*
Y18142D01*
X43934D01*
Y17543D01*
D02*
G37*
G36*
X45359Y16508D02*
X44867D01*
Y17106D01*
X45359D01*
Y16508D01*
D02*
G37*
G36*
X44647D02*
X44155D01*
Y17106D01*
X44647D01*
Y16508D01*
D02*
G37*
G36*
X43934D02*
X43442D01*
Y17106D01*
X43934D01*
Y16508D01*
D02*
G37*
D23*
X20030Y4475D02*
D03*
X19164D02*
D03*
X20034Y5470D02*
D03*
X19168D02*
D03*
X20030Y6465D02*
D03*
X19164D02*
D03*
X20034Y8680D02*
D03*
X19168D02*
D03*
X20034Y11688D02*
D03*
X19168D02*
D03*
X20034Y9700D02*
D03*
X19168D02*
D03*
X20034Y10678D02*
D03*
X19168D02*
D03*
X24428Y10450D02*
D03*
X25294D02*
D03*
X27234Y9850D02*
D03*
X26368D02*
D03*
X23388Y3200D02*
D03*
X24254D02*
D03*
X27254D02*
D03*
X26388D02*
D03*
X25888Y7100D02*
D03*
X26754D02*
D03*
X20030Y14677D02*
D03*
X19164D02*
D03*
X20034Y12678D02*
D03*
X19168D02*
D03*
X20034Y13680D02*
D03*
X19168D02*
D03*
X31045Y12461D02*
D03*
X31911D02*
D03*
D24*
X23761Y7797D02*
D03*
Y8663D02*
D03*
X22441Y13497D02*
D03*
Y14363D02*
D03*
X19201Y16583D02*
D03*
Y15717D02*
D03*
X32358Y15494D02*
D03*
Y14628D02*
D03*
D69*
X39606Y16059D02*
D03*
X38701D02*
D03*
X37795D02*
D03*
D70*
X38701Y18362D02*
D03*
D71*
X44550Y7810D02*
D03*
X40652D02*
D03*
D72*
X43961Y3510D02*
D03*
X41241D02*
D03*
D73*
X44670Y13610D02*
D03*
X44001D02*
D03*
X43332D02*
D03*
X42662D02*
D03*
X41993D02*
D03*
M02*
