G04*
G04 #@! TF.GenerationSoftware,Altium Limited,Altium Designer,22.4.2 (48)*
G04*
G04 Layer_Physical_Order=2*
G04 Layer_Color=16711680*
%FSLAX24Y24*%
%MOIN*%
G70*
G04*
G04 #@! TF.SameCoordinates,3D4B7757-4479-4088-A00E-F10E6AE17A54*
G04*
G04*
G04 #@! TF.FilePolarity,Positive*
G04*
G01*
G75*
%ADD10C,0.0100*%
%ADD23R,0.0472X0.0551*%
%ADD24R,0.0551X0.0472*%
%ADD38C,0.0600*%
%ADD51C,0.0200*%
%ADD52C,0.0591*%
%ADD53R,0.0591X0.0591*%
%ADD54R,0.1000X0.0500*%
%ADD55O,0.1000X0.0500*%
%ADD56C,0.0520*%
%ADD57R,0.0591X0.0591*%
%ADD58C,0.0512*%
%ADD59C,0.0750*%
%ADD60R,0.0531X0.0531*%
%ADD61C,0.0531*%
%ADD62P,0.0704X8X292.5*%
%ADD63C,0.0650*%
%ADD64R,0.0650X0.0650*%
%ADD65C,0.0650*%
%ADD66R,0.1600X0.1000*%
%ADD67R,0.1000X0.1600*%
%ADD68C,0.0200*%
%ADD69R,0.0433X0.0846*%
%ADD70R,0.1319X0.0846*%
%ADD71R,0.1417X0.2165*%
%ADD72R,0.0886X0.1252*%
%ADD73R,0.0390X0.1492*%
%ADD74R,0.4268X0.3102*%
G36*
X52178Y123D02*
X123D01*
X123Y19585D01*
X46701D01*
Y19060D01*
X47601D01*
X48501D01*
Y19585D01*
X52178D01*
Y123D01*
D02*
G37*
%LPC*%
G36*
X48501Y18960D02*
X47651D01*
Y18410D01*
X48501D01*
Y18960D01*
D02*
G37*
G36*
X47551D02*
X46701D01*
Y18410D01*
X47551D01*
Y18960D01*
D02*
G37*
G36*
X45566Y19494D02*
X43382D01*
Y17893D01*
X45566D01*
Y19494D01*
D02*
G37*
G36*
X43282D02*
X41098D01*
Y17893D01*
X43282D01*
Y19494D01*
D02*
G37*
G36*
X39430Y18855D02*
X37972D01*
Y17869D01*
X39430D01*
Y18855D01*
D02*
G37*
G36*
X49701Y17910D02*
X49151D01*
Y17060D01*
X49701D01*
Y17910D01*
D02*
G37*
G36*
X49051D02*
X48501D01*
Y17060D01*
X49051D01*
Y17910D01*
D02*
G37*
G36*
X45566Y17793D02*
X43382D01*
Y16191D01*
X45566D01*
Y17793D01*
D02*
G37*
G36*
X43282D02*
X41098D01*
Y16191D01*
X43282D01*
Y17793D01*
D02*
G37*
G36*
X49701Y16960D02*
X49151D01*
Y16110D01*
X49701D01*
Y16960D01*
D02*
G37*
G36*
X49051D02*
X48501D01*
Y16110D01*
X49051D01*
Y16960D01*
D02*
G37*
G36*
X39923Y16582D02*
X39656D01*
Y16109D01*
X39923D01*
Y16582D01*
D02*
G37*
G36*
X39556D02*
X39290D01*
Y16109D01*
X39556D01*
Y16582D01*
D02*
G37*
G36*
X32703Y15800D02*
X32012D01*
Y15604D01*
X31769D01*
X31747Y15625D01*
X31685Y15651D01*
X31617D01*
X31555Y15625D01*
X31507Y15578D01*
X31481Y15515D01*
Y15448D01*
X31507Y15385D01*
X31555Y15337D01*
X31617Y15311D01*
X31685D01*
X31747Y15337D01*
X31769Y15359D01*
X32012D01*
Y15188D01*
X32703D01*
Y15800D01*
D02*
G37*
G36*
X39923Y16009D02*
X39656D01*
Y15536D01*
X39923D01*
Y16009D01*
D02*
G37*
G36*
X39556D02*
X39290D01*
Y15536D01*
X39556D01*
Y16009D01*
D02*
G37*
G36*
X30540Y14236D02*
X30528D01*
Y13811D01*
X30953D01*
Y13824D01*
X30921Y13944D01*
X30858Y14053D01*
X30770Y14141D01*
X30661Y14204D01*
X30540Y14236D01*
D02*
G37*
G36*
X30428D02*
X30415D01*
X30295Y14204D01*
X30186Y14141D01*
X30098Y14053D01*
X30035Y13944D01*
X30003Y13824D01*
Y13811D01*
X30428D01*
Y14236D01*
D02*
G37*
G36*
X47171Y17880D02*
X46031D01*
Y16140D01*
X46428D01*
Y13784D01*
X44935D01*
Y14426D01*
X44405D01*
Y12794D01*
X44497D01*
Y11746D01*
X44329D01*
Y11075D01*
X45001D01*
Y11746D01*
X44844D01*
Y12794D01*
X44935D01*
Y13437D01*
X47681D01*
Y13275D01*
X48352D01*
Y13946D01*
X47681D01*
Y13784D01*
X46774D01*
Y16140D01*
X47171D01*
Y17880D01*
D02*
G37*
G36*
X43627Y14456D02*
X43382D01*
Y13660D01*
X43627D01*
Y14456D01*
D02*
G37*
G36*
X43282D02*
X43037D01*
Y13660D01*
X43282D01*
Y14456D01*
D02*
G37*
G36*
X42288D02*
X42043D01*
Y13660D01*
X42288D01*
Y14456D01*
D02*
G37*
G36*
X50035Y13976D02*
Y13660D01*
X50350D01*
X50326Y13752D01*
X50278Y13835D01*
X50210Y13903D01*
X50126Y13951D01*
X50035Y13976D01*
D02*
G37*
G36*
X49935D02*
X49844Y13951D01*
X49761Y13903D01*
X49693Y13835D01*
X49644Y13752D01*
X49620Y13660D01*
X49935D01*
Y13976D01*
D02*
G37*
G36*
X39735D02*
Y13660D01*
X40050D01*
X40026Y13752D01*
X39978Y13835D01*
X39910Y13903D01*
X39826Y13951D01*
X39735Y13976D01*
D02*
G37*
G36*
X39635D02*
X39544Y13951D01*
X39461Y13903D01*
X39393Y13835D01*
X39344Y13752D01*
X39320Y13660D01*
X39635D01*
Y13976D01*
D02*
G37*
G36*
X41943Y14456D02*
X41698D01*
Y13660D01*
X41943D01*
Y14456D01*
D02*
G37*
G36*
X30953Y13711D02*
X30528D01*
Y13286D01*
X30540D01*
X30661Y13318D01*
X30770Y13381D01*
X30858Y13469D01*
X30921Y13578D01*
X30953Y13698D01*
Y13711D01*
D02*
G37*
G36*
X30428D02*
X30003D01*
Y13698D01*
X30035Y13578D01*
X30098Y13469D01*
X30186Y13381D01*
X30295Y13318D01*
X30415Y13286D01*
X30428D01*
Y13711D01*
D02*
G37*
G36*
X38988Y16552D02*
X38414D01*
Y15566D01*
X38579D01*
Y14645D01*
X37879Y13946D01*
X37381D01*
Y13275D01*
X38052D01*
Y13773D01*
X38787Y14508D01*
X38814Y14548D01*
X38823Y14595D01*
Y15566D01*
X38988D01*
Y16552D01*
D02*
G37*
G36*
X50350Y13560D02*
X50035D01*
Y13245D01*
X50126Y13270D01*
X50210Y13318D01*
X50278Y13386D01*
X50326Y13469D01*
X50350Y13560D01*
D02*
G37*
G36*
X49935D02*
X49620D01*
X49644Y13469D01*
X49693Y13386D01*
X49761Y13318D01*
X49844Y13270D01*
X49935Y13245D01*
Y13560D01*
D02*
G37*
G36*
X40050D02*
X39735D01*
Y13245D01*
X39826Y13270D01*
X39910Y13318D01*
X39978Y13386D01*
X40026Y13469D01*
X40050Y13560D01*
D02*
G37*
G36*
X39635D02*
X39320D01*
X39344Y13469D01*
X39393Y13386D01*
X39461Y13318D01*
X39544Y13270D01*
X39635Y13245D01*
Y13560D01*
D02*
G37*
G36*
X35667Y13331D02*
X35665D01*
Y12985D01*
X36010D01*
Y12987D01*
X35983Y13088D01*
X35931Y13178D01*
X35858Y13252D01*
X35767Y13304D01*
X35667Y13331D01*
D02*
G37*
G36*
X35565D02*
X35563D01*
X35462Y13304D01*
X35372Y13252D01*
X35299Y13178D01*
X35247Y13088D01*
X35220Y12987D01*
Y12985D01*
X35565D01*
Y13331D01*
D02*
G37*
G36*
X43627Y13560D02*
X43382D01*
Y12764D01*
X43627D01*
Y13560D01*
D02*
G37*
G36*
X43282D02*
X43037D01*
Y12764D01*
X43282D01*
Y13560D01*
D02*
G37*
G36*
X42288Y13560D02*
X42043D01*
Y12764D01*
X42288D01*
Y13560D01*
D02*
G37*
G36*
X41943D02*
X41698D01*
Y12764D01*
X41943D01*
Y13560D01*
D02*
G37*
G36*
X34980Y13301D02*
X34250D01*
Y12570D01*
X34980D01*
Y13301D01*
D02*
G37*
G36*
X36010Y12885D02*
X35665D01*
Y12540D01*
X35667D01*
X35767Y12567D01*
X35858Y12619D01*
X35931Y12693D01*
X35983Y12783D01*
X36010Y12883D01*
Y12885D01*
D02*
G37*
G36*
X35565D02*
X35220D01*
Y12883D01*
X35247Y12783D01*
X35299Y12693D01*
X35372Y12619D01*
X35462Y12567D01*
X35563Y12540D01*
X35565D01*
Y12885D01*
D02*
G37*
G36*
X31381Y12837D02*
X31095D01*
Y12511D01*
X31381D01*
Y12837D01*
D02*
G37*
G36*
X30478Y13190D02*
X30431Y13180D01*
X30391Y13154D01*
X30365Y13114D01*
X30356Y13067D01*
X30365Y13020D01*
X30391Y12981D01*
X30709Y12664D01*
Y12511D01*
X30995D01*
Y12837D01*
X30882D01*
X30564Y13154D01*
X30525Y13180D01*
X30478Y13190D01*
D02*
G37*
G36*
X31381Y12411D02*
X31095D01*
Y12085D01*
X31381D01*
Y12411D01*
D02*
G37*
G36*
X30995D02*
X30709D01*
Y12258D01*
X30391Y11941D01*
X30365Y11902D01*
X30356Y11855D01*
X30365Y11808D01*
X30391Y11768D01*
X30431Y11742D01*
X30478Y11732D01*
X30525Y11742D01*
X30564Y11768D01*
X30882Y12085D01*
X30995D01*
Y12411D01*
D02*
G37*
G36*
X46684Y11776D02*
Y11460D01*
X46999D01*
X46975Y11552D01*
X46926Y11635D01*
X46858Y11703D01*
X46775Y11751D01*
X46684Y11776D01*
D02*
G37*
G36*
X46584D02*
X46493Y11751D01*
X46409Y11703D01*
X46341Y11635D01*
X46293Y11552D01*
X46268Y11460D01*
X46584D01*
Y11776D01*
D02*
G37*
G36*
X43135D02*
Y11460D01*
X43450D01*
X43426Y11552D01*
X43378Y11635D01*
X43310Y11703D01*
X43226Y11751D01*
X43135Y11776D01*
D02*
G37*
G36*
X43035D02*
X42944Y11751D01*
X42861Y11703D01*
X42793Y11635D01*
X42744Y11552D01*
X42720Y11460D01*
X43035D01*
Y11776D01*
D02*
G37*
G36*
X39735Y11676D02*
Y11360D01*
X40050D01*
X40026Y11452D01*
X39978Y11535D01*
X39910Y11603D01*
X39826Y11651D01*
X39735Y11676D01*
D02*
G37*
G36*
X39635D02*
X39544Y11651D01*
X39461Y11603D01*
X39393Y11535D01*
X39344Y11452D01*
X39320Y11360D01*
X39635D01*
Y11676D01*
D02*
G37*
G36*
X30540Y11526D02*
X30528D01*
Y11101D01*
X30953D01*
Y11114D01*
X30921Y11234D01*
X30858Y11343D01*
X30770Y11431D01*
X30661Y11494D01*
X30540Y11526D01*
D02*
G37*
G36*
X30428D02*
X30415D01*
X30295Y11494D01*
X30186Y11431D01*
X30098Y11343D01*
X30035Y11234D01*
X30003Y11114D01*
Y11101D01*
X30428D01*
Y11526D01*
D02*
G37*
G36*
X46999Y11360D02*
X46684D01*
Y11045D01*
X46775Y11070D01*
X46858Y11118D01*
X46926Y11186D01*
X46975Y11269D01*
X46999Y11360D01*
D02*
G37*
G36*
X46584D02*
X46268D01*
X46293Y11269D01*
X46341Y11186D01*
X46409Y11118D01*
X46493Y11070D01*
X46584Y11045D01*
Y11360D01*
D02*
G37*
G36*
X43450D02*
X43135D01*
Y11045D01*
X43226Y11070D01*
X43310Y11118D01*
X43378Y11186D01*
X43426Y11269D01*
X43450Y11360D01*
D02*
G37*
G36*
X43035D02*
X42720D01*
X42744Y11269D01*
X42793Y11186D01*
X42861Y11118D01*
X42944Y11070D01*
X43035Y11045D01*
Y11360D01*
D02*
G37*
G36*
X40050Y11260D02*
X39735D01*
Y10945D01*
X39826Y10970D01*
X39910Y11018D01*
X39978Y11086D01*
X40026Y11169D01*
X40050Y11260D01*
D02*
G37*
G36*
X39635D02*
X39320D01*
X39344Y11169D01*
X39393Y11086D01*
X39461Y11018D01*
X39544Y10970D01*
X39635Y10945D01*
Y11260D01*
D02*
G37*
G36*
X32703Y14934D02*
X32012D01*
Y14322D01*
X32236D01*
Y14189D01*
X32186Y14176D01*
X32085Y14117D01*
X32002Y14034D01*
X31943Y13933D01*
X31913Y13820D01*
Y13702D01*
X31943Y13589D01*
X32002Y13488D01*
X32085Y13405D01*
X32186Y13346D01*
X32236Y13333D01*
Y12998D01*
X32044Y12807D01*
X31605D01*
Y12115D01*
X32044D01*
X32236Y11924D01*
Y11479D01*
X32186Y11466D01*
X32085Y11407D01*
X32002Y11324D01*
X31943Y11223D01*
X31913Y11110D01*
Y10992D01*
X31943Y10879D01*
X32002Y10778D01*
X32085Y10695D01*
X32186Y10636D01*
X32299Y10606D01*
X32416D01*
X32530Y10636D01*
X32631Y10695D01*
X32714Y10778D01*
X32773Y10879D01*
X32803Y10992D01*
Y11110D01*
X32773Y11223D01*
X32714Y11324D01*
X32631Y11407D01*
X32530Y11466D01*
X32480Y11479D01*
Y11975D01*
X32471Y12021D01*
X32444Y12061D01*
X32217Y12288D01*
Y12634D01*
X32444Y12861D01*
X32471Y12900D01*
X32480Y12947D01*
Y13333D01*
X32530Y13346D01*
X32631Y13405D01*
X32714Y13488D01*
X32773Y13589D01*
X32803Y13702D01*
Y13820D01*
X32773Y13933D01*
X32714Y14034D01*
X32631Y14117D01*
X32530Y14176D01*
X32480Y14189D01*
Y14322D01*
X32703D01*
Y14934D01*
D02*
G37*
G36*
X30953Y11001D02*
X30528D01*
Y10576D01*
X30540D01*
X30661Y10608D01*
X30770Y10671D01*
X30858Y10759D01*
X30921Y10868D01*
X30953Y10988D01*
Y11001D01*
D02*
G37*
G36*
X30428D02*
X30003D01*
Y10988D01*
X30035Y10868D01*
X30098Y10759D01*
X30186Y10671D01*
X30295Y10608D01*
X30415Y10576D01*
X30428D01*
Y11001D01*
D02*
G37*
G36*
X28385Y18521D02*
X12750D01*
X12703Y18512D01*
X12663Y18486D01*
X10994Y16817D01*
X10968Y16777D01*
X10959Y16730D01*
Y16453D01*
X721D01*
X674Y16443D01*
X634Y16417D01*
X608Y16377D01*
X599Y16330D01*
Y6330D01*
X608Y6284D01*
X634Y6244D01*
X674Y6217D01*
X721Y6208D01*
X9630D01*
X15024Y814D01*
X15064Y787D01*
X15111Y778D01*
X27662D01*
X27709Y787D01*
X27749Y814D01*
X27807Y872D01*
X27834Y912D01*
X27843Y959D01*
Y5729D01*
X27893Y5750D01*
X27911Y5732D01*
X27974Y5706D01*
X28041D01*
X28104Y5732D01*
X28125Y5754D01*
X28468D01*
X28495Y5727D01*
X28557Y5701D01*
X28625D01*
X28687Y5727D01*
X28735Y5775D01*
X28761Y5838D01*
Y5905D01*
X28735Y5968D01*
X28687Y6015D01*
X28625Y6041D01*
X28557D01*
X28495Y6015D01*
X28478Y5999D01*
X28125D01*
X28104Y6021D01*
X28041Y6046D01*
X27974D01*
X27911Y6021D01*
X27893Y6003D01*
X27843Y6024D01*
Y6385D01*
X27893Y6406D01*
X27903Y6396D01*
X27966Y6370D01*
X27996D01*
X28102Y6264D01*
X28142Y6237D01*
X28189Y6228D01*
X30127D01*
X30148Y6183D01*
X30147Y6178D01*
X30083Y6129D01*
X30031Y6062D01*
X29999Y5984D01*
X29988Y5900D01*
X29999Y5817D01*
X30031Y5739D01*
X30083Y5672D01*
X30150Y5621D01*
X30227Y5589D01*
X30311Y5578D01*
X30811D01*
X30895Y5589D01*
X30972Y5621D01*
X31039Y5672D01*
X31091Y5739D01*
X31123Y5817D01*
X31129Y5862D01*
X31181Y5880D01*
X31797Y5265D01*
X31799Y5252D01*
X31826Y5212D01*
X32991Y4047D01*
Y3580D01*
X34131D01*
Y4220D01*
X33164D01*
X32028Y5356D01*
X32025Y5369D01*
X31999Y5409D01*
X30971Y6437D01*
X30931Y6463D01*
X30884Y6473D01*
X28240D01*
X28169Y6543D01*
Y6574D01*
X28144Y6636D01*
X28096Y6684D01*
X28033Y6710D01*
X27966D01*
X27903Y6684D01*
X27893Y6674D01*
X27843Y6695D01*
Y6998D01*
X27893Y7019D01*
X27905Y7007D01*
X27967Y6981D01*
X28035D01*
X28097Y7007D01*
X28145Y7055D01*
X28171Y7118D01*
Y7148D01*
X28861Y7838D01*
X37710D01*
X38388Y7160D01*
Y7147D01*
X38414Y7085D01*
X38462Y7037D01*
X38524Y7011D01*
X38592D01*
X38654Y7037D01*
X38702Y7085D01*
X38728Y7147D01*
Y7215D01*
X38702Y7277D01*
X38654Y7325D01*
X38646Y7328D01*
Y7383D01*
X38657Y7387D01*
X38705Y7435D01*
X38731Y7498D01*
X38779Y7492D01*
Y3950D01*
X38788Y3904D01*
X38814Y3864D01*
X40674Y2004D01*
X40714Y1977D01*
X40761Y1968D01*
X45681D01*
X45728Y1977D01*
X45767Y2004D01*
X48191Y4428D01*
X48203Y4415D01*
X48598D01*
X48796Y4613D01*
Y4688D01*
X50006D01*
Y4613D01*
X50203Y4415D01*
X50598D01*
X50796Y4613D01*
Y5008D01*
X50598Y5205D01*
X50203D01*
X50006Y5008D01*
Y4933D01*
X48796D01*
Y5008D01*
X48598Y5205D01*
X48203D01*
X48006Y5008D01*
Y4613D01*
X48018Y4601D01*
X45630Y2213D01*
X40812D01*
X39023Y4001D01*
Y7910D01*
X39014Y7957D01*
X38987Y7997D01*
X37661Y9323D01*
Y9354D01*
X37635Y9417D01*
X37587Y9464D01*
X37525Y9490D01*
X37457D01*
X37395Y9464D01*
X37347Y9417D01*
X37321Y9354D01*
Y9287D01*
X37347Y9224D01*
X37395Y9176D01*
X37457Y9150D01*
X37488D01*
X38779Y7860D01*
Y7571D01*
X38731Y7565D01*
X38705Y7628D01*
X38657Y7675D01*
X38595Y7701D01*
X38564D01*
X37969Y8297D01*
X37929Y8323D01*
X37882Y8333D01*
X28707D01*
X28686Y8383D01*
X28802Y8498D01*
X33561D01*
X33597Y8462D01*
X33659Y8436D01*
X33727D01*
X33790Y8462D01*
X33837Y8510D01*
X33863Y8572D01*
Y8640D01*
X33837Y8702D01*
X33790Y8750D01*
X33727Y8776D01*
X33659D01*
X33597Y8750D01*
X33590Y8743D01*
X28751D01*
X28704Y8733D01*
X28664Y8707D01*
X27998Y8040D01*
X27967D01*
X27905Y8014D01*
X27893Y8003D01*
X27843Y8024D01*
Y8222D01*
X27865Y8244D01*
X27891Y8307D01*
Y8374D01*
X27865Y8437D01*
X27817Y8484D01*
X27755Y8510D01*
X27687D01*
X27625Y8484D01*
X27577Y8437D01*
X27551Y8374D01*
Y8307D01*
X27577Y8244D01*
X27599Y8222D01*
Y3622D01*
X27590Y3576D01*
X27549Y3576D01*
X27304D01*
Y3200D01*
Y2825D01*
X27590Y2825D01*
X27599Y2778D01*
Y1023D01*
X15162D01*
X10023Y6162D01*
X10042Y6208D01*
X11321D01*
X11368Y6217D01*
X11407Y6244D01*
X11434Y6284D01*
X11443Y6330D01*
Y6930D01*
Y8230D01*
Y9708D01*
X12040D01*
X13964Y7784D01*
X14004Y7757D01*
X14051Y7748D01*
X19908D01*
Y6810D01*
X19724D01*
Y6119D01*
X19908D01*
Y5816D01*
X19728D01*
Y5125D01*
X19908D01*
Y4820D01*
X19724D01*
Y4129D01*
X20336D01*
Y4820D01*
X20152D01*
Y5125D01*
X20340D01*
Y5816D01*
X20152D01*
Y6119D01*
X20336D01*
Y6342D01*
X22749D01*
X22768Y6296D01*
X20405Y3933D01*
X18695D01*
X18329Y4298D01*
X18350Y4348D01*
X18858D01*
Y4129D01*
X19470D01*
Y4820D01*
X18858D01*
Y4593D01*
X18329D01*
X18324Y4611D01*
X18276Y4695D01*
X18208Y4763D01*
X18125Y4811D01*
X18032Y4836D01*
X17936D01*
X17843Y4811D01*
X17760Y4763D01*
X17692Y4695D01*
X17644Y4611D01*
X17619Y4518D01*
Y4422D01*
X17644Y4329D01*
X17692Y4246D01*
X17760Y4178D01*
X17843Y4130D01*
X17936Y4105D01*
X18032D01*
X18125Y4130D01*
X18142Y4140D01*
X18557Y3724D01*
X18597Y3697D01*
X18644Y3688D01*
X20456D01*
X20502Y3697D01*
X20542Y3724D01*
X25126Y8308D01*
X26267D01*
X26277Y8258D01*
X26245Y8244D01*
X26197Y8197D01*
X26171Y8134D01*
Y8103D01*
X25900Y7833D01*
X25361D01*
X25314Y7823D01*
X25274Y7797D01*
X21014Y3537D01*
X20988Y3497D01*
X20979Y3450D01*
Y1408D01*
X20957Y1387D01*
X20931Y1324D01*
Y1257D01*
X20957Y1194D01*
X21005Y1146D01*
X21067Y1120D01*
X21135D01*
X21197Y1146D01*
X21245Y1194D01*
X21271Y1257D01*
Y1324D01*
X21245Y1387D01*
X21223Y1408D01*
Y3400D01*
X25412Y7588D01*
X25951D01*
X25998Y7597D01*
X26037Y7624D01*
X26344Y7930D01*
X26375D01*
X26437Y7956D01*
X26485Y8004D01*
X26511Y8067D01*
Y8134D01*
X26485Y8197D01*
X26437Y8244D01*
X26405Y8258D01*
X26415Y8308D01*
X26671D01*
X26718Y8317D01*
X26757Y8344D01*
X27734Y9320D01*
X27765D01*
X27827Y9346D01*
X27875Y9394D01*
X27901Y9457D01*
Y9524D01*
X27875Y9587D01*
X27827Y9634D01*
X27765Y9660D01*
X27697D01*
X27635Y9634D01*
X27590Y9590D01*
X27574Y9592D01*
X27540Y9605D01*
Y9758D01*
X27613D01*
X27635Y9736D01*
X27697Y9710D01*
X27765D01*
X27827Y9736D01*
X27875Y9784D01*
X27901Y9847D01*
Y9914D01*
X27875Y9977D01*
X27844Y10008D01*
X27864Y10058D01*
X27999D01*
Y9423D01*
X26021Y7446D01*
X25582D01*
Y6755D01*
X25809D01*
Y6518D01*
X25787Y6497D01*
X25761Y6434D01*
Y6367D01*
X25787Y6304D01*
X25835Y6256D01*
X25897Y6230D01*
X25965D01*
X26027Y6256D01*
X26075Y6304D01*
X26101Y6367D01*
Y6434D01*
X26075Y6497D01*
X26053Y6518D01*
Y6755D01*
X26194D01*
Y7273D01*
X26368Y7447D01*
X26418Y7426D01*
Y7150D01*
X26704D01*
Y7476D01*
X26468D01*
X26447Y7526D01*
X28207Y9286D01*
X28234Y9326D01*
X28243Y9373D01*
Y10122D01*
X28234Y10169D01*
X28207Y10208D01*
X28149Y10267D01*
X28109Y10293D01*
X28062Y10303D01*
X27889D01*
X27869Y10353D01*
X27891Y10407D01*
Y10437D01*
X28767Y11314D01*
X28794Y11354D01*
X28803Y11400D01*
Y12832D01*
X28853Y12864D01*
X28887Y12850D01*
X28955D01*
X29017Y12876D01*
X29039Y12898D01*
X29499D01*
Y9340D01*
X29508Y9294D01*
X29534Y9254D01*
X29764Y9024D01*
X29804Y8997D01*
X29851Y8988D01*
X35841D01*
X35888Y8997D01*
X35927Y9024D01*
X36562Y9658D01*
X37820D01*
X38265Y9214D01*
Y9172D01*
X38290Y9109D01*
X38338Y9061D01*
X38401Y9036D01*
X38468D01*
X38531Y9061D01*
X38579Y9109D01*
X38605Y9172D01*
Y9239D01*
X38579Y9302D01*
X38531Y9350D01*
X38468Y9376D01*
X38449D01*
X37957Y9867D01*
X37918Y9893D01*
X37871Y9903D01*
X36511D01*
X36464Y9893D01*
X36424Y9867D01*
X35790Y9233D01*
X29902D01*
X29743Y9391D01*
Y12903D01*
X29765Y12925D01*
X29791Y12988D01*
Y13055D01*
X29765Y13118D01*
X29717Y13166D01*
X29655Y13191D01*
X29587D01*
X29525Y13166D01*
X29502Y13143D01*
X29039D01*
X29017Y13164D01*
X28955Y13190D01*
X28887D01*
X28853Y13176D01*
X28803Y13208D01*
Y18103D01*
X28794Y18149D01*
X28767Y18189D01*
X28471Y18486D01*
X28431Y18512D01*
X28385Y18521D01*
D02*
G37*
G36*
X49653Y9605D02*
X49549D01*
X49449Y9578D01*
X49359Y9526D01*
X49285Y9453D01*
X49233Y9363D01*
X49206Y9262D01*
Y9158D01*
X49233Y9058D01*
X49285Y8968D01*
X49359Y8894D01*
X49449Y8842D01*
X49549Y8816D01*
X49653D01*
X49753Y8842D01*
X49843Y8894D01*
X49917Y8968D01*
X49969Y9058D01*
X49996Y9158D01*
Y9262D01*
X49969Y9363D01*
X49917Y9453D01*
X49843Y9526D01*
X49753Y9578D01*
X49653Y9605D01*
D02*
G37*
G36*
X27090Y7476D02*
X26804D01*
Y7150D01*
X27090D01*
Y7476D01*
D02*
G37*
G36*
X33811Y7253D02*
X33611D01*
Y6950D01*
X34157D01*
X34152Y6992D01*
X34117Y7077D01*
X34061Y7150D01*
X33987Y7206D01*
X33902Y7241D01*
X33811Y7253D01*
D02*
G37*
G36*
X33511D02*
X33311D01*
X33220Y7241D01*
X33134Y7206D01*
X33061Y7150D01*
X33005Y7077D01*
X32970Y6992D01*
X32965Y6950D01*
X33511D01*
Y7253D01*
D02*
G37*
G36*
X49996Y7605D02*
X49206D01*
Y6816D01*
X49996D01*
Y7605D01*
D02*
G37*
G36*
X27090Y7050D02*
X26804D01*
Y6725D01*
X27090D01*
Y7050D01*
D02*
G37*
G36*
X26704D02*
X26418D01*
Y6725D01*
X26704D01*
Y7050D01*
D02*
G37*
G36*
X30811Y7223D02*
X30311D01*
X30227Y7212D01*
X30150Y7180D01*
X30083Y7129D01*
X30031Y7062D01*
X29999Y6984D01*
X29988Y6900D01*
X29999Y6817D01*
X30031Y6739D01*
X30083Y6672D01*
X30150Y6621D01*
X30227Y6589D01*
X30311Y6578D01*
X30811D01*
X30895Y6589D01*
X30972Y6621D01*
X31039Y6672D01*
X31091Y6739D01*
X31123Y6817D01*
X31134Y6900D01*
X31123Y6984D01*
X31091Y7062D01*
X31039Y7129D01*
X30972Y7180D01*
X30895Y7212D01*
X30811Y7223D01*
D02*
G37*
G36*
X34157Y6850D02*
X33611D01*
Y6547D01*
X33811D01*
X33902Y6559D01*
X33987Y6595D01*
X34061Y6651D01*
X34117Y6724D01*
X34152Y6809D01*
X34157Y6850D01*
D02*
G37*
G36*
X33511D02*
X32965D01*
X32970Y6809D01*
X33005Y6724D01*
X33061Y6651D01*
X33134Y6595D01*
X33220Y6559D01*
X33311Y6547D01*
X33511D01*
Y6850D01*
D02*
G37*
G36*
X15379Y6866D02*
X15034D01*
Y6520D01*
X15379D01*
Y6866D01*
D02*
G37*
G36*
X14934D02*
X14589D01*
Y6520D01*
X14934D01*
Y6866D01*
D02*
G37*
G36*
X26961Y6416D02*
Y6270D01*
X27107D01*
X27081Y6334D01*
X27024Y6390D01*
X26961Y6416D01*
D02*
G37*
G36*
X26861D02*
X26798Y6390D01*
X26741Y6334D01*
X26715Y6270D01*
X26861D01*
Y6416D01*
D02*
G37*
G36*
X38082Y16552D02*
X37509D01*
Y15811D01*
X36738Y15040D01*
X36701Y14984D01*
X36688Y14918D01*
Y12166D01*
X36701Y12100D01*
X36738Y12044D01*
X37381Y11401D01*
Y10975D01*
X37628D01*
Y10810D01*
X37641Y10744D01*
X37678Y10688D01*
X38678Y9688D01*
X38735Y9650D01*
X38801Y9637D01*
X38801Y9637D01*
X40479D01*
Y8963D01*
X39873D01*
Y6903D01*
X39575Y6605D01*
X39381D01*
X39364Y6601D01*
X39347D01*
X39331Y6595D01*
X39315Y6592D01*
X39300Y6582D01*
X39285Y6575D01*
X39273Y6563D01*
X39258Y6554D01*
X39249Y6540D01*
X39237Y6528D01*
X39230Y6512D01*
X39221Y6498D01*
X39218Y6481D01*
X39211Y6465D01*
Y6448D01*
X39208Y6431D01*
X39211Y6415D01*
Y6398D01*
X39218Y6382D01*
X39221Y6365D01*
X39230Y6351D01*
X39237Y6335D01*
X39249Y6323D01*
X39258Y6309D01*
X39273Y6299D01*
X39285Y6287D01*
X39300Y6281D01*
X39315Y6271D01*
X39331Y6268D01*
X39347Y6261D01*
X39364D01*
X39381Y6258D01*
X39647D01*
X39714Y6271D01*
X39770Y6309D01*
X40119Y6658D01*
X41431D01*
Y8963D01*
X40825D01*
Y9810D01*
Y10874D01*
X41026Y11075D01*
X41452D01*
Y11237D01*
X41601D01*
X41667Y11250D01*
X41724Y11288D01*
X42785Y12349D01*
X42823Y12405D01*
X42836Y12472D01*
Y12794D01*
X42927D01*
Y14426D01*
X42398D01*
Y12794D01*
X42489D01*
Y12544D01*
X41529Y11584D01*
X41452D01*
Y11746D01*
X40781D01*
Y11320D01*
X40530Y11068D01*
X40492Y11012D01*
X40479Y10946D01*
Y9984D01*
X38873D01*
X37974Y10882D01*
Y10975D01*
X38052D01*
Y11646D01*
X37626D01*
X37034Y12238D01*
Y14846D01*
X37754Y15566D01*
X38082D01*
Y16552D01*
D02*
G37*
G36*
X38575Y6581D02*
X38507D01*
X38445Y6556D01*
X38397Y6508D01*
X38371Y6445D01*
Y6378D01*
X38397Y6315D01*
X38445Y6267D01*
X38507Y6241D01*
X38575D01*
X38637Y6267D01*
X38685Y6315D01*
X38711Y6378D01*
Y6445D01*
X38685Y6508D01*
X38637Y6556D01*
X38575Y6581D01*
D02*
G37*
G36*
X18032Y6836D02*
X17936D01*
X17843Y6811D01*
X17760Y6763D01*
X17692Y6695D01*
X17644Y6611D01*
X17619Y6518D01*
Y6422D01*
X17644Y6329D01*
X17692Y6246D01*
X17760Y6178D01*
X17843Y6130D01*
X17936Y6105D01*
X18032D01*
X18125Y6130D01*
X18208Y6178D01*
X18276Y6246D01*
X18324Y6329D01*
X18329Y6348D01*
X18858D01*
Y6119D01*
X19470D01*
Y6810D01*
X18858D01*
Y6593D01*
X18329D01*
X18324Y6611D01*
X18276Y6695D01*
X18208Y6763D01*
X18125Y6811D01*
X18032Y6836D01*
D02*
G37*
G36*
X15379Y6420D02*
X15034D01*
Y6075D01*
X15379D01*
Y6420D01*
D02*
G37*
G36*
X14934D02*
X14589D01*
Y6075D01*
X14934D01*
Y6420D01*
D02*
G37*
G36*
X27107Y6170D02*
X26961D01*
Y6025D01*
X27024Y6051D01*
X27081Y6107D01*
X27107Y6170D01*
D02*
G37*
G36*
X26861D02*
X26715D01*
X26741Y6107D01*
X26798Y6051D01*
X26861Y6025D01*
Y6170D01*
D02*
G37*
G36*
X33811Y6223D02*
X33311D01*
X33227Y6212D01*
X33150Y6180D01*
X33083Y6129D01*
X33031Y6062D01*
X32999Y5984D01*
X32988Y5900D01*
X32999Y5817D01*
X33031Y5739D01*
X33083Y5672D01*
X33150Y5621D01*
X33227Y5589D01*
X33311Y5578D01*
X33811D01*
X33895Y5589D01*
X33972Y5621D01*
X34039Y5672D01*
X34090Y5739D01*
X34123Y5817D01*
X34134Y5900D01*
X34123Y5984D01*
X34090Y6062D01*
X34039Y6129D01*
X33972Y6180D01*
X33895Y6212D01*
X33811Y6223D01*
D02*
G37*
G36*
X15036Y5866D02*
X15034D01*
Y5520D01*
X15379D01*
Y5522D01*
X15352Y5623D01*
X15300Y5713D01*
X15227Y5787D01*
X15137Y5839D01*
X15036Y5866D01*
D02*
G37*
G36*
X14934D02*
X14932D01*
X14831Y5839D01*
X14741Y5787D01*
X14668Y5713D01*
X14616Y5623D01*
X14589Y5522D01*
Y5520D01*
X14934D01*
Y5866D01*
D02*
G37*
G36*
X24855Y6370D02*
X24787D01*
X24725Y6344D01*
X24677Y6297D01*
X24651Y6234D01*
Y6167D01*
X24677Y6104D01*
X24699Y6082D01*
Y5466D01*
X24649Y5446D01*
X24543Y5551D01*
Y6082D01*
X24565Y6104D01*
X24591Y6167D01*
Y6234D01*
X24565Y6297D01*
X24517Y6344D01*
X24455Y6370D01*
X24387D01*
X24325Y6344D01*
X24277Y6297D01*
X24251Y6234D01*
Y6167D01*
X24277Y6104D01*
X24299Y6082D01*
Y5500D01*
X24308Y5454D01*
X24334Y5414D01*
X24999Y4750D01*
Y4157D01*
X24387Y3546D01*
X23948D01*
Y2855D01*
X24132D01*
Y2457D01*
X24141Y2410D01*
X24168Y2371D01*
X24309Y2229D01*
X24307Y2226D01*
X24285Y2143D01*
Y2057D01*
X24307Y1975D01*
X24350Y1900D01*
X24411Y1840D01*
X24485Y1797D01*
X24568Y1774D01*
X24654D01*
X24737Y1797D01*
X24811Y1840D01*
X24872Y1900D01*
X24914Y1975D01*
X24937Y2057D01*
Y2143D01*
X24914Y2226D01*
X24872Y2300D01*
X24811Y2361D01*
X24737Y2404D01*
X24654Y2426D01*
X24568D01*
X24485Y2404D01*
X24482Y2402D01*
X24376Y2508D01*
Y2855D01*
X24560D01*
Y3373D01*
X25207Y4020D01*
X25234Y4060D01*
X25243Y4107D01*
Y4734D01*
X25293Y4755D01*
X26266Y3783D01*
Y3546D01*
X26082D01*
Y2855D01*
X26266D01*
Y2708D01*
X25960Y2402D01*
X25957Y2404D01*
X25874Y2426D01*
X25788D01*
X25705Y2404D01*
X25631Y2361D01*
X25570Y2300D01*
X25528Y2226D01*
X25505Y2143D01*
Y2057D01*
X25528Y1975D01*
X25570Y1900D01*
X25631Y1840D01*
X25705Y1797D01*
X25788Y1774D01*
X25874D01*
X25957Y1797D01*
X26031Y1840D01*
X26092Y1900D01*
X26135Y1975D01*
X26157Y2057D01*
Y2143D01*
X26135Y2226D01*
X26133Y2229D01*
X26474Y2571D01*
X26501Y2610D01*
X26510Y2657D01*
Y2855D01*
X26694D01*
Y3546D01*
X26510D01*
Y3833D01*
X26501Y3880D01*
X26474Y3920D01*
X24943Y5451D01*
Y6082D01*
X24965Y6104D01*
X24991Y6167D01*
Y6234D01*
X24965Y6297D01*
X24917Y6344D01*
X24855Y6370D01*
D02*
G37*
G36*
X18032Y5836D02*
X17936D01*
X17843Y5811D01*
X17760Y5763D01*
X17692Y5695D01*
X17644Y5611D01*
X17619Y5518D01*
Y5422D01*
X17644Y5329D01*
X17692Y5246D01*
X17760Y5178D01*
X17843Y5130D01*
X17936Y5105D01*
X18032D01*
X18125Y5130D01*
X18208Y5178D01*
X18276Y5246D01*
X18324Y5329D01*
X18329Y5348D01*
X18862D01*
Y5125D01*
X19474D01*
Y5816D01*
X18862D01*
Y5593D01*
X18329D01*
X18324Y5611D01*
X18276Y5695D01*
X18208Y5763D01*
X18125Y5811D01*
X18032Y5836D01*
D02*
G37*
G36*
X15379Y5420D02*
X15034D01*
Y5075D01*
X15036D01*
X15137Y5102D01*
X15227Y5154D01*
X15300Y5228D01*
X15352Y5318D01*
X15379Y5418D01*
Y5420D01*
D02*
G37*
G36*
X14934D02*
X14589D01*
Y5418D01*
X14616Y5318D01*
X14668Y5228D01*
X14741Y5154D01*
X14831Y5102D01*
X14932Y5075D01*
X14934D01*
Y5420D01*
D02*
G37*
G36*
X33811Y5223D02*
X33311D01*
X33227Y5212D01*
X33150Y5180D01*
X33083Y5129D01*
X33031Y5062D01*
X32999Y4984D01*
X32988Y4900D01*
X32999Y4817D01*
X33031Y4739D01*
X33083Y4672D01*
X33150Y4621D01*
X33227Y4589D01*
X33311Y4578D01*
X33811D01*
X33895Y4589D01*
X33972Y4621D01*
X34039Y4672D01*
X34090Y4739D01*
X34123Y4817D01*
X34134Y4900D01*
X34123Y4984D01*
X34090Y5062D01*
X34039Y5129D01*
X33972Y5180D01*
X33895Y5212D01*
X33811Y5223D01*
D02*
G37*
G36*
X30811D02*
X30311D01*
X30227Y5212D01*
X30150Y5180D01*
X30083Y5129D01*
X30031Y5062D01*
X29999Y4984D01*
X29988Y4900D01*
X29999Y4817D01*
X30031Y4739D01*
X30083Y4672D01*
X30150Y4621D01*
X30227Y4589D01*
X30311Y4578D01*
X30811D01*
X30895Y4589D01*
X30972Y4621D01*
X31039Y4672D01*
X31091Y4739D01*
X31123Y4817D01*
X31134Y4900D01*
X31123Y4984D01*
X31091Y5062D01*
X31039Y5129D01*
X30972Y5180D01*
X30895Y5212D01*
X30811Y5223D01*
D02*
G37*
G36*
X15036Y4866D02*
X15034D01*
Y4520D01*
X15379D01*
Y4522D01*
X15352Y4623D01*
X15300Y4713D01*
X15227Y4787D01*
X15137Y4839D01*
X15036Y4866D01*
D02*
G37*
G36*
X14934D02*
X14932D01*
X14831Y4839D01*
X14741Y4787D01*
X14668Y4713D01*
X14616Y4623D01*
X14589Y4522D01*
Y4520D01*
X14934D01*
Y4866D01*
D02*
G37*
G36*
X26314Y5030D02*
X26228D01*
X26144Y5008D01*
X26068Y4964D01*
X26007Y4903D01*
X25963Y4828D01*
X25941Y4744D01*
Y4657D01*
X25963Y4573D01*
X26007Y4498D01*
X26068Y4436D01*
X26144Y4393D01*
X26228Y4370D01*
X26314D01*
X26398Y4393D01*
X26474Y4436D01*
X26535Y4498D01*
X26578Y4573D01*
X26601Y4657D01*
Y4744D01*
X26578Y4828D01*
X26535Y4903D01*
X26474Y4964D01*
X26398Y5008D01*
X26314Y5030D01*
D02*
G37*
G36*
X24414D02*
X24328D01*
X24244Y5008D01*
X24168Y4964D01*
X24107Y4903D01*
X24063Y4828D01*
X24041Y4744D01*
Y4657D01*
X24063Y4573D01*
X24107Y4498D01*
X24168Y4436D01*
X24244Y4393D01*
X24328Y4370D01*
X24414D01*
X24498Y4393D01*
X24574Y4436D01*
X24635Y4498D01*
X24678Y4573D01*
X24701Y4657D01*
Y4744D01*
X24678Y4828D01*
X24635Y4903D01*
X24574Y4964D01*
X24498Y5008D01*
X24414Y5030D01*
D02*
G37*
G36*
X15379Y4420D02*
X15034D01*
Y4075D01*
X15036D01*
X15137Y4102D01*
X15227Y4154D01*
X15300Y4228D01*
X15352Y4318D01*
X15379Y4418D01*
Y4420D01*
D02*
G37*
G36*
X14934D02*
X14589D01*
Y4418D01*
X14616Y4318D01*
X14668Y4228D01*
X14741Y4154D01*
X14831Y4102D01*
X14932Y4075D01*
X14934D01*
Y4420D01*
D02*
G37*
G36*
X10586Y4609D02*
X9856D01*
Y3878D01*
X10586D01*
Y4609D01*
D02*
G37*
G36*
X30811Y4223D02*
X30311D01*
X30227Y4212D01*
X30150Y4180D01*
X30083Y4129D01*
X30031Y4062D01*
X29999Y3984D01*
X29988Y3900D01*
X29999Y3817D01*
X30031Y3739D01*
X30083Y3672D01*
X30150Y3621D01*
X30227Y3589D01*
X30311Y3578D01*
X30811D01*
X30895Y3589D01*
X30972Y3621D01*
X31039Y3672D01*
X31091Y3739D01*
X31123Y3817D01*
X31134Y3900D01*
X31123Y3984D01*
X31091Y4062D01*
X31039Y4129D01*
X30972Y4180D01*
X30895Y4212D01*
X30811Y4223D01*
D02*
G37*
G36*
X41784Y4236D02*
X41291D01*
Y3560D01*
X41784D01*
Y4236D01*
D02*
G37*
G36*
X41191D02*
X40698D01*
Y3560D01*
X41191D01*
Y4236D01*
D02*
G37*
G36*
X50453Y4205D02*
X50349D01*
X50249Y4178D01*
X50158Y4126D01*
X50085Y4053D01*
X50033Y3963D01*
X50006Y3862D01*
Y3758D01*
X50033Y3658D01*
X50085Y3568D01*
X50158Y3494D01*
X50249Y3442D01*
X50349Y3415D01*
X50453D01*
X50553Y3442D01*
X50644Y3494D01*
X50717Y3568D01*
X50769Y3658D01*
X50796Y3758D01*
Y3862D01*
X50769Y3963D01*
X50717Y4053D01*
X50644Y4126D01*
X50553Y4178D01*
X50453Y4205D01*
D02*
G37*
G36*
X48453D02*
X48349D01*
X48249Y4178D01*
X48158Y4126D01*
X48085Y4053D01*
X48033Y3963D01*
X48006Y3862D01*
Y3758D01*
X48033Y3658D01*
X48085Y3568D01*
X48158Y3494D01*
X48249Y3442D01*
X48349Y3415D01*
X48453D01*
X48553Y3442D01*
X48644Y3494D01*
X48717Y3568D01*
X48769Y3658D01*
X48796Y3758D01*
Y3862D01*
X48769Y3963D01*
X48717Y4053D01*
X48644Y4126D01*
X48553Y4178D01*
X48453Y4205D01*
D02*
G37*
G36*
X10273Y3639D02*
X10271D01*
Y3293D01*
X10616D01*
Y3295D01*
X10589Y3396D01*
X10537Y3486D01*
X10464Y3560D01*
X10374Y3612D01*
X10273Y3639D01*
D02*
G37*
G36*
X10171D02*
X10169D01*
X10068Y3612D01*
X9978Y3560D01*
X9905Y3486D01*
X9853Y3396D01*
X9826Y3295D01*
Y3293D01*
X10171D01*
Y3639D01*
D02*
G37*
G36*
X23724Y3576D02*
X23438D01*
Y3250D01*
X23724D01*
Y3576D01*
D02*
G37*
G36*
X23338D02*
X23052D01*
Y3250D01*
X23338D01*
Y3576D01*
D02*
G37*
G36*
X27204D02*
X26918D01*
Y3250D01*
X27204D01*
Y3576D01*
D02*
G37*
G36*
X10616Y3193D02*
X10271D01*
Y2848D01*
X10273D01*
X10374Y2875D01*
X10464Y2927D01*
X10537Y3001D01*
X10589Y3091D01*
X10616Y3191D01*
Y3193D01*
D02*
G37*
G36*
X10171D02*
X9826D01*
Y3191D01*
X9853Y3091D01*
X9905Y3001D01*
X9978Y2927D01*
X10068Y2875D01*
X10169Y2848D01*
X10171D01*
Y3193D01*
D02*
G37*
G36*
X23724Y3150D02*
X23438D01*
Y2825D01*
X23724D01*
Y3150D01*
D02*
G37*
G36*
X23338D02*
X23052D01*
Y2825D01*
X23338D01*
Y3150D01*
D02*
G37*
G36*
X27204D02*
X26918D01*
Y2825D01*
X27204D01*
Y3150D01*
D02*
G37*
G36*
X44266Y14426D02*
X43736D01*
Y12794D01*
X43828D01*
Y8963D01*
X43771D01*
Y6658D01*
X44376D01*
Y5627D01*
X44182Y5432D01*
X44144Y5376D01*
X44131Y5309D01*
Y4206D01*
X43448D01*
Y2814D01*
X44474D01*
Y3837D01*
X44477Y3853D01*
X44477Y3853D01*
Y5237D01*
X44672Y5432D01*
X44710Y5489D01*
X44723Y5555D01*
Y6658D01*
X45328D01*
Y8963D01*
X44174D01*
Y12794D01*
X44266D01*
Y14426D01*
D02*
G37*
G36*
X41784Y3460D02*
X41291D01*
Y2784D01*
X41784D01*
Y3460D01*
D02*
G37*
G36*
X41191D02*
X40698D01*
Y2784D01*
X41191D01*
Y3460D01*
D02*
G37*
G36*
X10269Y2609D02*
X10173D01*
X10080Y2584D01*
X9997Y2536D01*
X9929Y2468D01*
X9881Y2384D01*
X9856Y2291D01*
Y2195D01*
X9881Y2102D01*
X9929Y2019D01*
X9997Y1951D01*
X10080Y1903D01*
X10173Y1878D01*
X10269D01*
X10362Y1903D01*
X10445Y1951D01*
X10513Y2019D01*
X10561Y2102D01*
X10586Y2195D01*
Y2291D01*
X10561Y2384D01*
X10513Y2468D01*
X10445Y2536D01*
X10362Y2584D01*
X10269Y2609D01*
D02*
G37*
%LPD*%
G36*
X10959Y14701D02*
X10408Y14150D01*
X10364Y14175D01*
X10270Y14200D01*
X10172D01*
X10078Y14175D01*
X9994Y14126D01*
X9925Y14058D01*
X9876Y13973D01*
X9851Y13879D01*
Y13782D01*
X9876Y13688D01*
X9925Y13603D01*
X9994Y13534D01*
X9997Y13533D01*
X9983Y13483D01*
X9951D01*
X9904Y13473D01*
X9864Y13447D01*
X8984Y12567D01*
X8958Y12527D01*
X8949Y12480D01*
Y11390D01*
X8958Y11344D01*
X8984Y11304D01*
X9544Y10744D01*
X9584Y10717D01*
X9631Y10708D01*
X9871D01*
X9876Y10688D01*
X9925Y10603D01*
X9994Y10534D01*
X10078Y10486D01*
X10172Y10460D01*
X10270D01*
X10364Y10486D01*
X10448Y10534D01*
X10517Y10603D01*
X10566Y10688D01*
X10591Y10782D01*
Y10879D01*
X10566Y10973D01*
X10517Y11058D01*
X10457Y11118D01*
X10468Y11168D01*
X10771D01*
X10818Y11177D01*
X10857Y11204D01*
X11152Y11499D01*
X11199Y11480D01*
Y9953D01*
X10571D01*
X10566Y9973D01*
X10517Y10058D01*
X10448Y10126D01*
X10364Y10175D01*
X10270Y10200D01*
X10172D01*
X10078Y10175D01*
X9994Y10126D01*
X9925Y10058D01*
X9876Y9973D01*
X9851Y9879D01*
Y9782D01*
X9876Y9688D01*
X9925Y9603D01*
X9994Y9534D01*
X10078Y9486D01*
X10172Y9460D01*
X10270D01*
X10364Y9486D01*
X10448Y9534D01*
X10517Y9603D01*
X10566Y9688D01*
X10571Y9708D01*
X11199D01*
Y8230D01*
Y6930D01*
Y6453D01*
X9732D01*
X8473Y7711D01*
Y12910D01*
X10060Y14496D01*
X10078Y14486D01*
X10172Y14460D01*
X10270D01*
X10364Y14486D01*
X10448Y14534D01*
X10517Y14603D01*
X10566Y14688D01*
X10591Y14782D01*
Y14879D01*
X10566Y14973D01*
X10517Y15058D01*
X10448Y15126D01*
X10364Y15175D01*
X10270Y15200D01*
X10172D01*
X10078Y15175D01*
X9994Y15126D01*
X9925Y15058D01*
X9876Y14973D01*
X9851Y14879D01*
Y14782D01*
X9876Y14688D01*
X9887Y14669D01*
X8264Y13047D01*
X8238Y13007D01*
X8229Y12960D01*
Y7660D01*
X8238Y7614D01*
X8264Y7574D01*
X9339Y6499D01*
X9320Y6453D01*
X843D01*
Y16208D01*
X10959D01*
Y14701D01*
D02*
G37*
G36*
X18855Y16717D02*
Y16277D01*
X19547D01*
Y16461D01*
X23915D01*
X23934Y16415D01*
X23758Y16239D01*
X23732Y16199D01*
X23722Y16152D01*
Y13858D01*
X23479D01*
Y13615D01*
X22787D01*
Y13803D01*
X22095D01*
Y13191D01*
X22787D01*
Y13370D01*
X23479D01*
Y13127D01*
X23729D01*
Y12336D01*
X23486D01*
Y11605D01*
X23729D01*
Y11067D01*
X23738Y11020D01*
X23764Y10980D01*
X24122Y10623D01*
Y10313D01*
X24075Y10294D01*
X21363Y13006D01*
Y14532D01*
X21395Y14564D01*
X21421Y14627D01*
Y14694D01*
X21395Y14757D01*
X21347Y14804D01*
X21285Y14830D01*
X21217D01*
X21155Y14804D01*
X21107Y14757D01*
X21081Y14694D01*
Y14627D01*
X21107Y14564D01*
X21119Y14552D01*
Y12956D01*
X21128Y12909D01*
X21154Y12869D01*
X25111Y8912D01*
X25151Y8886D01*
X25198Y8877D01*
X26128D01*
X26152Y8827D01*
X26140Y8813D01*
X25647D01*
X25601Y8803D01*
X25561Y8777D01*
X25557Y8773D01*
X25042D01*
X21003Y12811D01*
Y14700D01*
X20994Y14747D01*
X20967Y14787D01*
X19987Y15767D01*
X19948Y15793D01*
X19901Y15803D01*
X19547D01*
Y16023D01*
X18855D01*
Y15803D01*
X18587D01*
X18570Y15842D01*
X18519Y15909D01*
X18452Y15960D01*
X18375Y15992D01*
X18291Y16003D01*
X17791D01*
X17707Y15992D01*
X17630Y15960D01*
X17563Y15909D01*
X17511Y15842D01*
X17479Y15764D01*
X17468Y15680D01*
X17479Y15597D01*
X17511Y15519D01*
X17563Y15452D01*
X17630Y15401D01*
X17707Y15369D01*
X17791Y15358D01*
X18291D01*
X18375Y15369D01*
X18452Y15401D01*
X18519Y15452D01*
X18570Y15519D01*
X18587Y15558D01*
X18855D01*
Y15411D01*
X19547D01*
Y15558D01*
X19850D01*
X20336Y15072D01*
X20315Y15022D01*
X19724D01*
Y14331D01*
X19912D01*
Y14025D01*
X19728D01*
Y13334D01*
X19912D01*
Y13024D01*
X19728D01*
Y12333D01*
X19912D01*
Y12033D01*
X19728D01*
Y11342D01*
X19912D01*
Y11024D01*
X19728D01*
Y10333D01*
X19912D01*
Y10046D01*
X19728D01*
Y9355D01*
X19912D01*
Y9026D01*
X19728D01*
Y8335D01*
X19908D01*
Y7993D01*
X14102D01*
X12264Y9830D01*
X12727Y10294D01*
X12754Y10334D01*
X12763Y10380D01*
Y16370D01*
X13902Y17508D01*
X18064D01*
X18855Y16717D01*
D02*
G37*
G36*
X11199Y14524D02*
Y13961D01*
X10720Y13483D01*
X10459D01*
X10445Y13533D01*
X10448Y13534D01*
X10517Y13603D01*
X10566Y13688D01*
X10591Y13782D01*
Y13879D01*
X10568Y13964D01*
X11149Y14545D01*
X11199Y14524D01*
D02*
G37*
G36*
X11679Y16690D02*
Y13581D01*
X11490Y13392D01*
X11443Y13411D01*
Y13860D01*
X11527Y13944D01*
X11554Y13984D01*
X11563Y14030D01*
Y16640D01*
X11632Y16709D01*
X11679Y16690D01*
D02*
G37*
G36*
X11199Y13550D02*
Y13101D01*
X10292Y12194D01*
X10270Y12200D01*
X10172D01*
X10078Y12175D01*
X9994Y12126D01*
X9925Y12058D01*
X9876Y11973D01*
X9851Y11879D01*
Y11782D01*
X9876Y11688D01*
X9925Y11603D01*
X9994Y11534D01*
X10078Y11486D01*
X10163Y11463D01*
X10157Y11413D01*
X9747D01*
X9583Y11576D01*
Y12040D01*
X10047Y12504D01*
X10078Y12486D01*
X10172Y12460D01*
X10270D01*
X10364Y12486D01*
X10448Y12534D01*
X10517Y12603D01*
X10566Y12688D01*
X10591Y12782D01*
Y12879D01*
X10566Y12973D01*
X10517Y13058D01*
X10448Y13126D01*
X10364Y13175D01*
X10316Y13188D01*
X10322Y13238D01*
X10771D01*
X10818Y13247D01*
X10857Y13274D01*
X11152Y13569D01*
X11199Y13550D01*
D02*
G37*
G36*
X13256Y17890D02*
X12096Y16730D01*
X12069Y16690D01*
X12060Y16643D01*
Y12752D01*
X11490Y12182D01*
X11443Y12201D01*
Y13000D01*
X11887Y13444D01*
X11914Y13484D01*
X11923Y13530D01*
Y16707D01*
X13153Y17937D01*
X13237D01*
X13256Y17890D01*
D02*
G37*
G36*
X11199Y12690D02*
Y11891D01*
X10720Y11413D01*
X10285D01*
X10278Y11463D01*
X10364Y11486D01*
X10448Y11534D01*
X10517Y11603D01*
X10566Y11688D01*
X10591Y11782D01*
Y11879D01*
X10566Y11973D01*
X10517Y12058D01*
X10509Y12065D01*
X11152Y12709D01*
X11199Y12690D01*
D02*
G37*
G36*
X10126Y13188D02*
X10078Y13175D01*
X9994Y13126D01*
X9925Y13058D01*
X9876Y12973D01*
X9851Y12879D01*
Y12782D01*
X9876Y12688D01*
X9879Y12682D01*
X9374Y12178D01*
X9348Y12138D01*
X9339Y12091D01*
Y11525D01*
X9348Y11479D01*
X9374Y11439D01*
X9610Y11204D01*
X9649Y11177D01*
X9696Y11168D01*
X9973D01*
X9985Y11118D01*
X9925Y11058D01*
X9876Y10973D01*
X9871Y10953D01*
X9682D01*
X9193Y11441D01*
Y12430D01*
X10002Y13238D01*
X10120D01*
X10126Y13188D01*
D02*
G37*
G36*
X13726Y17678D02*
X12554Y16507D01*
X12528Y16467D01*
X12519Y16420D01*
Y10431D01*
X12040Y9953D01*
X11443D01*
Y11790D01*
X12269Y12615D01*
X12295Y12655D01*
X12305Y12702D01*
Y16593D01*
X13440Y17728D01*
X13705D01*
X13726Y17678D01*
D02*
G37*
G36*
X27889Y12251D02*
X27000Y11363D01*
X26229D01*
X26207Y11384D01*
X26145Y11410D01*
X26077D01*
X26015Y11384D01*
X25967Y11337D01*
X25941Y11274D01*
Y11207D01*
X25967Y11144D01*
X26015Y11096D01*
X26077Y11070D01*
X26145D01*
X26207Y11096D01*
X26229Y11118D01*
X27051D01*
X27098Y11127D01*
X27137Y11154D01*
X28079Y12095D01*
X28129Y12074D01*
Y11941D01*
X27738Y11550D01*
X27707D01*
X27645Y11524D01*
X27597Y11477D01*
X27571Y11414D01*
Y11347D01*
X27597Y11284D01*
X27645Y11236D01*
X27707Y11210D01*
X27767D01*
X27782Y11190D01*
X27792Y11164D01*
X27728Y11100D01*
X27697D01*
X27635Y11074D01*
X27587Y11027D01*
X27561Y10964D01*
Y10897D01*
X27587Y10834D01*
X27635Y10786D01*
X27697Y10760D01*
X27765D01*
X27827Y10786D01*
X27856Y10748D01*
X27718Y10610D01*
X27687D01*
X27625Y10584D01*
X27577Y10537D01*
X27551Y10474D01*
Y10407D01*
X27573Y10353D01*
X27560Y10319D01*
X27548Y10302D01*
X27503Y10293D01*
X27464Y10267D01*
X27393Y10196D01*
X26928D01*
Y9715D01*
X26922Y9711D01*
X26750Y9540D01*
X26704Y9559D01*
Y9800D01*
X26418D01*
Y9475D01*
X26574D01*
X26600Y9425D01*
X26592Y9413D01*
X25639D01*
X25023Y10029D01*
X25042Y10075D01*
X25244D01*
Y10400D01*
X24958D01*
Y10159D01*
X24912Y10140D01*
X24740Y10311D01*
X24734Y10315D01*
Y10796D01*
X24453D01*
Y11032D01*
X24475Y11054D01*
X24501Y11117D01*
Y11184D01*
X24475Y11247D01*
X24427Y11294D01*
X24365Y11320D01*
X24297D01*
X24235Y11294D01*
X24187Y11247D01*
X24161Y11184D01*
Y11117D01*
X24187Y11054D01*
X24209Y11032D01*
Y10947D01*
X24162Y10928D01*
X23973Y11117D01*
Y11605D01*
X24216D01*
Y12336D01*
X23973D01*
Y13127D01*
X24210D01*
Y13858D01*
X23967D01*
Y16102D01*
X24362Y16497D01*
X24669Y16803D01*
X25226D01*
Y17534D01*
X24496D01*
Y16976D01*
X24225Y16706D01*
X19547D01*
Y16890D01*
X19028D01*
X18240Y17678D01*
X18261Y17728D01*
X27889D01*
Y12251D01*
D02*
G37*
G36*
X25501Y9204D02*
X25541Y9177D01*
X25571Y9171D01*
X25566Y9121D01*
X25248D01*
X24311Y10059D01*
X24330Y10105D01*
X24600D01*
X25501Y9204D01*
D02*
G37*
G36*
X27522Y9455D02*
X26620Y8553D01*
X26459D01*
X26439Y8603D01*
X26461Y8657D01*
Y8724D01*
X26437Y8783D01*
X26437Y8783D01*
X26446Y8803D01*
X26464Y8829D01*
X26514D01*
X26576Y8855D01*
X26624Y8903D01*
X26650Y8965D01*
Y9033D01*
X26624Y9095D01*
X26601Y9118D01*
X26622Y9168D01*
X26674D01*
X26721Y9177D01*
X26761Y9204D01*
X27061Y9505D01*
X27502D01*
X27522Y9455D01*
D02*
G37*
G36*
X20759Y14650D02*
Y12760D01*
X20768Y12714D01*
X20794Y12674D01*
X22970Y10499D01*
X22958Y10440D01*
X22944Y10434D01*
X22896Y10386D01*
X22870Y10324D01*
Y10256D01*
X22896Y10193D01*
X22944Y10146D01*
X23007Y10120D01*
X23037D01*
X24108Y9050D01*
X24087Y9000D01*
X23811D01*
Y8713D01*
X24137D01*
Y8950D01*
X24187Y8971D01*
X24269Y8889D01*
Y8618D01*
X24247Y8597D01*
X24221Y8534D01*
Y8467D01*
X24247Y8404D01*
X24295Y8356D01*
X24357Y8330D01*
X24425D01*
X24487Y8356D01*
X24535Y8404D01*
X24561Y8467D01*
Y8534D01*
X24535Y8597D01*
X24513Y8618D01*
Y8884D01*
X24563Y8905D01*
X24904Y8564D01*
X24941Y8539D01*
X24945Y8535D01*
X24956Y8484D01*
X24153Y7681D01*
X24107Y7700D01*
Y8104D01*
X23415D01*
Y7838D01*
X23068D01*
X23046Y7860D01*
X22984Y7886D01*
X22916D01*
X22854Y7860D01*
X22806Y7812D01*
X22780Y7750D01*
Y7682D01*
X22806Y7620D01*
X22854Y7572D01*
X22916Y7546D01*
X22984D01*
X23046Y7572D01*
X23068Y7594D01*
X23415D01*
Y7491D01*
X23598D01*
X23619Y7441D01*
X22765Y6587D01*
X20336D01*
Y6810D01*
X20152D01*
Y7870D01*
Y8335D01*
X20340D01*
Y9026D01*
X20156D01*
Y9355D01*
X20340D01*
Y10046D01*
X20156D01*
Y10333D01*
X20340D01*
Y11024D01*
X20156D01*
Y11342D01*
X20340D01*
Y12033D01*
X20156D01*
Y12333D01*
X20340D01*
Y13024D01*
X20156D01*
Y13334D01*
X20340D01*
Y14025D01*
X20156D01*
Y14331D01*
X20336D01*
Y15001D01*
X20386Y15022D01*
X20759Y14650D01*
D02*
G37*
%LPC*%
G36*
X10274Y9230D02*
X10271D01*
Y8880D01*
X10621D01*
Y8883D01*
X10594Y8985D01*
X10541Y9076D01*
X10467Y9150D01*
X10375Y9203D01*
X10274Y9230D01*
D02*
G37*
G36*
X10171D02*
X10168D01*
X10067Y9203D01*
X9975Y9150D01*
X9901Y9076D01*
X9848Y8985D01*
X9821Y8883D01*
Y8880D01*
X10171D01*
Y9230D01*
D02*
G37*
G36*
X10621Y8780D02*
X10271D01*
Y8430D01*
X10274D01*
X10375Y8458D01*
X10467Y8510D01*
X10541Y8585D01*
X10594Y8676D01*
X10621Y8778D01*
Y8780D01*
D02*
G37*
G36*
X10171D02*
X9821D01*
Y8778D01*
X9848Y8676D01*
X9901Y8585D01*
X9975Y8510D01*
X10067Y8458D01*
X10168Y8430D01*
X10171D01*
Y8780D01*
D02*
G37*
G36*
X10270Y8200D02*
X10172D01*
X10078Y8175D01*
X9994Y8126D01*
X9925Y8058D01*
X9876Y7973D01*
X9851Y7879D01*
Y7782D01*
X9876Y7688D01*
X9925Y7603D01*
X9994Y7534D01*
X10078Y7486D01*
X10172Y7460D01*
X10270D01*
X10364Y7486D01*
X10448Y7534D01*
X10517Y7603D01*
X10566Y7688D01*
X10591Y7782D01*
Y7879D01*
X10566Y7973D01*
X10517Y8058D01*
X10448Y8126D01*
X10364Y8175D01*
X10270Y8200D01*
D02*
G37*
G36*
X15641Y16030D02*
X15091D01*
Y15730D01*
X15641D01*
Y16030D01*
D02*
G37*
G36*
X14991D02*
X14441D01*
Y15730D01*
X14991D01*
Y16030D01*
D02*
G37*
G36*
X15641Y15630D02*
X15091D01*
Y15330D01*
X15641D01*
Y15630D01*
D02*
G37*
G36*
X14991D02*
X14441D01*
Y15330D01*
X14991D01*
Y15630D01*
D02*
G37*
G36*
X19470Y15022D02*
X18858D01*
Y14803D01*
X18587D01*
X18570Y14842D01*
X18519Y14909D01*
X18452Y14960D01*
X18375Y14992D01*
X18291Y15003D01*
X17791D01*
X17707Y14992D01*
X17630Y14960D01*
X17563Y14909D01*
X17511Y14842D01*
X17479Y14764D01*
X17468Y14680D01*
X17479Y14597D01*
X17511Y14519D01*
X17563Y14452D01*
X17630Y14401D01*
X17707Y14369D01*
X17791Y14358D01*
X18291D01*
X18375Y14369D01*
X18452Y14401D01*
X18519Y14452D01*
X18570Y14519D01*
X18587Y14558D01*
X18858D01*
Y14331D01*
X19470D01*
Y15022D01*
D02*
G37*
G36*
X15291Y15033D02*
X15091D01*
Y14730D01*
X15637D01*
X15632Y14772D01*
X15597Y14857D01*
X15541Y14930D01*
X15467Y14986D01*
X15382Y15021D01*
X15291Y15033D01*
D02*
G37*
G36*
X14991D02*
X14791D01*
X14700Y15021D01*
X14614Y14986D01*
X14541Y14930D01*
X14485Y14857D01*
X14450Y14772D01*
X14445Y14730D01*
X14991D01*
Y15033D01*
D02*
G37*
G36*
X22817Y14700D02*
X22491D01*
Y14413D01*
X22817D01*
Y14700D01*
D02*
G37*
G36*
X22391D02*
X22065D01*
Y14413D01*
X22391D01*
Y14700D01*
D02*
G37*
G36*
X15637Y14630D02*
X15091D01*
Y14327D01*
X15291D01*
X15382Y14339D01*
X15467Y14375D01*
X15541Y14431D01*
X15597Y14504D01*
X15632Y14589D01*
X15637Y14630D01*
D02*
G37*
G36*
X14991D02*
X14445D01*
X14450Y14589D01*
X14485Y14504D01*
X14541Y14431D01*
X14614Y14375D01*
X14700Y14339D01*
X14791Y14327D01*
X14991D01*
Y14630D01*
D02*
G37*
G36*
X22817Y14313D02*
X22491D01*
Y14027D01*
X22817D01*
Y14313D01*
D02*
G37*
G36*
X22391D02*
X22065D01*
Y14027D01*
X22391D01*
Y14313D01*
D02*
G37*
G36*
X19474Y14025D02*
X18862D01*
Y13803D01*
X18587D01*
X18570Y13842D01*
X18519Y13909D01*
X18452Y13960D01*
X18375Y13992D01*
X18291Y14003D01*
X17791D01*
X17707Y13992D01*
X17630Y13960D01*
X17563Y13909D01*
X17511Y13842D01*
X17479Y13764D01*
X17468Y13680D01*
X17479Y13597D01*
X17511Y13519D01*
X17563Y13452D01*
X17630Y13401D01*
X17707Y13369D01*
X17791Y13358D01*
X18291D01*
X18375Y13369D01*
X18452Y13401D01*
X18519Y13452D01*
X18570Y13519D01*
X18587Y13558D01*
X18862D01*
Y13334D01*
X19474D01*
Y14025D01*
D02*
G37*
G36*
X15291Y14033D02*
X15091D01*
Y13730D01*
X15637D01*
X15632Y13772D01*
X15597Y13857D01*
X15541Y13930D01*
X15467Y13986D01*
X15382Y14021D01*
X15291Y14033D01*
D02*
G37*
G36*
X14991D02*
X14791D01*
X14700Y14021D01*
X14614Y13986D01*
X14541Y13930D01*
X14485Y13857D01*
X14450Y13772D01*
X14445Y13730D01*
X14991D01*
Y14033D01*
D02*
G37*
G36*
X15637Y13630D02*
X15091D01*
Y13327D01*
X15291D01*
X15382Y13339D01*
X15467Y13375D01*
X15541Y13431D01*
X15597Y13504D01*
X15632Y13589D01*
X15637Y13630D01*
D02*
G37*
G36*
X14991D02*
X14445D01*
X14450Y13589D01*
X14485Y13504D01*
X14541Y13431D01*
X14614Y13375D01*
X14700Y13339D01*
X14791Y13327D01*
X14991D01*
Y13630D01*
D02*
G37*
G36*
X19474Y13024D02*
X18862D01*
Y12803D01*
X18587D01*
X18570Y12842D01*
X18519Y12909D01*
X18452Y12960D01*
X18375Y12992D01*
X18291Y13003D01*
X17791D01*
X17707Y12992D01*
X17630Y12960D01*
X17563Y12909D01*
X17511Y12842D01*
X17479Y12764D01*
X17468Y12680D01*
X17479Y12597D01*
X17511Y12519D01*
X17563Y12452D01*
X17630Y12401D01*
X17707Y12369D01*
X17791Y12358D01*
X18291D01*
X18375Y12369D01*
X18452Y12401D01*
X18519Y12452D01*
X18570Y12519D01*
X18587Y12558D01*
X18862D01*
Y12333D01*
X19474D01*
Y13024D01*
D02*
G37*
G36*
X15291Y13033D02*
X15091D01*
Y12730D01*
X15637D01*
X15632Y12772D01*
X15597Y12857D01*
X15541Y12930D01*
X15467Y12986D01*
X15382Y13021D01*
X15291Y13033D01*
D02*
G37*
G36*
X14991D02*
X14791D01*
X14700Y13021D01*
X14614Y12986D01*
X14541Y12930D01*
X14485Y12857D01*
X14450Y12772D01*
X14445Y12730D01*
X14991D01*
Y13033D01*
D02*
G37*
G36*
X15637Y12630D02*
X15091D01*
Y12327D01*
X15291D01*
X15382Y12339D01*
X15467Y12375D01*
X15541Y12431D01*
X15597Y12504D01*
X15632Y12589D01*
X15637Y12630D01*
D02*
G37*
G36*
X14991D02*
X14445D01*
X14450Y12589D01*
X14485Y12504D01*
X14541Y12431D01*
X14614Y12375D01*
X14700Y12339D01*
X14791Y12327D01*
X14991D01*
Y12630D01*
D02*
G37*
G36*
X19474Y12033D02*
X18862D01*
Y11803D01*
X18587D01*
X18570Y11842D01*
X18519Y11909D01*
X18452Y11960D01*
X18375Y11992D01*
X18291Y12003D01*
X17791D01*
X17707Y11992D01*
X17630Y11960D01*
X17563Y11909D01*
X17511Y11842D01*
X17479Y11764D01*
X17468Y11680D01*
X17479Y11597D01*
X17511Y11519D01*
X17563Y11452D01*
X17630Y11401D01*
X17707Y11369D01*
X17791Y11358D01*
X18291D01*
X18375Y11369D01*
X18452Y11401D01*
X18519Y11452D01*
X18570Y11519D01*
X18587Y11558D01*
X18862D01*
Y11342D01*
X19474D01*
Y12033D01*
D02*
G37*
G36*
X15291Y12033D02*
X15091D01*
Y11730D01*
X15637D01*
X15632Y11772D01*
X15597Y11857D01*
X15541Y11930D01*
X15467Y11986D01*
X15382Y12021D01*
X15291Y12033D01*
D02*
G37*
G36*
X14991D02*
X14791D01*
X14700Y12021D01*
X14614Y11986D01*
X14541Y11930D01*
X14485Y11857D01*
X14450Y11772D01*
X14445Y11730D01*
X14991D01*
Y12033D01*
D02*
G37*
G36*
X15637Y11630D02*
X15091D01*
Y11327D01*
X15291D01*
X15382Y11339D01*
X15467Y11375D01*
X15541Y11431D01*
X15597Y11504D01*
X15632Y11589D01*
X15637Y11630D01*
D02*
G37*
G36*
X14991D02*
X14445D01*
X14450Y11589D01*
X14485Y11504D01*
X14541Y11431D01*
X14614Y11375D01*
X14700Y11339D01*
X14791Y11327D01*
X14991D01*
Y11630D01*
D02*
G37*
G36*
X19474Y11024D02*
X18862D01*
Y10803D01*
X18587D01*
X18570Y10842D01*
X18519Y10909D01*
X18452Y10960D01*
X18375Y10992D01*
X18291Y11003D01*
X17791D01*
X17707Y10992D01*
X17630Y10960D01*
X17563Y10909D01*
X17511Y10842D01*
X17479Y10764D01*
X17468Y10680D01*
X17479Y10597D01*
X17511Y10519D01*
X17563Y10452D01*
X17630Y10401D01*
X17707Y10369D01*
X17791Y10358D01*
X18291D01*
X18375Y10369D01*
X18452Y10401D01*
X18519Y10452D01*
X18570Y10519D01*
X18587Y10558D01*
X18862D01*
Y10333D01*
X19474D01*
Y11024D01*
D02*
G37*
G36*
X15291Y11033D02*
X15091D01*
Y10730D01*
X15637D01*
X15632Y10772D01*
X15597Y10857D01*
X15541Y10930D01*
X15467Y10986D01*
X15382Y11021D01*
X15291Y11033D01*
D02*
G37*
G36*
X14991D02*
X14791D01*
X14700Y11021D01*
X14614Y10986D01*
X14541Y10930D01*
X14485Y10857D01*
X14450Y10772D01*
X14445Y10730D01*
X14991D01*
Y11033D01*
D02*
G37*
G36*
X15637Y10630D02*
X15091D01*
Y10327D01*
X15291D01*
X15382Y10339D01*
X15467Y10375D01*
X15541Y10431D01*
X15597Y10504D01*
X15632Y10589D01*
X15637Y10630D01*
D02*
G37*
G36*
X14991D02*
X14445D01*
X14450Y10589D01*
X14485Y10504D01*
X14541Y10431D01*
X14614Y10375D01*
X14700Y10339D01*
X14791Y10327D01*
X14991D01*
Y10630D01*
D02*
G37*
G36*
X19474Y10046D02*
X18862D01*
Y9803D01*
X18587D01*
X18570Y9842D01*
X18519Y9909D01*
X18452Y9960D01*
X18375Y9992D01*
X18291Y10003D01*
X17791D01*
X17707Y9992D01*
X17630Y9960D01*
X17563Y9909D01*
X17511Y9842D01*
X17479Y9764D01*
X17468Y9680D01*
X17479Y9597D01*
X17511Y9519D01*
X17563Y9452D01*
X17630Y9401D01*
X17707Y9369D01*
X17791Y9358D01*
X18291D01*
X18375Y9369D01*
X18452Y9401D01*
X18519Y9452D01*
X18570Y9519D01*
X18587Y9558D01*
X18862D01*
Y9355D01*
X19474D01*
Y10046D01*
D02*
G37*
G36*
X15291Y10033D02*
X15091D01*
Y9730D01*
X15637D01*
X15632Y9772D01*
X15597Y9857D01*
X15541Y9930D01*
X15467Y9986D01*
X15382Y10021D01*
X15291Y10033D01*
D02*
G37*
G36*
X14991D02*
X14791D01*
X14700Y10021D01*
X14614Y9986D01*
X14541Y9930D01*
X14485Y9857D01*
X14450Y9772D01*
X14445Y9730D01*
X14991D01*
Y10033D01*
D02*
G37*
G36*
X15637Y9630D02*
X15091D01*
Y9327D01*
X15291D01*
X15382Y9339D01*
X15467Y9375D01*
X15541Y9431D01*
X15597Y9504D01*
X15632Y9589D01*
X15637Y9630D01*
D02*
G37*
G36*
X14991D02*
X14445D01*
X14450Y9589D01*
X14485Y9504D01*
X14541Y9431D01*
X14614Y9375D01*
X14700Y9339D01*
X14791Y9327D01*
X14991D01*
Y9630D01*
D02*
G37*
G36*
X19474Y9026D02*
X18862D01*
Y8803D01*
X18587D01*
X18570Y8842D01*
X18519Y8909D01*
X18452Y8960D01*
X18375Y8992D01*
X18291Y9003D01*
X17791D01*
X17707Y8992D01*
X17630Y8960D01*
X17563Y8909D01*
X17511Y8842D01*
X17479Y8764D01*
X17468Y8680D01*
X17479Y8597D01*
X17511Y8519D01*
X17563Y8452D01*
X17630Y8401D01*
X17707Y8369D01*
X17791Y8358D01*
X18291D01*
X18375Y8369D01*
X18452Y8401D01*
X18519Y8452D01*
X18570Y8519D01*
X18587Y8558D01*
X18862D01*
Y8335D01*
X19474D01*
Y9026D01*
D02*
G37*
G36*
X15291Y9033D02*
X15091D01*
Y8730D01*
X15637D01*
X15632Y8772D01*
X15597Y8857D01*
X15541Y8930D01*
X15467Y8986D01*
X15382Y9021D01*
X15291Y9033D01*
D02*
G37*
G36*
X14991D02*
X14791D01*
X14700Y9021D01*
X14614Y8986D01*
X14541Y8930D01*
X14485Y8857D01*
X14450Y8772D01*
X14445Y8730D01*
X14991D01*
Y9033D01*
D02*
G37*
G36*
X15637Y8630D02*
X15091D01*
Y8327D01*
X15291D01*
X15382Y8339D01*
X15467Y8375D01*
X15541Y8431D01*
X15597Y8504D01*
X15632Y8589D01*
X15637Y8630D01*
D02*
G37*
G36*
X14991D02*
X14445D01*
X14450Y8589D01*
X14485Y8504D01*
X14541Y8431D01*
X14614Y8375D01*
X14700Y8339D01*
X14791Y8327D01*
X14991D01*
Y8630D01*
D02*
G37*
G36*
X25909Y17534D02*
X25813D01*
X25720Y17509D01*
X25637Y17461D01*
X25569Y17393D01*
X25521Y17309D01*
X25496Y17217D01*
Y17120D01*
X25521Y17027D01*
X25569Y16944D01*
X25637Y16876D01*
X25720Y16828D01*
X25813Y16803D01*
X25909D01*
X26002Y16828D01*
X26085Y16876D01*
X26153Y16944D01*
X26201Y17027D01*
X26226Y17120D01*
Y17217D01*
X26201Y17309D01*
X26153Y17393D01*
X26085Y17461D01*
X26002Y17509D01*
X25909Y17534D01*
D02*
G37*
G36*
Y16534D02*
X25813D01*
X25720Y16509D01*
X25637Y16461D01*
X25569Y16393D01*
X25521Y16309D01*
X25496Y16217D01*
Y16120D01*
X25521Y16027D01*
X25569Y15944D01*
X25637Y15876D01*
X25720Y15828D01*
X25813Y15803D01*
X25909D01*
X26002Y15828D01*
X26085Y15876D01*
X26153Y15944D01*
X26201Y16027D01*
X26226Y16120D01*
Y16217D01*
X26201Y16309D01*
X26153Y16393D01*
X26085Y16461D01*
X26002Y16509D01*
X25909Y16534D01*
D02*
G37*
G36*
X24909D02*
X24813D01*
X24720Y16509D01*
X24637Y16461D01*
X24569Y16393D01*
X24521Y16309D01*
X24496Y16217D01*
Y16120D01*
X24521Y16027D01*
X24569Y15944D01*
X24637Y15876D01*
X24720Y15828D01*
X24813Y15803D01*
X24909D01*
X25002Y15828D01*
X25085Y15876D01*
X25153Y15944D01*
X25201Y16027D01*
X25226Y16120D01*
Y16217D01*
X25201Y16309D01*
X25153Y16393D01*
X25085Y16461D01*
X25002Y16509D01*
X24909Y16534D01*
D02*
G37*
G36*
X25913Y15564D02*
X25911D01*
Y15218D01*
X26256D01*
Y15221D01*
X26229Y15321D01*
X26177Y15411D01*
X26104Y15485D01*
X26014Y15537D01*
X25913Y15564D01*
D02*
G37*
G36*
X24913D02*
X24911D01*
Y15218D01*
X25256D01*
Y15221D01*
X25229Y15321D01*
X25177Y15411D01*
X25104Y15485D01*
X25014Y15537D01*
X24913Y15564D01*
D02*
G37*
G36*
X25811D02*
X25809D01*
X25708Y15537D01*
X25618Y15485D01*
X25545Y15411D01*
X25493Y15321D01*
X25466Y15221D01*
Y15218D01*
X25811D01*
Y15564D01*
D02*
G37*
G36*
X24811D02*
X24809D01*
X24708Y15537D01*
X24618Y15485D01*
X24545Y15411D01*
X24493Y15321D01*
X24466Y15221D01*
Y15218D01*
X24811D01*
Y15564D01*
D02*
G37*
G36*
X27041Y15006D02*
Y14860D01*
X27187D01*
X27161Y14924D01*
X27104Y14980D01*
X27041Y15006D01*
D02*
G37*
G36*
X26941D02*
X26878Y14980D01*
X26821Y14924D01*
X26795Y14860D01*
X26941D01*
Y15006D01*
D02*
G37*
G36*
X26256Y15118D02*
X25911D01*
Y14773D01*
X25913D01*
X26014Y14800D01*
X26104Y14852D01*
X26177Y14926D01*
X26229Y15016D01*
X26256Y15116D01*
Y15118D01*
D02*
G37*
G36*
X25811D02*
X25466D01*
Y15116D01*
X25493Y15016D01*
X25545Y14926D01*
X25618Y14852D01*
X25708Y14800D01*
X25809Y14773D01*
X25811D01*
Y15118D01*
D02*
G37*
G36*
X25256D02*
X24911D01*
Y14773D01*
X24913D01*
X25014Y14800D01*
X25104Y14852D01*
X25177Y14926D01*
X25229Y15016D01*
X25256Y15116D01*
Y15118D01*
D02*
G37*
G36*
X24811D02*
X24466D01*
Y15116D01*
X24493Y15016D01*
X24545Y14926D01*
X24618Y14852D01*
X24708Y14800D01*
X24809Y14773D01*
X24811D01*
Y15118D01*
D02*
G37*
G36*
X27187Y14760D02*
X27041D01*
Y14615D01*
X27104Y14641D01*
X27161Y14697D01*
X27187Y14760D01*
D02*
G37*
G36*
X26941D02*
X26795D01*
X26821Y14697D01*
X26878Y14641D01*
X26941Y14615D01*
Y14760D01*
D02*
G37*
G36*
X26897Y13888D02*
X26895D01*
Y13542D01*
X27240D01*
Y13544D01*
X27213Y13645D01*
X27161Y13735D01*
X27087Y13809D01*
X26997Y13861D01*
X26897Y13888D01*
D02*
G37*
G36*
X26795D02*
X26793D01*
X26692Y13861D01*
X26602Y13809D01*
X26528Y13735D01*
X26476Y13645D01*
X26449Y13544D01*
Y13542D01*
X26795D01*
Y13888D01*
D02*
G37*
G36*
X25893Y13858D02*
X25797D01*
X25704Y13833D01*
X25620Y13785D01*
X25552Y13717D01*
X25504Y13633D01*
X25479Y13541D01*
Y13444D01*
X25504Y13351D01*
X25552Y13268D01*
X25620Y13200D01*
X25704Y13152D01*
X25797Y13127D01*
X25893D01*
X25986Y13152D01*
X26069Y13200D01*
X26137Y13268D01*
X26185Y13351D01*
X26210Y13444D01*
Y13541D01*
X26185Y13633D01*
X26137Y13717D01*
X26069Y13785D01*
X25986Y13833D01*
X25893Y13858D01*
D02*
G37*
G36*
X24893D02*
X24797D01*
X24704Y13833D01*
X24620Y13785D01*
X24552Y13717D01*
X24504Y13633D01*
X24479Y13541D01*
Y13444D01*
X24504Y13351D01*
X24552Y13268D01*
X24620Y13200D01*
X24704Y13152D01*
X24797Y13127D01*
X24893D01*
X24986Y13152D01*
X25069Y13200D01*
X25137Y13268D01*
X25185Y13351D01*
X25210Y13444D01*
Y13541D01*
X25185Y13633D01*
X25137Y13717D01*
X25069Y13785D01*
X24986Y13833D01*
X24893Y13858D01*
D02*
G37*
G36*
X27240Y13442D02*
X26895D01*
Y13097D01*
X26897D01*
X26997Y13124D01*
X27087Y13176D01*
X27161Y13250D01*
X27213Y13340D01*
X27240Y13440D01*
Y13442D01*
D02*
G37*
G36*
X26795D02*
X26449D01*
Y13440D01*
X26476Y13340D01*
X26528Y13250D01*
X26602Y13176D01*
X26692Y13124D01*
X26793Y13097D01*
X26795D01*
Y13442D01*
D02*
G37*
G36*
X26903Y12366D02*
X26901D01*
Y12020D01*
X27246D01*
Y12022D01*
X27219Y12123D01*
X27167Y12213D01*
X27094Y12287D01*
X27004Y12339D01*
X26903Y12366D01*
D02*
G37*
G36*
X26801D02*
X26799D01*
X26698Y12339D01*
X26608Y12287D01*
X26535Y12213D01*
X26483Y12123D01*
X26456Y12022D01*
Y12020D01*
X26801D01*
Y12366D01*
D02*
G37*
G36*
X25899Y12336D02*
X25803D01*
X25710Y12311D01*
X25627Y12263D01*
X25559Y12195D01*
X25511Y12111D01*
X25486Y12018D01*
Y11922D01*
X25511Y11829D01*
X25559Y11746D01*
X25627Y11678D01*
X25710Y11630D01*
X25803Y11605D01*
X25899D01*
X25992Y11630D01*
X26075Y11678D01*
X26143Y11746D01*
X26191Y11829D01*
X26216Y11922D01*
Y12018D01*
X26191Y12111D01*
X26143Y12195D01*
X26075Y12263D01*
X25992Y12311D01*
X25899Y12336D01*
D02*
G37*
G36*
X24899D02*
X24803D01*
X24710Y12311D01*
X24627Y12263D01*
X24559Y12195D01*
X24511Y12111D01*
X24486Y12018D01*
Y11922D01*
X24511Y11829D01*
X24559Y11746D01*
X24627Y11678D01*
X24710Y11630D01*
X24803Y11605D01*
X24899D01*
X24992Y11630D01*
X25075Y11678D01*
X25143Y11746D01*
X25191Y11829D01*
X25216Y11922D01*
Y12018D01*
X25191Y12111D01*
X25143Y12195D01*
X25075Y12263D01*
X24992Y12311D01*
X24899Y12336D01*
D02*
G37*
G36*
X27246Y11920D02*
X26901D01*
Y11575D01*
X26903D01*
X27004Y11602D01*
X27094Y11654D01*
X27167Y11728D01*
X27219Y11818D01*
X27246Y11918D01*
Y11920D01*
D02*
G37*
G36*
X26801D02*
X26456D01*
Y11918D01*
X26483Y11818D01*
X26535Y11728D01*
X26608Y11654D01*
X26698Y11602D01*
X26799Y11575D01*
X26801D01*
Y11920D01*
D02*
G37*
G36*
X25630Y10826D02*
X25344D01*
Y10500D01*
X25630D01*
Y10826D01*
D02*
G37*
G36*
X25244D02*
X24958D01*
Y10500D01*
X25244D01*
Y10826D01*
D02*
G37*
G36*
X25294Y10450D02*
D01*
D01*
D01*
D02*
G37*
G36*
X25630Y10400D02*
X25344D01*
Y10075D01*
X25630D01*
Y10400D01*
D02*
G37*
G36*
X26704Y10226D02*
X26418D01*
Y9900D01*
X26704D01*
Y10226D01*
D02*
G37*
G36*
X26318D02*
X26032D01*
Y9900D01*
X26318D01*
Y10226D01*
D02*
G37*
G36*
Y9800D02*
X26032D01*
Y9475D01*
X26318D01*
Y9800D01*
D02*
G37*
G36*
X23711Y9000D02*
X23385D01*
Y8713D01*
X23711D01*
Y9000D01*
D02*
G37*
G36*
X24137Y8613D02*
X23811D01*
Y8327D01*
X24137D01*
Y8613D01*
D02*
G37*
G36*
X23711D02*
X23385D01*
Y8327D01*
X23711D01*
Y8613D01*
D02*
G37*
G36*
X22199Y7937D02*
Y7791D01*
X22344D01*
X22318Y7854D01*
X22262Y7911D01*
X22199Y7937D01*
D02*
G37*
G36*
X22099D02*
X22035Y7911D01*
X21979Y7854D01*
X21953Y7791D01*
X22099D01*
Y7937D01*
D02*
G37*
G36*
X22344Y7691D02*
X22199D01*
Y7545D01*
X22262Y7572D01*
X22318Y7628D01*
X22344Y7691D01*
D02*
G37*
G36*
X22099D02*
X21953D01*
X21979Y7628D01*
X22035Y7572D01*
X22099Y7545D01*
Y7691D01*
D02*
G37*
%LPD*%
D10*
X25888Y7100D02*
X25931Y7057D01*
Y6400D02*
Y7057D01*
X23845Y16152D02*
X24276Y16583D01*
X23845Y13492D02*
Y16152D01*
X18041Y14680D02*
X19160D01*
X19164Y14677D01*
X21101Y1290D02*
Y3450D01*
X25361Y7710D01*
X15111Y900D02*
X27662D01*
X27721Y959D01*
X8351Y7660D02*
X15111Y900D01*
X27721Y959D02*
Y8340D01*
X25361Y7710D02*
X25951D01*
X26341Y8100D01*
X25647Y8690D02*
X26291D01*
X25607Y8650D02*
X25647Y8690D01*
X24991Y8650D02*
X25607D01*
X18041Y15680D02*
X19201D01*
X19901D01*
X31651Y15481D02*
X32306D01*
X32319Y15494D01*
X28567Y5876D02*
X28571Y5880D01*
X28007Y5876D02*
X28567D01*
X25888Y7100D02*
Y7140D01*
X28001Y7530D02*
X28681Y8210D01*
X29611Y13020D02*
X29621Y13030D01*
X36511Y9780D02*
X37871D01*
X38431Y9220D01*
X35841Y9110D02*
X36511Y9780D01*
X29851Y9110D02*
X35841D01*
X37491Y9320D02*
X38901Y7910D01*
Y3950D02*
Y7910D01*
X29621Y9340D02*
X29851Y9110D01*
X29621Y9340D02*
Y13021D01*
X28921Y13020D02*
X29611D01*
X28314Y18229D02*
X28472Y18071D01*
Y11672D02*
Y18071D01*
X28385Y18399D02*
X28681Y18103D01*
Y11400D02*
Y18103D01*
X27721Y10440D02*
X28681Y11400D01*
X27731Y10930D02*
X28472Y11672D01*
X13103Y18059D02*
X28192D01*
X27051Y11240D02*
X28011Y12200D01*
X28251Y11890D02*
Y18000D01*
X28192Y18059D02*
X28251Y18000D01*
X27952Y17850D02*
X28011Y17792D01*
X13389Y17850D02*
X27952D01*
X27741Y11380D02*
X28251Y11890D01*
X28011Y12200D02*
Y17792D01*
X11441Y16690D02*
X12980Y18229D01*
X11081Y16730D02*
X12750Y18399D01*
X26111Y11240D02*
X27051D01*
X28810Y7960D02*
X37761D01*
X38531Y7190D01*
X37882Y8210D02*
X38561Y7531D01*
X28001Y7151D02*
X28810Y7960D01*
X28681Y8210D02*
X37882D01*
X27999Y6540D02*
X28189Y6350D01*
X30884D02*
X31912Y5322D01*
X28189Y6350D02*
X30884D01*
X33311Y3900D02*
X33561D01*
X31912Y5299D02*
X33311Y3900D01*
X31912Y5299D02*
Y5322D01*
X28751Y8620D02*
X33691D01*
X28001Y7870D02*
X28751Y8620D01*
X38901Y3950D02*
X40761Y2090D01*
X19166Y12680D02*
X19168Y12678D01*
X18041Y11680D02*
X19160D01*
X18041Y12680D02*
X19166D01*
X18041Y9680D02*
X19148D01*
X18041Y10680D02*
X19166D01*
X10771Y11290D02*
X12182Y12702D01*
X12091Y9830D02*
X12641Y10380D01*
X12091Y9830D02*
X14051Y7870D01*
X10221Y9830D02*
X12091D01*
X17984Y4470D02*
X19159D01*
X17984Y5470D02*
X19168D01*
X17984Y4470D02*
X18644Y3810D01*
X19159Y4470D02*
X19164Y4475D01*
X20034Y12678D02*
X20034Y12678D01*
X20034Y11688D02*
Y12678D01*
Y9700D02*
Y10678D01*
X20034Y10678D01*
X20030Y5474D02*
X20034Y5470D01*
X20030Y4475D02*
Y5466D01*
X20034Y5470D01*
X20030Y5474D02*
Y6465D01*
Y8676D02*
X20034Y8680D01*
Y9700D01*
X20030Y7870D02*
Y8676D01*
Y6465D02*
Y7870D01*
X19158Y6470D02*
X19164Y6465D01*
X17984Y6470D02*
X19158D01*
X18041Y8680D02*
X19168D01*
X14051Y7870D02*
X20030D01*
X19148Y9680D02*
X19168Y9700D01*
X20034Y10678D02*
Y11688D01*
X19160Y11680D02*
X19168Y11688D01*
X20034D02*
X20034Y11688D01*
X19166Y10680D02*
X19168Y10678D01*
X28121Y9373D02*
Y10122D01*
X28062Y10180D02*
X28121Y10122D01*
X27731Y9880D02*
X27750Y9899D01*
X27234Y9850D02*
X27264Y9880D01*
X27731D01*
X27234Y9811D02*
Y9850D01*
Y9890D01*
X27446Y10076D02*
X27550Y10180D01*
X27420Y10076D02*
X27446D01*
X27234Y9890D02*
X27420Y10076D01*
X23851Y11970D02*
Y13486D01*
X23845Y13492D02*
X23851Y13486D01*
X24428Y10450D02*
Y10490D01*
X24331Y10547D02*
X24428Y10450D01*
X24331Y10587D02*
X24428Y10490D01*
X24614Y10225D02*
X24653D01*
X24428Y10411D02*
Y10450D01*
Y10411D02*
X24614Y10225D01*
X24653D02*
X25588Y9290D01*
X26674D02*
X27008Y9625D01*
X27048D01*
X27234Y9811D01*
X24421Y5500D02*
Y6200D01*
X24821Y5400D02*
Y6200D01*
X25121Y4107D02*
Y4800D01*
X24421Y5500D02*
X25121Y4800D01*
X24254Y2457D02*
Y3200D01*
Y3240D02*
X25121Y4107D01*
X24254Y3200D02*
Y3240D01*
Y2457D02*
X24611Y2100D01*
X24821Y5400D02*
X26388Y3833D01*
Y3200D02*
Y3833D01*
Y2657D02*
Y3200D01*
X25831Y2100D02*
X26388Y2657D01*
X23680Y7716D02*
X23761Y7797D01*
X23851Y11067D02*
X24331Y10587D01*
X23851Y11067D02*
Y11970D01*
X23761Y7410D02*
Y7797D01*
X24391Y8500D02*
Y8939D01*
X24331Y10587D02*
Y11150D01*
X27550Y10180D02*
X28062D01*
X25198Y8999D02*
X26480D01*
X25588Y9290D02*
X26674D01*
X26671Y8430D02*
X27731Y9490D01*
X25076Y8430D02*
X26671D01*
X25888Y7140D02*
X28121Y9373D01*
X18041Y13680D02*
X19167D01*
X19162Y16583D02*
X24276D01*
X10200Y12830D02*
X10221D01*
X9461Y11525D02*
Y12091D01*
X10221Y11830D02*
Y11950D01*
X9631Y10830D02*
X10221D01*
X9461Y11525D02*
X9696Y11290D01*
X10771D01*
X9461Y12091D02*
X10200Y12830D01*
X20030Y6465D02*
X22815D01*
X12182Y16643D02*
X13389Y17850D01*
X22950Y7716D02*
X23680D01*
X20456Y3810D02*
X25076Y8430D01*
X22815Y6465D02*
X23761Y7410D01*
X8351Y12960D02*
X10221Y14830D01*
Y11950D02*
X11801Y13530D01*
X9071Y12480D02*
X9951Y13360D01*
X9071Y11390D02*
X9631Y10830D01*
X9071Y11390D02*
Y12480D01*
X20881Y12760D02*
X24991Y8650D01*
X24276Y16583D02*
X24861Y17168D01*
X21241Y12956D02*
Y14650D01*
X20881Y12760D02*
Y14700D01*
X22441Y13497D02*
X22446Y13492D01*
X23845D01*
X21241Y14650D02*
X21251Y14660D01*
X18644Y3810D02*
X20456D01*
X23040Y10290D02*
X24391Y8939D01*
X21241Y12956D02*
X25198Y8999D01*
X20034Y13680D02*
Y14673D01*
X20030Y14677D02*
X20034Y14673D01*
X19901Y15680D02*
X20881Y14700D01*
X12750Y18399D02*
X28385D01*
X12980Y18229D02*
X28314D01*
X11801Y16757D02*
X13103Y18059D01*
X13851Y17630D02*
X18115D01*
X19162Y16583D01*
X12641Y16420D02*
X13851Y17630D01*
X8351Y7660D02*
Y12960D01*
X12641Y10380D02*
Y16420D01*
X12182Y12702D02*
Y16643D01*
X20034Y12678D02*
Y13680D01*
X19167Y13680D02*
X19168Y13680D01*
X10771Y13360D02*
X11441Y14030D01*
X10221Y13830D02*
X10261D01*
X11441Y14030D02*
Y16690D01*
X11801Y13530D02*
Y16757D01*
X10261Y13830D02*
X11081Y14650D01*
X9951Y13360D02*
X10771D01*
X11081Y14650D02*
Y16730D01*
X32346Y14616D02*
X32358Y14628D01*
Y13761D02*
Y14628D01*
X32319Y15494D02*
X32358D01*
X31911Y12422D02*
X32358Y11975D01*
X31911Y12422D02*
Y12461D01*
X32358Y11051D02*
Y11975D01*
Y12947D02*
Y13761D01*
X31911Y12500D02*
X32358Y12947D01*
X31911Y12461D02*
Y12500D01*
X31045Y12461D02*
Y12500D01*
Y12422D02*
Y12461D01*
X30478Y11855D02*
X31045Y12422D01*
X30478Y13067D02*
X31045Y12500D01*
X48551Y4810D02*
X50401D01*
X48481Y4880D02*
X48551Y4810D01*
X48411D02*
X48481Y4880D01*
X48401Y4810D02*
X48411D01*
X45681Y2090D02*
X48401Y4810D01*
X40761Y2090D02*
X45681D01*
X37717Y13610D02*
X38701Y14595D01*
Y16059D01*
X44665Y11410D02*
X44670Y11415D01*
D23*
X20030Y4475D02*
D03*
X19164D02*
D03*
X20034Y5470D02*
D03*
X19168D02*
D03*
X20030Y6465D02*
D03*
X19164D02*
D03*
X20034Y8680D02*
D03*
X19168D02*
D03*
X20034Y11688D02*
D03*
X19168D02*
D03*
X20034Y9700D02*
D03*
X19168D02*
D03*
X20034Y10678D02*
D03*
X19168D02*
D03*
X24428Y10450D02*
D03*
X25294D02*
D03*
X27234Y9850D02*
D03*
X26368D02*
D03*
X23388Y3200D02*
D03*
X24254D02*
D03*
X27254D02*
D03*
X26388D02*
D03*
X25888Y7100D02*
D03*
X26754D02*
D03*
X20030Y14677D02*
D03*
X19164D02*
D03*
X20034Y12678D02*
D03*
X19168D02*
D03*
X20034Y13680D02*
D03*
X19168D02*
D03*
X31045Y12461D02*
D03*
X31911D02*
D03*
D24*
X23761Y7797D02*
D03*
Y8663D02*
D03*
X22441Y13497D02*
D03*
Y14363D02*
D03*
X19201Y16583D02*
D03*
Y15717D02*
D03*
X32358Y15494D02*
D03*
Y14628D02*
D03*
D38*
X10221Y14830D02*
D03*
Y13830D02*
D03*
Y12830D02*
D03*
Y11830D02*
D03*
Y10830D02*
D03*
Y9830D02*
D03*
Y8830D02*
D03*
Y7830D02*
D03*
D51*
X44001Y8359D02*
Y13610D01*
X40652Y7436D02*
Y7810D01*
X39647Y6431D02*
X40652Y7436D01*
X39381Y6431D02*
X39647D01*
X36861Y14918D02*
X37795Y15852D01*
X36861Y12166D02*
Y14918D01*
Y12166D02*
X37717Y11310D01*
X44304Y3853D02*
Y5309D01*
X43961Y3510D02*
X44304Y3853D01*
Y5309D02*
X44550Y5555D01*
X37717Y11310D02*
X37801Y11226D01*
X37795Y15852D02*
Y16059D01*
X40652Y9810D02*
Y10946D01*
Y7810D02*
Y9810D01*
X37801Y10810D02*
X38801Y9810D01*
X40652D01*
X37801Y10810D02*
Y11226D01*
X44550Y5555D02*
Y7810D01*
X41601Y11410D02*
X42662Y12472D01*
X41117Y11410D02*
X41601D01*
X42662Y12472D02*
Y13610D01*
X40652Y10946D02*
X41117Y11410D01*
X44001Y8359D02*
X44550Y7810D01*
X46601Y13610D02*
X48017D01*
X44670D02*
X46601D01*
Y17010D01*
X44670Y13610D02*
X44670Y13610D01*
X44670Y11415D02*
Y13610D01*
D52*
X26851Y11970D02*
D03*
X25851D02*
D03*
X24851D02*
D03*
X14984Y5470D02*
D03*
Y4470D02*
D03*
X17984Y6470D02*
D03*
Y5470D02*
D03*
Y4470D02*
D03*
X25861Y17168D02*
D03*
X24861Y16168D02*
D03*
X25861D02*
D03*
X24861Y15168D02*
D03*
X25861D02*
D03*
X24845Y13492D02*
D03*
X25845D02*
D03*
X26845D02*
D03*
X10221Y2243D02*
D03*
Y3243D02*
D03*
X35615Y12935D02*
D03*
D53*
X23851Y11970D02*
D03*
X14984Y6470D02*
D03*
X23845Y13492D02*
D03*
X34615Y12935D02*
D03*
D54*
X15041Y15680D02*
D03*
X33561Y3900D02*
D03*
D55*
X15041Y14680D02*
D03*
Y13680D02*
D03*
Y12680D02*
D03*
Y11680D02*
D03*
Y10680D02*
D03*
Y9680D02*
D03*
Y8680D02*
D03*
X18041Y15680D02*
D03*
Y14680D02*
D03*
Y13680D02*
D03*
Y12680D02*
D03*
Y11680D02*
D03*
Y10680D02*
D03*
Y9680D02*
D03*
Y8680D02*
D03*
X30561Y6900D02*
D03*
Y5900D02*
D03*
Y4900D02*
D03*
Y3900D02*
D03*
X33561Y6900D02*
D03*
Y5900D02*
D03*
Y4900D02*
D03*
D56*
X26271Y4700D02*
D03*
X24371D02*
D03*
D57*
X24861Y17168D02*
D03*
X10221Y4243D02*
D03*
D58*
X24611Y2100D02*
D03*
X25831D02*
D03*
D59*
X32358Y13761D02*
D03*
X30478Y11051D02*
D03*
X32358D02*
D03*
X30478Y13761D02*
D03*
D60*
X48017Y13610D02*
D03*
X37717Y11310D02*
D03*
Y13610D02*
D03*
X41117Y11410D02*
D03*
X44665D02*
D03*
D61*
X49985Y13610D02*
D03*
X39685Y11310D02*
D03*
Y13610D02*
D03*
X43085Y11410D02*
D03*
X46634D02*
D03*
D62*
X48401Y4810D02*
D03*
X50401D02*
D03*
D63*
X48401Y3810D02*
D03*
X50401D02*
D03*
D64*
X49601Y7210D02*
D03*
D65*
Y9210D02*
D03*
D66*
X47601Y19010D02*
D03*
D67*
X49101Y17010D02*
D03*
X46601D02*
D03*
D68*
X22149Y7741D02*
D03*
X26911Y6220D02*
D03*
X25931Y6400D02*
D03*
X26991Y14810D02*
D03*
X21101Y1290D02*
D03*
X26291Y8690D02*
D03*
X26341Y8100D02*
D03*
X39381Y6431D02*
D03*
X38541Y6411D02*
D03*
X31651Y15481D02*
D03*
X28591Y5871D02*
D03*
X28007Y5876D02*
D03*
X28001Y7530D02*
D03*
X38435Y9206D02*
D03*
X37491Y9320D02*
D03*
X29621Y13021D02*
D03*
X28921Y13020D02*
D03*
X26111Y11240D02*
D03*
X38558Y7181D02*
D03*
X38561Y7531D02*
D03*
X33693Y8606D02*
D03*
X27731Y10930D02*
D03*
X22950Y7716D02*
D03*
X27721Y10440D02*
D03*
X27731Y9490D02*
D03*
X24331Y11150D02*
D03*
X23040Y10290D02*
D03*
X21251Y14660D02*
D03*
X27741Y11380D02*
D03*
X26480Y8999D02*
D03*
X27731Y9880D02*
D03*
X24391Y8500D02*
D03*
X27721Y8340D02*
D03*
X24421Y6200D02*
D03*
X24821D02*
D03*
X27999Y6540D02*
D03*
X28001Y7151D02*
D03*
Y7870D02*
D03*
D69*
X39606Y16059D02*
D03*
X38701D02*
D03*
X37795D02*
D03*
D70*
X38701Y18362D02*
D03*
D71*
X44550Y7810D02*
D03*
X40652D02*
D03*
D72*
X43961Y3510D02*
D03*
X41241D02*
D03*
D73*
X44670Y13610D02*
D03*
X44001D02*
D03*
X43332D02*
D03*
X42662D02*
D03*
X41993D02*
D03*
D74*
X43332Y17843D02*
D03*
M02*
