M48
;Layer_Color=9474304
;FILE_FORMAT=2:5
INCH,LZ
;TYPE=PLATED
T1F00S00C0.01000
T2F00S00C0.02500
T3F00S00C0.02756
T4F00S00C0.03000
T5F00S00C0.03100
T6F00S00C0.03150
T7F00S00C0.03200
T8F00S00C0.03543
T9F00S00C0.04000
T10F00S00C0.04331
T12F00S00C0.15748
%
T01
X0507611Y0278673
X0499Y0294
X04985Y0312042
X05575
X045Y0312
X0436276Y0308
X0373932Y0309421
X0373883Y0299233
Y0289241
X0373981Y0279298
X0374Y0269
X0373972Y0259284
X037393Y0319105
Y0329204
X0417Y0314
X0461Y0321
Y0339
X0461337Y0401
X0385569Y0414431
X0514Y0384
X0519168Y0358168
Y0348168
Y0338168
X0513Y0332988
X0526Y0322
X0473Y0321
X0479Y0339
X0601Y033
X0615Y0337
T02
X0631668Y0267168
Y0297168
X0621668
X0611668
X0601668
Y0267168
X0611668
X0621668
X0347116Y0269197
Y0259197
Y0279197
Y0289197
Y0299197
Y0309197
X0317116
Y0299197
Y0289197
Y0279197
Y0269197
Y0259197
Y0319197
Y0329197
X0347116
Y0319197
T03
X0431636Y0280668
Y0292873
T04
X0370168Y0357168
Y0367168
Y0377168
Y0387168
Y0397168
Y0407168
Y0417168
Y0427168
T05
X0525868Y0244968
Y0263768
X0552968
Y0244968
T06
X04555Y0453815
X05065Y04535
X0526Y0453158
X0628Y0419842
X0628Y0400157
X0649Y0382
X0668685Y0382
X0526Y0472843
X05065Y0473185
X04555Y04735
T07
X0477168Y0282668
X0458168
T08
X0285668Y0292168
Y0302168
Y0312168
X0417168Y0378738
X0427168
X0437168
X0447168
Y0402168
X0437168
X0427168
X0417168
X0542583Y0358275
Y0348275
Y0338275
X0572583
Y0348275
Y0358275
T09
X0407Y0426
Y0436
X0438912Y0431956
X0448912
T10
X0666Y0281
Y0301
Y0339
Y0359
T12
X0675Y0243
X0294
Y0468
X0675
M30
