G04*
G04 #@! TF.GenerationSoftware,Altium Limited,Altium Designer,22.4.2 (48)*
G04*
G04 Layer_Color=16711935*
%FSLAX25Y25*%
%MOIN*%
G70*
G04*
G04 #@! TF.SameCoordinates,F61A7644-D23D-4A37-B683-A49046494346*
G04*
G04*
G04 #@! TF.FilePolarity,Negative*
G04*
G01*
G75*
%ADD47C,0.07296*%
%ADD48R,0.07296X0.07296*%
%ADD49R,0.06706X0.06706*%
%ADD50C,0.06706*%
%ADD51C,0.06800*%
%ADD52C,0.06115*%
%ADD53R,0.06115X0.06115*%
%ADD54O,0.10800X0.05800*%
%ADD55R,0.10800X0.05800*%
%ADD56C,0.08300*%
%ADD57O,0.05800X0.10800*%
%ADD58R,0.05800X0.10800*%
%ADD59C,0.06000*%
%ADD60C,0.05918*%
%ADD61R,0.06706X0.06706*%
%ADD62R,0.06115X0.06115*%
%ADD63R,0.16800X0.10800*%
%ADD64R,0.10800X0.16800*%
%ADD65C,0.07300*%
%ADD66P,0.07902X8X292.5*%
%ADD67P,0.07902X8X22.5*%
D47*
X392000Y136012D02*
D03*
Y78012D02*
D03*
D48*
Y116012D02*
D03*
Y58012D02*
D03*
D49*
X298584Y115287D02*
D03*
X143169Y179180D02*
D03*
X173169Y155750D02*
D03*
D50*
X298584Y125287D02*
D03*
Y135287D02*
D03*
X268584Y115287D02*
D03*
Y125287D02*
D03*
Y135287D02*
D03*
X11669Y79180D02*
D03*
Y89180D02*
D03*
X173169Y179180D02*
D03*
X163169D02*
D03*
X153169D02*
D03*
X143169Y155750D02*
D03*
X153169D02*
D03*
X163169D02*
D03*
D51*
X96169Y204180D02*
D03*
Y194180D02*
D03*
Y184180D02*
D03*
Y174180D02*
D03*
Y164180D02*
D03*
Y154180D02*
D03*
Y144180D02*
D03*
Y134180D02*
D03*
X20000Y20012D02*
D03*
Y245012D02*
D03*
X401000Y20012D02*
D03*
Y245012D02*
D03*
D52*
X394686Y159012D02*
D03*
X252000Y249854D02*
D03*
X232501Y250197D02*
D03*
X354000Y196854D02*
D03*
X181500Y250512D02*
D03*
D53*
X375000Y159012D02*
D03*
D54*
X73116Y36209D02*
D03*
Y46209D02*
D03*
Y56209D02*
D03*
Y66209D02*
D03*
Y76209D02*
D03*
Y86209D02*
D03*
Y96209D02*
D03*
Y106209D02*
D03*
X43116Y36209D02*
D03*
Y46209D02*
D03*
Y56209D02*
D03*
Y66209D02*
D03*
Y76209D02*
D03*
Y86209D02*
D03*
Y96209D02*
D03*
D55*
Y106209D02*
D03*
D56*
X278969Y21980D02*
D03*
X251869Y40780D02*
D03*
Y21980D02*
D03*
X278969Y40780D02*
D03*
D57*
X357669Y74180D02*
D03*
X347669D02*
D03*
X337669D02*
D03*
X327669D02*
D03*
X357669Y44180D02*
D03*
X347669D02*
D03*
X337669D02*
D03*
D58*
X327669D02*
D03*
D59*
X184169Y59680D02*
D03*
X203169D02*
D03*
D60*
X157636Y57680D02*
D03*
Y69885D02*
D03*
D61*
X11669Y69180D02*
D03*
D62*
X252000Y230169D02*
D03*
X232500Y230512D02*
D03*
X354000Y177169D02*
D03*
X181500Y230827D02*
D03*
D63*
X381000Y208012D02*
D03*
D64*
X396000Y188012D02*
D03*
X371000D02*
D03*
D65*
X133000Y203012D02*
D03*
X174912Y208967D02*
D03*
D66*
X133000Y213012D02*
D03*
D67*
X164912Y208967D02*
D03*
M02*
