G04*
G04 #@! TF.GenerationSoftware,Altium Limited,Altium Designer,22.4.2 (48)*
G04*
G04 Layer_Physical_Order=2*
G04 Layer_Color=16711680*
%FSLAX25Y25*%
%MOIN*%
G70*
G04*
G04 #@! TF.SameCoordinates,F61A7644-D23D-4A37-B683-A49046494346*
G04*
G04*
G04 #@! TF.FilePolarity,Positive*
G04*
G01*
G75*
%ADD13C,0.01000*%
%ADD59C,0.06000*%
%ADD69C,0.03000*%
%ADD70C,0.06496*%
%ADD71R,0.06496X0.06496*%
%ADD72R,0.05906X0.05906*%
%ADD73C,0.05906*%
%ADD74C,0.05315*%
%ADD75R,0.05315X0.05315*%
%ADD76O,0.10000X0.05000*%
%ADD77R,0.10000X0.05000*%
%ADD78C,0.07500*%
%ADD79O,0.05000X0.10000*%
%ADD80R,0.05000X0.10000*%
%ADD81C,0.05200*%
%ADD82C,0.05118*%
%ADD83R,0.05906X0.05906*%
%ADD84R,0.05315X0.05315*%
%ADD85R,0.16000X0.10000*%
%ADD86R,0.10000X0.16000*%
%ADD87C,0.06500*%
%ADD88P,0.07036X8X292.5*%
%ADD89P,0.07036X8X22.5*%
%ADD90C,0.02000*%
G36*
X419777Y11783D02*
Y1235D01*
X1224D01*
X1224Y263788D01*
X419777D01*
X419777Y11783D01*
D02*
G37*
%LPC*%
G36*
X182000Y254164D02*
Y251012D01*
X185153D01*
X184909Y251923D01*
X184427Y252758D01*
X183746Y253438D01*
X182912Y253920D01*
X182000Y254164D01*
D02*
G37*
G36*
X181000D02*
X180089Y253920D01*
X179255Y253438D01*
X178574Y252758D01*
X178092Y251923D01*
X177848Y251012D01*
X181000D01*
Y254164D01*
D02*
G37*
G36*
X233000Y253849D02*
Y250697D01*
X236153D01*
X235909Y251608D01*
X235427Y252443D01*
X234746Y253123D01*
X233912Y253605D01*
X233000Y253849D01*
D02*
G37*
G36*
X232000D02*
X231089Y253605D01*
X230255Y253123D01*
X229574Y252443D01*
X229092Y251608D01*
X228848Y250697D01*
X232000D01*
Y253849D01*
D02*
G37*
G36*
X252500Y253507D02*
Y250354D01*
X255653D01*
X255409Y251266D01*
X254927Y252100D01*
X254246Y252781D01*
X253412Y253262D01*
X252500Y253507D01*
D02*
G37*
G36*
X251500Y253507D02*
X250589Y253262D01*
X249755Y252781D01*
X249074Y252100D01*
X248592Y251266D01*
X248348Y250354D01*
X251500D01*
Y253507D01*
D02*
G37*
G36*
X185153Y250012D02*
X182000D01*
Y246859D01*
X182912Y247104D01*
X183746Y247585D01*
X184427Y248266D01*
X184909Y249100D01*
X185153Y250012D01*
D02*
G37*
G36*
X181000D02*
X177848D01*
X178092Y249100D01*
X178574Y248266D01*
X179255Y247585D01*
X180089Y247104D01*
X181000Y246859D01*
Y250012D01*
D02*
G37*
G36*
X236153Y249697D02*
X233000D01*
Y246544D01*
X233912Y246789D01*
X234746Y247270D01*
X235427Y247951D01*
X235909Y248785D01*
X236153Y249697D01*
D02*
G37*
G36*
X232000D02*
X228848D01*
X229092Y248785D01*
X229574Y247951D01*
X230255Y247270D01*
X231089Y246789D01*
X232000Y246544D01*
Y249697D01*
D02*
G37*
G36*
X251500Y249354D02*
X248348D01*
X248592Y248443D01*
X249074Y247608D01*
X249755Y246928D01*
X250589Y246446D01*
X251500Y246202D01*
Y249354D01*
D02*
G37*
G36*
X255653D02*
X252500D01*
Y246202D01*
X253412Y246446D01*
X254246Y246928D01*
X254927Y247608D01*
X255409Y248443D01*
X255653Y249354D01*
D02*
G37*
G36*
X401845Y253586D02*
X400156D01*
X398499Y253256D01*
X396939Y252610D01*
X395535Y251672D01*
X394340Y250477D01*
X393402Y249073D01*
X392756Y247513D01*
X392426Y245856D01*
Y244167D01*
X392756Y242511D01*
X393402Y240950D01*
X394340Y239546D01*
X395535Y238352D01*
X396939Y237414D01*
X398499Y236767D01*
X400156Y236438D01*
X401845D01*
X403501Y236767D01*
X405062Y237414D01*
X406466Y238352D01*
X407660Y239546D01*
X408599Y240950D01*
X409245Y242511D01*
X409574Y244167D01*
Y245856D01*
X409245Y247513D01*
X408599Y249073D01*
X407660Y250477D01*
X406466Y251672D01*
X405062Y252610D01*
X403501Y253256D01*
X401845Y253586D01*
D02*
G37*
G36*
X20845D02*
X19156D01*
X17500Y253256D01*
X15939Y252610D01*
X14535Y251672D01*
X13340Y250477D01*
X12402Y249073D01*
X11756Y247513D01*
X11426Y245856D01*
Y244167D01*
X11756Y242511D01*
X12402Y240950D01*
X13340Y239546D01*
X14535Y238352D01*
X15939Y237414D01*
X17500Y236767D01*
X19156Y236438D01*
X20845D01*
X22501Y236767D01*
X24062Y237414D01*
X25466Y238352D01*
X26660Y239546D01*
X27599Y240950D01*
X28245Y242511D01*
X28574Y244167D01*
Y245856D01*
X28245Y247513D01*
X27599Y249073D01*
X26660Y250477D01*
X25466Y251672D01*
X24062Y252610D01*
X22501Y253256D01*
X20845Y253586D01*
D02*
G37*
G36*
X184858Y234184D02*
X178143D01*
Y227469D01*
X184858D01*
Y234184D01*
D02*
G37*
G36*
X235858Y233869D02*
X229143D01*
Y227154D01*
X235858D01*
Y233869D01*
D02*
G37*
G36*
X255358Y233527D02*
X248643D01*
Y226812D01*
X255358D01*
Y233527D01*
D02*
G37*
G36*
X134975Y216962D02*
X131025D01*
X129050Y214987D01*
Y211037D01*
X131025Y209062D01*
X134975D01*
X136950Y211037D01*
Y214987D01*
X134975Y216962D01*
D02*
G37*
G36*
X390000Y214012D02*
X381500D01*
Y208512D01*
X390000D01*
Y214012D01*
D02*
G37*
G36*
X380500D02*
X372000D01*
Y208512D01*
X380500D01*
Y214012D01*
D02*
G37*
G36*
X175432Y212917D02*
X174392D01*
X173388Y212648D01*
X172487Y212128D01*
X171752Y211393D01*
X171232Y210492D01*
X170962Y209487D01*
Y208447D01*
X171232Y207443D01*
X171752Y206542D01*
X172487Y205807D01*
X173388Y205287D01*
X174392Y205017D01*
X175432D01*
X176437Y205287D01*
X177338Y205807D01*
X178073Y206542D01*
X178593Y207443D01*
X178862Y208447D01*
Y209487D01*
X178593Y210492D01*
X178073Y211393D01*
X177338Y212128D01*
X176437Y212648D01*
X175432Y212917D01*
D02*
G37*
G36*
X166887D02*
X162937D01*
X160962Y210942D01*
Y206992D01*
X162937Y205017D01*
X166887D01*
X168862Y206992D01*
Y210942D01*
X166887Y212917D01*
D02*
G37*
G36*
X390000Y207512D02*
X381500D01*
Y202012D01*
X390000D01*
Y207512D01*
D02*
G37*
G36*
X380500D02*
X372000D01*
Y202012D01*
X380500D01*
Y207512D01*
D02*
G37*
G36*
X133520Y206962D02*
X132480D01*
X131476Y206693D01*
X130575Y206172D01*
X129840Y205437D01*
X129320Y204536D01*
X129050Y203532D01*
Y202492D01*
X129320Y201487D01*
X129840Y200586D01*
X130575Y199851D01*
X131476Y199331D01*
X132480Y199062D01*
X133520D01*
X134525Y199331D01*
X135426Y199851D01*
X136161Y200586D01*
X136681Y201487D01*
X136950Y202492D01*
Y203532D01*
X136681Y204536D01*
X136161Y205437D01*
X135426Y206172D01*
X134525Y206693D01*
X133520Y206962D01*
D02*
G37*
G36*
X354500Y200507D02*
Y197354D01*
X357653D01*
X357409Y198266D01*
X356927Y199100D01*
X356246Y199781D01*
X355412Y200262D01*
X354500Y200507D01*
D02*
G37*
G36*
X353500Y200507D02*
X352589Y200262D01*
X351755Y199781D01*
X351074Y199100D01*
X350592Y198266D01*
X350348Y197354D01*
X353500D01*
Y200507D01*
D02*
G37*
G36*
Y196354D02*
X350348D01*
X350592Y195443D01*
X351074Y194608D01*
X351755Y193928D01*
X352589Y193446D01*
X353500Y193202D01*
Y196354D01*
D02*
G37*
G36*
X357653D02*
X354500D01*
Y193202D01*
X355412Y193446D01*
X356246Y193928D01*
X356927Y194608D01*
X357409Y195443D01*
X357653Y196354D01*
D02*
G37*
G36*
X96656Y207880D02*
X95682D01*
X94741Y207628D01*
X93897Y207141D01*
X93208Y206452D01*
X92721Y205608D01*
X92469Y204667D01*
Y203693D01*
X92721Y202752D01*
X92827Y202568D01*
X85435Y195177D01*
X85170Y194780D01*
X85077Y194312D01*
Y166712D01*
X85170Y166244D01*
X85435Y165847D01*
X93135Y158147D01*
X93532Y157881D01*
X94000Y157788D01*
X94018D01*
X94152Y157288D01*
X93897Y157141D01*
X93208Y156452D01*
X92721Y155608D01*
X92469Y154667D01*
Y153693D01*
X92721Y152752D01*
X93208Y151908D01*
X93897Y151219D01*
X94741Y150732D01*
X95682Y150480D01*
X96656D01*
X96688Y150489D01*
X103926Y143251D01*
Y111109D01*
X101275Y108459D01*
X99930D01*
X99072Y108288D01*
X98344Y107802D01*
X97858Y107074D01*
X97687Y106216D01*
Y96117D01*
X97689Y96106D01*
Y86680D01*
X97640Y86433D01*
Y76244D01*
Y66253D01*
X97738Y65758D01*
Y56310D01*
Y46030D01*
X97729Y45983D01*
Y36296D01*
X97900Y35437D01*
X98386Y34710D01*
X99114Y34223D01*
X99972Y34053D01*
X100830Y34223D01*
X101558Y34710D01*
X102044Y35437D01*
X102215Y36296D01*
Y45869D01*
X102243Y46012D01*
X102225Y46108D01*
Y56310D01*
Y66154D01*
X102126Y66649D01*
Y76244D01*
Y86185D01*
X102175Y86433D01*
Y95190D01*
X102754Y95769D01*
X166071D01*
X174414Y87426D01*
X175142Y86939D01*
X176000Y86769D01*
X176859Y86939D01*
X177586Y87426D01*
X178073Y88153D01*
X178244Y89012D01*
X178073Y89870D01*
X177586Y90598D01*
X168587Y99598D01*
X167859Y100084D01*
X167000Y100255D01*
X102173D01*
Y103973D01*
X102205D01*
X103063Y104144D01*
X103791Y104630D01*
X107755Y108594D01*
X108241Y109322D01*
X108412Y110180D01*
Y144180D01*
X108241Y145038D01*
X107755Y145766D01*
X99860Y153661D01*
X99869Y153693D01*
Y154667D01*
X99617Y155608D01*
X99129Y156452D01*
X98441Y157141D01*
X98185Y157288D01*
X98319Y157788D01*
X101000D01*
X101469Y157881D01*
X101866Y158147D01*
X127507Y183788D01*
X179830D01*
X185637Y177981D01*
Y177674D01*
X185896Y177049D01*
X186374Y176571D01*
X186999Y176312D01*
X187675D01*
X188300Y176571D01*
X188778Y177049D01*
X189037Y177674D01*
Y178350D01*
X188778Y178975D01*
X188300Y179453D01*
X187675Y179712D01*
X187367D01*
X181202Y185877D01*
X180805Y186142D01*
X180337Y186235D01*
X127000D01*
X126532Y186142D01*
X126135Y185877D01*
X100494Y160235D01*
X97674D01*
X97597Y160732D01*
X98441Y161219D01*
X99129Y161908D01*
X99617Y162752D01*
X99869Y163693D01*
Y164667D01*
X99617Y165608D01*
X99129Y166452D01*
X98441Y167141D01*
X97597Y167628D01*
X96656Y167880D01*
X95682D01*
X94741Y167628D01*
X94557Y167522D01*
X89224Y172855D01*
Y192505D01*
X92158Y195439D01*
X92606Y195180D01*
X92469Y194667D01*
Y193693D01*
X92721Y192752D01*
X93208Y191908D01*
X93897Y191219D01*
X94741Y190732D01*
X95682Y190480D01*
X96656D01*
X97597Y190732D01*
X98441Y191219D01*
X99129Y191908D01*
X99617Y192752D01*
X99869Y193693D01*
Y194667D01*
X99617Y195608D01*
X99129Y196452D01*
X98441Y197141D01*
X98185Y197288D01*
X98319Y197788D01*
X103494D01*
X109870Y191412D01*
Y191104D01*
X110129Y190479D01*
X110607Y190001D01*
X111232Y189742D01*
X111908D01*
X112533Y190001D01*
X113011Y190479D01*
X113270Y191104D01*
Y191780D01*
X113011Y192405D01*
X112533Y192884D01*
X111908Y193142D01*
X111600D01*
X104866Y199877D01*
X104469Y200142D01*
X104000Y200235D01*
X97674D01*
X97597Y200732D01*
X98441Y201219D01*
X99129Y201908D01*
X99617Y202752D01*
X99869Y203693D01*
Y204667D01*
X99617Y205608D01*
X99129Y206452D01*
X98441Y207141D01*
X97597Y207628D01*
X96656Y207880D01*
D02*
G37*
G36*
X402000Y197012D02*
X396500D01*
Y188512D01*
X402000D01*
Y197012D01*
D02*
G37*
G36*
X395500D02*
X390000D01*
Y188512D01*
X395500D01*
Y197012D01*
D02*
G37*
G36*
X96656Y187880D02*
X95682D01*
X94741Y187628D01*
X93897Y187141D01*
X93208Y186452D01*
X92721Y185608D01*
X92469Y184667D01*
Y183693D01*
X92721Y182752D01*
X93208Y181908D01*
X93897Y181219D01*
X94741Y180732D01*
X95682Y180480D01*
X96656D01*
X97597Y180732D01*
X98441Y181219D01*
X99129Y181908D01*
X99617Y182752D01*
X99869Y183693D01*
Y184667D01*
X99617Y185608D01*
X99129Y186452D01*
X98441Y187141D01*
X97597Y187628D01*
X96656Y187880D01*
D02*
G37*
G36*
X173689Y183133D02*
X173669D01*
Y179680D01*
X177121D01*
Y179700D01*
X176852Y180706D01*
X176332Y181607D01*
X175596Y182343D01*
X174694Y182863D01*
X173689Y183133D01*
D02*
G37*
G36*
X172669D02*
X172648D01*
X171643Y182863D01*
X170742Y182343D01*
X170006Y181607D01*
X169485Y180706D01*
X169216Y179700D01*
Y179680D01*
X172669D01*
Y183133D01*
D02*
G37*
G36*
X376700Y196712D02*
X365300D01*
Y179312D01*
X376700D01*
Y196712D01*
D02*
G37*
G36*
X402000Y187512D02*
X396500D01*
Y179012D01*
X402000D01*
Y187512D01*
D02*
G37*
G36*
X395500D02*
X390000D01*
Y179012D01*
X395500D01*
Y187512D01*
D02*
G37*
G36*
X163650Y182833D02*
X162688D01*
X161759Y182584D01*
X160926Y182103D01*
X160246Y181423D01*
X159765Y180590D01*
X159516Y179661D01*
Y178699D01*
X159765Y177770D01*
X160246Y176937D01*
X160926Y176257D01*
X161759Y175776D01*
X162688Y175527D01*
X163650D01*
X164579Y175776D01*
X165412Y176257D01*
X166092Y176937D01*
X166572Y177770D01*
X166822Y178699D01*
Y179661D01*
X166572Y180590D01*
X166092Y181423D01*
X165412Y182103D01*
X164579Y182584D01*
X163650Y182833D01*
D02*
G37*
G36*
X153650D02*
X152688D01*
X151759Y182584D01*
X150926Y182103D01*
X150246Y181423D01*
X149765Y180590D01*
X149516Y179661D01*
Y178699D01*
X149765Y177770D01*
X150246Y176937D01*
X150926Y176257D01*
X151759Y175776D01*
X152688Y175527D01*
X153650D01*
X154579Y175776D01*
X155412Y176257D01*
X156092Y176937D01*
X156572Y177770D01*
X156822Y178699D01*
Y179661D01*
X156572Y180590D01*
X156092Y181423D01*
X155412Y182103D01*
X154579Y182584D01*
X153650Y182833D01*
D02*
G37*
G36*
X146821D02*
X139516D01*
Y175527D01*
X146821D01*
Y182833D01*
D02*
G37*
G36*
X177121Y178680D02*
X173669D01*
Y175227D01*
X173689D01*
X174694Y175497D01*
X175596Y176017D01*
X176332Y176753D01*
X176852Y177654D01*
X177121Y178660D01*
Y178680D01*
D02*
G37*
G36*
X172669D02*
X169216D01*
Y178660D01*
X169485Y177654D01*
X170006Y176753D01*
X170742Y176017D01*
X171643Y175497D01*
X172648Y175227D01*
X172669D01*
Y178680D01*
D02*
G37*
G36*
X357358Y180527D02*
X350643D01*
Y173812D01*
X357358D01*
Y180527D01*
D02*
G37*
G36*
X96656Y177880D02*
X95682D01*
X94741Y177628D01*
X93897Y177141D01*
X93208Y176452D01*
X92721Y175608D01*
X92469Y174667D01*
Y173693D01*
X92721Y172752D01*
X93208Y171908D01*
X93897Y171219D01*
X94741Y170732D01*
X95682Y170480D01*
X96656D01*
X97597Y170732D01*
X98441Y171219D01*
X99129Y171908D01*
X99617Y172752D01*
X99869Y173693D01*
Y174667D01*
X99617Y175608D01*
X99129Y176452D01*
X98441Y177141D01*
X97597Y177628D01*
X96656Y177880D01*
D02*
G37*
G36*
X395185Y162664D02*
Y159512D01*
X398338D01*
X398094Y160424D01*
X397612Y161258D01*
X396931Y161938D01*
X396097Y162420D01*
X395185Y162664D01*
D02*
G37*
G36*
X394185D02*
X393274Y162420D01*
X392440Y161938D01*
X391759Y161258D01*
X391277Y160424D01*
X391033Y159512D01*
X394185D01*
Y162664D01*
D02*
G37*
G36*
X143689Y159703D02*
X143669D01*
Y156250D01*
X147122D01*
Y156270D01*
X146852Y157276D01*
X146332Y158177D01*
X145596Y158913D01*
X144694Y159433D01*
X143689Y159703D01*
D02*
G37*
G36*
X142669D02*
X142648D01*
X141643Y159433D01*
X140742Y158913D01*
X140006Y158177D01*
X139485Y157276D01*
X139216Y156270D01*
Y156250D01*
X142669D01*
Y159703D01*
D02*
G37*
G36*
X378358Y162369D02*
X371643D01*
Y155654D01*
X378358D01*
Y162369D01*
D02*
G37*
G36*
X398338Y158512D02*
X395185D01*
Y155359D01*
X396097Y155604D01*
X396931Y156085D01*
X397612Y156766D01*
X398094Y157600D01*
X398338Y158512D01*
D02*
G37*
G36*
X394185D02*
X391033D01*
X391277Y157600D01*
X391759Y156766D01*
X392440Y156085D01*
X393274Y155604D01*
X394185Y155359D01*
Y158512D01*
D02*
G37*
G36*
X176821Y159403D02*
X169516D01*
Y152097D01*
X176821D01*
Y159403D01*
D02*
G37*
G36*
X163650D02*
X162688D01*
X161759Y159154D01*
X160926Y158673D01*
X160246Y157993D01*
X159765Y157160D01*
X159516Y156231D01*
Y155269D01*
X159765Y154340D01*
X160246Y153507D01*
X160926Y152827D01*
X161759Y152346D01*
X162688Y152097D01*
X163650D01*
X164579Y152346D01*
X165412Y152827D01*
X166092Y153507D01*
X166572Y154340D01*
X166822Y155269D01*
Y156231D01*
X166572Y157160D01*
X166092Y157993D01*
X165412Y158673D01*
X164579Y159154D01*
X163650Y159403D01*
D02*
G37*
G36*
X153650D02*
X152688D01*
X151759Y159154D01*
X150926Y158673D01*
X150246Y157993D01*
X149765Y157160D01*
X149516Y156231D01*
Y155269D01*
X149765Y154340D01*
X150246Y153507D01*
X150926Y152827D01*
X151759Y152346D01*
X152688Y152097D01*
X153650D01*
X154579Y152346D01*
X155412Y152827D01*
X156092Y153507D01*
X156572Y154340D01*
X156822Y155269D01*
Y156231D01*
X156572Y157160D01*
X156092Y157993D01*
X155412Y158673D01*
X154579Y159154D01*
X153650Y159403D01*
D02*
G37*
G36*
X147122Y155250D02*
X143669D01*
Y151797D01*
X143689D01*
X144694Y152067D01*
X145596Y152587D01*
X146332Y153323D01*
X146852Y154224D01*
X147122Y155229D01*
Y155250D01*
D02*
G37*
G36*
X142669D02*
X139216D01*
Y155229D01*
X139485Y154224D01*
X140006Y153323D01*
X140742Y152587D01*
X141643Y152067D01*
X142648Y151797D01*
X142669D01*
Y155250D01*
D02*
G37*
G36*
X96695Y148180D02*
X96669D01*
Y144680D01*
X100169D01*
Y144707D01*
X99896Y145724D01*
X99370Y146636D01*
X98625Y147381D01*
X97713Y147907D01*
X96695Y148180D01*
D02*
G37*
G36*
X95669D02*
X95642D01*
X94625Y147907D01*
X93713Y147381D01*
X92968Y146636D01*
X92441Y145724D01*
X92169Y144707D01*
Y144680D01*
X95669D01*
Y148180D01*
D02*
G37*
G36*
X100169Y143680D02*
X96669D01*
Y140180D01*
X96695D01*
X97713Y140453D01*
X98625Y140979D01*
X99370Y141724D01*
X99896Y142636D01*
X100169Y143653D01*
Y143680D01*
D02*
G37*
G36*
X95669D02*
X92169D01*
Y143653D01*
X92441Y142636D01*
X92968Y141724D01*
X93713Y140979D01*
X94625Y140453D01*
X95642Y140180D01*
X95669D01*
Y143680D01*
D02*
G37*
G36*
X299104Y139240D02*
X299084D01*
Y135787D01*
X302537D01*
Y135808D01*
X302267Y136813D01*
X301747Y137714D01*
X301011Y138450D01*
X300109Y138970D01*
X299104Y139240D01*
D02*
G37*
G36*
X298084D02*
X298063D01*
X297058Y138970D01*
X296157Y138450D01*
X295421Y137714D01*
X294900Y136813D01*
X294631Y135808D01*
Y135787D01*
X298084D01*
Y139240D01*
D02*
G37*
G36*
X392520Y139960D02*
X391481D01*
X390476Y139691D01*
X389576Y139171D01*
X388841Y138436D01*
X388321Y137536D01*
X388052Y136531D01*
Y135492D01*
X388321Y134488D01*
X388841Y133588D01*
X389576Y132852D01*
X390476Y132333D01*
X391481Y132064D01*
X392520D01*
X393524Y132333D01*
X394425Y132852D01*
X395160Y133588D01*
X395679Y134488D01*
X395949Y135492D01*
Y136531D01*
X395679Y137536D01*
X395160Y138436D01*
X394425Y139171D01*
X393524Y139691D01*
X392520Y139960D01*
D02*
G37*
G36*
X269065Y138940D02*
X268103D01*
X267174Y138691D01*
X266341Y138210D01*
X265661Y137530D01*
X265180Y136697D01*
X264931Y135768D01*
Y134806D01*
X265180Y133877D01*
X265661Y133044D01*
X266341Y132364D01*
X267174Y131883D01*
X268103Y131634D01*
X269065D01*
X269994Y131883D01*
X270827Y132364D01*
X271507Y133044D01*
X271988Y133877D01*
X272236Y134806D01*
Y135768D01*
X271988Y136697D01*
X271507Y137530D01*
X270827Y138210D01*
X269994Y138691D01*
X269065Y138940D01*
D02*
G37*
G36*
X302537Y134787D02*
X299084D01*
Y131334D01*
X299104D01*
X300109Y131604D01*
X301011Y132124D01*
X301747Y132860D01*
X302267Y133761D01*
X302537Y134767D01*
Y134787D01*
D02*
G37*
G36*
X298084D02*
X294631D01*
Y134767D01*
X294900Y133761D01*
X295421Y132860D01*
X296157Y132124D01*
X297058Y131604D01*
X298063Y131334D01*
X298084D01*
Y134787D01*
D02*
G37*
G36*
X96656Y137880D02*
X95682D01*
X94741Y137628D01*
X93897Y137141D01*
X93208Y136452D01*
X92721Y135608D01*
X92469Y134667D01*
Y133693D01*
X92721Y132752D01*
X93208Y131908D01*
X93897Y131219D01*
X94741Y130732D01*
X95682Y130480D01*
X96656D01*
X97597Y130732D01*
X98441Y131219D01*
X99129Y131908D01*
X99617Y132752D01*
X99869Y133693D01*
Y134667D01*
X99617Y135608D01*
X99129Y136452D01*
X98441Y137141D01*
X97597Y137628D01*
X96656Y137880D01*
D02*
G37*
G36*
X299104Y129240D02*
X299084D01*
Y125787D01*
X302537D01*
Y125807D01*
X302267Y126813D01*
X301747Y127714D01*
X301011Y128450D01*
X300109Y128971D01*
X299104Y129240D01*
D02*
G37*
G36*
X298084D02*
X298063D01*
X297058Y128971D01*
X296157Y128450D01*
X295421Y127714D01*
X294900Y126813D01*
X294631Y125807D01*
Y125787D01*
X298084D01*
Y129240D01*
D02*
G37*
G36*
X269065Y128940D02*
X268103D01*
X267174Y128691D01*
X266341Y128210D01*
X265661Y127530D01*
X265180Y126697D01*
X264931Y125768D01*
Y124806D01*
X265180Y123877D01*
X265661Y123044D01*
X266341Y122364D01*
X267174Y121883D01*
X268103Y121634D01*
X269065D01*
X269994Y121883D01*
X270827Y122364D01*
X271507Y123044D01*
X271988Y123877D01*
X272236Y124806D01*
Y125768D01*
X271988Y126697D01*
X271507Y127530D01*
X270827Y128210D01*
X269994Y128691D01*
X269065Y128940D01*
D02*
G37*
G36*
X302537Y124787D02*
X299084D01*
Y121334D01*
X299104D01*
X300109Y121604D01*
X301011Y122124D01*
X301747Y122860D01*
X302267Y123761D01*
X302537Y124767D01*
Y124787D01*
D02*
G37*
G36*
X298084D02*
X294631D01*
Y124767D01*
X294900Y123761D01*
X295421Y122860D01*
X296157Y122124D01*
X297058Y121604D01*
X298063Y121334D01*
X298084D01*
Y124787D01*
D02*
G37*
G36*
X205500Y117969D02*
Y116512D01*
X206958D01*
X206696Y117145D01*
X206133Y117707D01*
X205500Y117969D01*
D02*
G37*
G36*
X204500D02*
X203868Y117707D01*
X203305Y117145D01*
X203043Y116512D01*
X204500D01*
Y117969D01*
D02*
G37*
G36*
X187500D02*
Y116512D01*
X188958D01*
X188696Y117145D01*
X188133Y117707D01*
X187500Y117969D01*
D02*
G37*
G36*
X186500D02*
X185868Y117707D01*
X185305Y117145D01*
X185043Y116512D01*
X186500D01*
Y117969D01*
D02*
G37*
G36*
X302537Y119240D02*
X299084D01*
Y115787D01*
X302537D01*
Y119240D01*
D02*
G37*
G36*
X298084D02*
X294631D01*
Y115787D01*
X298084D01*
Y119240D01*
D02*
G37*
G36*
X341500Y115969D02*
Y114512D01*
X342958D01*
X342696Y115145D01*
X342133Y115707D01*
X341500Y115969D01*
D02*
G37*
G36*
X340500D02*
X339867Y115707D01*
X339305Y115145D01*
X339043Y114512D01*
X340500D01*
Y115969D01*
D02*
G37*
G36*
X206958Y115512D02*
X205500D01*
Y114054D01*
X206133Y114316D01*
X206696Y114879D01*
X206958Y115512D01*
D02*
G37*
G36*
X204500D02*
X203043D01*
X203305Y114879D01*
X203868Y114316D01*
X204500Y114054D01*
Y115512D01*
D02*
G37*
G36*
X188958D02*
X187500D01*
Y114054D01*
X188133Y114316D01*
X188696Y114879D01*
X188958Y115512D01*
D02*
G37*
G36*
X186500D02*
X185043D01*
X185305Y114879D01*
X185868Y114316D01*
X186500Y114054D01*
Y115512D01*
D02*
G37*
G36*
X240000Y163255D02*
X239142Y163084D01*
X238414Y162598D01*
X237928Y161870D01*
X237757Y161012D01*
X237928Y160153D01*
X238414Y159426D01*
X242926Y154914D01*
Y135180D01*
Y125180D01*
Y115180D01*
X243096Y114322D01*
X243583Y113594D01*
X244310Y113108D01*
X245169Y112937D01*
X246027Y113108D01*
X246755Y113594D01*
X247241Y114322D01*
X247412Y115180D01*
Y125180D01*
Y135180D01*
Y155843D01*
X247241Y156702D01*
X246755Y157430D01*
X241586Y162598D01*
X240859Y163084D01*
X240000Y163255D01*
D02*
G37*
G36*
X395949Y119960D02*
X388052D01*
Y112064D01*
X395949D01*
Y119960D01*
D02*
G37*
G36*
X342958Y113512D02*
X341500D01*
Y112054D01*
X342133Y112316D01*
X342696Y112879D01*
X342958Y113512D01*
D02*
G37*
G36*
X340500D02*
X339043D01*
X339305Y112879D01*
X339867Y112316D01*
X340500Y112054D01*
Y113512D01*
D02*
G37*
G36*
X269065Y118940D02*
X268103D01*
X267174Y118691D01*
X266341Y118210D01*
X265661Y117530D01*
X265180Y116697D01*
X264931Y115768D01*
Y114806D01*
X265180Y113877D01*
X265661Y113044D01*
X266341Y112364D01*
X267174Y111883D01*
X268103Y111634D01*
X269065D01*
X269994Y111883D01*
X270827Y112364D01*
X271507Y113044D01*
X271988Y113877D01*
X272236Y114806D01*
Y115768D01*
X271988Y116697D01*
X271507Y117530D01*
X270827Y118210D01*
X269994Y118691D01*
X269065Y118940D01*
D02*
G37*
G36*
X302537Y114787D02*
X299084D01*
Y111334D01*
X302537D01*
Y114787D01*
D02*
G37*
G36*
X298084D02*
X294631D01*
Y111334D01*
X298084D01*
Y114787D01*
D02*
G37*
G36*
X239500Y111958D02*
Y110500D01*
X240958D01*
X240696Y111133D01*
X240133Y111696D01*
X239500Y111958D01*
D02*
G37*
G36*
X238500D02*
X237867Y111696D01*
X237304Y111133D01*
X237042Y110500D01*
X238500D01*
Y111958D01*
D02*
G37*
G36*
X240958Y109500D02*
X239500D01*
Y108042D01*
X240133Y108305D01*
X240696Y108867D01*
X240958Y109500D01*
D02*
G37*
G36*
X238500D02*
X237042D01*
X237304Y108867D01*
X237867Y108305D01*
X238500Y108042D01*
Y109500D01*
D02*
G37*
G36*
X327500Y108969D02*
Y107512D01*
X328958D01*
X328696Y108145D01*
X328133Y108707D01*
X327500Y108969D01*
D02*
G37*
G36*
X326500D02*
X325868Y108707D01*
X325305Y108145D01*
X325043Y107512D01*
X326500D01*
Y108969D01*
D02*
G37*
G36*
X49116Y109709D02*
X43616D01*
Y106709D01*
X49116D01*
Y109709D01*
D02*
G37*
G36*
X42616D02*
X37116D01*
Y106709D01*
X42616D01*
Y109709D01*
D02*
G37*
G36*
X328958Y106512D02*
X327500D01*
Y105054D01*
X328133Y105316D01*
X328696Y105879D01*
X328958Y106512D01*
D02*
G37*
G36*
X326500D02*
X325043D01*
X325305Y105879D01*
X325868Y105316D01*
X326500Y105054D01*
Y106512D01*
D02*
G37*
G36*
X75616Y109436D02*
X70616D01*
X69781Y109326D01*
X69002Y109004D01*
X68334Y108491D01*
X67821Y107822D01*
X67499Y107044D01*
X67389Y106209D01*
X67499Y105373D01*
X67821Y104595D01*
X68334Y103926D01*
X69002Y103413D01*
X69781Y103091D01*
X70616Y102981D01*
X75616D01*
X76452Y103091D01*
X77230Y103413D01*
X77899Y103926D01*
X78412Y104595D01*
X78734Y105373D01*
X78844Y106209D01*
X78734Y107044D01*
X78412Y107822D01*
X77899Y108491D01*
X77230Y109004D01*
X76452Y109326D01*
X75616Y109436D01*
D02*
G37*
G36*
X49116Y105709D02*
X43616D01*
Y102709D01*
X49116D01*
Y105709D01*
D02*
G37*
G36*
X42616D02*
X37116D01*
Y102709D01*
X42616D01*
Y105709D01*
D02*
G37*
G36*
X199500Y99969D02*
Y98512D01*
X200958D01*
X200696Y99145D01*
X200133Y99707D01*
X199500Y99969D01*
D02*
G37*
G36*
X198500D02*
X197868Y99707D01*
X197305Y99145D01*
X197043Y98512D01*
X198500D01*
Y99969D01*
D02*
G37*
G36*
X187500D02*
Y98512D01*
X188958D01*
X188696Y99145D01*
X188133Y99707D01*
X187500Y99969D01*
D02*
G37*
G36*
X186500D02*
X185868Y99707D01*
X185305Y99145D01*
X185043Y98512D01*
X186500D01*
Y99969D01*
D02*
G37*
G36*
X45616Y99739D02*
X43616D01*
Y96709D01*
X49081D01*
X49026Y97122D01*
X48674Y97974D01*
X48112Y98705D01*
X47381Y99266D01*
X46530Y99619D01*
X45616Y99739D01*
D02*
G37*
G36*
X42616D02*
X40616D01*
X39703Y99619D01*
X38851Y99266D01*
X38120Y98705D01*
X37559Y97974D01*
X37206Y97122D01*
X37152Y96709D01*
X42616D01*
Y99739D01*
D02*
G37*
G36*
X200958Y97512D02*
X199500D01*
Y96054D01*
X200133Y96316D01*
X200696Y96879D01*
X200958Y97512D01*
D02*
G37*
G36*
X198500D02*
X197043D01*
X197305Y96879D01*
X197868Y96316D01*
X198500Y96054D01*
Y97512D01*
D02*
G37*
G36*
X188958D02*
X187500D01*
Y96054D01*
X188133Y96316D01*
X188696Y96879D01*
X188958Y97512D01*
D02*
G37*
G36*
X186500D02*
X185043D01*
X185305Y96879D01*
X185868Y96316D01*
X186500Y96054D01*
Y97512D01*
D02*
G37*
G36*
X75616Y99436D02*
X70616D01*
X69781Y99326D01*
X69002Y99004D01*
X68334Y98491D01*
X67821Y97822D01*
X67499Y97044D01*
X67389Y96209D01*
X67499Y95373D01*
X67821Y94595D01*
X68334Y93926D01*
X69002Y93413D01*
X69781Y93091D01*
X70616Y92981D01*
X75616D01*
X76452Y93091D01*
X77230Y93413D01*
X77899Y93926D01*
X78412Y94595D01*
X78734Y95373D01*
X78844Y96209D01*
X78734Y97044D01*
X78412Y97822D01*
X77899Y98491D01*
X77230Y99004D01*
X76452Y99326D01*
X75616Y99436D01*
D02*
G37*
G36*
X49081Y95709D02*
X43616D01*
Y92678D01*
X45616D01*
X46530Y92799D01*
X47381Y93151D01*
X48112Y93712D01*
X48674Y94444D01*
X49026Y95295D01*
X49081Y95709D01*
D02*
G37*
G36*
X42616D02*
X37152D01*
X37206Y95295D01*
X37559Y94444D01*
X38120Y93712D01*
X38851Y93151D01*
X39703Y92799D01*
X40616Y92678D01*
X42616D01*
Y95709D01*
D02*
G37*
G36*
X143500Y92969D02*
Y91512D01*
X144958D01*
X144696Y92145D01*
X144133Y92707D01*
X143500Y92969D01*
D02*
G37*
G36*
X142500D02*
X141867Y92707D01*
X141305Y92145D01*
X141043Y91512D01*
X142500D01*
Y92969D01*
D02*
G37*
G36*
X284000Y91012D02*
Y89554D01*
X285458D01*
X285196Y90187D01*
X284633Y90750D01*
X284000Y91012D01*
D02*
G37*
G36*
X283000D02*
X282367Y90750D01*
X281805Y90187D01*
X281543Y89554D01*
X283000D01*
Y91012D01*
D02*
G37*
G36*
X225000D02*
Y89554D01*
X226458D01*
X226196Y90187D01*
X225633Y90750D01*
X225000Y91012D01*
D02*
G37*
G36*
X224000D02*
X223368Y90750D01*
X222805Y90187D01*
X222543Y89554D01*
X224000D01*
Y91012D01*
D02*
G37*
G36*
X144958Y90512D02*
X143500D01*
Y89054D01*
X144133Y89316D01*
X144696Y89879D01*
X144958Y90512D01*
D02*
G37*
G36*
X142500D02*
X141043D01*
X141305Y89879D01*
X141867Y89316D01*
X142500Y89054D01*
Y90512D01*
D02*
G37*
G36*
X285458Y88554D02*
X284000D01*
Y87096D01*
X284633Y87359D01*
X285196Y87921D01*
X285458Y88554D01*
D02*
G37*
G36*
X283000D02*
X281543D01*
X281805Y87921D01*
X282367Y87359D01*
X283000Y87096D01*
Y88554D01*
D02*
G37*
G36*
X226458D02*
X225000D01*
Y87096D01*
X225633Y87359D01*
X226196Y87921D01*
X226458Y88554D01*
D02*
G37*
G36*
X224000D02*
X222543D01*
X222805Y87921D01*
X223368Y87359D01*
X224000Y87096D01*
Y88554D01*
D02*
G37*
G36*
X45616Y89739D02*
X43616D01*
Y86709D01*
X49081D01*
X49026Y87122D01*
X48674Y87974D01*
X48112Y88705D01*
X47381Y89266D01*
X46530Y89618D01*
X45616Y89739D01*
D02*
G37*
G36*
X42616D02*
X40616D01*
X39703Y89618D01*
X38851Y89266D01*
X38120Y88705D01*
X37559Y87974D01*
X37206Y87122D01*
X37152Y86709D01*
X42616D01*
Y89739D01*
D02*
G37*
G36*
X12150Y92833D02*
X11188D01*
X10259Y92584D01*
X9426Y92103D01*
X8746Y91423D01*
X8265Y90590D01*
X8016Y89661D01*
Y88699D01*
X8265Y87770D01*
X8746Y86937D01*
X9426Y86257D01*
X10259Y85776D01*
X11188Y85527D01*
X12150D01*
X13079Y85776D01*
X13912Y86257D01*
X14592Y86937D01*
X15073Y87770D01*
X15322Y88699D01*
Y89661D01*
X15073Y90590D01*
X14592Y91423D01*
X13912Y92103D01*
X13079Y92584D01*
X12150Y92833D01*
D02*
G37*
G36*
X162776Y86969D02*
Y85512D01*
X164234D01*
X163971Y86145D01*
X163409Y86707D01*
X162776Y86969D01*
D02*
G37*
G36*
X161776D02*
X161143Y86707D01*
X160581Y86145D01*
X160318Y85512D01*
X161776D01*
Y86969D01*
D02*
G37*
G36*
X164234Y84512D02*
X162776D01*
Y83054D01*
X163409Y83316D01*
X163971Y83879D01*
X164234Y84512D01*
D02*
G37*
G36*
X161776D02*
X160318D01*
X160581Y83879D01*
X161143Y83316D01*
X161776Y83054D01*
Y84512D01*
D02*
G37*
G36*
X75616Y89436D02*
X70616D01*
X69781Y89326D01*
X69002Y89004D01*
X68334Y88491D01*
X67821Y87822D01*
X67499Y87044D01*
X67389Y86209D01*
X67499Y85373D01*
X67821Y84595D01*
X68334Y83926D01*
X69002Y83413D01*
X69781Y83091D01*
X70616Y82981D01*
X75616D01*
X76452Y83091D01*
X77230Y83413D01*
X77899Y83926D01*
X78412Y84595D01*
X78734Y85373D01*
X78844Y86209D01*
X78734Y87044D01*
X78412Y87822D01*
X77899Y88491D01*
X77230Y89004D01*
X76452Y89326D01*
X75616Y89436D01*
D02*
G37*
G36*
X49081Y85709D02*
X43616D01*
Y82678D01*
X45616D01*
X46530Y82799D01*
X47381Y83151D01*
X48112Y83712D01*
X48674Y84443D01*
X49026Y85295D01*
X49081Y85709D01*
D02*
G37*
G36*
X42616D02*
X37152D01*
X37206Y85295D01*
X37559Y84443D01*
X38120Y83712D01*
X38851Y83151D01*
X39703Y82799D01*
X40616Y82678D01*
X42616D01*
Y85709D01*
D02*
G37*
G36*
X12189Y83133D02*
X12169D01*
Y79680D01*
X15621D01*
Y79700D01*
X15352Y80706D01*
X14832Y81607D01*
X14096Y82343D01*
X13194Y82863D01*
X12189Y83133D01*
D02*
G37*
G36*
X11169D02*
X11148D01*
X10143Y82863D01*
X9242Y82343D01*
X8506Y81607D01*
X7985Y80706D01*
X7716Y79700D01*
Y79680D01*
X11169D01*
Y83133D01*
D02*
G37*
G36*
X392560Y82260D02*
X392500D01*
Y78512D01*
X396249D01*
Y78571D01*
X395959Y79651D01*
X395400Y80620D01*
X394609Y81411D01*
X393640Y81970D01*
X392560Y82260D01*
D02*
G37*
G36*
X391500D02*
X391441D01*
X390361Y81970D01*
X389392Y81411D01*
X388601Y80620D01*
X388042Y79651D01*
X387752Y78571D01*
Y78512D01*
X391500D01*
Y82260D01*
D02*
G37*
G36*
X45616Y79739D02*
X43616D01*
Y76709D01*
X49081D01*
X49026Y77122D01*
X48674Y77974D01*
X48112Y78705D01*
X47381Y79266D01*
X46530Y79619D01*
X45616Y79739D01*
D02*
G37*
G36*
X42616D02*
X40616D01*
X39703Y79619D01*
X38851Y79266D01*
X38120Y78705D01*
X37559Y77974D01*
X37206Y77122D01*
X37152Y76709D01*
X42616D01*
Y79739D01*
D02*
G37*
G36*
X15621Y78680D02*
X12169D01*
Y75227D01*
X12189D01*
X13194Y75497D01*
X14096Y76017D01*
X14832Y76753D01*
X15352Y77654D01*
X15621Y78660D01*
Y78680D01*
D02*
G37*
G36*
X11169D02*
X7716D01*
Y78660D01*
X7985Y77654D01*
X8506Y76753D01*
X9242Y76017D01*
X10143Y75497D01*
X11148Y75227D01*
X11169D01*
Y78680D01*
D02*
G37*
G36*
X396249Y77512D02*
X392500D01*
Y73764D01*
X392560D01*
X393640Y74053D01*
X394609Y74612D01*
X395400Y75403D01*
X395959Y76372D01*
X396249Y77452D01*
Y77512D01*
D02*
G37*
G36*
X391500D02*
X387752D01*
Y77452D01*
X388042Y76372D01*
X388601Y75403D01*
X389392Y74612D01*
X390361Y74053D01*
X391441Y73764D01*
X391500D01*
Y77512D01*
D02*
G37*
G36*
X75616Y79436D02*
X70616D01*
X69781Y79326D01*
X69002Y79004D01*
X68334Y78491D01*
X67821Y77822D01*
X67499Y77044D01*
X67389Y76209D01*
X67499Y75373D01*
X67821Y74595D01*
X68334Y73926D01*
X69002Y73413D01*
X69781Y73091D01*
X70616Y72981D01*
X75616D01*
X76452Y73091D01*
X77230Y73413D01*
X77899Y73926D01*
X78412Y74595D01*
X78734Y75373D01*
X78844Y76209D01*
X78734Y77044D01*
X78412Y77822D01*
X77899Y78491D01*
X77230Y79004D01*
X76452Y79326D01*
X75616Y79436D01*
D02*
G37*
G36*
X49081Y75709D02*
X43616D01*
Y72678D01*
X45616D01*
X46530Y72799D01*
X47381Y73151D01*
X48112Y73712D01*
X48674Y74444D01*
X49026Y75295D01*
X49081Y75709D01*
D02*
G37*
G36*
X42616D02*
X37152D01*
X37206Y75295D01*
X37559Y74444D01*
X38120Y73712D01*
X38851Y73151D01*
X39703Y72799D01*
X40616Y72678D01*
X42616D01*
Y75709D01*
D02*
G37*
G36*
X225500Y72969D02*
Y71512D01*
X226958D01*
X226696Y72145D01*
X226133Y72707D01*
X225500Y72969D01*
D02*
G37*
G36*
X224500D02*
X223868Y72707D01*
X223305Y72145D01*
X223043Y71512D01*
X224500D01*
Y72969D01*
D02*
G37*
G36*
X226958Y70512D02*
X225500D01*
Y69054D01*
X226133Y69316D01*
X226696Y69879D01*
X226958Y70512D01*
D02*
G37*
G36*
X224500D02*
X223043D01*
X223305Y69879D01*
X223868Y69316D01*
X224500Y69054D01*
Y70512D01*
D02*
G37*
G36*
X357669Y79908D02*
X356833Y79798D01*
X356055Y79475D01*
X355386Y78962D01*
X354873Y78294D01*
X354551Y77515D01*
X354441Y76680D01*
Y71680D01*
X354551Y70845D01*
X354873Y70066D01*
X355386Y69398D01*
X356055Y68885D01*
X356833Y68562D01*
X357669Y68452D01*
X358504Y68562D01*
X359282Y68885D01*
X359951Y69398D01*
X360464Y70066D01*
X360786Y70845D01*
X360896Y71680D01*
Y76680D01*
X360786Y77515D01*
X360464Y78294D01*
X359951Y78962D01*
X359282Y79475D01*
X358504Y79798D01*
X357669Y79908D01*
D02*
G37*
G36*
X347669D02*
X346833Y79798D01*
X346055Y79475D01*
X345387Y78962D01*
X344873Y78294D01*
X344551Y77515D01*
X344441Y76680D01*
Y71680D01*
X344551Y70845D01*
X344873Y70066D01*
X345387Y69398D01*
X346055Y68885D01*
X346833Y68562D01*
X347669Y68452D01*
X348504Y68562D01*
X349283Y68885D01*
X349951Y69398D01*
X350464Y70066D01*
X350786Y70845D01*
X350896Y71680D01*
Y76680D01*
X350786Y77515D01*
X350464Y78294D01*
X349951Y78962D01*
X349283Y79475D01*
X348504Y79798D01*
X347669Y79908D01*
D02*
G37*
G36*
X337669D02*
X336833Y79798D01*
X336055Y79475D01*
X335386Y78962D01*
X334874Y78294D01*
X334551Y77515D01*
X334441Y76680D01*
Y71680D01*
X334551Y70845D01*
X334874Y70066D01*
X335386Y69398D01*
X336055Y68885D01*
X336833Y68562D01*
X337669Y68452D01*
X338504Y68562D01*
X339282Y68885D01*
X339951Y69398D01*
X340464Y70066D01*
X340786Y70845D01*
X340896Y71680D01*
Y76680D01*
X340786Y77515D01*
X340464Y78294D01*
X339951Y78962D01*
X339282Y79475D01*
X338504Y79798D01*
X337669Y79908D01*
D02*
G37*
G36*
X327669D02*
X326833Y79798D01*
X326055Y79475D01*
X325387Y78962D01*
X324873Y78294D01*
X324551Y77515D01*
X324441Y76680D01*
Y71680D01*
X324551Y70845D01*
X324873Y70066D01*
X325387Y69398D01*
X326055Y68885D01*
X326833Y68562D01*
X327669Y68452D01*
X328504Y68562D01*
X329282Y68885D01*
X329951Y69398D01*
X330464Y70066D01*
X330786Y70845D01*
X330896Y71680D01*
Y76680D01*
X330786Y77515D01*
X330464Y78294D01*
X329951Y78962D01*
X329282Y79475D01*
X328504Y79798D01*
X327669Y79908D01*
D02*
G37*
G36*
X45616Y69739D02*
X43616D01*
Y66709D01*
X49081D01*
X49026Y67122D01*
X48674Y67974D01*
X48112Y68705D01*
X47381Y69266D01*
X46530Y69618D01*
X45616Y69739D01*
D02*
G37*
G36*
X42616D02*
X40616D01*
X39703Y69618D01*
X38851Y69266D01*
X38120Y68705D01*
X37559Y67974D01*
X37206Y67122D01*
X37152Y66709D01*
X42616D01*
Y69739D01*
D02*
G37*
G36*
X158065Y73144D02*
X157207D01*
X156378Y72922D01*
X155635Y72493D01*
X155028Y71886D01*
X154599Y71143D01*
X154377Y70314D01*
Y69456D01*
X154599Y68627D01*
X155028Y67884D01*
X155635Y67277D01*
X156378Y66848D01*
X157207Y66626D01*
X158065D01*
X158894Y66848D01*
X159637Y67277D01*
X160244Y67884D01*
X160673Y68627D01*
X160895Y69456D01*
Y70314D01*
X160673Y71143D01*
X160244Y71886D01*
X159637Y72493D01*
X158894Y72922D01*
X158065Y73144D01*
D02*
G37*
G36*
X75616Y69436D02*
X70616D01*
X69781Y69326D01*
X69002Y69004D01*
X68334Y68491D01*
X67821Y67822D01*
X67499Y67044D01*
X67389Y66209D01*
X67499Y65373D01*
X67821Y64595D01*
X68334Y63926D01*
X69002Y63413D01*
X69781Y63091D01*
X70616Y62981D01*
X75616D01*
X76452Y63091D01*
X77230Y63413D01*
X77899Y63926D01*
X78412Y64595D01*
X78734Y65373D01*
X78844Y66209D01*
X78734Y67044D01*
X78412Y67822D01*
X77899Y68491D01*
X77230Y69004D01*
X76452Y69326D01*
X75616Y69436D01*
D02*
G37*
G36*
X49081Y65709D02*
X43616D01*
Y62678D01*
X45616D01*
X46530Y62799D01*
X47381Y63151D01*
X48112Y63712D01*
X48674Y64443D01*
X49026Y65295D01*
X49081Y65709D01*
D02*
G37*
G36*
X42616D02*
X37152D01*
X37206Y65295D01*
X37559Y64443D01*
X38120Y63712D01*
X38851Y63151D01*
X39703Y62799D01*
X40616Y62678D01*
X42616D01*
Y65709D01*
D02*
G37*
G36*
X45616Y59739D02*
X43616D01*
Y56709D01*
X49081D01*
X49026Y57122D01*
X48674Y57974D01*
X48112Y58705D01*
X47381Y59266D01*
X46530Y59619D01*
X45616Y59739D01*
D02*
G37*
G36*
X42616D02*
X40616D01*
X39703Y59619D01*
X38851Y59266D01*
X38120Y58705D01*
X37559Y57974D01*
X37206Y57122D01*
X37152Y56709D01*
X42616D01*
Y59739D01*
D02*
G37*
G36*
X203603Y62980D02*
X202734D01*
X201895Y62755D01*
X201143Y62321D01*
X200528Y61706D01*
X200094Y60954D01*
X199869Y60115D01*
Y59246D01*
X200094Y58406D01*
X200528Y57654D01*
X201143Y57039D01*
X201895Y56605D01*
X202734Y56380D01*
X203603D01*
X204443Y56605D01*
X205195Y57039D01*
X205809Y57654D01*
X206244Y58406D01*
X206469Y59246D01*
Y60115D01*
X206244Y60954D01*
X205809Y61706D01*
X205195Y62321D01*
X204443Y62755D01*
X203603Y62980D01*
D02*
G37*
G36*
X184603D02*
X183734D01*
X182895Y62755D01*
X182142Y62321D01*
X181528Y61706D01*
X181094Y60954D01*
X180869Y60115D01*
Y59246D01*
X181094Y58406D01*
X181528Y57654D01*
X182142Y57039D01*
X182895Y56605D01*
X183734Y56380D01*
X184603D01*
X185442Y56605D01*
X186195Y57039D01*
X186809Y57654D01*
X187244Y58406D01*
X187469Y59246D01*
Y60115D01*
X187244Y60954D01*
X186809Y61706D01*
X186195Y62321D01*
X185442Y62755D01*
X184603Y62980D01*
D02*
G37*
G36*
X158065Y60939D02*
X157207D01*
X156378Y60717D01*
X155635Y60288D01*
X155028Y59681D01*
X154599Y58938D01*
X154377Y58109D01*
Y57251D01*
X154599Y56422D01*
X155028Y55679D01*
X155635Y55072D01*
X156378Y54643D01*
X157207Y54421D01*
X158065D01*
X158894Y54643D01*
X159637Y55072D01*
X160244Y55679D01*
X160673Y56422D01*
X160895Y57251D01*
Y58109D01*
X160673Y58938D01*
X160244Y59681D01*
X159637Y60288D01*
X158894Y60717D01*
X158065Y60939D01*
D02*
G37*
G36*
X327415Y150821D02*
X310586D01*
X310118Y150728D01*
X309721Y150463D01*
X309135Y149877D01*
X308870Y149480D01*
X308777Y149012D01*
Y100235D01*
X253181D01*
X252963Y100453D01*
X252339Y100712D01*
X251662D01*
X251037Y100453D01*
X250559Y99975D01*
X250300Y99350D01*
Y98674D01*
X250559Y98049D01*
X251037Y97571D01*
X251662Y97312D01*
X252339D01*
X252963Y97571D01*
X253181Y97788D01*
X309415D01*
X309883Y97881D01*
X310280Y98147D01*
X310866Y98732D01*
X311131Y99129D01*
X311224Y99598D01*
Y148374D01*
X326777D01*
Y113348D01*
X326870Y112880D01*
X327135Y112483D01*
X382472Y57147D01*
X382869Y56881D01*
X383337Y56788D01*
X388052D01*
Y54064D01*
X395949D01*
Y61960D01*
X388052D01*
Y59235D01*
X383844D01*
X329224Y113855D01*
Y149012D01*
X329131Y149480D01*
X328866Y149877D01*
X328280Y150463D01*
X327883Y150728D01*
X327415Y150821D01*
D02*
G37*
G36*
X75616Y59436D02*
X70616D01*
X69781Y59326D01*
X69002Y59004D01*
X68334Y58491D01*
X67821Y57822D01*
X67499Y57044D01*
X67389Y56209D01*
X67499Y55373D01*
X67821Y54595D01*
X68334Y53926D01*
X69002Y53413D01*
X69781Y53091D01*
X70616Y52981D01*
X75616D01*
X76452Y53091D01*
X77230Y53413D01*
X77899Y53926D01*
X78412Y54595D01*
X78734Y55373D01*
X78844Y56209D01*
X78734Y57044D01*
X78412Y57822D01*
X77899Y58491D01*
X77230Y59004D01*
X76452Y59326D01*
X75616Y59436D01*
D02*
G37*
G36*
X49081Y55709D02*
X43616D01*
Y52678D01*
X45616D01*
X46530Y52799D01*
X47381Y53151D01*
X48112Y53712D01*
X48674Y54444D01*
X49026Y55295D01*
X49081Y55709D01*
D02*
G37*
G36*
X42616D02*
X37152D01*
X37206Y55295D01*
X37559Y54444D01*
X38120Y53712D01*
X38851Y53151D01*
X39703Y52799D01*
X40616Y52678D01*
X42616D01*
Y55709D01*
D02*
G37*
G36*
X45616Y49739D02*
X43616D01*
Y46709D01*
X49081D01*
X49026Y47122D01*
X48674Y47974D01*
X48112Y48705D01*
X47381Y49266D01*
X46530Y49619D01*
X45616Y49739D01*
D02*
G37*
G36*
X42616D02*
X40616D01*
X39703Y49619D01*
X38851Y49266D01*
X38120Y48705D01*
X37559Y47974D01*
X37206Y47122D01*
X37152Y46709D01*
X42616D01*
Y49739D01*
D02*
G37*
G36*
X358169Y50144D02*
Y44680D01*
X361199D01*
Y46680D01*
X361079Y47594D01*
X360726Y48445D01*
X360165Y49176D01*
X359434Y49737D01*
X358582Y50090D01*
X358169Y50144D01*
D02*
G37*
G36*
X357169Y50144D02*
X356755Y50090D01*
X355904Y49737D01*
X355172Y49176D01*
X354611Y48445D01*
X354259Y47594D01*
X354138Y46680D01*
Y44680D01*
X357169D01*
Y50144D01*
D02*
G37*
G36*
X75616Y49436D02*
X70616D01*
X69781Y49326D01*
X69002Y49004D01*
X68334Y48491D01*
X67821Y47822D01*
X67499Y47044D01*
X67389Y46209D01*
X67499Y45373D01*
X67821Y44595D01*
X68334Y43926D01*
X69002Y43413D01*
X69781Y43091D01*
X70616Y42981D01*
X75616D01*
X76452Y43091D01*
X77230Y43413D01*
X77899Y43926D01*
X78412Y44595D01*
X78734Y45373D01*
X78844Y46209D01*
X78734Y47044D01*
X78412Y47822D01*
X77899Y48491D01*
X77230Y49004D01*
X76452Y49326D01*
X75616Y49436D01*
D02*
G37*
G36*
X49081Y45709D02*
X43616D01*
Y42678D01*
X45616D01*
X46530Y42799D01*
X47381Y43151D01*
X48112Y43712D01*
X48674Y44444D01*
X49026Y45295D01*
X49081Y45709D01*
D02*
G37*
G36*
X42616D02*
X37152D01*
X37206Y45295D01*
X37559Y44444D01*
X38120Y43712D01*
X38851Y43151D01*
X39703Y42799D01*
X40616Y42678D01*
X42616D01*
Y45709D01*
D02*
G37*
G36*
X279594Y45530D02*
X279469D01*
Y41280D01*
X283719D01*
Y41405D01*
X283395Y42614D01*
X282770Y43697D01*
X281885Y44581D01*
X280802Y45206D01*
X279594Y45530D01*
D02*
G37*
G36*
X252494D02*
X252369D01*
Y41280D01*
X256619D01*
Y41405D01*
X256295Y42614D01*
X255670Y43697D01*
X254785Y44581D01*
X253702Y45206D01*
X252494Y45530D01*
D02*
G37*
G36*
X278469D02*
X278343D01*
X277135Y45206D01*
X276052Y44581D01*
X275168Y43697D01*
X274542Y42614D01*
X274219Y41405D01*
Y41280D01*
X278469D01*
Y45530D01*
D02*
G37*
G36*
X251369D02*
X251243D01*
X250035Y45206D01*
X248952Y44581D01*
X248068Y43697D01*
X247442Y42614D01*
X247119Y41405D01*
Y41280D01*
X251369D01*
Y45530D01*
D02*
G37*
G36*
X330869Y49880D02*
X324469D01*
Y38480D01*
X330869D01*
Y49880D01*
D02*
G37*
G36*
X347669Y49908D02*
X346833Y49798D01*
X346055Y49475D01*
X345387Y48962D01*
X344873Y48294D01*
X344551Y47515D01*
X344441Y46680D01*
Y41680D01*
X344551Y40845D01*
X344873Y40066D01*
X345387Y39398D01*
X346055Y38885D01*
X346833Y38562D01*
X347669Y38452D01*
X348504Y38562D01*
X349283Y38885D01*
X349951Y39398D01*
X350464Y40066D01*
X350786Y40845D01*
X350896Y41680D01*
Y46680D01*
X350786Y47515D01*
X350464Y48294D01*
X349951Y48962D01*
X349283Y49475D01*
X348504Y49798D01*
X347669Y49908D01*
D02*
G37*
G36*
X337669D02*
X336833Y49798D01*
X336055Y49475D01*
X335386Y48962D01*
X334874Y48294D01*
X334551Y47515D01*
X334441Y46680D01*
Y41680D01*
X334551Y40845D01*
X334874Y40066D01*
X335386Y39398D01*
X336055Y38885D01*
X336833Y38562D01*
X337669Y38452D01*
X338504Y38562D01*
X339282Y38885D01*
X339951Y39398D01*
X340464Y40066D01*
X340786Y40845D01*
X340896Y41680D01*
Y46680D01*
X340786Y47515D01*
X340464Y48294D01*
X339951Y48962D01*
X339282Y49475D01*
X338504Y49798D01*
X337669Y49908D01*
D02*
G37*
G36*
X357169Y43680D02*
X354138D01*
Y41680D01*
X354259Y40766D01*
X354611Y39915D01*
X355172Y39184D01*
X355904Y38623D01*
X356755Y38270D01*
X357169Y38216D01*
Y43680D01*
D02*
G37*
G36*
X361199D02*
X358169D01*
Y38216D01*
X358582Y38270D01*
X359434Y38623D01*
X360165Y39184D01*
X360726Y39915D01*
X361079Y40766D01*
X361199Y41680D01*
Y43680D01*
D02*
G37*
G36*
X45616Y39739D02*
X43616D01*
Y36709D01*
X49081D01*
X49026Y37122D01*
X48674Y37974D01*
X48112Y38705D01*
X47381Y39266D01*
X46530Y39619D01*
X45616Y39739D01*
D02*
G37*
G36*
X42616D02*
X40616D01*
X39703Y39619D01*
X38851Y39266D01*
X38120Y38705D01*
X37559Y37974D01*
X37206Y37122D01*
X37152Y36709D01*
X42616D01*
Y39739D01*
D02*
G37*
G36*
X283719Y40280D02*
X279469D01*
Y36030D01*
X279594D01*
X280802Y36354D01*
X281885Y36979D01*
X282770Y37863D01*
X283395Y38947D01*
X283719Y40155D01*
Y40280D01*
D02*
G37*
G36*
X278469D02*
X274219D01*
Y40155D01*
X274542Y38947D01*
X275168Y37863D01*
X276052Y36979D01*
X277135Y36354D01*
X278343Y36030D01*
X278469D01*
Y40280D01*
D02*
G37*
G36*
X256619D02*
X252369D01*
Y36030D01*
X252494D01*
X253702Y36354D01*
X254785Y36979D01*
X255670Y37863D01*
X256295Y38947D01*
X256619Y40155D01*
Y40280D01*
D02*
G37*
G36*
X251369D02*
X247119D01*
Y40155D01*
X247442Y38947D01*
X248068Y37863D01*
X248952Y36979D01*
X250035Y36354D01*
X251243Y36030D01*
X251369D01*
Y40280D01*
D02*
G37*
G36*
X75616Y39436D02*
X70616D01*
X69781Y39326D01*
X69002Y39004D01*
X68334Y38491D01*
X67821Y37822D01*
X67499Y37044D01*
X67389Y36209D01*
X67499Y35373D01*
X67821Y34595D01*
X68334Y33926D01*
X69002Y33413D01*
X69781Y33091D01*
X70616Y32981D01*
X75616D01*
X76452Y33091D01*
X77230Y33413D01*
X77899Y33926D01*
X78412Y34595D01*
X78734Y35373D01*
X78844Y36209D01*
X78734Y37044D01*
X78412Y37822D01*
X77899Y38491D01*
X77230Y39004D01*
X76452Y39326D01*
X75616Y39436D01*
D02*
G37*
G36*
X49081Y35709D02*
X43616D01*
Y32678D01*
X45616D01*
X46530Y32799D01*
X47381Y33151D01*
X48112Y33712D01*
X48674Y34444D01*
X49026Y35295D01*
X49081Y35709D01*
D02*
G37*
G36*
X42616D02*
X37152D01*
X37206Y35295D01*
X37559Y34444D01*
X38120Y33712D01*
X38851Y33151D01*
X39703Y32799D01*
X40616Y32678D01*
X42616D01*
Y35709D01*
D02*
G37*
G36*
X15322Y72833D02*
X8016D01*
Y65527D01*
X9426D01*
Y63344D01*
X9596Y62485D01*
X10083Y61757D01*
X26757Y45083D01*
Y30348D01*
X26928Y29490D01*
X27414Y28762D01*
X35583Y20594D01*
X36310Y20108D01*
X37169Y19937D01*
X200169D01*
X201027Y20108D01*
X201755Y20594D01*
X235228Y54068D01*
X235715Y54795D01*
X235885Y55654D01*
X235715Y56512D01*
X235228Y57240D01*
X234501Y57726D01*
X233642Y57897D01*
X232784Y57726D01*
X232056Y57240D01*
X199240Y24423D01*
X38098D01*
X31244Y31277D01*
Y46012D01*
X31073Y46870D01*
X30586Y47598D01*
X13912Y64273D01*
Y65527D01*
X15322D01*
Y72833D01*
D02*
G37*
G36*
X279555Y26430D02*
X278383D01*
X277251Y26127D01*
X276236Y25541D01*
X275408Y24712D01*
X274822Y23698D01*
X274519Y22566D01*
Y21394D01*
X274822Y20262D01*
X275408Y19248D01*
X276236Y18419D01*
X277251Y17833D01*
X278383Y17530D01*
X279555D01*
X280686Y17833D01*
X281701Y18419D01*
X282530Y19248D01*
X283116Y20262D01*
X283419Y21394D01*
Y22566D01*
X283116Y23698D01*
X282530Y24712D01*
X281701Y25541D01*
X280686Y26127D01*
X279555Y26430D01*
D02*
G37*
G36*
X252455D02*
X251283D01*
X250151Y26127D01*
X249136Y25541D01*
X248308Y24712D01*
X247722Y23698D01*
X247419Y22566D01*
Y21394D01*
X247722Y20262D01*
X248308Y19248D01*
X249136Y18419D01*
X250151Y17833D01*
X251283Y17530D01*
X252455D01*
X253586Y17833D01*
X254601Y18419D01*
X255430Y19248D01*
X256015Y20262D01*
X256319Y21394D01*
Y22566D01*
X256015Y23698D01*
X255430Y24712D01*
X254601Y25541D01*
X253586Y26127D01*
X252455Y26430D01*
D02*
G37*
G36*
X401845Y28586D02*
X400156D01*
X398499Y28256D01*
X396939Y27610D01*
X395535Y26672D01*
X394340Y25477D01*
X393402Y24073D01*
X392756Y22513D01*
X392426Y20856D01*
Y19167D01*
X392756Y17511D01*
X393402Y15950D01*
X394340Y14546D01*
X395535Y13352D01*
X396939Y12414D01*
X398499Y11767D01*
X400156Y11438D01*
X401845D01*
X403501Y11767D01*
X405062Y12414D01*
X406466Y13352D01*
X407660Y14546D01*
X408599Y15950D01*
X409245Y17511D01*
X409574Y19167D01*
Y20856D01*
X409245Y22513D01*
X408599Y24073D01*
X407660Y25477D01*
X406466Y26672D01*
X405062Y27610D01*
X403501Y28256D01*
X401845Y28586D01*
D02*
G37*
G36*
X20845D02*
X19156D01*
X17500Y28256D01*
X15939Y27610D01*
X14535Y26672D01*
X13340Y25477D01*
X12402Y24073D01*
X11756Y22513D01*
X11426Y20856D01*
Y19167D01*
X11756Y17511D01*
X12402Y15950D01*
X13340Y14546D01*
X14535Y13352D01*
X15939Y12414D01*
X17500Y11767D01*
X19156Y11438D01*
X20845D01*
X22501Y11767D01*
X24062Y12414D01*
X25466Y13352D01*
X26660Y14546D01*
X27599Y15950D01*
X28245Y17511D01*
X28574Y19167D01*
Y20856D01*
X28245Y22513D01*
X27599Y24073D01*
X26660Y25477D01*
X25466Y26672D01*
X24062Y27610D01*
X22501Y28256D01*
X20845Y28586D01*
D02*
G37*
%LPD*%
D13*
X383337Y58012D02*
X392000D01*
X328000Y113348D02*
X383337Y58012D01*
X94000Y159012D02*
X101000D01*
X127000Y185012D02*
X180337D01*
X101000Y159012D02*
X127000Y185012D01*
X86300Y166712D02*
X94000Y159012D01*
X86300Y194312D02*
X96169Y204180D01*
X86300Y166712D02*
Y194312D01*
X94000Y199012D02*
X104000D01*
X88000Y172348D02*
Y193012D01*
X94000Y199012D01*
X88000Y172348D02*
X96169Y164180D01*
X180337Y185012D02*
X187337Y178012D01*
X104000Y199012D02*
X111570Y191442D01*
X327415Y149598D02*
X328000Y149012D01*
X310586Y149598D02*
X327415D01*
X328000Y113348D02*
Y149012D01*
X310000D02*
X310586Y149598D01*
X310000Y99598D02*
Y149012D01*
X309415Y99012D02*
X310000Y99598D01*
X252000Y99012D02*
X309415D01*
D59*
X96169Y204180D02*
D03*
Y194180D02*
D03*
Y184180D02*
D03*
Y174180D02*
D03*
Y164180D02*
D03*
Y154180D02*
D03*
Y144180D02*
D03*
Y134180D02*
D03*
X20000Y20012D02*
D03*
Y245012D02*
D03*
X401000Y20012D02*
D03*
Y245012D02*
D03*
D69*
X200169Y22180D02*
X233642Y55654D01*
X99972Y45983D02*
X100000Y46012D01*
X99972Y36296D02*
Y45983D01*
X37169Y22180D02*
X200169D01*
X245169Y135180D02*
Y155843D01*
Y125180D02*
Y135180D01*
X99883Y76244D02*
Y86433D01*
X240000Y161012D02*
X245169Y155843D01*
X99932Y86433D02*
Y96115D01*
X99930Y96117D02*
X101825Y98012D01*
X167000D02*
X176000Y89012D01*
X101825Y98012D02*
X167000D01*
X29000Y30348D02*
X37169Y22180D01*
X11669Y63344D02*
Y69180D01*
X29000Y30348D02*
Y46012D01*
X11669Y63344D02*
X29000Y46012D01*
X99930Y96117D02*
X99932Y96115D01*
X99930Y96117D02*
Y106216D01*
X99883Y66253D02*
Y76244D01*
X99981Y45993D02*
Y56310D01*
Y66154D01*
X99883Y66253D02*
X99981Y66154D01*
X245169Y115180D02*
Y125180D01*
X106169Y110180D02*
Y144180D01*
X99930Y106216D02*
X102205D01*
X96169Y154180D02*
X106169Y144180D01*
X102205Y106216D02*
X106169Y110180D01*
D70*
X392000Y136012D02*
D03*
Y78012D02*
D03*
D71*
Y116012D02*
D03*
Y58012D02*
D03*
D72*
X298584Y115287D02*
D03*
X143169Y179180D02*
D03*
X173169Y155750D02*
D03*
D73*
X298584Y125287D02*
D03*
Y135287D02*
D03*
X268584Y115287D02*
D03*
Y125287D02*
D03*
Y135287D02*
D03*
X11669Y79180D02*
D03*
Y89180D02*
D03*
X173169Y179180D02*
D03*
X163169D02*
D03*
X153169D02*
D03*
X143169Y155750D02*
D03*
X153169D02*
D03*
X163169D02*
D03*
D74*
X394686Y159012D02*
D03*
X252000Y249854D02*
D03*
X232501Y250197D02*
D03*
X354000Y196854D02*
D03*
X181500Y250512D02*
D03*
D75*
X375000Y159012D02*
D03*
D76*
X73116Y36209D02*
D03*
Y46209D02*
D03*
Y56209D02*
D03*
Y66209D02*
D03*
Y76209D02*
D03*
Y86209D02*
D03*
Y96209D02*
D03*
Y106209D02*
D03*
X43116Y36209D02*
D03*
Y46209D02*
D03*
Y56209D02*
D03*
Y66209D02*
D03*
Y76209D02*
D03*
Y86209D02*
D03*
Y96209D02*
D03*
D77*
Y106209D02*
D03*
D78*
X278969Y21980D02*
D03*
X251869Y40780D02*
D03*
Y21980D02*
D03*
X278969Y40780D02*
D03*
D79*
X357669Y74180D02*
D03*
X347669D02*
D03*
X337669D02*
D03*
X327669D02*
D03*
X357669Y44180D02*
D03*
X347669D02*
D03*
X337669D02*
D03*
D80*
X327669D02*
D03*
D81*
X184169Y59680D02*
D03*
X203169D02*
D03*
D82*
X157636Y57680D02*
D03*
Y69885D02*
D03*
D83*
X11669Y69180D02*
D03*
D84*
X252000Y230169D02*
D03*
X232500Y230512D02*
D03*
X354000Y177169D02*
D03*
X181500Y230827D02*
D03*
D85*
X381000Y208012D02*
D03*
D86*
X396000Y188012D02*
D03*
X371000D02*
D03*
D87*
X133000Y203012D02*
D03*
X174912Y208967D02*
D03*
D88*
X133000Y213012D02*
D03*
D89*
X164912Y208967D02*
D03*
D90*
X239000Y110000D02*
D03*
X225000Y71012D02*
D03*
X341000Y114012D02*
D03*
X327000Y107012D02*
D03*
X283500Y89054D02*
D03*
X224500D02*
D03*
X187000Y98012D02*
D03*
X199000D02*
D03*
X205000Y116012D02*
D03*
X187000D02*
D03*
X143000Y91012D02*
D03*
X162276Y85012D02*
D03*
X187337Y178012D02*
D03*
X111570Y191442D02*
D03*
X100000Y46012D02*
D03*
X240000Y161012D02*
D03*
X245169Y115180D02*
D03*
X233611Y55685D02*
D03*
X176000Y89012D02*
D03*
X252000Y99012D02*
D03*
X99883Y76244D02*
D03*
X99932Y86433D02*
D03*
X99981Y56310D02*
D03*
X99883Y66253D02*
D03*
X99972Y36296D02*
D03*
X99930Y106216D02*
D03*
Y96117D02*
D03*
X245169Y125180D02*
D03*
Y135180D02*
D03*
M02*
