G04*
G04 #@! TF.GenerationSoftware,Altium Limited,Altium Designer,22.4.2 (48)*
G04*
G04 Layer_Color=255*
%FSLAX24Y24*%
%MOIN*%
G70*
G04*
G04 #@! TF.SameCoordinates,3D4B7757-4479-4088-A00E-F10E6AE17A54*
G04*
G04*
G04 #@! TF.FilePolarity,Positive*
G04*
G01*
G75*
%ADD23R,0.0472X0.0551*%
%ADD24R,0.0551X0.0472*%
%ADD38C,0.0600*%
%ADD52C,0.0591*%
%ADD53R,0.0591X0.0591*%
%ADD54R,0.1000X0.0500*%
%ADD55O,0.1000X0.0500*%
%ADD56C,0.0520*%
%ADD57R,0.0591X0.0591*%
%ADD58C,0.0512*%
%ADD59C,0.0750*%
%ADD60R,0.0531X0.0531*%
%ADD61C,0.0531*%
%ADD62P,0.0704X8X292.5*%
%ADD63C,0.0650*%
%ADD64R,0.0650X0.0650*%
%ADD65C,0.0650*%
%ADD66R,0.1600X0.1000*%
%ADD67R,0.1000X0.1600*%
%ADD69R,0.0433X0.0846*%
%ADD70R,0.1319X0.0846*%
%ADD71R,0.1417X0.2165*%
%ADD72R,0.0886X0.1252*%
%ADD73R,0.0390X0.1492*%
%ADD74R,0.4268X0.3102*%
D23*
X20030Y4475D02*
D03*
X19164D02*
D03*
X20034Y5470D02*
D03*
X19168D02*
D03*
X20030Y6465D02*
D03*
X19164D02*
D03*
X20034Y8680D02*
D03*
X19168D02*
D03*
X20034Y11688D02*
D03*
X19168D02*
D03*
X20034Y9700D02*
D03*
X19168D02*
D03*
X20034Y10678D02*
D03*
X19168D02*
D03*
X24428Y10450D02*
D03*
X25294D02*
D03*
X27234Y9850D02*
D03*
X26368D02*
D03*
X23388Y3200D02*
D03*
X24254D02*
D03*
X27254D02*
D03*
X26388D02*
D03*
X25888Y7100D02*
D03*
X26754D02*
D03*
X20030Y14677D02*
D03*
X19164D02*
D03*
X20034Y12678D02*
D03*
X19168D02*
D03*
X20034Y13680D02*
D03*
X19168D02*
D03*
X31045Y12461D02*
D03*
X31911D02*
D03*
D24*
X23761Y7797D02*
D03*
Y8663D02*
D03*
X22441Y13497D02*
D03*
Y14363D02*
D03*
X19201Y16583D02*
D03*
Y15717D02*
D03*
X32358Y15494D02*
D03*
Y14628D02*
D03*
D38*
X10221Y14830D02*
D03*
Y13830D02*
D03*
Y12830D02*
D03*
Y11830D02*
D03*
Y10830D02*
D03*
Y9830D02*
D03*
Y8830D02*
D03*
Y7830D02*
D03*
D52*
X26851Y11970D02*
D03*
X25851D02*
D03*
X24851D02*
D03*
X14984Y5470D02*
D03*
Y4470D02*
D03*
X17984Y6470D02*
D03*
Y5470D02*
D03*
Y4470D02*
D03*
X25861Y17168D02*
D03*
X24861Y16168D02*
D03*
X25861D02*
D03*
X24861Y15168D02*
D03*
X25861D02*
D03*
X24845Y13492D02*
D03*
X25845D02*
D03*
X26845D02*
D03*
X10221Y2243D02*
D03*
Y3243D02*
D03*
X35615Y12935D02*
D03*
D53*
X23851Y11970D02*
D03*
X14984Y6470D02*
D03*
X23845Y13492D02*
D03*
X34615Y12935D02*
D03*
D54*
X15041Y15680D02*
D03*
X33561Y3900D02*
D03*
D55*
X15041Y14680D02*
D03*
Y13680D02*
D03*
Y12680D02*
D03*
Y11680D02*
D03*
Y10680D02*
D03*
Y9680D02*
D03*
Y8680D02*
D03*
X18041Y15680D02*
D03*
Y14680D02*
D03*
Y13680D02*
D03*
Y12680D02*
D03*
Y11680D02*
D03*
Y10680D02*
D03*
Y9680D02*
D03*
Y8680D02*
D03*
X30561Y6900D02*
D03*
Y5900D02*
D03*
Y4900D02*
D03*
Y3900D02*
D03*
X33561Y6900D02*
D03*
Y5900D02*
D03*
Y4900D02*
D03*
D56*
X26271Y4700D02*
D03*
X24371D02*
D03*
D57*
X24861Y17168D02*
D03*
X10221Y4243D02*
D03*
D58*
X24611Y2100D02*
D03*
X25831D02*
D03*
D59*
X32358Y13761D02*
D03*
X30478Y11051D02*
D03*
X32358D02*
D03*
X30478Y13761D02*
D03*
D60*
X48017Y13610D02*
D03*
X37717Y11310D02*
D03*
Y13610D02*
D03*
X41117Y11410D02*
D03*
X44665D02*
D03*
D61*
X49985Y13610D02*
D03*
X39685Y11310D02*
D03*
Y13610D02*
D03*
X43085Y11410D02*
D03*
X46634D02*
D03*
D62*
X48401Y4810D02*
D03*
X50401D02*
D03*
D63*
X48401Y3810D02*
D03*
X50401D02*
D03*
D64*
X49601Y7210D02*
D03*
D65*
Y9210D02*
D03*
D66*
X47601Y19010D02*
D03*
D67*
X49101Y17010D02*
D03*
X46601D02*
D03*
D69*
X39606Y16059D02*
D03*
X38701D02*
D03*
X37795D02*
D03*
D70*
X38701Y18362D02*
D03*
D71*
X44550Y7810D02*
D03*
X40652D02*
D03*
D72*
X43961Y3510D02*
D03*
X41241D02*
D03*
D73*
X44670Y13610D02*
D03*
X44001D02*
D03*
X43332D02*
D03*
X42662D02*
D03*
X41993D02*
D03*
D74*
X43332Y17843D02*
D03*
M02*
