G04*
G04 #@! TF.GenerationSoftware,Altium Limited,Altium Designer,22.4.2 (48)*
G04*
G04 Layer_Color=16711935*
%FSLAX24Y24*%
%MOIN*%
G70*
G04*
G04 #@! TF.SameCoordinates,3D4B7757-4479-4088-A00E-F10E6AE17A54*
G04*
G04*
G04 #@! TF.FilePolarity,Negative*
G04*
G01*
G75*
%ADD29R,0.0552X0.0631*%
%ADD30R,0.0631X0.0552*%
%ADD33C,0.0671*%
%ADD34R,0.0671X0.0671*%
%ADD35C,0.0680*%
%ADD36R,0.1080X0.0580*%
%ADD37O,0.1080X0.0580*%
%ADD38C,0.0600*%
%ADD39R,0.0671X0.0671*%
%ADD40C,0.0592*%
%ADD41C,0.0830*%
%ADD42R,0.0611X0.0611*%
%ADD43C,0.0611*%
%ADD44P,0.0790X8X292.5*%
%ADD45C,0.0730*%
%ADD46R,0.0730X0.0730*%
%ADD47C,0.0730*%
%ADD48R,0.1680X0.1080*%
%ADD49R,0.1080X0.1680*%
%ADD50C,0.0280*%
%ADD75R,0.0513X0.0926*%
%ADD76R,0.1399X0.0926*%
%ADD77R,0.1497X0.2245*%
%ADD78R,0.0966X0.1332*%
%ADD79R,0.0470X0.1572*%
%ADD80R,0.4348X0.3182*%
D29*
X20030Y4475D02*
D03*
X19164D02*
D03*
X20034Y5470D02*
D03*
X19168D02*
D03*
X20030Y6465D02*
D03*
X19164D02*
D03*
X20034Y8680D02*
D03*
X19168D02*
D03*
X20034Y11688D02*
D03*
X19168D02*
D03*
X20034Y9700D02*
D03*
X19168D02*
D03*
X20034Y10678D02*
D03*
X19168D02*
D03*
X24428Y10450D02*
D03*
X25294D02*
D03*
X27234Y9850D02*
D03*
X26368D02*
D03*
X23388Y3200D02*
D03*
X24254D02*
D03*
X27254D02*
D03*
X26388D02*
D03*
X25888Y7100D02*
D03*
X26754D02*
D03*
X20030Y14677D02*
D03*
X19164D02*
D03*
X20034Y12678D02*
D03*
X19168D02*
D03*
X20034Y13680D02*
D03*
X19168D02*
D03*
X31045Y12461D02*
D03*
X31911D02*
D03*
D30*
X23761Y7797D02*
D03*
Y8663D02*
D03*
X22441Y13497D02*
D03*
Y14363D02*
D03*
X19201Y16583D02*
D03*
Y15717D02*
D03*
X32358Y15494D02*
D03*
Y14628D02*
D03*
D33*
X26851Y11970D02*
D03*
X25851D02*
D03*
X24851D02*
D03*
X14984Y5470D02*
D03*
Y4470D02*
D03*
X17984Y6470D02*
D03*
Y5470D02*
D03*
Y4470D02*
D03*
X25861Y17168D02*
D03*
X24861Y16168D02*
D03*
X25861D02*
D03*
X24861Y15168D02*
D03*
X25861D02*
D03*
X24845Y13492D02*
D03*
X25845D02*
D03*
X26845D02*
D03*
X10221Y2243D02*
D03*
Y3243D02*
D03*
X35615Y12935D02*
D03*
D34*
X23851Y11970D02*
D03*
X14984Y6470D02*
D03*
X23845Y13492D02*
D03*
X34615Y12935D02*
D03*
D35*
X10221Y14830D02*
D03*
Y13830D02*
D03*
Y12830D02*
D03*
Y11830D02*
D03*
Y10830D02*
D03*
Y9830D02*
D03*
Y8830D02*
D03*
Y7830D02*
D03*
D36*
X15041Y15680D02*
D03*
X33561Y3900D02*
D03*
D37*
X15041Y14680D02*
D03*
Y13680D02*
D03*
Y12680D02*
D03*
Y11680D02*
D03*
Y10680D02*
D03*
Y9680D02*
D03*
Y8680D02*
D03*
X18041Y15680D02*
D03*
Y14680D02*
D03*
Y13680D02*
D03*
Y12680D02*
D03*
Y11680D02*
D03*
Y10680D02*
D03*
Y9680D02*
D03*
Y8680D02*
D03*
X30561Y6900D02*
D03*
Y5900D02*
D03*
Y4900D02*
D03*
Y3900D02*
D03*
X33561Y6900D02*
D03*
Y5900D02*
D03*
Y4900D02*
D03*
D38*
X26271Y4700D02*
D03*
X24371D02*
D03*
D39*
X24861Y17168D02*
D03*
X10221Y4243D02*
D03*
D40*
X24611Y2100D02*
D03*
X25831D02*
D03*
D41*
X32358Y13761D02*
D03*
X30478Y11051D02*
D03*
X32358D02*
D03*
X30478Y13761D02*
D03*
D42*
X48017Y13610D02*
D03*
X37717Y11310D02*
D03*
Y13610D02*
D03*
X41117Y11410D02*
D03*
X44665D02*
D03*
D43*
X49985Y13610D02*
D03*
X39685Y11310D02*
D03*
Y13610D02*
D03*
X43085Y11410D02*
D03*
X46634D02*
D03*
D44*
X48401Y4810D02*
D03*
X50401D02*
D03*
D45*
X48401Y3810D02*
D03*
X50401D02*
D03*
D46*
X49601Y7210D02*
D03*
D47*
Y9210D02*
D03*
D48*
X47601Y19010D02*
D03*
D49*
X49101Y17010D02*
D03*
X46601D02*
D03*
D50*
X22149Y7741D02*
D03*
X26911Y6220D02*
D03*
X25931Y6400D02*
D03*
X26991Y14810D02*
D03*
X21101Y1290D02*
D03*
X26291Y8690D02*
D03*
X26341Y8100D02*
D03*
X39381Y6431D02*
D03*
X38541Y6411D02*
D03*
X31651Y15481D02*
D03*
X28591Y5871D02*
D03*
X28007Y5876D02*
D03*
X28001Y7530D02*
D03*
X38435Y9206D02*
D03*
X37491Y9320D02*
D03*
X29621Y13021D02*
D03*
X28921Y13020D02*
D03*
X26111Y11240D02*
D03*
X38558Y7181D02*
D03*
X38561Y7531D02*
D03*
X33693Y8606D02*
D03*
X27731Y10930D02*
D03*
X22950Y7716D02*
D03*
X27721Y10440D02*
D03*
X27731Y9490D02*
D03*
X24331Y11150D02*
D03*
X23040Y10290D02*
D03*
X21251Y14660D02*
D03*
X27741Y11380D02*
D03*
X26480Y8999D02*
D03*
X27731Y9880D02*
D03*
X24391Y8500D02*
D03*
X27721Y8340D02*
D03*
X24421Y6200D02*
D03*
X24821D02*
D03*
X27999Y6540D02*
D03*
X28001Y7151D02*
D03*
Y7870D02*
D03*
D75*
X39606Y16059D02*
D03*
X38701D02*
D03*
X37795D02*
D03*
D76*
X38701Y18362D02*
D03*
D77*
X44550Y7810D02*
D03*
X40652D02*
D03*
D78*
X43961Y3510D02*
D03*
X41241D02*
D03*
D79*
X44670Y13610D02*
D03*
X44001D02*
D03*
X43332D02*
D03*
X42662D02*
D03*
X41993D02*
D03*
D80*
X43332Y17843D02*
D03*
M02*
