G04*
G04 #@! TF.GenerationSoftware,Altium Limited,Altium Designer,22.4.2 (48)*
G04*
G04 Layer_Color=8421504*
%FSLAX25Y25*%
%MOIN*%
G70*
G04*
G04 #@! TF.SameCoordinates,F61A7644-D23D-4A37-B683-A49046494346*
G04*
G04*
G04 #@! TF.FilePolarity,Positive*
G04*
G01*
G75*
%ADD20R,0.03937X0.03740*%
G04:AMPARAMS|DCode=21|XSize=11.02mil|YSize=61.42mil|CornerRadius=2.76mil|HoleSize=0mil|Usage=FLASHONLY|Rotation=180.000|XOffset=0mil|YOffset=0mil|HoleType=Round|Shape=RoundedRectangle|*
%AMROUNDEDRECTD21*
21,1,0.01102,0.05591,0,0,180.0*
21,1,0.00551,0.06142,0,0,180.0*
1,1,0.00551,-0.00276,0.02795*
1,1,0.00551,0.00276,0.02795*
1,1,0.00551,0.00276,-0.02795*
1,1,0.00551,-0.00276,-0.02795*
%
%ADD21ROUNDEDRECTD21*%
G04:AMPARAMS|DCode=22|XSize=11.02mil|YSize=61.42mil|CornerRadius=2.76mil|HoleSize=0mil|Usage=FLASHONLY|Rotation=90.000|XOffset=0mil|YOffset=0mil|HoleType=Round|Shape=RoundedRectangle|*
%AMROUNDEDRECTD22*
21,1,0.01102,0.05591,0,0,90.0*
21,1,0.00551,0.06142,0,0,90.0*
1,1,0.00551,0.02795,0.00276*
1,1,0.00551,0.02795,-0.00276*
1,1,0.00551,-0.02795,-0.00276*
1,1,0.00551,-0.02795,0.00276*
%
%ADD22ROUNDEDRECTD22*%
%ADD23R,0.05512X0.04724*%
%ADD24R,0.04724X0.05512*%
%ADD25R,0.04331X0.08465*%
%ADD26R,0.13189X0.08465*%
%ADD27R,0.03740X0.03937*%
G04:AMPARAMS|DCode=28|XSize=77.56mil|YSize=23.23mil|CornerRadius=2.9mil|HoleSize=0mil|Usage=FLASHONLY|Rotation=0.000|XOffset=0mil|YOffset=0mil|HoleType=Round|Shape=RoundedRectangle|*
%AMROUNDEDRECTD28*
21,1,0.07756,0.01742,0,0,0.0*
21,1,0.07175,0.02323,0,0,0.0*
1,1,0.00581,0.03588,-0.00871*
1,1,0.00581,-0.03588,-0.00871*
1,1,0.00581,-0.03588,0.00871*
1,1,0.00581,0.03588,0.00871*
%
%ADD28ROUNDEDRECTD28*%
%ADD29R,0.14173X0.21654*%
%ADD30R,0.03937X0.06890*%
%ADD31R,0.14921X0.03898*%
%ADD32R,0.12520X0.08858*%
G36*
X273303Y182181D02*
X267318D01*
Y187102D01*
X273303D01*
Y182181D01*
D02*
G37*
G36*
X262948D02*
X256964D01*
Y187102D01*
X262948D01*
Y182181D01*
D02*
G37*
G36*
X252594D02*
X246610D01*
Y187102D01*
X252594D01*
Y182181D01*
D02*
G37*
G36*
X273303Y175055D02*
X267318D01*
Y179976D01*
X273303D01*
Y175055D01*
D02*
G37*
G36*
X262948D02*
X256964D01*
Y179976D01*
X262948D01*
Y175055D01*
D02*
G37*
G36*
X252594D02*
X246610D01*
Y179976D01*
X252594D01*
Y175055D01*
D02*
G37*
G36*
X273303Y167929D02*
X267318D01*
Y172850D01*
X273303D01*
Y167929D01*
D02*
G37*
G36*
X262948D02*
X256964D01*
Y172850D01*
X262948D01*
Y167929D01*
D02*
G37*
G36*
X252594D02*
X246610D01*
Y172850D01*
X252594D01*
Y167929D01*
D02*
G37*
G36*
X273303Y203559D02*
X267318D01*
Y208480D01*
X273303D01*
Y203559D01*
D02*
G37*
G36*
X262948D02*
X256964D01*
Y208480D01*
X262948D01*
Y203559D01*
D02*
G37*
G36*
X252594D02*
X246610D01*
Y208480D01*
X252594D01*
Y203559D01*
D02*
G37*
G36*
X273303Y196433D02*
X267318D01*
Y201354D01*
X273303D01*
Y196433D01*
D02*
G37*
G36*
X262948D02*
X256964D01*
Y201354D01*
X262948D01*
Y196433D01*
D02*
G37*
G36*
X252594D02*
X246610D01*
Y201354D01*
X252594D01*
Y196433D01*
D02*
G37*
G36*
X273303Y189307D02*
X267318D01*
Y194228D01*
X273303D01*
Y189307D01*
D02*
G37*
G36*
X262948D02*
X256964D01*
Y194228D01*
X262948D01*
Y189307D01*
D02*
G37*
G36*
X252594D02*
X246610D01*
Y194228D01*
X252594D01*
Y189307D01*
D02*
G37*
D20*
X227047Y110000D02*
D03*
X232953D02*
D03*
D21*
X185342Y90718D02*
D03*
X187310D02*
D03*
X189279D02*
D03*
X191247D02*
D03*
X193216D02*
D03*
X195185D02*
D03*
X197153D02*
D03*
X199121D02*
D03*
X201090D02*
D03*
X203059D02*
D03*
X205027D02*
D03*
X206996D02*
D03*
Y123632D02*
D03*
X205027D02*
D03*
X203059D02*
D03*
X201090D02*
D03*
X199121D02*
D03*
X197153D02*
D03*
X195185D02*
D03*
X193216D02*
D03*
X191247D02*
D03*
X189279D02*
D03*
X187310D02*
D03*
X185342D02*
D03*
D22*
X212625Y96348D02*
D03*
Y98317D02*
D03*
Y100285D02*
D03*
Y102254D02*
D03*
Y104222D02*
D03*
Y106191D02*
D03*
Y108159D02*
D03*
Y110128D02*
D03*
Y112096D02*
D03*
Y114065D02*
D03*
Y116033D02*
D03*
Y118002D02*
D03*
X179712D02*
D03*
Y116033D02*
D03*
Y114065D02*
D03*
Y112096D02*
D03*
Y110128D02*
D03*
Y108159D02*
D03*
Y106191D02*
D03*
Y104222D02*
D03*
Y102254D02*
D03*
Y100285D02*
D03*
Y98317D02*
D03*
Y96348D02*
D03*
D23*
X352000Y115754D02*
D03*
Y107092D02*
D03*
Y131254D02*
D03*
Y122592D02*
D03*
X223169Y119849D02*
D03*
Y128511D02*
D03*
X145169Y67849D02*
D03*
Y76511D02*
D03*
Y60494D02*
D03*
Y51833D02*
D03*
X170169Y92511D02*
D03*
Y83849D02*
D03*
X382687Y25115D02*
D03*
Y33776D02*
D03*
X314515Y54780D02*
D03*
Y63442D02*
D03*
X27000Y74681D02*
D03*
Y83342D02*
D03*
X372122Y33776D02*
D03*
Y25115D02*
D03*
X244000Y37343D02*
D03*
Y28681D02*
D03*
X289132Y35363D02*
D03*
Y26702D02*
D03*
X185230Y164456D02*
D03*
Y155794D02*
D03*
X352000Y142350D02*
D03*
Y151012D02*
D03*
D24*
X191331Y209012D02*
D03*
X182670D02*
D03*
X183499Y134180D02*
D03*
X174838D02*
D03*
X85507Y56439D02*
D03*
X94169D02*
D03*
X85507Y36237D02*
D03*
X94169D02*
D03*
X85507Y46064D02*
D03*
X94169D02*
D03*
X85507Y66337D02*
D03*
X94169D02*
D03*
X85507Y86204D02*
D03*
X94169D02*
D03*
X85507Y76180D02*
D03*
X94169D02*
D03*
X85507Y96183D02*
D03*
X94169D02*
D03*
X212499Y78180D02*
D03*
X203838D02*
D03*
X182499Y42180D02*
D03*
X173838D02*
D03*
X189838D02*
D03*
X198499D02*
D03*
X205025D02*
D03*
X213686D02*
D03*
X363390Y14752D02*
D03*
X372052D02*
D03*
X347820Y14752D02*
D03*
X356482D02*
D03*
X339625D02*
D03*
X330963D02*
D03*
X324099D02*
D03*
X315438D02*
D03*
X328007Y87680D02*
D03*
X336669D02*
D03*
X347820Y24180D02*
D03*
X356482D02*
D03*
X330963Y24191D02*
D03*
X339625D02*
D03*
X315352Y24180D02*
D03*
X324013D02*
D03*
X258311Y125287D02*
D03*
X249649D02*
D03*
X258311Y135207D02*
D03*
X249649D02*
D03*
X258331Y115012D02*
D03*
X249670D02*
D03*
X85507Y106209D02*
D03*
X94169D02*
D03*
X342831Y144423D02*
D03*
X334170D02*
D03*
X121331Y206012D02*
D03*
X112670D02*
D03*
D25*
X198390Y230512D02*
D03*
X207445D02*
D03*
X216500D02*
D03*
D26*
X207445Y253543D02*
D03*
D27*
X150000Y100964D02*
D03*
Y95059D02*
D03*
D28*
X321710Y134923D02*
D03*
Y129923D02*
D03*
Y124923D02*
D03*
Y119923D02*
D03*
X341198D02*
D03*
Y124923D02*
D03*
Y129923D02*
D03*
Y134923D02*
D03*
D29*
X271512Y237012D02*
D03*
X310489D02*
D03*
D30*
X348306Y87680D02*
D03*
X361692D02*
D03*
D31*
X302279Y174819D02*
D03*
Y181512D02*
D03*
Y188205D02*
D03*
Y194898D02*
D03*
Y201590D02*
D03*
D32*
X332000Y208614D02*
D03*
Y181409D02*
D03*
M02*
