M48
;Layer_Color=9474304
;FILE_FORMAT=2:4
INCH,LZ
;TYPE=PLATED
T1F00S00C0.0100
T2F00S00C0.0250
T3F00S00C0.0276
T4F00S00C0.0300
T5F00S00C0.0310
T6F00S00C0.0315
T7F00S00C0.0320
T8F00S00C0.0354
T9F00S00C0.0400
T10F00S00C0.0433
%
T01
X0388Y03158
X039848Y038031
X040649Y038006
X04209Y03879
X04399Y03898
X044179Y039289
X04404Y03839
X04542Y03863
X0457Y03816
Y03782
Y037441
X045698Y03683
X045706Y036166
X04629Y036161
X04461Y03651
X04363Y03669
X04252Y03649
X04212
X04203Y04144
X04381Y04153
X04544Y04167
X04543Y04122
X04542Y04073
X04543Y04017
Y03978
X04662Y04331
X04469Y0451
X03895Y04495
X040739Y040579
X04732Y043311
X04935Y045771
X051392Y038896
X05519Y03961
X056134Y039495
X05626Y037821
X056257Y037471
X05624Y036701
X05708Y036721
T02
X03274Y03897
Y03997
Y04097
Y04197
Y04297
Y04397
Y04497
Y04597
X03574
Y04497
Y04397
Y04297
Y04197
Y04097
Y03997
Y03897
X04826Y03719
Y03619
Y03519
Y03419
X05126
Y03519
Y03619
Y03719
T03
X04231Y03239
X04353
T04
X02792Y03812
Y03912
Y04012
Y04112
Y04212
Y04312
Y04412
Y04512
T05
X048177Y041341
X050057
Y044051
X048177
T06
X055416Y0416
X057384Y0416
X058816Y0417
X060784Y0417
X062364Y0417
X057384Y0439
X055416Y0439
X065716
X067684Y0439
X064333Y0417
T07
X04207Y03499
X04397
T08
X02792Y032533
Y033533
Y034533
X032683Y03476
Y03576
Y03676
X035683
Y03576
Y03476
X04155Y04226
X04255
X04355
X04455
X044544Y043782
X043544
X042544
X041544
X04256Y045458
Y046458
X04356
Y045458
X052314Y043225
X053314
X04356Y047458
X04256
T09
X0661Y0341
Y0351
X0681
Y0341
T10
X0673Y0375
Y0395
M30
