G04*
G04 #@! TF.GenerationSoftware,Altium Limited,Altium Designer,22.4.2 (48)*
G04*
G04 Layer_Color=128*
%FSLAX24Y24*%
%MOIN*%
G70*
G04*
G04 #@! TF.SameCoordinates,3D4B7757-4479-4088-A00E-F10E6AE17A54*
G04*
G04*
G04 #@! TF.FilePolarity,Positive*
G04*
G01*
G75*
%ADD17C,0.0050*%
D17*
X26674Y11970D02*
X27028D01*
X26851Y11793D02*
Y12148D01*
X25674Y11970D02*
X26028D01*
X25851Y11793D02*
Y12148D01*
X24674Y11970D02*
X25028D01*
X24851Y11793D02*
Y12148D01*
X23674Y11970D02*
X24028D01*
X23851Y11793D02*
Y12148D01*
X10071Y14830D02*
X10371D01*
X10221Y14680D02*
Y14980D01*
X10071Y13830D02*
X10371D01*
X10221Y13680D02*
Y13980D01*
X10071Y12830D02*
X10371D01*
X10221Y12680D02*
Y12980D01*
X10071Y11830D02*
X10371D01*
X10221Y11680D02*
Y11980D01*
X10071Y10830D02*
X10371D01*
X10221Y10680D02*
Y10980D01*
X10071Y9830D02*
X10371D01*
X10221Y9680D02*
Y9980D01*
X10071Y8830D02*
X10371D01*
X10221Y8680D02*
Y8980D01*
X10071Y7830D02*
X10371D01*
X10221Y7680D02*
Y7980D01*
X14916Y15680D02*
X15166D01*
X15041Y15555D02*
Y15805D01*
X14916Y14680D02*
X15166D01*
X15041Y14555D02*
Y14805D01*
X14916Y13680D02*
X15166D01*
X15041Y13555D02*
Y13805D01*
X14916Y12680D02*
X15166D01*
X15041Y12555D02*
Y12805D01*
X14916Y11680D02*
X15166D01*
X15041Y11555D02*
Y11805D01*
X14916Y10680D02*
X15166D01*
X15041Y10555D02*
Y10805D01*
X14916Y9680D02*
X15166D01*
X15041Y9555D02*
Y9805D01*
X14916Y8680D02*
X15166D01*
X15041Y8555D02*
Y8805D01*
X17916Y15680D02*
X18166D01*
X18041Y15555D02*
Y15805D01*
X17916Y14680D02*
X18166D01*
X18041Y14555D02*
Y14805D01*
X17916Y13680D02*
X18166D01*
X18041Y13555D02*
Y13805D01*
X17916Y12680D02*
X18166D01*
X18041Y12555D02*
Y12805D01*
X17916Y11680D02*
X18166D01*
X18041Y11555D02*
Y11805D01*
X17916Y10680D02*
X18166D01*
X18041Y10555D02*
Y10805D01*
X17916Y9680D02*
X18166D01*
X18041Y9555D02*
Y9805D01*
X17916Y8680D02*
X18166D01*
X18041Y8555D02*
Y8805D01*
X14807Y6470D02*
X15161D01*
X14984Y6293D02*
Y6647D01*
X14807Y5470D02*
X15161D01*
X14984Y5293D02*
Y5647D01*
X14807Y4470D02*
X15161D01*
X14984Y4293D02*
Y4647D01*
X17807Y6470D02*
X18161D01*
X17984Y6293D02*
Y6647D01*
X17807Y5470D02*
X18161D01*
X17984Y5293D02*
Y5647D01*
X17807Y4470D02*
X18161D01*
X17984Y4293D02*
Y4647D01*
X26111Y4700D02*
X26431D01*
X26271Y4540D02*
Y4860D01*
X24211Y4700D02*
X24531D01*
X24371Y4540D02*
Y4860D01*
X24684Y17168D02*
X25038D01*
X24861Y16991D02*
Y17346D01*
X25684Y17168D02*
X26038D01*
X25861Y16991D02*
Y17346D01*
X24684Y16168D02*
X25038D01*
X24861Y15991D02*
Y16346D01*
X25684Y16168D02*
X26038D01*
X25861Y15991D02*
Y16346D01*
X24684Y15168D02*
X25038D01*
X24861Y14991D02*
Y15346D01*
X25684Y15168D02*
X26038D01*
X25861Y14991D02*
Y15346D01*
X23668Y13492D02*
X24022D01*
X23845Y13315D02*
Y13670D01*
X24668Y13492D02*
X25022D01*
X24845Y13315D02*
Y13670D01*
X25668Y13492D02*
X26022D01*
X25845Y13315D02*
Y13670D01*
X26668Y13492D02*
X27022D01*
X26845Y13315D02*
Y13670D01*
X10044Y2243D02*
X10398D01*
X10221Y2066D02*
Y2420D01*
X10044Y3243D02*
X10398D01*
X10221Y3066D02*
Y3420D01*
X10044Y4243D02*
X10398D01*
X10221Y4066D02*
Y4420D01*
X24473Y2100D02*
X24749D01*
X24611Y1963D02*
Y2238D01*
X25693Y2100D02*
X25969D01*
X25831Y1963D02*
Y2238D01*
X35438Y12935D02*
X35792D01*
X35615Y12758D02*
Y13113D01*
X34438Y12935D02*
X34792D01*
X34615Y12758D02*
Y13113D01*
X32203Y13761D02*
X32513D01*
X32358Y13606D02*
Y13916D01*
X30323Y11051D02*
X30633D01*
X30478Y10896D02*
Y11206D01*
X32203Y11051D02*
X32513D01*
X32358Y10896D02*
Y11206D01*
X30323Y13761D02*
X30633D01*
X30478Y13606D02*
Y13916D01*
X30436Y6900D02*
X30686D01*
X30561Y6775D02*
Y7025D01*
X30436Y5900D02*
X30686D01*
X30561Y5775D02*
Y6025D01*
X30436Y4900D02*
X30686D01*
X30561Y4775D02*
Y5025D01*
X30436Y3900D02*
X30686D01*
X30561Y3775D02*
Y4025D01*
X33436Y6900D02*
X33686D01*
X33561Y6775D02*
Y7025D01*
X33436Y5900D02*
X33686D01*
X33561Y5775D02*
Y6025D01*
X33436Y4900D02*
X33686D01*
X33561Y4775D02*
Y5025D01*
X33436Y3900D02*
X33686D01*
X33561Y3775D02*
Y4025D01*
X47859Y13610D02*
X48174D01*
X48017Y13453D02*
Y13768D01*
X49828Y13610D02*
X50143D01*
X49985Y13453D02*
Y13768D01*
X48201Y4810D02*
X48601D01*
X48401Y4610D02*
Y5010D01*
X48201Y3810D02*
X48601D01*
X48401Y3610D02*
Y4010D01*
X37559Y11310D02*
X37874D01*
X37717Y11153D02*
Y11468D01*
X39528Y11310D02*
X39843D01*
X39685Y11153D02*
Y11468D01*
X49384Y7210D02*
X49818D01*
X49601Y6994D02*
Y7427D01*
X49384Y9210D02*
X49818D01*
X49601Y8994D02*
Y9427D01*
X47306Y19010D02*
X47896D01*
X47601Y18715D02*
Y19306D01*
X48806Y17010D02*
X49396D01*
X49101Y16715D02*
Y17306D01*
X46306Y17010D02*
X46896D01*
X46601Y16715D02*
Y17306D01*
X39528Y13610D02*
X39843D01*
X39685Y13453D02*
Y13768D01*
X37559Y13610D02*
X37874D01*
X37717Y13453D02*
Y13768D01*
X42928Y11410D02*
X43243D01*
X43085Y11253D02*
Y11568D01*
X40959Y11410D02*
X41274D01*
X41117Y11253D02*
Y11568D01*
X46476Y11410D02*
X46791D01*
X46634Y11253D02*
Y11568D01*
X44508Y11410D02*
X44823D01*
X44665Y11253D02*
Y11568D01*
X50201Y4810D02*
X50601D01*
X50401Y4610D02*
Y5010D01*
X50201Y3810D02*
X50601D01*
X50401Y3610D02*
Y4010D01*
X22099Y7741D02*
X22199D01*
X22149Y7691D02*
Y7791D01*
X26861Y6220D02*
X26961D01*
X26911Y6170D02*
Y6270D01*
X25881Y6400D02*
X25981D01*
X25931Y6350D02*
Y6450D01*
X26941Y14810D02*
X27041D01*
X26991Y14760D02*
Y14860D01*
X21051Y1290D02*
X21151D01*
X21101Y1240D02*
Y1340D01*
X26241Y8690D02*
X26341D01*
X26291Y8640D02*
Y8740D01*
Y8100D02*
X26391D01*
X26341Y8050D02*
Y8150D01*
X39331Y6431D02*
X39431D01*
X39381Y6381D02*
Y6481D01*
X38491Y6411D02*
X38591D01*
X38541Y6361D02*
Y6461D01*
X31601Y15481D02*
X31701D01*
X31651Y15431D02*
Y15531D01*
X28541Y5871D02*
X28641D01*
X28591Y5821D02*
Y5921D01*
X27957Y5876D02*
X28057D01*
X28007Y5826D02*
Y5926D01*
X27951Y7530D02*
X28051D01*
X28001Y7480D02*
Y7580D01*
X38385Y9206D02*
X38485D01*
X38435Y9156D02*
Y9256D01*
X37441Y9320D02*
X37541D01*
X37491Y9270D02*
Y9370D01*
X29571Y13021D02*
X29671D01*
X29621Y12971D02*
Y13071D01*
X28871Y13020D02*
X28971D01*
X28921Y12970D02*
Y13070D01*
X26061Y11240D02*
X26161D01*
X26111Y11190D02*
Y11290D01*
X38508Y7181D02*
X38608D01*
X38558Y7131D02*
Y7231D01*
X38511Y7531D02*
X38611D01*
X38561Y7481D02*
Y7581D01*
X33643Y8606D02*
X33743D01*
X33693Y8556D02*
Y8656D01*
X27681Y10930D02*
X27781D01*
X27731Y10880D02*
Y10980D01*
X22900Y7716D02*
X23000D01*
X22950Y7666D02*
Y7766D01*
X27671Y10440D02*
X27771D01*
X27721Y10390D02*
Y10490D01*
X27681Y9490D02*
X27781D01*
X27731Y9440D02*
Y9540D01*
X24281Y11150D02*
X24381D01*
X24331Y11100D02*
Y11200D01*
X22990Y10290D02*
X23090D01*
X23040Y10240D02*
Y10340D01*
X21201Y14660D02*
X21301D01*
X21251Y14610D02*
Y14710D01*
X27691Y11380D02*
X27791D01*
X27741Y11330D02*
Y11430D01*
X26430Y8999D02*
X26530D01*
X26480Y8949D02*
Y9049D01*
X27681Y9880D02*
X27781D01*
X27731Y9830D02*
Y9930D01*
X24341Y8500D02*
X24441D01*
X24391Y8450D02*
Y8550D01*
X27671Y8340D02*
X27771D01*
X27721Y8290D02*
Y8390D01*
X24371Y6200D02*
X24471D01*
X24421Y6150D02*
Y6250D01*
X24771Y6200D02*
X24871D01*
X24821Y6150D02*
Y6250D01*
X27949Y6540D02*
X28049D01*
X27999Y6490D02*
Y6590D01*
X27951Y7151D02*
X28051D01*
X28001Y7101D02*
Y7201D01*
X27951Y7870D02*
X28051D01*
X28001Y7820D02*
Y7920D01*
M02*
