G04*
G04 #@! TF.GenerationSoftware,Altium Limited,Altium Designer,22.4.2 (48)*
G04*
G04 Layer_Color=65535*
%FSLAX25Y25*%
%MOIN*%
G70*
G04*
G04 #@! TF.SameCoordinates,F61A7644-D23D-4A37-B683-A49046494346*
G04*
G04*
G04 #@! TF.FilePolarity,Positive*
G04*
G01*
G75*
%ADD10C,0.00787*%
%ADD11C,0.00984*%
%ADD12C,0.02362*%
%ADD13C,0.01000*%
%ADD14C,0.00600*%
%ADD15C,0.01600*%
%ADD16C,0.00400*%
%ADD17C,0.00500*%
%ADD18C,0.00700*%
%ADD19R,0.02165X0.06102*%
D10*
X185145Y83553D02*
X184555Y84144D01*
X183964Y83553D01*
X184555Y82963D01*
X185145Y83553D01*
X314347Y137246D02*
X313560D01*
X314347D01*
X286084Y106783D02*
X285893Y107740D01*
X285351Y108551D01*
X284540Y109093D01*
X283584Y109283D01*
X282627Y109093D01*
X281816Y108551D01*
X281274Y107740D01*
X281084Y106783D01*
X392004Y162286D02*
X391535Y163161D01*
X390959Y163970D01*
X390287Y164701D01*
X389527Y165341D01*
X388694Y165880D01*
X387799Y166310D01*
X386857Y166624D01*
X385882Y166817D01*
X384892Y166886D01*
X383900Y166829D01*
X382924Y166648D01*
X381978Y166346D01*
X381078Y165927D01*
X380238Y165398D01*
X379470Y164768D01*
X378789Y164046D01*
X378203Y163244D01*
Y154779D02*
X378789Y153977D01*
X379470Y153255D01*
X380238Y152625D01*
X381078Y152096D01*
X381978Y151677D01*
X382924Y151375D01*
X383900Y151194D01*
X384892Y151138D01*
X385882Y151207D01*
X386857Y151400D01*
X387799Y151714D01*
X388694Y152144D01*
X389527Y152683D01*
X390287Y153323D01*
X390959Y154053D01*
X391535Y154862D01*
X392004Y155737D01*
X161660Y59234D02*
X162384Y59988D01*
X162969Y60855D01*
X163397Y61809D01*
X163656Y62822D01*
X163738Y63864D01*
X163642Y64905D01*
X163369Y65914D01*
X162927Y66862D01*
X162331Y67721D01*
X161596Y68465D01*
X153676Y68425D02*
X152942Y67681D01*
X152345Y66823D01*
X151904Y65875D01*
X151631Y64866D01*
X151534Y63825D01*
X151616Y62783D01*
X151875Y61770D01*
X152303Y60816D01*
X152888Y59949D01*
X153612Y59195D01*
X248726Y247173D02*
X247851Y246704D01*
X247042Y246128D01*
X246311Y245456D01*
X245671Y244696D01*
X245132Y243862D01*
X244702Y242967D01*
X244388Y242025D01*
X244195Y241051D01*
X244127Y240061D01*
X244183Y239069D01*
X244364Y238093D01*
X244666Y237147D01*
X245085Y236247D01*
X245614Y235406D01*
X246244Y234639D01*
X246966Y233957D01*
X247768Y233372D01*
X256233D02*
X257035Y233957D01*
X257757Y234639D01*
X258387Y235406D01*
X258916Y236247D01*
X259335Y237147D01*
X259637Y238093D01*
X259818Y239069D01*
X259874Y240061D01*
X259805Y241051D01*
X259613Y242025D01*
X259299Y242967D01*
X258869Y243862D01*
X258329Y244696D01*
X257690Y245456D01*
X256959Y246128D01*
X256150Y246704D01*
X255275Y247173D01*
X229226Y247515D02*
X228351Y247046D01*
X227542Y246471D01*
X226811Y245798D01*
X226171Y245039D01*
X225632Y244205D01*
X225202Y243310D01*
X224888Y242368D01*
X224695Y241394D01*
X224627Y240403D01*
X224683Y239412D01*
X224864Y238436D01*
X225166Y237490D01*
X225585Y236589D01*
X226114Y235749D01*
X226744Y234982D01*
X227466Y234300D01*
X228268Y233715D01*
X236733D02*
X237535Y234300D01*
X238257Y234982D01*
X238887Y235749D01*
X239416Y236589D01*
X239835Y237490D01*
X240137Y238436D01*
X240318Y239412D01*
X240374Y240403D01*
X240305Y241394D01*
X240113Y242368D01*
X239799Y243310D01*
X239369Y244205D01*
X238829Y245039D01*
X238190Y245798D01*
X237459Y246471D01*
X236650Y247046D01*
X235775Y247515D01*
X312909Y173244D02*
X312122D01*
X312909D01*
X350726Y194173D02*
X349851Y193704D01*
X349042Y193128D01*
X348311Y192455D01*
X347671Y191696D01*
X347132Y190862D01*
X346702Y189967D01*
X346388Y189025D01*
X346195Y188051D01*
X346127Y187061D01*
X346183Y186069D01*
X346364Y185093D01*
X346666Y184147D01*
X347085Y183247D01*
X347614Y182406D01*
X348244Y181639D01*
X348966Y180957D01*
X349768Y180372D01*
X358233D02*
X359035Y180957D01*
X359757Y181639D01*
X360387Y182406D01*
X360916Y183247D01*
X361335Y184147D01*
X361637Y185093D01*
X361818Y186069D01*
X361874Y187061D01*
X361806Y188051D01*
X361613Y189025D01*
X361299Y189967D01*
X360869Y190862D01*
X360329Y191696D01*
X359690Y192455D01*
X358959Y193128D01*
X358150Y193704D01*
X357275Y194173D01*
X332394Y174539D02*
X331607D01*
X332394D01*
X178226Y247830D02*
X177351Y247361D01*
X176542Y246786D01*
X175811Y246113D01*
X175171Y245354D01*
X174632Y244520D01*
X174202Y243625D01*
X173888Y242683D01*
X173695Y241709D01*
X173626Y240718D01*
X173683Y239727D01*
X173864Y238750D01*
X174166Y237805D01*
X174585Y236904D01*
X175114Y236064D01*
X175744Y235297D01*
X176466Y234615D01*
X177268Y234029D01*
X185733D02*
X186535Y234615D01*
X187257Y235297D01*
X187887Y236064D01*
X188416Y236904D01*
X188835Y237805D01*
X189137Y238750D01*
X189318Y239727D01*
X189374Y240718D01*
X189305Y241709D01*
X189113Y242683D01*
X188799Y243625D01*
X188369Y244520D01*
X187829Y245354D01*
X187189Y246113D01*
X186459Y246786D01*
X185650Y247361D01*
X184775Y247830D01*
X194256Y235925D02*
X220634D01*
X194256Y248130D02*
X220634D01*
X194256Y235925D02*
Y248130D01*
X220634Y235925D02*
Y248130D01*
X294017Y106783D02*
Y143791D01*
X273151Y106783D02*
Y143791D01*
X286084Y106783D02*
X294017D01*
X273151D02*
X281084D01*
X273151Y143791D02*
X294017D01*
X266788Y249413D02*
Y261224D01*
X315213Y249413D02*
Y261224D01*
X266788Y212799D02*
Y224610D01*
X315213Y212799D02*
Y224610D01*
X266788Y261224D02*
X315213D01*
X266788Y212799D02*
X315213D01*
X16669Y64180D02*
Y94180D01*
X6669D02*
X16669D01*
X6669Y64180D02*
Y94180D01*
Y64180D02*
X16669D01*
X351653Y90731D02*
X358346D01*
X351653Y84629D02*
X358346D01*
X351653D02*
Y90731D01*
X138169Y174180D02*
Y184180D01*
X178169D01*
X138169Y174180D02*
X178169D01*
Y184180D01*
Y150750D02*
Y160750D01*
X138169Y150750D02*
X178169D01*
X138169Y160750D02*
X178169D01*
X138169Y150750D02*
Y160750D01*
D11*
X194552Y230512D02*
X193813Y230938D01*
Y230086D01*
X194552Y230512D01*
X299076Y110169D02*
X298338Y110595D01*
Y109743D01*
X299076Y110169D01*
D12*
X291261Y110720D02*
X290816Y111644D01*
X289817Y111872D01*
X289016Y111233D01*
Y110208D01*
X289817Y109569D01*
X290816Y109797D01*
X291261Y110720D01*
D13*
X55616Y111209D02*
X55807Y110252D01*
X56349Y109441D01*
X57160Y108899D01*
X58116Y108709D01*
X59073Y108899D01*
X59884Y109441D01*
X60426Y110252D01*
X60616Y111209D01*
X322669Y56680D02*
X323625Y56870D01*
X324436Y57412D01*
X324978Y58223D01*
X325169Y59180D01*
X324978Y60137D01*
X324436Y60948D01*
X323625Y61490D01*
X322669Y61680D01*
X1169Y219180D02*
X107169D01*
X1169Y119180D02*
Y219180D01*
Y119180D02*
X107169D01*
Y219180D01*
X51616Y31209D02*
Y111209D01*
Y31209D02*
X64616D01*
Y111209D01*
X60616D02*
X64616D01*
X51616D02*
X55616D01*
X322669Y52680D02*
X362669D01*
Y65680D01*
X322669D02*
X362669D01*
X322669Y61680D02*
Y65680D01*
Y52680D02*
Y56680D01*
X43571Y146180D02*
X37573D01*
X39572Y148179D01*
X37573Y150179D01*
X43571D01*
Y152178D02*
X39572D01*
X37573Y154177D01*
X39572Y156177D01*
X43571D01*
X40572D01*
Y152178D01*
X37573Y158176D02*
X43571Y162175D01*
X37573D02*
X43571Y158176D01*
X38572Y164174D02*
X37573Y165174D01*
Y167173D01*
X38572Y168173D01*
X39572D01*
X40572Y167173D01*
Y166174D01*
Y167173D01*
X41572Y168173D01*
X42571D01*
X43571Y167173D01*
Y165174D01*
X42571Y164174D01*
X43571Y170172D02*
Y172172D01*
Y171172D01*
X37573D01*
X38572Y170172D01*
Y175171D02*
X37573Y176170D01*
Y178170D01*
X38572Y179169D01*
X39572D01*
X40572Y178170D01*
X41572Y179169D01*
X42571D01*
X43571Y178170D01*
Y176170D01*
X42571Y175171D01*
X41572D01*
X40572Y176170D01*
X39572Y175171D01*
X38572D01*
X40572Y176170D02*
Y178170D01*
X37573Y185167D02*
X38572Y183168D01*
X40572Y181169D01*
X42571D01*
X43571Y182168D01*
Y184168D01*
X42571Y185167D01*
X41572D01*
X40572Y184168D01*
Y181169D01*
X37573Y191165D02*
Y187167D01*
X40572D01*
X39572Y189166D01*
Y190166D01*
X40572Y191165D01*
X42571D01*
X43571Y190166D01*
Y188166D01*
X42571Y187167D01*
X53169Y152178D02*
X47170D01*
X49170Y154177D01*
X47170Y156177D01*
X53169D01*
Y159176D02*
Y161175D01*
X52169Y162175D01*
X50169D01*
X49170Y161175D01*
Y159176D01*
X50169Y158176D01*
X52169D01*
X53169Y159176D01*
X47170Y168173D02*
X53169D01*
Y165174D01*
X52169Y164174D01*
X50169D01*
X49170Y165174D01*
Y168173D01*
Y170172D02*
X52169D01*
X53169Y171172D01*
Y174171D01*
X49170D01*
X53169Y176170D02*
Y178170D01*
Y177170D01*
X47170D01*
Y176170D01*
X53169Y184168D02*
Y182168D01*
X52169Y181169D01*
X50169D01*
X49170Y182168D01*
Y184168D01*
X50169Y185167D01*
X51169D01*
Y181169D01*
X34998Y69011D02*
Y63013D01*
X31999D01*
X30999Y64012D01*
Y66012D01*
X31999Y67011D01*
X34998D01*
X32998D02*
X30999Y69011D01*
X25001D02*
X29000D01*
X25001Y65012D01*
Y64012D01*
X26001Y63013D01*
X28000D01*
X29000Y64012D01*
X23002Y68011D02*
X22002Y69011D01*
X20003D01*
X19003Y68011D01*
Y64012D01*
X20003Y63013D01*
X22002D01*
X23002Y64012D01*
Y65012D01*
X22002Y66012D01*
X19003D01*
X220003Y101001D02*
Y106999D01*
X223002D01*
X224001Y105999D01*
Y104000D01*
X223002Y103000D01*
X220003D01*
X222002D02*
X224001Y101001D01*
X229999D02*
X226001D01*
X229999Y105000D01*
Y105999D01*
X229000Y106999D01*
X227000D01*
X226001Y105999D01*
X231999D02*
X232998Y106999D01*
X234998D01*
X235997Y105999D01*
Y105000D01*
X234998Y104000D01*
X235997Y103000D01*
Y102001D01*
X234998Y101001D01*
X232998D01*
X231999Y102001D01*
Y103000D01*
X232998Y104000D01*
X231999Y105000D01*
Y105999D01*
X232998Y104000D02*
X234998D01*
X375800Y92112D02*
Y98110D01*
X378799D01*
X379799Y97110D01*
Y95111D01*
X378799Y94111D01*
X375800D01*
X385797Y98110D02*
X381799D01*
Y95111D01*
X383798Y96110D01*
X384798D01*
X385797Y95111D01*
Y93111D01*
X384798Y92112D01*
X382798D01*
X381799Y93111D01*
X148500Y106612D02*
Y112610D01*
X151499D01*
X152499Y111610D01*
Y109611D01*
X151499Y108611D01*
X148500D01*
X150500D02*
X152499Y106612D01*
X158497D02*
X154499D01*
X158497Y110610D01*
Y111610D01*
X157498Y112610D01*
X155498D01*
X154499Y111610D01*
X164495Y112610D02*
X160496D01*
Y109611D01*
X162496Y110610D01*
X163496D01*
X164495Y109611D01*
Y107611D01*
X163496Y106612D01*
X161496D01*
X160496Y107611D01*
X307503Y147011D02*
Y146011D01*
X306504D01*
X308503D01*
X307503D01*
Y143012D01*
X308503Y142013D01*
X312502Y146011D02*
X314501D01*
X315501Y145012D01*
Y142013D01*
X312502D01*
X311502Y143012D01*
X312502Y144012D01*
X315501D01*
X317500Y142013D02*
Y146011D01*
X320499D01*
X321499Y145012D01*
Y142013D01*
X323498D02*
X325497D01*
X324498D01*
Y148011D01*
X323498Y147011D01*
X167502Y146011D02*
X166502Y147011D01*
X164503D01*
X163503Y146011D01*
Y142012D01*
X164503Y141013D01*
X166502D01*
X167502Y142012D01*
X169501Y141013D02*
X171500D01*
X170501D01*
Y147011D01*
X169501Y146011D01*
X174499Y147011D02*
X178498D01*
Y146011D01*
X174499Y142012D01*
Y141013D01*
X220502Y150011D02*
X219502Y151011D01*
X217502D01*
X216503Y150011D01*
Y146012D01*
X217502Y145013D01*
X219502D01*
X220502Y146012D01*
X222501Y145013D02*
X224500D01*
X223501D01*
Y151011D01*
X222501Y150011D01*
X231498Y151011D02*
X229499Y150011D01*
X227499Y148012D01*
Y146012D01*
X228499Y145013D01*
X230498D01*
X231498Y146012D01*
Y147012D01*
X230498Y148012D01*
X227499D01*
X331001Y156011D02*
X330001Y157011D01*
X328002D01*
X327002Y156011D01*
Y152012D01*
X328002Y151013D01*
X330001D01*
X331001Y152012D01*
X333000Y157011D02*
X336999D01*
Y156011D01*
X333000Y152012D01*
Y151013D01*
X315467Y74178D02*
X314468Y75178D01*
X312468D01*
X311469Y74178D01*
Y70180D01*
X312468Y69180D01*
X314468D01*
X315467Y70180D01*
X317467Y74178D02*
X318466Y75178D01*
X320466D01*
X321465Y74178D01*
Y73179D01*
X320466Y72179D01*
X321465Y71179D01*
Y70180D01*
X320466Y69180D01*
X318466D01*
X317467Y70180D01*
Y71179D01*
X318466Y72179D01*
X317467Y73179D01*
Y74178D01*
X318466Y72179D02*
X320466D01*
X152100Y81810D02*
Y80810D01*
X154100Y78811D01*
X156099Y80810D01*
Y81810D01*
X154100Y78811D02*
Y75812D01*
X162097D02*
X158098D01*
X162097Y79811D01*
Y80810D01*
X161098Y81810D01*
X159098D01*
X158098Y80810D01*
X172169Y78678D02*
Y77678D01*
X174168Y75679D01*
X176167Y77678D01*
Y78678D01*
X174168Y75679D02*
Y72680D01*
X178167D02*
X180166D01*
X179166D01*
Y78678D01*
X178167Y77678D01*
X244400Y219610D02*
Y215611D01*
X246400Y213612D01*
X248399Y215611D01*
Y219610D01*
X250398Y213612D02*
Y219610D01*
X253397D01*
X254397Y218610D01*
Y216611D01*
X253397Y215611D01*
X250398D01*
X252398D02*
X254397Y213612D01*
X256397D02*
X258396D01*
X257396D01*
Y219610D01*
X256397Y218610D01*
X210002Y131011D02*
Y126012D01*
X211001Y125013D01*
X213001D01*
X214000Y126012D01*
Y131011D01*
X216000Y125013D02*
X217999D01*
X217000D01*
Y131011D01*
X216000Y130011D01*
X261169Y157179D02*
X260169Y158179D01*
X258170D01*
X257170Y157179D01*
Y156180D01*
X258170Y155180D01*
X260169D01*
X261169Y154180D01*
Y153181D01*
X260169Y152181D01*
X258170D01*
X257170Y153181D01*
X267167Y152181D02*
X263168D01*
X267167Y156180D01*
Y157179D01*
X266167Y158179D01*
X264168D01*
X263168Y157179D01*
X42667Y119678D02*
X41668Y120678D01*
X39668D01*
X38669Y119678D01*
Y118679D01*
X39668Y117679D01*
X41668D01*
X42667Y116679D01*
Y115680D01*
X41668Y114680D01*
X39668D01*
X38669Y115680D01*
X44667Y114680D02*
X46666D01*
X45666D01*
Y120678D01*
X44667Y119678D01*
X200454Y201708D02*
Y195710D01*
X197455D01*
X196455Y196709D01*
Y198709D01*
X197455Y199708D01*
X200454D01*
X198455D02*
X196455Y201708D01*
X190457D02*
X194456D01*
X190457Y197709D01*
Y196709D01*
X191457Y195710D01*
X193456D01*
X194456Y196709D01*
X188458Y195710D02*
X184459D01*
Y196709D01*
X188458Y200708D01*
Y201708D01*
X108198Y191013D02*
Y197011D01*
X111197D01*
X112197Y196011D01*
Y194012D01*
X111197Y193012D01*
X108198D01*
X110198D02*
X112197Y191013D01*
X118195D02*
X114196D01*
X118195Y195011D01*
Y196011D01*
X117195Y197011D01*
X115196D01*
X114196Y196011D01*
X124193Y197011D02*
X122194Y196011D01*
X120194Y194012D01*
Y192012D01*
X121194Y191013D01*
X123193D01*
X124193Y192012D01*
Y193012D01*
X123193Y194012D01*
X120194D01*
X246003Y140001D02*
Y145999D01*
X249002D01*
X250001Y144999D01*
Y143000D01*
X249002Y142000D01*
X246003D01*
X248002D02*
X250001Y140001D01*
X255999D02*
X252001D01*
X255999Y144000D01*
Y144999D01*
X255000Y145999D01*
X253000D01*
X252001Y144999D01*
X260998Y140001D02*
Y145999D01*
X257999Y143000D01*
X261997D01*
X240999Y116003D02*
X235001D01*
Y119002D01*
X236001Y120001D01*
X238000D01*
X239000Y119002D01*
Y116003D01*
Y118002D02*
X240999Y120001D01*
Y125999D02*
Y122001D01*
X237000Y125999D01*
X236001D01*
X235001Y125000D01*
Y123000D01*
X236001Y122001D01*
Y127999D02*
X235001Y128998D01*
Y130998D01*
X236001Y131997D01*
X237000D01*
X238000Y130998D01*
Y129998D01*
Y130998D01*
X239000Y131997D01*
X239999D01*
X240999Y130998D01*
Y128998D01*
X239999Y127999D01*
X246003Y104001D02*
Y109999D01*
X249002D01*
X250001Y108999D01*
Y107000D01*
X249002Y106000D01*
X246003D01*
X248002D02*
X250001Y104001D01*
X255999D02*
X252001D01*
X255999Y108000D01*
Y108999D01*
X255000Y109999D01*
X253000D01*
X252001Y108999D01*
X261997Y104001D02*
X257999D01*
X261997Y108000D01*
Y108999D01*
X260998Y109999D01*
X258998D01*
X257999Y108999D01*
X103003Y33013D02*
Y39011D01*
X106002D01*
X107001Y38011D01*
Y36012D01*
X106002Y35012D01*
X103003D01*
X105002D02*
X107001Y33013D01*
X112999D02*
X109001D01*
X112999Y37011D01*
Y38011D01*
X112000Y39011D01*
X110000D01*
X109001Y38011D01*
X114999Y33013D02*
X116998D01*
X115998D01*
Y39011D01*
X114999Y38011D01*
X103003Y43013D02*
Y49011D01*
X106002D01*
X107002Y48011D01*
Y46012D01*
X106002Y45012D01*
X103003D01*
X105002D02*
X107002Y43013D01*
X113000D02*
X109001D01*
X113000Y47011D01*
Y48011D01*
X112000Y49011D01*
X110001D01*
X109001Y48011D01*
X114999D02*
X115999Y49011D01*
X117998D01*
X118998Y48011D01*
Y44012D01*
X117998Y43013D01*
X115999D01*
X114999Y44012D01*
Y48011D01*
X103503Y54013D02*
Y60011D01*
X106502D01*
X107502Y59011D01*
Y57012D01*
X106502Y56012D01*
X103503D01*
X105502D02*
X107502Y54013D01*
X109501D02*
X111500D01*
X110501D01*
Y60011D01*
X109501Y59011D01*
X114499Y55012D02*
X115499Y54013D01*
X117498D01*
X118498Y55012D01*
Y59011D01*
X117498Y60011D01*
X115499D01*
X114499Y59011D01*
Y58011D01*
X115499Y57012D01*
X118498D01*
X103503Y63013D02*
Y69011D01*
X106502D01*
X107502Y68011D01*
Y66012D01*
X106502Y65012D01*
X103503D01*
X105502D02*
X107502Y63013D01*
X109501D02*
X111500D01*
X110501D01*
Y69011D01*
X109501Y68011D01*
X114499D02*
X115499Y69011D01*
X117498D01*
X118498Y68011D01*
Y67011D01*
X117498Y66012D01*
X118498Y65012D01*
Y64012D01*
X117498Y63013D01*
X115499D01*
X114499Y64012D01*
Y65012D01*
X115499Y66012D01*
X114499Y67011D01*
Y68011D01*
X115499Y66012D02*
X117498D01*
X103503Y73013D02*
Y79011D01*
X106502D01*
X107502Y78011D01*
Y76012D01*
X106502Y75012D01*
X103503D01*
X105502D02*
X107502Y73013D01*
X109501D02*
X111500D01*
X110501D01*
Y79011D01*
X109501Y78011D01*
X114499Y79011D02*
X118498D01*
Y78011D01*
X114499Y74012D01*
Y73013D01*
X231001Y33509D02*
X237000D01*
Y30510D01*
X236000Y29511D01*
X234000D01*
X233001Y30510D01*
Y33509D01*
Y31510D02*
X231001Y29511D01*
Y27511D02*
Y25512D01*
Y26512D01*
X237000D01*
X236000Y27511D01*
X237000Y18514D02*
Y22513D01*
X234000D01*
X235000Y20514D01*
Y19514D01*
X234000Y18514D01*
X232001D01*
X231001Y19514D01*
Y21513D01*
X232001Y22513D01*
X103503Y83013D02*
Y89011D01*
X106502D01*
X107502Y88011D01*
Y86012D01*
X106502Y85012D01*
X103503D01*
X105502D02*
X107502Y83013D01*
X109501D02*
X111500D01*
X110501D01*
Y89011D01*
X109501Y88011D01*
X117498Y83013D02*
Y89011D01*
X114499Y86012D01*
X118498D01*
X103503Y93013D02*
Y99011D01*
X106502D01*
X107502Y98011D01*
Y96012D01*
X106502Y95012D01*
X103503D01*
X105502D02*
X107502Y93013D01*
X109501D02*
X111500D01*
X110501D01*
Y99011D01*
X109501Y98011D01*
X114499D02*
X115499Y99011D01*
X117498D01*
X118498Y98011D01*
Y97011D01*
X117498Y96012D01*
X116499D01*
X117498D01*
X118498Y95012D01*
Y94012D01*
X117498Y93013D01*
X115499D01*
X114499Y94012D01*
X103503Y103013D02*
Y109011D01*
X106502D01*
X107502Y108011D01*
Y106012D01*
X106502Y105012D01*
X103503D01*
X105502D02*
X107502Y103013D01*
X109501D02*
X111500D01*
X110501D01*
Y109011D01*
X109501Y108011D01*
X118498Y103013D02*
X114499D01*
X118498Y107011D01*
Y108011D01*
X117498Y109011D01*
X115499D01*
X114499Y108011D01*
X313671Y3181D02*
Y9179D01*
X316670D01*
X317670Y8179D01*
Y6180D01*
X316670Y5180D01*
X313671D01*
X315670D02*
X317670Y3181D01*
X319669D02*
X321668D01*
X320669D01*
Y9179D01*
X319669Y8179D01*
X324667Y3181D02*
X326667D01*
X325667D01*
Y9179D01*
X324667Y8179D01*
X329040Y2873D02*
Y8871D01*
X332039D01*
X333039Y7871D01*
Y5872D01*
X332039Y4872D01*
X329040D01*
X331040D02*
X333039Y2873D01*
X335038D02*
X337038D01*
X336038D01*
Y8871D01*
X335038Y7871D01*
X340037D02*
X341036Y8871D01*
X343036D01*
X344035Y7871D01*
Y3872D01*
X343036Y2873D01*
X341036D01*
X340037Y3872D01*
Y7871D01*
X330170Y30181D02*
Y36179D01*
X333169D01*
X334169Y35179D01*
Y33180D01*
X333169Y32180D01*
X330170D01*
X332170D02*
X334169Y30181D01*
X336168Y31181D02*
X337168Y30181D01*
X339167D01*
X340167Y31181D01*
Y35179D01*
X339167Y36179D01*
X337168D01*
X336168Y35179D01*
Y34180D01*
X337168Y33180D01*
X340167D01*
X314170Y30181D02*
Y36179D01*
X317169D01*
X318169Y35179D01*
Y33180D01*
X317169Y32180D01*
X314170D01*
X316170D02*
X318169Y30181D01*
X320168Y35179D02*
X321168Y36179D01*
X323167D01*
X324167Y35179D01*
Y34180D01*
X323167Y33180D01*
X324167Y32180D01*
Y31181D01*
X323167Y30181D01*
X321168D01*
X320168Y31181D01*
Y32180D01*
X321168Y33180D01*
X320168Y34180D01*
Y35179D01*
X321168Y33180D02*
X323167D01*
X349000Y156812D02*
Y162810D01*
X351999D01*
X352999Y161810D01*
Y159811D01*
X351999Y158811D01*
X349000D01*
X351000D02*
X352999Y156812D01*
X354998Y162810D02*
X358997D01*
Y161810D01*
X354998Y157811D01*
Y156812D01*
X357001Y142010D02*
X362999D01*
Y139011D01*
X362000Y138011D01*
X360000D01*
X359001Y139011D01*
Y142010D01*
Y140011D02*
X357001Y138011D01*
X362999Y132013D02*
X362000Y134013D01*
X360000Y136012D01*
X358001D01*
X357001Y135012D01*
Y133013D01*
X358001Y132013D01*
X359001D01*
X360000Y133013D01*
Y136012D01*
X346082Y29708D02*
Y35706D01*
X349081D01*
X350081Y34707D01*
Y32707D01*
X349081Y31708D01*
X346082D01*
X348081D02*
X350081Y29708D01*
X356079Y35706D02*
X352080D01*
Y32707D01*
X354079Y33707D01*
X355079D01*
X356079Y32707D01*
Y30708D01*
X355079Y29708D01*
X353080D01*
X352080Y30708D01*
X357001Y124010D02*
X362999D01*
Y121011D01*
X362000Y120011D01*
X360000D01*
X359001Y121011D01*
Y124010D01*
Y122011D02*
X357001Y120011D01*
Y115013D02*
X362999D01*
X360000Y118012D01*
Y114013D01*
X347170Y2681D02*
Y8679D01*
X350169D01*
X351169Y7679D01*
Y5680D01*
X350169Y4680D01*
X347170D01*
X349170D02*
X351169Y2681D01*
X353168Y7679D02*
X354168Y8679D01*
X356167D01*
X357167Y7679D01*
Y6680D01*
X356167Y5680D01*
X355168D01*
X356167D01*
X357167Y4680D01*
Y3681D01*
X356167Y2681D01*
X354168D01*
X353168Y3681D01*
X362053Y2753D02*
Y8751D01*
X365053D01*
X366052Y7751D01*
Y5752D01*
X365053Y4752D01*
X362053D01*
X364053D02*
X366052Y2753D01*
X372050D02*
X368052D01*
X372050Y6752D01*
Y7751D01*
X371051Y8751D01*
X369051D01*
X368052Y7751D01*
X326269Y94680D02*
Y100678D01*
X329268D01*
X330267Y99678D01*
Y97679D01*
X329268Y96679D01*
X326269D01*
X328268D02*
X330267Y94680D01*
X332267D02*
X334266D01*
X333266D01*
Y100678D01*
X332267Y99678D01*
X138800Y187612D02*
Y193610D01*
X141799D01*
X142799Y192610D01*
Y190611D01*
X141799Y189611D01*
X138800D01*
X147798Y187612D02*
Y193610D01*
X144799Y190611D01*
X148797D01*
X7300Y97612D02*
Y103610D01*
X10300D01*
X11299Y102610D01*
Y100611D01*
X10300Y99611D01*
X7300D01*
X13298Y102610D02*
X14298Y103610D01*
X16297D01*
X17297Y102610D01*
Y101611D01*
X16297Y100611D01*
X15298D01*
X16297D01*
X17297Y99611D01*
Y98611D01*
X16297Y97612D01*
X14298D01*
X13298Y98611D01*
X138769Y164134D02*
Y170132D01*
X141768D01*
X142767Y169132D01*
Y167133D01*
X141768Y166133D01*
X138769D01*
X148766Y164134D02*
X144767D01*
X148766Y168132D01*
Y169132D01*
X147766Y170132D01*
X145766D01*
X144767Y169132D01*
X375800Y150112D02*
Y156110D01*
X378799D01*
X379799Y155110D01*
Y153111D01*
X378799Y152111D01*
X375800D01*
X381799Y150112D02*
X383798D01*
X382798D01*
Y156110D01*
X381799Y155110D01*
X301001Y55013D02*
Y53014D01*
X302001Y52014D01*
X306000D01*
X306999Y53014D01*
Y55013D01*
X306000Y56013D01*
X302001D01*
X301001Y55013D01*
X306999Y58012D02*
X301001D01*
Y61011D01*
X302001Y62011D01*
X304000D01*
X305000Y61011D01*
Y58012D01*
X306999Y64010D02*
Y66009D01*
Y65010D01*
X301001D01*
X302001Y64010D01*
X1669Y222680D02*
Y228678D01*
X3668Y226679D01*
X5667Y228678D01*
Y222680D01*
X7667D02*
Y226679D01*
X9666Y228678D01*
X11665Y226679D01*
Y222680D01*
Y225679D01*
X7667D01*
X13665Y228678D02*
X17663Y222680D01*
Y228678D02*
X13665Y222680D01*
X19663D02*
X21662D01*
X20663D01*
Y228678D01*
X19663Y227678D01*
X162300Y224110D02*
Y218112D01*
X166299D01*
X172297D02*
X168298D01*
X172297Y222111D01*
Y223110D01*
X171298Y224110D01*
X169298D01*
X168298Y223110D01*
X126300Y225610D02*
Y219612D01*
X130299D01*
X132299D02*
X134298D01*
X133298D01*
Y225610D01*
X132299Y224610D01*
X370599Y222410D02*
X368600D01*
X369599D01*
Y217411D01*
X368600Y216412D01*
X367600D01*
X366600Y217411D01*
X372599Y216412D02*
Y220410D01*
X374598Y222410D01*
X376597Y220410D01*
Y216412D01*
Y219411D01*
X372599D01*
X382595Y221410D02*
X381596Y222410D01*
X379596D01*
X378596Y221410D01*
Y217411D01*
X379596Y216412D01*
X381596D01*
X382595Y217411D01*
X384595Y222410D02*
Y216412D01*
Y218411D01*
X388593Y222410D01*
X385594Y219411D01*
X388593Y216412D01*
X396591Y222410D02*
Y216412D01*
X399590D01*
X400589Y217411D01*
Y221410D01*
X399590Y222410D01*
X396591D01*
X406588Y221410D02*
X405588Y222410D01*
X403588D01*
X402589Y221410D01*
Y217411D01*
X403588Y216412D01*
X405588D01*
X406588Y217411D01*
X408587Y216412D02*
X410586D01*
X409586D01*
Y222410D01*
X408587Y221410D01*
X320300Y223110D02*
Y217112D01*
X323299D01*
X324299Y218111D01*
Y222110D01*
X323299Y223110D01*
X320300D01*
X326298Y217112D02*
X328298D01*
X327298D01*
Y223110D01*
X326298Y222110D01*
X373559Y19834D02*
X372559Y20833D01*
X370560D01*
X369560Y19834D01*
Y15835D01*
X370560Y14835D01*
X372559D01*
X373559Y15835D01*
X375558Y14835D02*
X377557D01*
X376558D01*
Y20833D01*
X375558Y19834D01*
X380556Y15835D02*
X381556Y14835D01*
X383555D01*
X384555Y15835D01*
Y19834D01*
X383555Y20833D01*
X381556D01*
X380556Y19834D01*
Y18834D01*
X381556Y17834D01*
X384555D01*
X187229Y146624D02*
X188229Y147623D01*
Y149623D01*
X187229Y150622D01*
X183230D01*
X182231Y149623D01*
Y147623D01*
X183230Y146624D01*
X182231Y144624D02*
Y142625D01*
Y143625D01*
X188229D01*
X187229Y144624D01*
Y139626D02*
X188229Y138626D01*
Y136627D01*
X187229Y135627D01*
X186229D01*
X185230Y136627D01*
X184230Y135627D01*
X183230D01*
X182231Y136627D01*
Y138626D01*
X183230Y139626D01*
X184230D01*
X185230Y138626D01*
X186229Y139626D01*
X187229D01*
X185230Y138626D02*
Y136627D01*
X221499Y81179D02*
X222498Y82179D01*
Y84178D01*
X221499Y85178D01*
X217500D01*
X216500Y84178D01*
Y82179D01*
X217500Y81179D01*
X216500Y79180D02*
Y77180D01*
Y78180D01*
X222498D01*
X221499Y79180D01*
X222498Y70183D02*
Y74181D01*
X219499D01*
X220499Y72182D01*
Y71182D01*
X219499Y70183D01*
X217500D01*
X216500Y71182D01*
Y73181D01*
X217500Y74181D01*
X157670Y104179D02*
X156670Y105179D01*
X154671D01*
X153671Y104179D01*
Y100181D01*
X154671Y99181D01*
X156670D01*
X157670Y100181D01*
X159669Y99181D02*
X161669D01*
X160669D01*
Y105179D01*
X159669Y104179D01*
X167667Y99181D02*
Y105179D01*
X164668Y102180D01*
X168666D01*
X291168Y17679D02*
X292168Y18679D01*
Y20678D01*
X291168Y21678D01*
X287169D01*
X286170Y20678D01*
Y18679D01*
X287169Y17679D01*
X286170Y15680D02*
Y13680D01*
Y14680D01*
X292168D01*
X291168Y15680D01*
Y10681D02*
X292168Y9681D01*
Y7682D01*
X291168Y6683D01*
X290168D01*
X289169Y7682D01*
Y8682D01*
Y7682D01*
X288169Y6683D01*
X287169D01*
X286170Y7682D01*
Y9681D01*
X287169Y10681D01*
X141670Y47179D02*
X140670Y48179D01*
X138671D01*
X137671Y47179D01*
Y43181D01*
X138671Y42181D01*
X140670D01*
X141670Y43181D01*
X143669Y42181D02*
X145669D01*
X144669D01*
Y48179D01*
X143669Y47179D01*
X152666Y42181D02*
X148668D01*
X152666Y46180D01*
Y47179D01*
X151667Y48179D01*
X149667D01*
X148668Y47179D01*
X207669Y35179D02*
X206670Y36179D01*
X204671D01*
X203671Y35179D01*
Y31181D01*
X204671Y30181D01*
X206670D01*
X207669Y31181D01*
X209669Y30181D02*
X211668D01*
X210669D01*
Y36179D01*
X209669Y35179D01*
X214667Y30181D02*
X216667D01*
X215667D01*
Y36179D01*
X214667Y35179D01*
X137670Y87179D02*
X136670Y88179D01*
X134671D01*
X133671Y87179D01*
Y83181D01*
X134671Y82181D01*
X136670D01*
X137670Y83181D01*
X139669Y82181D02*
X141669D01*
X140669D01*
Y88179D01*
X139669Y87179D01*
X144668D02*
X145667Y88179D01*
X147667D01*
X148666Y87179D01*
Y83181D01*
X147667Y82181D01*
X145667D01*
X144668Y83181D01*
Y87179D01*
X177169Y35179D02*
X176169Y36179D01*
X174170D01*
X173170Y35179D01*
Y31181D01*
X174170Y30181D01*
X176169D01*
X177169Y31181D01*
X179168D02*
X180168Y30181D01*
X182167D01*
X183167Y31181D01*
Y35179D01*
X182167Y36179D01*
X180168D01*
X179168Y35179D01*
Y34180D01*
X180168Y33180D01*
X183167D01*
X376899Y175310D02*
X375899Y176310D01*
X373900D01*
X372900Y175310D01*
Y171311D01*
X373900Y170312D01*
X375899D01*
X376899Y171311D01*
X382897Y176310D02*
X380898Y175310D01*
X378899Y173311D01*
Y171311D01*
X379898Y170312D01*
X381897D01*
X382897Y171311D01*
Y172311D01*
X381897Y173311D01*
X378899D01*
X178199Y261610D02*
X177199Y262610D01*
X175200D01*
X174200Y261610D01*
Y257611D01*
X175200Y256612D01*
X177199D01*
X178199Y257611D01*
X184197Y262610D02*
X180199D01*
Y259611D01*
X182198Y260611D01*
X183197D01*
X184197Y259611D01*
Y257611D01*
X183197Y256612D01*
X181198D01*
X180199Y257611D01*
X229199Y261210D02*
X228199Y262210D01*
X226200D01*
X225200Y261210D01*
Y257211D01*
X226200Y256212D01*
X228199D01*
X229199Y257211D01*
X234197Y256212D02*
Y262210D01*
X231199Y259211D01*
X235197D01*
X248699Y260910D02*
X247699Y261910D01*
X245700D01*
X244700Y260910D01*
Y256911D01*
X245700Y255912D01*
X247699D01*
X248699Y256911D01*
X250698Y260910D02*
X251698Y261910D01*
X253697D01*
X254697Y260910D01*
Y259910D01*
X253697Y258911D01*
X252698D01*
X253697D01*
X254697Y257911D01*
Y256911D01*
X253697Y255912D01*
X251698D01*
X250698Y256911D01*
X350699Y207910D02*
X349699Y208910D01*
X347700D01*
X346700Y207910D01*
Y203911D01*
X347700Y202912D01*
X349699D01*
X350699Y203911D01*
X356697Y202912D02*
X352698D01*
X356697Y206910D01*
Y207910D01*
X355697Y208910D01*
X353698D01*
X352698Y207910D01*
X328000Y256011D02*
X327001Y257011D01*
X325001D01*
X324002Y256011D01*
Y252012D01*
X325001Y251013D01*
X327001D01*
X328000Y252012D01*
X330000Y251013D02*
X331999D01*
X330999D01*
Y257011D01*
X330000Y256011D01*
X258003Y56011D02*
Y50013D01*
X261002D01*
X262001Y51012D01*
Y52012D01*
X261002Y53012D01*
X258003D01*
X261002D01*
X262001Y54011D01*
Y55011D01*
X261002Y56011D01*
X258003D01*
X264001D02*
X268000D01*
X266000D01*
Y50013D01*
X269999D02*
X271998D01*
X270999D01*
Y56011D01*
X269999Y55011D01*
X371060Y38835D02*
Y44833D01*
X374059D01*
X375059Y43834D01*
Y41834D01*
X374059Y40835D01*
X371060D01*
X373060D02*
X375059Y38835D01*
X377058Y43834D02*
X378058Y44833D01*
X380057D01*
X381057Y43834D01*
Y42834D01*
X380057Y41834D01*
X379058D01*
X380057D01*
X381057Y40835D01*
Y39835D01*
X380057Y38835D01*
X378058D01*
X377058Y39835D01*
X383056Y43834D02*
X384056Y44833D01*
X386055D01*
X387055Y43834D01*
Y39835D01*
X386055Y38835D01*
X384056D01*
X383056Y39835D01*
Y43834D01*
X186671Y31181D02*
Y37179D01*
X189670D01*
X190670Y36179D01*
Y34180D01*
X189670Y33180D01*
X186671D01*
X188671D02*
X190670Y31181D01*
X192669D02*
X194669D01*
X193669D01*
Y37179D01*
X192669Y36179D01*
X201666Y37179D02*
X199667Y36179D01*
X197668Y34180D01*
Y32181D01*
X198667Y31181D01*
X200667D01*
X201666Y32181D01*
Y33180D01*
X200667Y34180D01*
X197668D01*
X200502Y232011D02*
X202502D01*
X201502D01*
Y226013D01*
X200502D01*
X202502D01*
X209500Y231011D02*
X208500Y232011D01*
X206501D01*
X205501Y231011D01*
Y227012D01*
X206501Y226013D01*
X208500D01*
X209500Y227012D01*
X211499Y226013D02*
X213498D01*
X212499D01*
Y232011D01*
X211499Y231011D01*
X346100Y100210D02*
X350099Y96211D01*
X346100D02*
X350099Y100210D01*
X346100Y98211D02*
X350099D01*
X348100Y96211D02*
Y100210D01*
X352098Y95212D02*
X354098D01*
X353098D01*
Y101210D01*
X352098Y100210D01*
D14*
X270169Y30680D02*
X270066Y31686D01*
X269763Y32652D01*
X269272Y33536D01*
X268614Y34304D01*
X267813Y34923D01*
X266905Y35369D01*
X265926Y35622D01*
X264915Y35674D01*
X263915Y35520D01*
X262967Y35169D01*
X262108Y34634D01*
X261375Y33937D01*
X260797Y33107D01*
X260398Y32177D01*
X260194Y31186D01*
Y30174D01*
X260398Y29183D01*
X260797Y28253D01*
X261375Y27423D01*
X262108Y26726D01*
X262967Y26191D01*
X263915Y25840D01*
X264915Y25686D01*
X265926Y25738D01*
X266905Y25991D01*
X267813Y26437D01*
X268614Y27056D01*
X269272Y27824D01*
X269763Y28708D01*
X270066Y29674D01*
X270169Y30680D01*
X181669Y66180D02*
X180652Y66100D01*
X179660Y65862D01*
X178718Y65472D01*
X177848Y64939D01*
X177073Y64276D01*
X176410Y63501D01*
X175877Y62631D01*
X175487Y61689D01*
X175249Y60697D01*
X175169Y59680D01*
X175249Y58663D01*
X175487Y57671D01*
X175877Y56729D01*
X176410Y55860D01*
X177073Y55084D01*
X177848Y54421D01*
X178718Y53888D01*
X179660Y53498D01*
X180652Y53260D01*
X181669Y53180D01*
X205669D02*
X206685Y53260D01*
X207677Y53498D01*
X208620Y53888D01*
X209489Y54421D01*
X210265Y55084D01*
X210927Y55860D01*
X211460Y56729D01*
X211851Y57671D01*
X212089Y58663D01*
X212169Y59680D01*
X212089Y60697D01*
X211851Y61689D01*
X211460Y62631D01*
X210927Y63501D01*
X210265Y64276D01*
X209489Y64939D01*
X208620Y65472D01*
X207677Y65862D01*
X206685Y66100D01*
X205669Y66180D01*
X276169Y26680D02*
Y36180D01*
X257669Y41180D02*
X273069D01*
X253669Y26680D02*
Y36180D01*
X257669Y21180D02*
X273169D01*
X181669Y53180D02*
X205669D01*
X181669Y66180D02*
X205669D01*
X192669Y62680D02*
X194669D01*
Y56680D02*
Y62680D01*
X192669Y56680D02*
X194669D01*
X192669D02*
Y62680D01*
X196169Y59680D02*
Y62680D01*
Y56680D02*
Y59680D01*
X191169D02*
Y62680D01*
Y56680D02*
Y59680D01*
X196169D02*
X198669D01*
X188669D02*
X191169D01*
D15*
X181669Y68180D02*
X180682Y68123D01*
X179709Y67951D01*
X178761Y67667D01*
X177854Y67276D01*
X176998Y66782D01*
X176205Y66191D01*
X175486Y65513D01*
X174851Y64756D01*
X174308Y63930D01*
X173864Y63047D01*
X173526Y62118D01*
X173298Y61156D01*
X173183Y60174D01*
Y59186D01*
X173298Y58204D01*
X173526Y57242D01*
X173864Y56313D01*
X174308Y55430D01*
X174851Y54604D01*
X175486Y53847D01*
X176205Y53169D01*
X176998Y52578D01*
X177854Y52084D01*
X178762Y51693D01*
X179709Y51409D01*
X180682Y51237D01*
X181669Y51180D01*
X205669D02*
X206656Y51237D01*
X207629Y51409D01*
X208576Y51693D01*
X209484Y52084D01*
X210339Y52578D01*
X211132Y53169D01*
X211851Y53847D01*
X212487Y54604D01*
X213030Y55430D01*
X213474Y56313D01*
X213812Y57242D01*
X214040Y58204D01*
X214154Y59186D01*
Y60174D01*
X214040Y61156D01*
X213812Y62118D01*
X213474Y63047D01*
X213030Y63930D01*
X212487Y64756D01*
X211851Y65513D01*
X211132Y66191D01*
X210340Y66782D01*
X209484Y67276D01*
X208576Y67667D01*
X207629Y67951D01*
X206656Y68123D01*
X205669Y68180D01*
X181669Y51180D02*
X205669D01*
X181669Y68180D02*
X205669D01*
D16*
X138906Y208012D02*
X138821Y209010D01*
X138569Y209979D01*
X138156Y210892D01*
X137595Y211722D01*
X136902Y212445D01*
X136097Y213040D01*
X135202Y213491D01*
X134245Y213785D01*
X133251Y213912D01*
X132250Y213869D01*
X131271Y213658D01*
X130342Y213285D01*
X129489Y212760D01*
X128737Y212098D01*
X128108Y211319D01*
X127619Y210444D01*
X127286Y209500D01*
X127116Y208513D01*
Y207511D01*
X127286Y206524D01*
X127619Y205579D01*
X128108Y204705D01*
X128737Y203925D01*
X129489Y203264D01*
X130342Y202739D01*
X131271Y202365D01*
X132250Y202154D01*
X133251Y202112D01*
X134245Y202239D01*
X135202Y202532D01*
X136097Y202983D01*
X136902Y203579D01*
X137595Y204302D01*
X138156Y205132D01*
X138569Y206044D01*
X138821Y207014D01*
X138906Y208012D01*
X175818Y208967D02*
X175733Y209965D01*
X175481Y210935D01*
X175068Y211847D01*
X174507Y212677D01*
X173814Y213401D01*
X173009Y213996D01*
X172114Y214447D01*
X171157Y214740D01*
X170163Y214867D01*
X169162Y214825D01*
X168183Y214614D01*
X167254Y214241D01*
X166401Y213715D01*
X165649Y213054D01*
X165020Y212274D01*
X164531Y211400D01*
X164198Y210455D01*
X164028Y209468D01*
Y208467D01*
X164198Y207479D01*
X164531Y206535D01*
X165020Y205660D01*
X165649Y204881D01*
X166401Y204219D01*
X167254Y203694D01*
X168183Y203321D01*
X169162Y203110D01*
X170163Y203067D01*
X171157Y203194D01*
X172114Y203488D01*
X173009Y203939D01*
X173814Y204534D01*
X174507Y205257D01*
X175068Y206087D01*
X175481Y207000D01*
X175733Y207969D01*
X175818Y208967D01*
X229600Y111600D02*
X230400D01*
X229600Y108400D02*
X230400D01*
X224600Y107700D02*
X235300D01*
X224600D02*
Y112300D01*
X235300D01*
Y107700D02*
Y112300D01*
X151600Y97612D02*
Y98412D01*
X148400Y97612D02*
Y98412D01*
X147700Y92712D02*
Y103412D01*
X152300D01*
Y92712D02*
Y103412D01*
X147700Y92712D02*
X152300D01*
X128000Y210012D02*
X138000D01*
X128000D02*
X133000Y206012D01*
X128000D02*
X133000D01*
X138000Y210012D01*
X133000Y206012D02*
X138000D01*
X171912Y208967D02*
Y213967D01*
X167912D02*
X171912Y208967D01*
Y203967D02*
Y208967D01*
X167912Y203967D02*
X171912Y208967D01*
X167912Y203967D02*
Y213967D01*
D17*
X181995Y93002D02*
Y94537D01*
Y93002D02*
X183531D01*
X208806D02*
X210342D01*
Y94537D01*
Y119813D02*
Y121348D01*
X208806D02*
X210342D01*
X181995D02*
X183531D01*
X181995Y119813D02*
Y121348D01*
X404205Y106012D02*
Y146012D01*
X375859Y106012D02*
X404205D01*
X408142D01*
Y146012D01*
X404205D02*
X408142D01*
X375859D02*
X404205D01*
X375859Y106012D02*
Y146012D01*
Y48012D02*
Y88012D01*
X404205D01*
X408142D01*
Y48012D02*
Y88012D01*
X404205Y48012D02*
X408142D01*
X375859D02*
X404205D01*
Y88012D01*
X323580Y137344D02*
X339328D01*
X323580Y117502D02*
X339328D01*
X276728Y208205D02*
X287133D01*
Y168205D02*
Y208205D01*
X276728Y168205D02*
X287133D01*
X343615Y181478D02*
Y208545D01*
X339520Y181478D02*
X343615D01*
X339520Y208545D02*
X343615D01*
X320386Y181478D02*
Y208545D01*
X324481D01*
X320386Y181478D02*
X324481D01*
D18*
X253669Y42580D02*
X253769Y42680D01*
X419000Y173012D02*
Y206012D01*
X371500D02*
X426000D01*
X371500Y173012D02*
X426000D01*
X371500D02*
Y206012D01*
X426000Y173012D02*
Y206012D01*
D19*
X352735Y87680D02*
D03*
M02*
