G04*
G04 #@! TF.GenerationSoftware,Altium Limited,Altium Designer,22.4.2 (48)*
G04*
G04 Layer_Color=32768*
%FSLAX24Y24*%
%MOIN*%
G70*
G04*
G04 #@! TF.SameCoordinates,3D4B7757-4479-4088-A00E-F10E6AE17A54*
G04*
G04*
G04 #@! TF.FilePolarity,Positive*
G04*
G01*
G75*
%ADD81C,0.0039*%
%ADD82C,0.0020*%
D81*
X16287Y5470D02*
X16681D01*
X16484Y5273D02*
Y5667D01*
X19400Y4475D02*
X19794D01*
X19597Y4278D02*
Y4672D01*
X19404Y5470D02*
X19798D01*
X19601Y5273D02*
Y5667D01*
X19400Y6465D02*
X19794D01*
X19597Y6268D02*
Y6661D01*
X19404Y8680D02*
X19798D01*
X19601Y8483D02*
Y8877D01*
X19404Y11688D02*
X19798D01*
X19601Y11491D02*
Y11885D01*
X19404Y9700D02*
X19798D01*
X19601Y9503D02*
Y9897D01*
X19404Y10678D02*
X19798D01*
X19601Y10481D02*
Y10875D01*
X24664Y10450D02*
X25058D01*
X24861Y10253D02*
Y10647D01*
X26604Y9850D02*
X26998D01*
X26801Y9653D02*
Y10047D01*
X23624Y3200D02*
X24018D01*
X23821Y3004D02*
Y3397D01*
X26624Y3200D02*
X27018D01*
X26821Y3004D02*
Y3397D01*
X26124Y7100D02*
X26518D01*
X26321Y6903D02*
Y7297D01*
X23761Y8033D02*
Y8427D01*
X23564Y8230D02*
X23958D01*
X22441Y13734D02*
Y14127D01*
X22244Y13930D02*
X22638D01*
X19400Y14677D02*
X19794D01*
X19597Y14480D02*
Y14874D01*
X19201Y15954D02*
Y16347D01*
X19004Y16150D02*
X19398D01*
X19404Y12678D02*
X19798D01*
X19601Y12481D02*
Y12875D01*
X19404Y13680D02*
X19798D01*
X19601Y13483D02*
Y13876D01*
X25124Y3200D02*
X25518D01*
X25321Y3004D02*
Y3397D01*
X23624Y3200D02*
X24018D01*
X23821Y3004D02*
Y3397D01*
X26624Y3200D02*
X27018D01*
X26821Y3004D02*
Y3397D01*
X23384Y16190D02*
X23778D01*
X23581Y15993D02*
Y16387D01*
X11271Y3034D02*
Y3427D01*
X11074Y3230D02*
X11468D01*
X26934Y16160D02*
X27328D01*
X27131Y15963D02*
Y16357D01*
X34904Y11705D02*
X35298D01*
X35101Y11508D02*
Y11902D01*
X34904Y10380D02*
X35298D01*
X35101Y10184D02*
Y10577D01*
X34678Y6141D02*
Y6534D01*
X34481Y6338D02*
X34875D01*
X34982Y3900D02*
X35375D01*
X35179Y3704D02*
Y4097D01*
X35611Y5024D02*
Y5418D01*
X35414Y5221D02*
X35808D01*
X35601Y6614D02*
Y7007D01*
X35404Y6810D02*
X35798D01*
X35611Y8253D02*
Y8647D01*
X35414Y8450D02*
X35808D01*
X38701Y17013D02*
Y17407D01*
X38504Y17210D02*
X38898D01*
X42404Y7810D02*
X42798D01*
X42601Y7613D02*
Y8007D01*
X29143Y4544D02*
X29537D01*
X29340Y4347D02*
Y4741D01*
X47004Y6610D02*
X47398D01*
X47201Y6413D02*
Y6807D01*
X47004Y8210D02*
X47398D01*
X47201Y8013D02*
Y8407D01*
X47004Y9810D02*
X47398D01*
X47201Y9614D02*
Y10007D01*
X46292Y3652D02*
Y4046D01*
X46095Y3849D02*
X46488D01*
X49781Y2654D02*
Y3047D01*
X49584Y2850D02*
X49978D01*
X31478Y12264D02*
Y12658D01*
X31281Y12461D02*
X31675D01*
X34481Y8164D02*
X34875D01*
X34678Y7967D02*
Y8360D01*
X32125Y7967D02*
Y8360D01*
X31928Y8164D02*
X32322D01*
X32161Y15061D02*
X32555D01*
X32358Y14864D02*
Y15258D01*
X29340Y6426D02*
Y6819D01*
X29143Y6622D02*
X29537D01*
D82*
X20266Y4081D02*
Y4868D01*
X18928Y4081D02*
Y4868D01*
X20266D01*
X18928Y4081D02*
X20266D01*
X20270Y5077D02*
Y5864D01*
X18932Y5077D02*
Y5864D01*
X20270D01*
X18932Y5077D02*
X20270D01*
X20266Y6071D02*
Y6858D01*
X18928Y6071D02*
Y6858D01*
X20266D01*
X18928Y6071D02*
X20266D01*
X20270Y8287D02*
Y9074D01*
X18932Y8287D02*
Y9074D01*
X20270D01*
X18932Y8287D02*
X20270D01*
Y11294D02*
Y12081D01*
X18932Y11294D02*
Y12081D01*
X20270D01*
X18932Y11294D02*
X20270D01*
Y9307D02*
Y10094D01*
X18932Y9307D02*
Y10094D01*
X20270D01*
X18932Y9307D02*
X20270D01*
X20270Y10284D02*
Y11072D01*
X18932Y10284D02*
Y11072D01*
X20270D01*
X18932Y10284D02*
X20270D01*
X24192Y10057D02*
Y10844D01*
X25530Y10057D02*
Y10844D01*
X24192Y10057D02*
X25530D01*
X24192Y10844D02*
X25530D01*
X27470Y9457D02*
Y10244D01*
X26132Y9457D02*
Y10244D01*
X27470D01*
X26132Y9457D02*
X27470D01*
X23152Y2807D02*
Y3594D01*
X24490Y2807D02*
Y3594D01*
X23152Y2807D02*
X24490D01*
X23152Y3594D02*
X24490D01*
X27490Y2807D02*
Y3594D01*
X26152Y2807D02*
Y3594D01*
X27490D01*
X26152Y2807D02*
X27490D01*
X25652Y6707D02*
Y7494D01*
X26990Y6707D02*
Y7494D01*
X25652Y6707D02*
X26990D01*
X25652Y7494D02*
X26990D01*
X23367Y7561D02*
X24155D01*
X23367Y8900D02*
X24155D01*
Y7561D02*
Y8900D01*
X23367Y7561D02*
Y8900D01*
X22047Y13261D02*
X22835D01*
X22047Y14600D02*
X22835D01*
Y13261D02*
Y14600D01*
X22047Y13261D02*
Y14600D01*
X20266Y14283D02*
Y15071D01*
X18928Y14283D02*
Y15071D01*
X20266D01*
X18928Y14283D02*
X20266D01*
X18807Y16820D02*
X19595D01*
X18807Y15481D02*
X19595D01*
X18807D02*
Y16820D01*
X19595Y15481D02*
Y16820D01*
X20270Y12285D02*
Y13072D01*
X18932Y12285D02*
Y13072D01*
X20270D01*
X18932Y12285D02*
X20270D01*
Y13286D02*
Y14073D01*
X18932Y13286D02*
Y14073D01*
X20270D01*
X18932Y13286D02*
X20270D01*
X24185Y6749D02*
Y7285D01*
X23905D02*
X24185D01*
X23905D02*
Y7564D01*
X23370D02*
X23905D01*
X23370D02*
Y10037D01*
X23905D01*
Y10316D01*
X24185D01*
Y10852D01*
X26657D01*
Y10316D02*
Y10852D01*
Y10316D02*
X26937D01*
Y10037D02*
Y10316D01*
Y10037D02*
X27472D01*
Y7564D02*
Y10037D01*
X26937Y7564D02*
X27472D01*
X26937Y7285D02*
Y7564D01*
X26657Y7285D02*
X26937D01*
X26657Y6749D02*
Y7285D01*
X24185Y6749D02*
X26657D01*
X25990Y2807D02*
Y3594D01*
X24652Y2807D02*
Y3594D01*
Y2807D02*
X25990D01*
X24652Y3594D02*
X25990D01*
X23152Y2807D02*
Y3594D01*
X24490Y2807D02*
Y3594D01*
X23152D02*
X24490D01*
X23152Y2807D02*
X24490D01*
X27490Y2807D02*
Y3594D01*
X26152Y2807D02*
Y3594D01*
Y2807D02*
X27490D01*
X26152Y3594D02*
X27490D01*
X24250Y15797D02*
Y16584D01*
X22912Y15797D02*
Y16584D01*
Y15797D02*
X24250D01*
X22912Y16584D02*
X24250D01*
X10877Y2561D02*
X11665D01*
X10877Y3900D02*
X11665D01*
X10877Y2561D02*
Y3900D01*
X11665Y2561D02*
Y3900D01*
X27800Y15767D02*
Y16554D01*
X26462Y15767D02*
Y16554D01*
Y15767D02*
X27800D01*
X26462Y16554D02*
X27800D01*
X35770Y11311D02*
Y12099D01*
X34432Y11311D02*
Y12099D01*
Y11311D02*
X35770D01*
X34432Y12099D02*
X35770D01*
X34432Y9987D02*
Y10774D01*
X35770Y9987D02*
Y10774D01*
X34432D02*
X35770D01*
X34432Y9987D02*
X35770D01*
X34285Y7007D02*
X35072D01*
X34285Y5668D02*
X35072D01*
Y7007D01*
X34285Y5668D02*
Y7007D01*
X35848Y3507D02*
Y4294D01*
X34509Y3507D02*
Y4294D01*
Y3507D02*
X35848D01*
X34509Y4294D02*
X35848D01*
X35217Y5891D02*
X36005D01*
X35217Y4552D02*
X36005D01*
Y5891D01*
X35217Y4552D02*
Y5891D01*
X35207Y7480D02*
X35995D01*
X35207Y6141D02*
X35995D01*
Y7480D01*
X35207Y6141D02*
Y7480D01*
X35217Y9120D02*
X36005D01*
X35217Y7781D02*
X36005D01*
Y9120D01*
X35217Y7781D02*
Y9120D01*
X37284Y15537D02*
X40118D01*
X37284Y18884D02*
X40118D01*
Y15537D02*
Y18884D01*
X37284Y15537D02*
Y18884D01*
X45347Y5291D02*
Y10330D01*
X39855Y5291D02*
Y10330D01*
X45347D01*
X39855Y5291D02*
X45347D01*
X28946Y3875D02*
Y5214D01*
X29734Y3875D02*
Y5214D01*
X28946Y3875D02*
X29734D01*
X28946Y5214D02*
X29734D01*
X46807Y5941D02*
Y7280D01*
X47595Y5941D02*
Y7280D01*
X46807Y5941D02*
X47595D01*
X46807Y7280D02*
X47595D01*
X46807Y7541D02*
Y8880D01*
X47595Y7541D02*
Y8880D01*
X46807Y7541D02*
X47595D01*
X46807Y8880D02*
X47595D01*
X46807Y9141D02*
Y10480D01*
X47595Y9141D02*
Y10480D01*
X46807Y9141D02*
X47595D01*
X46807Y10480D02*
X47595D01*
X45622Y3455D02*
X46961D01*
X45622Y4243D02*
X46961D01*
Y3455D02*
Y4243D01*
X45622Y3455D02*
Y4243D01*
X49112Y2457D02*
X50450D01*
X49112Y3244D02*
X50450D01*
Y2457D02*
Y3244D01*
X49112Y2457D02*
Y3244D01*
X30809Y12067D02*
X32147D01*
X30809Y12855D02*
X32147D01*
X30809Y12067D02*
Y12855D01*
X32147Y12067D02*
Y12855D01*
X34285Y7494D02*
Y8833D01*
X35072Y7494D02*
Y8833D01*
X34285Y7494D02*
X35072D01*
X34285Y8833D02*
X35072D01*
X31456Y7770D02*
X32794D01*
X31456Y8557D02*
X32794D01*
Y7770D02*
Y8557D01*
X31456Y7770D02*
Y8557D01*
X31964Y14392D02*
Y15730D01*
X32752Y14392D02*
Y15730D01*
X31964D02*
X32752D01*
X31964Y14392D02*
X32752D01*
X28897Y5638D02*
X29783D01*
X28897Y7607D02*
X29783D01*
X28897Y5638D02*
Y7607D01*
X29783Y5638D02*
Y7607D01*
X45962Y7228D02*
Y9393D01*
X43040Y7228D02*
Y9393D01*
Y7228D02*
X45962D01*
X43040Y9393D02*
X45962D01*
X44503Y2251D02*
Y4770D01*
X40699Y2251D02*
X44503D01*
X40699D02*
Y4770D01*
X44503D01*
X47888Y6112D02*
Y10309D01*
X51314D01*
Y6112D02*
Y10309D01*
X47888Y6112D02*
X51314D01*
X41700Y12766D02*
X44964D01*
X41700D02*
Y15027D01*
X41099D02*
X41700D01*
X41099D02*
Y19492D01*
X45564D01*
Y15027D02*
Y19492D01*
X44964Y15027D02*
X45564D01*
X44964Y12766D02*
Y15027D01*
M02*
