G04*
G04 #@! TF.GenerationSoftware,Altium Limited,Altium Designer,22.4.2 (48)*
G04*
G04 Layer_Color=255*
%FSLAX24Y24*%
%MOIN*%
G70*
G04*
G04 #@! TF.SameCoordinates,3D4B7757-4479-4088-A00E-F10E6AE17A54*
G04*
G04*
G04 #@! TF.FilePolarity,Positive*
G04*
G01*
G75*
G04:AMPARAMS|DCode=21|XSize=11mil|YSize=61.4mil|CornerRadius=2.8mil|HoleSize=0mil|Usage=FLASHONLY|Rotation=180.000|XOffset=0mil|YOffset=0mil|HoleType=Round|Shape=RoundedRectangle|*
%AMROUNDEDRECTD21*
21,1,0.0110,0.0559,0,0,180.0*
21,1,0.0055,0.0614,0,0,180.0*
1,1,0.0055,-0.0028,0.0280*
1,1,0.0055,0.0028,0.0280*
1,1,0.0055,0.0028,-0.0280*
1,1,0.0055,-0.0028,-0.0280*
%
%ADD21ROUNDEDRECTD21*%
G04:AMPARAMS|DCode=22|XSize=11mil|YSize=61.4mil|CornerRadius=2.8mil|HoleSize=0mil|Usage=FLASHONLY|Rotation=90.000|XOffset=0mil|YOffset=0mil|HoleType=Round|Shape=RoundedRectangle|*
%AMROUNDEDRECTD22*
21,1,0.0110,0.0559,0,0,90.0*
21,1,0.0055,0.0614,0,0,90.0*
1,1,0.0055,0.0280,0.0028*
1,1,0.0055,0.0280,-0.0028*
1,1,0.0055,-0.0280,-0.0028*
1,1,0.0055,-0.0280,0.0028*
%
%ADD22ROUNDEDRECTD22*%
%ADD23R,0.0472X0.0551*%
%ADD24R,0.0551X0.0472*%
%ADD25R,0.0689X0.0394*%
G04:AMPARAMS|DCode=26|XSize=77.6mil|YSize=23.2mil|CornerRadius=2.9mil|HoleSize=0mil|Usage=FLASHONLY|Rotation=0.000|XOffset=0mil|YOffset=0mil|HoleType=Round|Shape=RoundedRectangle|*
%AMROUNDEDRECTD26*
21,1,0.0776,0.0174,0,0,0.0*
21,1,0.0718,0.0232,0,0,0.0*
1,1,0.0058,0.0359,-0.0087*
1,1,0.0058,-0.0359,-0.0087*
1,1,0.0058,-0.0359,0.0087*
1,1,0.0058,0.0359,0.0087*
%
%ADD26ROUNDEDRECTD26*%
%ADD38C,0.0600*%
%ADD52C,0.0591*%
%ADD53R,0.0591X0.0591*%
%ADD54R,0.1000X0.0500*%
%ADD55O,0.1000X0.0500*%
%ADD56C,0.0520*%
%ADD57R,0.0591X0.0591*%
%ADD58C,0.0512*%
%ADD59C,0.0750*%
%ADD60R,0.0531X0.0531*%
%ADD61C,0.0531*%
%ADD62P,0.0704X8X292.5*%
%ADD63C,0.0650*%
%ADD64R,0.0650X0.0650*%
%ADD65C,0.0650*%
%ADD66R,0.1600X0.1000*%
%ADD67R,0.1000X0.1600*%
D21*
X24338Y7155D02*
D03*
X24535D02*
D03*
X24732D02*
D03*
X24929D02*
D03*
X25126D02*
D03*
X25323D02*
D03*
X25519D02*
D03*
X25716D02*
D03*
X25913D02*
D03*
X26110D02*
D03*
X26307D02*
D03*
X26504D02*
D03*
Y10446D02*
D03*
X26307D02*
D03*
X26110D02*
D03*
X25913D02*
D03*
X25716D02*
D03*
X25519D02*
D03*
X25323D02*
D03*
X25126D02*
D03*
X24929D02*
D03*
X24732D02*
D03*
X24535D02*
D03*
X24338D02*
D03*
D22*
X27067Y7718D02*
D03*
Y7915D02*
D03*
Y8111D02*
D03*
Y8308D02*
D03*
Y8505D02*
D03*
Y8702D02*
D03*
Y8899D02*
D03*
Y9096D02*
D03*
Y9292D02*
D03*
Y9489D02*
D03*
Y9686D02*
D03*
Y9883D02*
D03*
X23775D02*
D03*
Y9686D02*
D03*
Y9489D02*
D03*
Y9292D02*
D03*
Y9096D02*
D03*
Y8899D02*
D03*
Y8702D02*
D03*
Y8505D02*
D03*
Y8308D02*
D03*
Y8111D02*
D03*
Y7915D02*
D03*
Y7718D02*
D03*
D23*
X25754Y3200D02*
D03*
X24888D02*
D03*
X23388D02*
D03*
X24254D02*
D03*
X27254D02*
D03*
X26388D02*
D03*
X24014Y16190D02*
D03*
X23148D02*
D03*
X27564Y16160D02*
D03*
X26698D02*
D03*
X35534Y11705D02*
D03*
X34668D02*
D03*
Y10380D02*
D03*
X35534D02*
D03*
X35612Y3900D02*
D03*
X34746D02*
D03*
X46725Y3849D02*
D03*
X45859D02*
D03*
X50214Y2850D02*
D03*
X49348D02*
D03*
X32558Y8164D02*
D03*
X31692D02*
D03*
D24*
X11271Y2797D02*
D03*
Y3663D02*
D03*
X34678Y6771D02*
D03*
Y5905D02*
D03*
X35611Y5654D02*
D03*
Y4788D02*
D03*
X35601Y7243D02*
D03*
Y6377D02*
D03*
X35611Y8883D02*
D03*
Y8017D02*
D03*
X29340Y4111D02*
D03*
Y4977D02*
D03*
X47201Y6177D02*
D03*
Y7043D02*
D03*
Y7777D02*
D03*
Y8643D02*
D03*
Y9377D02*
D03*
Y10243D02*
D03*
X34678Y7731D02*
D03*
Y8597D02*
D03*
D25*
X29340Y5953D02*
D03*
Y7292D02*
D03*
D26*
X45475Y9060D02*
D03*
Y8560D02*
D03*
Y8060D02*
D03*
Y7560D02*
D03*
X43527D02*
D03*
Y8060D02*
D03*
Y8560D02*
D03*
Y9060D02*
D03*
D38*
X10221Y14830D02*
D03*
Y13830D02*
D03*
Y12830D02*
D03*
Y11830D02*
D03*
Y10830D02*
D03*
Y9830D02*
D03*
Y8830D02*
D03*
Y7830D02*
D03*
D52*
X26851Y11970D02*
D03*
X25851D02*
D03*
X24851D02*
D03*
X14984Y5470D02*
D03*
Y4470D02*
D03*
X17984Y6470D02*
D03*
Y5470D02*
D03*
Y4470D02*
D03*
X25861Y17168D02*
D03*
X24861Y16168D02*
D03*
X25861D02*
D03*
X24861Y15168D02*
D03*
X25861D02*
D03*
X24845Y13492D02*
D03*
X25845D02*
D03*
X26845D02*
D03*
X10221Y2243D02*
D03*
Y3243D02*
D03*
X35615Y12935D02*
D03*
D53*
X23851Y11970D02*
D03*
X14984Y6470D02*
D03*
X23845Y13492D02*
D03*
X34615Y12935D02*
D03*
D54*
X15041Y15680D02*
D03*
X33561Y3900D02*
D03*
D55*
X15041Y14680D02*
D03*
Y13680D02*
D03*
Y12680D02*
D03*
Y11680D02*
D03*
Y10680D02*
D03*
Y9680D02*
D03*
Y8680D02*
D03*
X18041Y15680D02*
D03*
Y14680D02*
D03*
Y13680D02*
D03*
Y12680D02*
D03*
Y11680D02*
D03*
Y10680D02*
D03*
Y9680D02*
D03*
Y8680D02*
D03*
X30561Y6900D02*
D03*
Y5900D02*
D03*
Y4900D02*
D03*
Y3900D02*
D03*
X33561Y6900D02*
D03*
Y5900D02*
D03*
Y4900D02*
D03*
D56*
X26271Y4700D02*
D03*
X24371D02*
D03*
D57*
X24861Y17168D02*
D03*
X10221Y4243D02*
D03*
D58*
X24611Y2100D02*
D03*
X25831D02*
D03*
D59*
X32358Y13761D02*
D03*
X30478Y11051D02*
D03*
X32358D02*
D03*
X30478Y13761D02*
D03*
D60*
X48017Y13610D02*
D03*
X37717Y11310D02*
D03*
Y13610D02*
D03*
X41117Y11410D02*
D03*
X44665D02*
D03*
D61*
X49985Y13610D02*
D03*
X39685Y11310D02*
D03*
Y13610D02*
D03*
X43085Y11410D02*
D03*
X46634D02*
D03*
D62*
X48401Y4810D02*
D03*
X50401D02*
D03*
D63*
X48401Y3810D02*
D03*
X50401D02*
D03*
D64*
X49601Y7210D02*
D03*
D65*
Y9210D02*
D03*
D66*
X47601Y19010D02*
D03*
D67*
X49101Y17010D02*
D03*
X46601D02*
D03*
M02*
