G04*
G04 #@! TF.GenerationSoftware,Altium Limited,Altium Designer,22.4.2 (48)*
G04*
G04 Layer_Color=65535*
%FSLAX24Y24*%
%MOIN*%
G70*
G04*
G04 #@! TF.SameCoordinates,3D4B7757-4479-4088-A00E-F10E6AE17A54*
G04*
G04*
G04 #@! TF.FilePolarity,Positive*
G04*
G01*
G75*
%ADD10C,0.0100*%
%ADD11C,0.0079*%
%ADD12C,0.0098*%
%ADD13C,0.0236*%
%ADD14C,0.0060*%
%ADD15C,0.0160*%
%ADD16C,0.0040*%
%ADD17C,0.0050*%
%ADD18C,0.0070*%
%ADD19C,0.0080*%
%ADD20R,0.0610X0.0217*%
D10*
X16291Y16180D02*
G03*
X16791Y16180I250J0D01*
G01*
X32311Y3400D02*
G03*
X31811Y3400I-250J0D01*
G01*
X15891Y16180D02*
X16291D01*
X16791D02*
X17191D01*
Y8180D02*
Y16180D01*
X15891Y8180D02*
X17191D01*
X15891D02*
Y16180D01*
X32711Y3400D02*
Y7400D01*
X31411D02*
X32711D01*
X31411Y3400D02*
Y7400D01*
Y3400D02*
X31811D01*
X32311D02*
X32711D01*
X4481Y9361D02*
X3881D01*
X4081Y9561D01*
X3881Y9761D01*
X4481D01*
Y9961D02*
X4081D01*
X3881Y10161D01*
X4081Y10361D01*
X4481D01*
X4181D01*
Y9961D01*
X3881Y10561D02*
X4481Y10961D01*
X3881D02*
X4481Y10561D01*
X3981Y11161D02*
X3881Y11260D01*
Y11460D01*
X3981Y11560D01*
X4081D01*
X4181Y11460D01*
Y11360D01*
Y11460D01*
X4281Y11560D01*
X4381D01*
X4481Y11460D01*
Y11260D01*
X4381Y11161D01*
X4481Y11760D02*
Y11960D01*
Y11860D01*
X3881D01*
X3981Y11760D01*
Y12260D02*
X3881Y12360D01*
Y12560D01*
X3981Y12660D01*
X4081D01*
X4181Y12560D01*
X4281Y12660D01*
X4381D01*
X4481Y12560D01*
Y12360D01*
X4381Y12260D01*
X4281D01*
X4181Y12360D01*
X4081Y12260D01*
X3981D01*
X4181Y12360D02*
Y12560D01*
X3881Y13260D02*
X3981Y13060D01*
X4181Y12860D01*
X4381D01*
X4481Y12960D01*
Y13160D01*
X4381Y13260D01*
X4281D01*
X4181Y13160D01*
Y12860D01*
X3881Y13860D02*
Y13460D01*
X4181D01*
X4081Y13660D01*
Y13760D01*
X4181Y13860D01*
X4381D01*
X4481Y13760D01*
Y13560D01*
X4381Y13460D01*
X5441Y9961D02*
X4841D01*
X5041Y10161D01*
X4841Y10361D01*
X5441D01*
Y10661D02*
Y10861D01*
X5341Y10961D01*
X5141D01*
X5041Y10861D01*
Y10661D01*
X5141Y10561D01*
X5341D01*
X5441Y10661D01*
X4841Y11560D02*
X5441D01*
Y11260D01*
X5341Y11161D01*
X5141D01*
X5041Y11260D01*
Y11560D01*
Y11760D02*
X5341D01*
X5441Y11860D01*
Y12160D01*
X5041D01*
X5441Y12360D02*
Y12560D01*
Y12460D01*
X4841D01*
Y12360D01*
X5441Y13160D02*
Y12960D01*
X5341Y12860D01*
X5141D01*
X5041Y12960D01*
Y13160D01*
X5141Y13260D01*
X5241D01*
Y12860D01*
X23411Y12810D02*
Y13410D01*
X23711D01*
X23811Y13310D01*
Y13110D01*
X23711Y13010D01*
X23411D01*
X24411Y13410D02*
X24011D01*
Y13110D01*
X24211Y13210D01*
X24311D01*
X24411Y13110D01*
Y12910D01*
X24311Y12810D01*
X24111D01*
X24011Y12910D01*
X24741Y1120D02*
Y1020D01*
X24941Y820D01*
X25141Y1020D01*
Y1120D01*
X24941Y820D02*
Y520D01*
X25741D02*
X25341D01*
X25741Y920D01*
Y1020D01*
X25641Y1120D01*
X25441D01*
X25341Y1020D01*
X23171Y6600D02*
Y6500D01*
X23371Y6300D01*
X23571Y6500D01*
Y6600D01*
X23371Y6300D02*
Y6000D01*
X23771D02*
X23971D01*
X23871D01*
Y6600D01*
X23771Y6500D01*
X23461Y11760D02*
Y11260D01*
X23561Y11160D01*
X23761D01*
X23861Y11260D01*
Y11760D01*
X24061Y11160D02*
X24261D01*
X24161D01*
Y11760D01*
X24061Y11660D01*
X27291Y2390D02*
X27191Y2490D01*
X26991D01*
X26891Y2390D01*
Y1990D01*
X26991Y1890D01*
X27191D01*
X27291Y1990D01*
X27491D02*
X27591Y1890D01*
X27791D01*
X27891Y1990D01*
Y2390D01*
X27791Y2490D01*
X27591D01*
X27491Y2390D01*
Y2290D01*
X27591Y2190D01*
X27891D01*
X21911Y2430D02*
X21811Y2530D01*
X21611D01*
X21511Y2430D01*
Y2030D01*
X21611Y1930D01*
X21811D01*
X21911Y2030D01*
X22111Y2530D02*
X22511D01*
Y2430D01*
X22111Y2030D01*
Y1930D01*
X23641Y1940D02*
X23241D01*
X23641Y2340D01*
Y2440D01*
X23541Y2540D01*
X23341D01*
X23241Y2440D01*
X42871Y10200D02*
Y10100D01*
X42771D01*
X42971D01*
X42871D01*
Y9800D01*
X42971Y9700D01*
X43371Y10100D02*
X43571D01*
X43671Y10000D01*
Y9700D01*
X43371D01*
X43271Y9800D01*
X43371Y9900D01*
X43671D01*
X43871Y9700D02*
Y10100D01*
X44171D01*
X44270Y10000D01*
Y9700D01*
X44470D02*
X44670D01*
X44570D01*
Y10300D01*
X44470Y10200D01*
X15151Y8160D02*
X15051Y8260D01*
X14851D01*
X14751Y8160D01*
Y8060D01*
X14851Y7960D01*
X15051D01*
X15151Y7860D01*
Y7760D01*
X15051Y7660D01*
X14851D01*
X14751Y7760D01*
X15751Y7660D02*
X15351D01*
X15751Y8060D01*
Y8160D01*
X15651Y8260D01*
X15451D01*
X15351Y8160D01*
X15001Y17030D02*
X14901Y17130D01*
X14701D01*
X14601Y17030D01*
Y16930D01*
X14701Y16830D01*
X14901D01*
X15001Y16730D01*
Y16630D01*
X14901Y16530D01*
X14701D01*
X14601Y16630D01*
X15201Y16530D02*
X15401D01*
X15301D01*
Y17130D01*
X15201Y17030D01*
X35978Y3300D02*
Y2700D01*
X35679D01*
X35579Y2800D01*
Y3000D01*
X35679Y3100D01*
X35978D01*
X35779D02*
X35579Y3300D01*
X35379D02*
X35179D01*
X35279D01*
Y2700D01*
X35379Y2800D01*
X34879Y3300D02*
X34679D01*
X34779D01*
Y2700D01*
X34879Y2800D01*
X37691Y5485D02*
Y4886D01*
X37391D01*
X37291Y4986D01*
Y5186D01*
X37391Y5286D01*
X37691D01*
X37491D02*
X37291Y5485D01*
X37091D02*
X36891D01*
X36991D01*
Y4886D01*
X37091Y4986D01*
X36591D02*
X36491Y4886D01*
X36291D01*
X36191Y4986D01*
Y5386D01*
X36291Y5485D01*
X36491D01*
X36591Y5386D01*
Y4986D01*
X37321Y7160D02*
Y6560D01*
X37021D01*
X36921Y6660D01*
Y6860D01*
X37021Y6960D01*
X37321D01*
X37121D02*
X36921Y7160D01*
X36721Y7060D02*
X36621Y7160D01*
X36421D01*
X36321Y7060D01*
Y6660D01*
X36421Y6560D01*
X36621D01*
X36721Y6660D01*
Y6760D01*
X36621Y6860D01*
X36321D01*
X36802Y7968D02*
X36202D01*
Y8268D01*
X36302Y8368D01*
X36502D01*
X36602Y8268D01*
Y7968D01*
Y8168D02*
X36802Y8368D01*
X36302Y8568D02*
X36202Y8668D01*
Y8868D01*
X36302Y8968D01*
X36402D01*
X36502Y8868D01*
X36602Y8968D01*
X36702D01*
X36802Y8868D01*
Y8668D01*
X36702Y8568D01*
X36602D01*
X36502Y8668D01*
X36402Y8568D01*
X36302D01*
X36502Y8668D02*
Y8868D01*
X31511Y8870D02*
Y9470D01*
X31811D01*
X31911Y9370D01*
Y9170D01*
X31811Y9070D01*
X31511D01*
X31711D02*
X31911Y8870D01*
X32511Y9470D02*
X32111D01*
Y9170D01*
X32311Y9270D01*
X32411D01*
X32511Y9170D01*
Y8970D01*
X32411Y8870D01*
X32211D01*
X32111Y8970D01*
X34371Y7350D02*
Y7950D01*
X34671D01*
X34771Y7850D01*
Y7650D01*
X34671Y7550D01*
X34371D01*
X34571D02*
X34771Y7350D01*
X34971Y7850D02*
X35071Y7950D01*
X35271D01*
X35371Y7850D01*
Y7750D01*
X35271Y7650D01*
X35171D01*
X35271D01*
X35371Y7550D01*
Y7450D01*
X35271Y7350D01*
X35071D01*
X34971Y7450D01*
X34371Y9170D02*
Y9770D01*
X34671D01*
X34771Y9670D01*
Y9470D01*
X34671Y9370D01*
X34371D01*
X34571D02*
X34771Y9170D01*
X35371D02*
X34971D01*
X35371Y9570D01*
Y9670D01*
X35271Y9770D01*
X35071D01*
X34971Y9670D01*
X34171Y13770D02*
Y14370D01*
X34471D01*
X34571Y14270D01*
Y14070D01*
X34471Y13970D01*
X34171D01*
X35171Y14370D02*
X34971Y14270D01*
X34771Y14070D01*
Y13870D01*
X34871Y13770D01*
X35071D01*
X35171Y13870D01*
Y13970D01*
X35071Y14070D01*
X34771D01*
X9781Y5080D02*
Y5680D01*
X10081D01*
X10181Y5580D01*
Y5380D01*
X10081Y5280D01*
X9781D01*
X10681Y5080D02*
Y5680D01*
X10381Y5380D01*
X10781D01*
X24421Y18550D02*
Y19150D01*
X24721D01*
X24821Y19050D01*
Y18850D01*
X24721Y18750D01*
X24421D01*
X25021Y19050D02*
X25121Y19150D01*
X25321D01*
X25421Y19050D01*
Y18950D01*
X25321Y18850D01*
X25221D01*
X25321D01*
X25421Y18750D01*
Y18650D01*
X25321Y18550D01*
X25121D01*
X25021Y18650D01*
X23401Y14330D02*
Y14930D01*
X23701D01*
X23801Y14830D01*
Y14630D01*
X23701Y14530D01*
X23401D01*
X24401Y14330D02*
X24001D01*
X24401Y14730D01*
Y14830D01*
X24301Y14930D01*
X24101D01*
X24001Y14830D01*
X47981Y10620D02*
Y11220D01*
X48281D01*
X48381Y11120D01*
Y10920D01*
X48281Y10820D01*
X47981D01*
X48581Y10620D02*
X48781D01*
X48681D01*
Y11220D01*
X48581Y11120D01*
X771Y16680D02*
Y17280D01*
X971Y17080D01*
X1171Y17280D01*
Y16680D01*
X1371D02*
Y17080D01*
X1571Y17280D01*
X1771Y17080D01*
Y16680D01*
Y16980D01*
X1371D01*
X1971Y17280D02*
X2370Y16680D01*
Y17280D02*
X1971Y16680D01*
X2570D02*
X2770D01*
X2670D01*
Y17280D01*
X2570Y17180D01*
X49801Y6070D02*
Y5470D01*
X50201D01*
X50801D02*
X50401D01*
X50801Y5870D01*
Y5970D01*
X50701Y6070D01*
X50501D01*
X50401Y5970D01*
X47731Y6070D02*
Y5470D01*
X48131D01*
X48331D02*
X48531D01*
X48431D01*
Y6070D01*
X48331Y5970D01*
X46561Y20450D02*
X46361D01*
X46461D01*
Y19950D01*
X46361Y19850D01*
X46261D01*
X46161Y19950D01*
X46761Y19850D02*
Y20250D01*
X46961Y20450D01*
X47161Y20250D01*
Y19850D01*
Y20150D01*
X46761D01*
X47760Y20350D02*
X47660Y20450D01*
X47461D01*
X47361Y20350D01*
Y19950D01*
X47461Y19850D01*
X47660D01*
X47760Y19950D01*
X47960Y20450D02*
Y19850D01*
Y20050D01*
X48360Y20450D01*
X48060Y20150D01*
X48360Y19850D01*
X49160Y20450D02*
Y19850D01*
X49460D01*
X49560Y19950D01*
Y20350D01*
X49460Y20450D01*
X49160D01*
X50160Y20350D02*
X50060Y20450D01*
X49860D01*
X49760Y20350D01*
Y19950D01*
X49860Y19850D01*
X50060D01*
X50160Y19950D01*
X50360Y19850D02*
X50560D01*
X50460D01*
Y20450D01*
X50360Y20350D01*
X34891Y11580D02*
X34791Y11680D01*
X34591D01*
X34491Y11580D01*
Y11180D01*
X34591Y11080D01*
X34791D01*
X34891Y11180D01*
X35091Y11080D02*
X35291D01*
X35191D01*
Y11680D01*
X35091Y11580D01*
X35591Y11680D02*
X35990D01*
Y11580D01*
X35591Y11180D01*
Y11080D01*
X44861Y13040D02*
X44761Y13140D01*
X44561D01*
X44461Y13040D01*
Y12640D01*
X44561Y12540D01*
X44761D01*
X44861Y12640D01*
X45461Y13140D02*
X45261Y13040D01*
X45061Y12840D01*
Y12640D01*
X45161Y12540D01*
X45361D01*
X45461Y12640D01*
Y12740D01*
X45361Y12840D01*
X45061D01*
X37911Y15240D02*
X37811Y15340D01*
X37611D01*
X37511Y15240D01*
Y14840D01*
X37611Y14740D01*
X37811D01*
X37911Y14840D01*
X38511Y15340D02*
X38111D01*
Y15040D01*
X38311Y15140D01*
X38411D01*
X38511Y15040D01*
Y14840D01*
X38411Y14740D01*
X38211D01*
X38111Y14840D01*
X37911Y12940D02*
X37811Y13040D01*
X37611D01*
X37511Y12940D01*
Y12540D01*
X37611Y12440D01*
X37811D01*
X37911Y12540D01*
X38411Y12440D02*
Y13040D01*
X38111Y12740D01*
X38511D01*
X41311Y13040D02*
X41211Y13140D01*
X41011D01*
X40911Y13040D01*
Y12640D01*
X41011Y12540D01*
X41211D01*
X41311Y12640D01*
X41511Y13040D02*
X41611Y13140D01*
X41811D01*
X41911Y13040D01*
Y12940D01*
X41811Y12840D01*
X41711D01*
X41811D01*
X41911Y12740D01*
Y12640D01*
X41811Y12540D01*
X41611D01*
X41511Y12640D01*
X48211Y15240D02*
X48111Y15340D01*
X47911D01*
X47811Y15240D01*
Y14840D01*
X47911Y14740D01*
X48111D01*
X48211Y14840D01*
X48811Y14740D02*
X48411D01*
X48811Y15140D01*
Y15240D01*
X48711Y15340D01*
X48511D01*
X48411Y15240D01*
X30161Y15080D02*
Y14480D01*
X30461D01*
X30561Y14580D01*
Y14680D01*
X30461Y14780D01*
X30161D01*
X30461D01*
X30561Y14880D01*
Y14980D01*
X30461Y15080D01*
X30161D01*
X30761D02*
X31161D01*
X30961D01*
Y14480D01*
X31361D02*
X31561D01*
X31461D01*
Y15080D01*
X31361Y14980D01*
X33691Y11910D02*
X33791Y12010D01*
X33991D01*
X34091Y11910D01*
Y11810D01*
X33991Y11710D01*
X33891D01*
X33991D01*
X34091Y11610D01*
Y11510D01*
X33991Y11410D01*
X33791D01*
X33691Y11510D01*
X10971Y4240D02*
Y4840D01*
X11271D01*
X11371Y4740D01*
Y4540D01*
X11271Y4440D01*
X10971D01*
X11171D02*
X11371Y4240D01*
X11971D02*
X11571D01*
X11971Y4640D01*
Y4740D01*
X11871Y4840D01*
X11671D01*
X11571Y4740D01*
X12171D02*
X12271Y4840D01*
X12470D01*
X12570Y4740D01*
Y4640D01*
X12470Y4540D01*
X12570Y4440D01*
Y4340D01*
X12470Y4240D01*
X12271D01*
X12171Y4340D01*
Y4440D01*
X12271Y4540D01*
X12171Y4640D01*
Y4740D01*
X12271Y4540D02*
X12470D01*
X26521Y16860D02*
Y17460D01*
X26821D01*
X26921Y17360D01*
Y17160D01*
X26821Y17060D01*
X26521D01*
X26721D02*
X26921Y16860D01*
X27521D02*
X27121D01*
X27521Y17260D01*
Y17360D01*
X27421Y17460D01*
X27221D01*
X27121Y17360D01*
X27721Y17460D02*
X28120D01*
Y17360D01*
X27721Y16960D01*
Y16860D01*
X22971Y16890D02*
Y17490D01*
X23271D01*
X23371Y17390D01*
Y17190D01*
X23271Y17090D01*
X22971D01*
X23171D02*
X23371Y16890D01*
X23971D02*
X23571D01*
X23971Y17290D01*
Y17390D01*
X23871Y17490D01*
X23671D01*
X23571Y17390D01*
X24570Y17490D02*
X24371Y17390D01*
X24171Y17190D01*
Y16990D01*
X24271Y16890D01*
X24470D01*
X24570Y16990D01*
Y17090D01*
X24470Y17190D01*
X24171D01*
X49171Y3550D02*
Y4150D01*
X49471D01*
X49571Y4050D01*
Y3850D01*
X49471Y3750D01*
X49171D01*
X49371D02*
X49571Y3550D01*
X50171D02*
X49771D01*
X50171Y3950D01*
Y4050D01*
X50071Y4150D01*
X49871D01*
X49771Y4050D01*
X50770Y4150D02*
X50371D01*
Y3850D01*
X50571Y3950D01*
X50670D01*
X50770Y3850D01*
Y3650D01*
X50670Y3550D01*
X50471D01*
X50371Y3650D01*
X45681Y4550D02*
Y5150D01*
X45981D01*
X46081Y5050D01*
Y4850D01*
X45981Y4750D01*
X45681D01*
X45881D02*
X46081Y4550D01*
X46681D02*
X46281D01*
X46681Y4950D01*
Y5050D01*
X46581Y5150D01*
X46381D01*
X46281Y5050D01*
X47180Y4550D02*
Y5150D01*
X46881Y4850D01*
X47280D01*
X46901Y10820D02*
Y11420D01*
X47201D01*
X47301Y11320D01*
Y11120D01*
X47201Y11020D01*
X46901D01*
X47101D02*
X47301Y10820D01*
X47501Y11420D02*
X47901D01*
Y11320D01*
X47501Y10920D01*
Y10820D01*
X46901Y9220D02*
Y9820D01*
X47201D01*
X47301Y9720D01*
Y9520D01*
X47201Y9420D01*
X46901D01*
X47101D02*
X47301Y9220D01*
X47901Y9820D02*
X47701Y9720D01*
X47501Y9520D01*
Y9320D01*
X47601Y9220D01*
X47801D01*
X47901Y9320D01*
Y9420D01*
X47801Y9520D01*
X47501D01*
X46901Y7620D02*
Y8220D01*
X47201D01*
X47301Y8120D01*
Y7920D01*
X47201Y7820D01*
X46901D01*
X47101D02*
X47301Y7620D01*
X47801D02*
Y8220D01*
X47501Y7920D01*
X47901D01*
X30421Y8350D02*
X30221D01*
X30121Y8250D01*
Y7850D01*
X30221Y7750D01*
X30421D01*
X30521Y7850D01*
Y8250D01*
X30421Y8350D01*
X30721Y7750D02*
Y8350D01*
X31021D01*
X31121Y8250D01*
Y8050D01*
X31021Y7950D01*
X30721D01*
X31321Y7750D02*
X31521D01*
X31421D01*
Y8350D01*
X31321Y8250D01*
X29041Y5550D02*
Y6150D01*
X29341D01*
X29441Y6050D01*
Y5850D01*
X29341Y5750D01*
X29041D01*
X29241D02*
X29441Y5550D01*
X29641D02*
X29841D01*
X29741D01*
Y6150D01*
X29641Y6050D01*
X28991Y8420D02*
X29391Y8020D01*
X28991D02*
X29391Y8420D01*
X28991Y8220D02*
X29391D01*
X29191Y8020D02*
Y8420D01*
X29591Y7920D02*
X29791D01*
X29691D01*
Y8520D01*
X29591Y8420D01*
D11*
X16234Y7321D02*
G03*
X16734Y7321I250J0D01*
G01*
X24757Y1704D02*
G03*
X25680Y1698I464J396D01*
G01*
X25676Y2503D02*
G03*
X24753Y2496I-459J-402D01*
G01*
X24319Y6438D02*
G03*
X24319Y6438I-59J0D01*
G01*
X42790Y9293D02*
G03*
X42790Y9293I-39J0D01*
G01*
X48337Y13187D02*
G03*
X49717Y13283I664J423D01*
G01*
Y13938D02*
G03*
X48337Y14034I-716J-327D01*
G01*
X38037Y10887D02*
G03*
X39417Y10983I664J423D01*
G01*
Y11638D02*
G03*
X38037Y11734I-716J-327D01*
G01*
X39417Y13938D02*
G03*
X38037Y14034I-716J-327D01*
G01*
Y13187D02*
G03*
X39417Y13283I664J423D01*
G01*
X42817Y11738D02*
G03*
X41437Y11834I-716J-327D01*
G01*
Y10987D02*
G03*
X42817Y11083I664J423D01*
G01*
X46366Y11738D02*
G03*
X44985Y11834I-716J-327D01*
G01*
Y10987D02*
G03*
X46366Y11083I664J423D01*
G01*
X23351Y11470D02*
Y12470D01*
X27351D01*
X23351Y11470D02*
X27351D01*
Y12470D01*
X15441Y3620D02*
Y7321D01*
X17527Y3620D02*
Y7321D01*
X15441D02*
X16234D01*
X16734D02*
X17527D01*
X15441Y3620D02*
X17527D01*
X24361Y14668D02*
X26361D01*
X24361Y17668D02*
X26361D01*
Y14668D02*
Y17668D01*
X24361Y14668D02*
Y17668D01*
Y14668D02*
Y16585D01*
X27345Y12992D02*
Y13992D01*
X23345Y12992D02*
X27345D01*
X23345Y13992D02*
X27345D01*
X23345Y12992D02*
Y13992D01*
X9721Y4743D02*
X10721D01*
Y1743D02*
Y4743D01*
X9721Y1743D02*
X10721D01*
X9721D02*
Y4743D01*
X34115Y13435D02*
X36115D01*
X34115Y12435D02*
Y13435D01*
Y12435D02*
X36115D01*
Y13435D01*
X29035Y6288D02*
Y6957D01*
X29645Y6288D02*
Y6957D01*
X29035Y6288D02*
X29645D01*
D12*
X15033Y6982D02*
G03*
X15033Y6982I-49J0D01*
G01*
D13*
X15953Y6927D02*
G03*
X15953Y6927I-118J0D01*
G01*
D14*
X26521Y4050D02*
G03*
X26521Y5350I0J650D01*
G01*
X24121D02*
G03*
X24121Y4050I0J-650D01*
G01*
X31988Y12381D02*
G03*
X31988Y12381I-500J0D01*
G01*
X24821Y4700D02*
X25071D01*
X25571D02*
X25821D01*
X25071Y4400D02*
Y4700D01*
Y5000D01*
X25571Y4400D02*
Y4700D01*
Y5000D01*
X25221Y4400D02*
Y5000D01*
Y4400D02*
X25421D01*
Y5000D01*
X25221D02*
X25421D01*
X24121Y5350D02*
X26521D01*
X24121Y4050D02*
X26521D01*
X30938Y13481D02*
X31888D01*
X30438Y11631D02*
Y13171D01*
X30938Y11231D02*
X31888D01*
X32438Y11631D02*
Y13181D01*
D15*
X26521Y3850D02*
G03*
X26521Y5550I0J850D01*
G01*
X24121D02*
G03*
X24121Y3850I0J-850D01*
G01*
Y5550D02*
X26521D01*
X24121Y3850D02*
X26521D01*
D16*
X48992Y4310D02*
G03*
X48992Y4310I-591J0D01*
G01*
X50992D02*
G03*
X50992Y4310I-591J0D01*
G01*
X48401Y4110D02*
X48901D01*
X48401D02*
X48901Y4510D01*
X47901Y4110D02*
X48401D01*
X47901Y4510D02*
X48401Y4110D01*
X47901Y4510D02*
X48901D01*
X50401Y4110D02*
X50901D01*
X50401D02*
X50901Y4510D01*
X49901Y4110D02*
X50401D01*
X49901Y4510D02*
X50401Y4110D01*
X49901Y4510D02*
X50901D01*
D17*
X24004Y7383D02*
Y7537D01*
Y7383D02*
X24157D01*
X26685D02*
X26838D01*
Y7537D01*
Y10064D02*
Y10218D01*
X26685D02*
X26838D01*
X24004D02*
X24157D01*
X24004Y10064D02*
Y10218D01*
X43714Y7318D02*
X45288D01*
X43714Y9302D02*
X45288D01*
X47987Y6210D02*
Y10210D01*
X50821D01*
X51215D01*
Y6210D02*
Y10210D01*
X50821Y6210D02*
X51215D01*
X47987D02*
X50821D01*
Y10210D01*
D18*
X30288Y11241D02*
X30298Y11231D01*
X51401Y15510D02*
Y18810D01*
X46651D02*
X52101D01*
X46651Y15510D02*
X52101D01*
X46651D02*
Y18810D01*
X52101Y15510D02*
Y18810D01*
D19*
X26161Y14235D02*
X26078Y14402D01*
X25911Y14568D01*
X25744D01*
X25661Y14485D01*
Y14319D01*
X25744Y14235D01*
X25828D01*
X25911Y14319D01*
Y14568D01*
X25161Y14235D02*
Y14568D01*
X24911D01*
X24994Y14402D01*
Y14319D01*
X24911Y14235D01*
X24744D01*
X24661Y14319D01*
Y14485D01*
X24744Y14568D01*
X25661Y17835D02*
Y18168D01*
X25994Y17835D01*
X26078D01*
X26161Y17919D01*
Y18085D01*
X26078Y18168D01*
X24661Y17968D02*
Y17802D01*
Y17885D01*
X25161D01*
X25078Y17968D01*
D20*
X29340Y6396D02*
D03*
M02*
